<?xml version="1.0" encoding="utf-8"?>
<!-- Generator: Adobe Illustrator 25.0.0, SVG Export Plug-In . SVG Version: 6.00 Build 0)  -->
<svg version="1.1" id="Layer_1" xmlns="http://www.w3.org/2000/svg" xmlns:xlink="http://www.w3.org/1999/xlink" x="0px" y="0px"
	 viewBox="0 0 538.41 551" style="enable-background:new 0 0 538.41 551;" xml:space="preserve">
<style type="text/css">
	.st0{opacity:0.95;fill:#EFEFEF;}
	.st1{fill:#96BFE6;}
	.st2{fill:#3FA4DC;}
	.st3{fill:#F2F2F2;}
	.st4{fill:#385369;}
	.st5{fill:#EEA886;}
	.st6{fill:#434343;}
	.st7{fill:#A77860;}
	.st8{fill:#0E2D3D;}
	.st9{fill:#163342;}
	.st10{fill:#1D3B54;}
	.st11{fill:#285173;}
	.st12{fill:#FFBF55;}
	.st13{fill:#183C59;}
	.st14{fill:#616161;}
	.st15{fill:#E0CEC7;}
	.st16{fill:#EEA987;}
	.st17{fill:#344052;}
	.st18{fill:#EB4747;}
	.st19{fill:#393D63;}
	.st20{fill:#DECBC4;}
	.st21{fill:#E8734D;}
	.st22{fill:#3C4145;}
	.st23{fill:#51565C;}
	.st24{fill:#F5E2D9;}
	.st25{fill:#D44040;}
	.st26{fill:#2D3133;}
	.st27{fill:#292C47;}
	.st28{fill:#FFFFFF;}
	.st29{fill:#424773;}
	.st30{fill:#3A3F47;}
	.st31{fill:#E2D2CA;}
	.st32{fill:#323657;}
	.st33{fill:#AB9546;}
	.st34{opacity:0.95;}
	.st35{fill:url(#SVGID_1_);}
	.st36{fill:url(#SVGID_2_);}
	.st37{fill:url(#SVGID_3_);}
	.st38{fill:url(#SVGID_4_);}
	.st39{fill:url(#SVGID_5_);}
	.st40{fill:url(#SVGID_6_);}
	.st41{fill:url(#SVGID_7_);}
	.st42{fill:url(#SVGID_8_);}
	.st43{fill:url(#SVGID_9_);}
	.st44{fill:url(#SVGID_10_);}
	.st45{fill:url(#SVGID_11_);}
</style>
<g>
	<path class="st0" d="M210.62,252.94h-58.19c-32.4,0-58.67-26.27-58.67-58.67v-58.19c0-32.4,26.27-58.67,58.67-58.67h58.19
		c32.4,0,58.67,26.27,58.67,58.67v58.19C269.29,226.67,243.03,252.94,210.62,252.94z"/>
	<rect x="140.89" y="212.97" class="st1" width="81.27" height="4.01"/>
	<rect x="152.4" y="225.62" class="st1" width="58.25" height="4.01"/>
	<path class="st0" d="M469.29,420.26H367.28c-38.17,0-69.12-30.94-69.12-69.12V207.4c0-38.17,30.94-69.12,69.12-69.12h102.01
		c38.17,0,69.12,30.94,69.12,69.12v143.75C538.41,389.32,507.46,420.26,469.29,420.26z"/>
	<g>
		<rect x="407.1" y="304.63" class="st2" width="19.05" height="3.53"/>
	</g>
	<g>
		<rect x="334.76" y="336.97" class="st1" width="110.87" height="6.83"/>
		<rect x="334.76" y="369.77" class="st1" width="89.66" height="6.83"/>
		<rect x="334.76" y="353.37" class="st1" width="52.56" height="6.83"/>
	</g>
	<g>
		<path class="st2" d="M474.63,166.4v3.45h20.32v19.07h3.45V166.4H474.63z M336.67,188.92h3.45v-19.07h20.32v-3.45h-23.77V188.92z
			 M494.95,287.31v19.07h-20.32v3.45h23.77v-22.53H494.95z M340.12,287.31h-3.45v22.53h23.77v-3.45h-20.32V287.31z"/>
	</g>
	<g>
		<g>
			<path class="st2" d="M487.65,377.11c-11.2,0-20.32-9.12-20.32-20.32c0-11.2,9.12-20.32,20.32-20.32s20.32,9.11,20.32,20.32
				C507.96,367.99,498.85,377.11,487.65,377.11z M487.65,340.4c-9.04,0-16.39,7.35-16.39,16.39c0,9.04,7.35,16.39,16.39,16.39
				c9.04,0,16.39-7.35,16.39-16.39C504.03,347.75,496.68,340.4,487.65,340.4z"/>
		</g>
		<g>
			<polygon class="st2" points="486.35,364.78 477.12,355.55 479.9,352.77 486.35,359.22 495.39,350.18 498.17,352.96 			"/>
		</g>
	</g>
	<path class="st3" d="M499.86,535.57c0,8.52-111.9,15.43-249.93,15.43C111.9,551,0,544.09,0,535.57c0-8.52,111.9-15.43,249.93-15.43
		C387.97,520.14,499.86,527.05,499.86,535.57z"/>
	<rect x="122.37" y="83.97" class="st0" width="118.31" height="101.51"/>
	<g>
		<path class="st4" d="M226.72,145.76c-3.9-10.31-13.26-15.04-17.68-16.52c-1.57-0.52-4.38-1.44-7.35-2.4
			c-5.34-1.72-11.17-3.6-11.17-3.6h-18.41c0,0-6.38,2.14-13.15,4.51c0,0.01-0.01,0.01-0.01,0.01c-6.24,2.19-12.82,4.58-15.03,5.69
			c-4.63,2.31-12.42,18.83-13.99,20.73c-0.81,0.98-4.43,7.41-7.98,14.6h19.84c2.1-3.6,3.71-6.39,3.71-6.39s1.25,2.75,2.78,6.39
			h63.55c1-4.23,1.63-9.55,1.63-9.55s3.4,4.63,7.12,9.55h18.32C234.44,161.31,228.91,151.58,226.72,145.76z"/>
		<g>
			<path class="st5" d="M183.52,72.65c0,0,14.4,2.27,12.21,24.8c-2.19,22.53-14.9,20.68-15.75,20.66
				c-0.85-0.02-12.76,0.41-13.69-27.09C166.29,91.01,165.88,70.67,183.52,72.65z"/>
		</g>
		<g>
			<path class="st5" d="M195.94,91.08c0,0,1.58-1.68,2.15,0.02c0.58,1.7-2.15,9.31-2.25,9.66c0,0-0.29,0.66-0.67,0.3
				C194.81,100.7,195.94,91.08,195.94,91.08z"/>
		</g>
		<g>
			<path class="st5" d="M166.67,90.8c0,0-1.54-1.71-2.16-0.02c-0.61,1.69,1.95,9.35,2.06,9.71c0,0,0.27,0.67,0.66,0.31
				C167.63,100.43,166.67,90.8,166.67,90.8z"/>
		</g>
		<g>
			<path class="st6" d="M195.94,94.54l-2.06,2.76c0,0,0.06-6.04-0.27-6.99c-0.33-0.95-0.84-3.84-1.11-4.52
				c-0.28-0.68-12.36-4.07-23.04,0.99c0,0,0.47,4.34-0.55,4.73c-1.02,0.39-0.52,7.08-0.52,7.08l-1.7-1.91c0,0-2.59-17.33-1.95-19.14
				c0.64-1.81,2.68-12.67,24.59-6.22c0,0,6.83-1.45,8.2,3.27C198.88,79.29,195.94,94.54,195.94,94.54z"/>
		</g>
		<path class="st5" d="M192.31,122.84c-0.01-0.02-1.85-0.91-1.85-0.91c-0.9-2.01-0.23-10.47-0.23-10.47s-18.34-4.67-17.81-1.1
			c0.52,3.57-1.58,11.86-1.58,11.86l-9.41,4.67c0,0,10.02,26.91,21.54,23.44c11.52-3.47,15.87-24.41,15.87-24.41L192.31,122.84z"/>
		<path class="st7" d="M172.69,114.33c0,0,2.95,3.81,8.08,3.81c3.37,0,5.79-0.95,9.16-4.22c0,0-1.46,6.22-9.13,6.8
			C180.79,120.73,175.22,121.43,172.69,114.33z"/>
	</g>
	<g>
		<g>
			<g>
				<g>
					<g>
						<g>
							<path class="st8" d="M119.74,204.7c0,0,10.58,5.18,7.96,19.25c-2.62,14.08-3.77,15.98-0.85,21.48
								c2.93,5.5,6.38,28.97,3.75,33.42c-2.63,4.45-32.6-19.55-36.75-39.68c-4.16-20.13,2.63-29.09,5.03-32.42
								C101.29,203.42,110.4,199.96,119.74,204.7z"/>
						</g>
					</g>
				</g>
			</g>
		</g>
		<g>
			<path class="st9" d="M115.75,531.46h2.4v-11.31c0,0,4.7,3.14,7.66,7.47c2.95,4.33,7.01,3.97,13.19,3.69
				c6.18-0.28,5.9-2.77,5.35-6.27c-0.55-3.5-6.82-4.61-8.85-5.16c-2.03-0.55-6.63-8.49-8.12-10.42c-2.02-2.64-3.09-5.16-3.09-5.16
				s-1.15-4.7-6.87,0c-5.72,4.7-4.06,13.74-3.41,14.57C114.65,519.69,115.75,531.46,115.75,531.46z"/>
		</g>
		<g>
			<path class="st5" d="M127.83,519.87c2.12,1.38,7.65,0,7.65,0c-1.57-2.03-11.21-15.59-11.21-15.59c-5.86-3.41-8.17,1.28-8.17,1.28
				C118.5,506.3,125.71,518.49,127.83,519.87z"/>
		</g>
		<g>
			<g>
				<g>
					<g>
						<path class="st5" d="M189.5,311.24c0,0,3.84,0.74,5.15-1.07c1.12-1.53,3.67-2.71,4.45-3.08c1.05-0.49,3.71-3.18,4.34-1.86
							c0.63,1.32-4.18,4.65-5.04,5.55c-0.87,0.9,4.71,1.3,5.67,2.17c0.96,0.88-0.22,10.08-4.02,9.36c-3.8-0.72-7.38-3.99-8.07-3.98
							c-0.69,0.01-2.78-0.41-2.78-0.41L189.5,311.24z"/>
					</g>
				</g>
			</g>
		</g>
		<g>
			<g>
				<g>
					<g>
						<path class="st5" d="M203.22,312.58c0,0,11.48,2.97,12.08,3.8c0.6,0.84,0.4,1.45-0.68,1.22c-1.08-0.23-11.17-2.54-11.17-2.54
							s13,5.79,13.64,6.37c0.38,0.34,0.06,1.55-0.53,1.48c-0.59-0.07-13.8-5.08-13.8-5.08s12.12,5.43,12.52,6.07
							c0.34,0.56-0.22,1.6-1.15,1.26c-0.93-0.34-12.46-4.74-12.46-4.74s8.58,4.51,8.59,5.25c0.01,0.45-0.21,1.51-2.39,0.28
							c-2.18-1.23-7.62-3.6-7.62-3.6L203.22,312.58z"/>
					</g>
				</g>
			</g>
		</g>
		<g>
			<path class="st9" d="M84.68,532.23h1.48v-8.3c0,0,2.62,2.7,3.82,6.67c1.2,3.97,5.49,5.14,12.04,4.96
				c6.55-0.18,6.64-2.77,6.09-6.64c-0.55-3.87-6.09-5.9-6.09-5.9c-2.49-2.21-8.67-11.39-8.67-11.39s-3.97-1.06-7.08,1.45
				c-3.11,2.51-2.14,8.19-2.05,9.66C84.31,524.2,84.68,532.23,84.68,532.23z"/>
		</g>
		<g>
			<path class="st10" d="M89.2,334.49c0,0-7.8,10.14-9.92,22.18c-2.12,12.04,1.25,52.43,1.16,58.38
				c-0.09,5.95-5.63,20.75-4.52,31.96c1.11,11.21,5.47,66.98,5.47,66.98l11.96-2.37c0,0-0.69-56.86,0-61.56s2.08-21.85,2.36-23.79
				c0.28-1.94,17.56-52.79,17.56-61.47C113.27,356.12,108.02,320.34,89.2,334.49z"/>
		</g>
		<g>
			<path class="st10" d="M128.4,338.46c0,0,12.82,48.93,14.34,55.7c1.52,6.78,3.73,12.37,3.73,15.25c0,6.68-2.48,17.4-2.48,17.4
				l-16.28,77.86h-15.5c0,0,8.64-46.71,8.87-55.84c0.23-9.15,7.28-22.15,5.9-26.03c-1.38-3.87-22.27-48.56-22.27-48.56
				S88.88,324.26,128.4,338.46z"/>
		</g>
		<g>
			<path class="st5" d="M102.02,523.01l-8.67-11.39l-7.08,1.45c0,0,1.9,5.1,5.35,8.93C95.69,526.54,102.02,523.01,102.02,523.01z"/>
		</g>
		<g>
			<g>
				<path class="st11" d="M123.1,255.32c0,0,5.29,0.5,9.28,4.78s7.74,11.1,8.79,13.38c1.05,2.28,15.71,23.43,16.47,23.91
					c0.76,0.48,8.13,2.94,13.01,4.58c7.54,2.54,22.64,8.03,22.64,8.03l-3,9.5c0,0-28.4-9.29-35.52-11.05
					c-8.7-2.14-28.72-27.83-28.72-27.83S111.12,263.11,123.1,255.32z"/>
			</g>
		</g>
		<g>
			<g>
				<path class="st12" d="M113.88,251.61c0,0,6.85,3.23,9.22,3.71c2.38,0.48,11.6,12.46,13.22,16.83c1.62,4.37,0,10.93-3.33,18.64
					c-3.33,7.7-0.19,10.27-1.71,17.97c-1.52,7.7-1.03,36.52-0.75,40.79c0.29,4.28-44.51,10.76-53.35,2.97
					c0,0,5.99-25.97,13.07-33.38c1.53-1.6,1.37-12.28,0.32-14.95c-1.05-2.66-12.84-22.54-12.84-22.54s-0.87-20.16,4.28-24.15
					c4.47-3.47,16.65-4.71,18.84-5.47C103.05,251.27,109.41,250.94,113.88,251.61z"/>
			</g>
		</g>
		<g>
			<g>
				<path class="st5" d="M117.15,243.71c0,0-0.2,1.88-0.44,4.43c-0.09,1.01-0.19,2.12-0.28,3.26c-0.27,3.42-0.49,7.08-0.36,8.96
					c0,0-7.12,7.13-15.2-8.32c0,0,3.4-6.37,0.84-15.05C99.14,228.31,117.15,243.71,117.15,243.71z"/>
			</g>
		</g>
		<g>
			<path class="st13" d="M137.06,293.62c0,0,1.71-11.39-0.11-18.32c0,0,0,5.96-3.27,14.41L137.06,293.62z"/>
		</g>
		<g>
			<path class="st5" d="M95.4,253.13c0,0,4.89,14.45,18.33,13.39c13.44-1.06,6.37-12.2,6.37-12.2s-3.35-1.92-4.29-2.1
				c-0.94-0.18-14.85-0.36-14.85-0.36L95.4,253.13z"/>
		</g>
		<g>
			<path class="st11" d="M120.09,254.32c0,0,7.04,19.47,7.04,39.31c0,19.84,0.57,52.16,3.02,62.36c2.46,10.21,9.45,41.77,9.45,41.77
				l5.48-2.83c0,0-13.18-50.37-14.17-54c-1-3.63,0.76-42.01,1.7-45.22c0.94-3.21,4.96-17.51,4.34-21.48
				c-0.79-5-5.47-12.4-13.03-18.77L120.09,254.32z"/>
		</g>
		<g>
			<path class="st11" d="M98.05,252.52c0,0,4.37,14,6.59,31.94c2.22,17.94-6.8,101.19-12.85,120.09l-23.44-3.78
				c0,0,5.04-58.85,11.89-69.56c6.85-10.71,9.03-20.19,1.63-42.54c-7.39-22.35,3.24-33.42,3.24-33.42S96,252.76,98.05,252.52z"/>
		</g>
		<g>
			<polygon class="st14" points="123.33,311.91 94.92,361.13 63.33,342.89 90.51,292.96 			"/>
		</g>
		<g>
			<polygon class="st15" points="119.91,313.61 94.67,357.32 66.62,341.12 90.76,296.78 			"/>
		</g>
		<g>
			<polygon class="st14" points="110.6,309.68 112.37,306.61 101.03,300.06 98.81,302.88 			"/>
		</g>
		<g>
			<g>
				<g>
					<g>
						<g>
							<g>
								<path class="st5" d="M109.24,344.6c0,0-1.29,0.01-1.86-0.27c0,0-0.99-0.58-1.72-0.94c-0.23-0.12-0.44-0.21-0.58-0.26
									c-0.58-0.2-1.91-0.47-3.17-1.34c-1.26-0.87-5.7-6.02-5.7-6.02l2.1-3.2l1.54-3.27c0,0,9.34,0.6,10.61,1.28
									c0.12,0.07,0.24,0.14,0.35,0.21c1.01,0.68,1.49,1.61,1.98,2.02c0.18,0.15,1.86,1.8,1.81,2.5c-0.08,0.97-0.53,1.62-1.12,1.94
									c0,0-0.24,1.9-1.18,2.79c0,0-0.17,1.76-1.65,2.53C110.65,342.58,110.28,344.35,109.24,344.6z"/>
							</g>
						</g>
					</g>
				</g>
			</g>
		</g>
		<g>
			<g>
				<path class="st11" d="M89.99,255.32c0,0-8.63-2.47-13.57,7.04c-4.94,9.51-4.92,13.57-5.58,18.21
					c-0.62,4.38-3.44,16.35-3.73,17.59c-0.29,1.24-6.66,15.98-3.74,21.13c2.94,5.18,32.81,20.42,32.62,21.56
					c-0.19,1.14,5.17-11.52,5.17-11.52s-12.09-6.74-14.06-8.81c-3.22-3.37-10-7-8.6-11.18c1.64-4.91,6.55-21.47,7.69-23.9
					C87.33,283.01,97.26,258.41,89.99,255.32z"/>
			</g>
		</g>
		<g>
			<g>
				<g>
					<g>
						<g>
							<path class="st16" d="M118.21,206.27c0,0,15.36,4.83,7.02,31.34c-8.34,26.51-29.32-3.07-27.13-19.23
								C100.3,202.23,118.21,206.27,118.21,206.27z"/>
						</g>
					</g>
				</g>
			</g>
		</g>
		<g>
			<g>
				<g>
					<g>
						<g>
							<path class="st8" d="M126.8,221.74c0,0-7.63,7.49-20.41,8.43c0,0-4.91,5.76-5.29,8.02c0,0-11.4-19.43,2.61-31.07
								C117.73,195.46,131.95,216.94,126.8,221.74z"/>
						</g>
					</g>
				</g>
			</g>
		</g>
		<g>
			<g>
				<g>
					<g>
						<g>
							<path class="st16" d="M106.55,230.69c-0.1-1.93-1.29-6.32-4.16-5.09c-2.87,1.23,0.18,10.17,2.08,9.62
								C104.47,235.22,106.78,235.26,106.55,230.69z"/>
						</g>
					</g>
				</g>
			</g>
		</g>
		<g>
			<path class="st7" d="M116.71,248.14c-0.09,1.01-0.19,2.12-0.28,3.26c0,0-6.78-0.4-11.31-10.49
				C105.41,241.35,110.38,248.65,116.71,248.14z"/>
		</g>
	</g>
	<path class="st0" d="M367.27,128.55h-32.5c-26.64,0-48.23-21.59-48.23-48.23V60.63c0-26.64,21.59-48.23,48.23-48.23h32.5
		c26.64,0,48.23,21.6,48.23,48.23v19.68C415.5,106.95,393.9,128.55,367.27,128.55z"/>
	<g>
		<rect x="345.41" y="106.58" class="st2" width="10.23" height="1.89"/>
	</g>
	<g>
		<g>
			<g>
				<g>
					<path class="st17" d="M359.78,2.23c0,0,8.24,4.53,5.62,15.65c-2.62,11.13-3.61,12.6-1.49,17.09c2.13,4.5,3.99,23.34,1.73,26.79
						s-25.25-16.81-27.81-33.02c-2.55-16.21,3.2-23.09,5.23-25.66C345.11,0.51,352.51-1.9,359.78,2.23z"/>
				</g>
			</g>
		</g>
		<g>
			<path class="st5" d="M375.25,94.2h-8.82c-0.43-4.35-0.82-7.38-0.74-7.83c0.13-0.74-8.78-24.11-9.61-26.04
				c-0.84-1.93-4.1-7.11-4.53-11.99c-0.43-4.88,5.93-6.85,5.93-6.85c8.59,1.54,11.5,13.42,11.5,13.42s3.61,24.1,5.43,30.88
				C374.88,87.52,375.14,90.59,375.25,94.2z"/>
		</g>
		<path class="st18" d="M370.81,60.71l-13.14,5.54c0,0-12.08-29.97-1.95-26.62C365.81,42.96,370.35,49.23,370.81,60.71z"/>
		<g>
			<path class="st18" d="M367.89,74.82c-0.38,2.98-1.95,13.52-1.6,16.36c0.06,0.47,0.25,1.55,0.55,3.02h-31.68
				c0.84-3.01,1.61-5.67,2.07-7.22c1.54-5.1,0.07-6.47-0.71-10.55c-0.3-1.6-1.37-4.63-2.53-8.06c-0.39-1.14-0.79-2.34-1.17-3.54
				c-1.39-4.32-2.04-8.74-2.44-11.31c-1.91-12.19,7.46-13.36,7.46-13.36c3.48-0.64,9.57-2.52,9.57-2.52l9.53,1.98
				c0,0,0.91,0.34,2.23,1.32c0,0,0.01,0,0.01,0.01c0.64,0.47,1.37,1.09,2.14,1.88c1.04,1.07,3.12,4.13,5.18,7.49
				c0.63,1.03,1.27,2.09,1.87,3.13c1.94,3.35,3.32,6.06,3.27,9.11C371.6,65.56,368.27,71.84,367.89,74.82z"/>
		</g>
		<path class="st5" d="M356.93,39.62c0,0,5.97,10.2,3.75,10.97c-2.22,0.76-13.92-1.81-18.49-11.46
			C342.19,39.13,349.87,35.64,356.93,39.62z"/>
		<path class="st5" d="M356.07,44.28c0,0-5.3,2.24-10.11-5.14c0,0,1.29-8.39-1.44-13.24c-2.73-4.85,11.93,5.82,11.93,5.82
			s-0.24,1-0.48,2.48c-0.13,0.76-0.26,1.64-0.35,2.57c-0.08,0.78-0.15,1.59-0.17,2.41C355.38,41.05,355.52,42.93,356.07,44.28z"/>
		<path class="st19" d="M342.91,55.71c-1.09,5.62-8.93,12.65-8.93,12.65c-0.39-1.15-0.79-2.34-1.17-3.54
			C338.21,61.38,342.91,55.71,342.91,55.71z"/>
		<g>
			<path class="st5" d="M340.94,60.18c-0.5,2.05-2.78,22.78-2.53,23.48c0.15,0.41,1.25,5.2,2.36,10.53h-10.23
				c-1.05-3.43-1.67-6.29-1.52-7.9c0.65-6.99-1.72-29.28-1.72-29.28s-2.12-13.48,9.07-15.17c0,0,6.61,0.87,7.01,5.75
				C343.78,52.48,341.44,58.14,340.94,60.18z"/>
		</g>
		<path class="st18" d="M326.48,63.05l13.89,3.24c0,0,11.01-21.39,1.09-25.29C331,36.88,323.97,51.38,326.48,63.05z"/>
		<g>
			<g>
				<g>
					<path class="st16" d="M358.49,3.41c0,0,12.07,4.43,4.42,25.25c-7.65,20.82-23.26-3.55-20.9-16.35
						C344.37-0.48,358.49,3.41,358.49,3.41z"/>
				</g>
			</g>
		</g>
		<g>
			<g>
				<g>
					<path class="st17" d="M364.76,16.07c0,0-6.37,5.69-16.59,5.95c0,0-2.39,5.82-2.78,7.61c0,0-10.1-17.34,1.51-26.1
						C358.52-5.22,369.05,12.44,364.76,16.07z"/>
				</g>
			</g>
		</g>
		<g>
			<g>
				<g>
					<path class="st16" d="M349.55,23.27c-0.01-1.54-0.79-5.09-3.12-4.22c-2.33,0.87-0.24,8.12,1.29,7.75
						C347.73,26.81,349.57,26.92,349.55,23.27z"/>
				</g>
			</g>
		</g>
		<path class="st7" d="M355.46,38.81c-5.67-1.57-7.86-6.97-7.93-7.15c4.61,5.96,8.09,5.1,8.09,5.1
			C355.54,37.54,355.53,38.02,355.46,38.81z"/>
	</g>
	<g>
		<path class="st2" d="M381.67,33.42v1.85h10.91v10.24h1.85V33.42H381.67z M307.61,45.51h1.85V35.27h10.91v-1.85h-12.76V45.51z
			 M392.58,98.33v10.24h-10.91v1.85h12.76V98.33H392.58z M309.46,98.33h-1.85v12.09h12.76v-1.85h-10.91V98.33z"/>
	</g>
	<g>
		<rect x="174.7" y="193.36" class="st2" width="13.66" height="2.53"/>
	</g>
	<g>
		<path class="st2" d="M222.47,95.64v2.47h14.57v13.67h2.47V95.64H222.47z M123.54,111.78h2.47V98.11h14.57v-2.47h-17.04V111.78z
			 M237.04,182.33v13.68h-14.57v2.47h17.04v-16.15H237.04z M126.02,182.33h-2.47v16.15h17.04v-2.47h-14.57V182.33z"/>
	</g>
	<g>
		<g>
			<path class="st20" d="M486.71,285.73h-11.56c-0.21-0.46-0.38-0.86-0.52-1.19c-3.43-8.1-21.1-26.66-21.1-26.66s0,0.01,0,0.04
				c0,0-0.01,0.01-0.01,0.02c0,0,0,0.01,0,0.02c-0.01,0.03-0.02,0.05-0.03,0.08c-0.01,0.04-0.02,0.09-0.04,0.15
				c-0.01,0.03-0.02,0.07-0.02,0.1c-0.01,0.03-0.02,0.05-0.03,0.08c-0.72,2.71-4.28,16.18-6.06,27.36h-78.2
				c-0.18-1.04-0.39-2.02-0.63-2.94c-0.71-2.78-1.2-5.52-1.51-8.09c-0.01-0.13-0.03-0.25-0.04-0.38c-0.06-0.47-0.11-0.95-0.15-1.41
				c-0.67-7.02-0.17-12.4-0.13-12.94c-0.22,0.47-1.8,6.27-3.87,13.42c-1.14,3.92-2.42,8.26-3.7,12.34h-18.47l23.17-66.85
				c0.51-0.4,6.53-3.31,10.91-5.4c4.48-2.13,9.88-5.26,14.75-7.94c2.49-1.37,4.85-2.61,6.89-3.54l0.31-0.14v-0.01
				c3.37-1.54,5.61-2.56,5.61-2.56s0,0,0.01,0c0.08-0.01,0.61-0.06,1.46-0.14c4.71-0.45,19.31-1.82,24.2-2.1
				c0.4-0.03,0.74-0.04,1.01-0.05c0.22-0.01,0.39-0.01,0.49,0c0.61,0.04,3.63,1.09,7.58,2.6c0.15,0.05,0.3,0.11,0.45,0.17
				c0.19,0.07,0.37,0.14,0.56,0.21c0.34,0.13,0.69,0.26,1.05,0.4c0.7,0.28,1.44,0.56,2.17,0.85c0.25,0.1,0.51,0.2,0.77,0.3
				c7.92,3.14,16.99,7.03,19.14,8.58c1.43,1.02,5.86,9.37,11,19.71C477.72,247.55,484.49,273.12,486.71,285.73z"/>
		</g>
		<g>
			<path class="st5" d="M429.32,194.73c-0.21,10.51-20.56,16.26-20.56,16.26s-8.51-10.67-6.48-11.69c0.8-0.4,1.12-1.99,1.22-3.78
				c0.09-1.7-0.02-3.58-0.12-4.77c-0.06-0.74-0.12-1.22-0.12-1.22s2.91-3.07,6.61-6.72c6.46-6.39,15.35-14.58,15.37-11.32
				c0,0.17-0.02,0.38-0.08,0.62C423.61,179.43,429.32,194.73,429.32,194.73z"/>
		</g>
		<g>
			<path class="st7" d="M421.49,179.33C421.49,179.33,421.49,179.33,421.49,179.33c-0.04,0.06-0.9,1.35-2.38,3.21
				c-3.12,3.93-9,10.39-15.6,12.98c0.09-1.7-0.02-3.58-0.12-4.77c-0.68-0.02-1.35-0.1-2.02-0.24c1.81-3.16,4.43-6.48,4.43-6.48
				l4.09-1.22L421.49,179.33z"/>
		</g>
		<g>
			<path class="st5" d="M425.39,171.62c-1.76,3.83-3.43,6.61-3.91,7.71c0,0,0,0,0,0c-0.31,0.72-1.15,1.88-2.38,3.21
				c-3.35,3.61-9.59,8.38-15.72,8.21c-0.68-0.02-1.35-0.1-2.02-0.24c-2.47-0.54-5.4-1.69-7-4.84c-12.7-24.86-3.5-45.19-3.5-45.19
				s34.72-9.82,40.15,0.63C434.82,148.44,429.53,162.62,425.39,171.62z"/>
		</g>
		<g>
			<path class="st21" d="M390.86,140.48c0,0-3.22-0.18-4.02-6.29c-0.79-6.04,0.81-7.71,0.81-7.71s14.33-6,19.48-6.78
				c5.15-0.78,17.8-1.53,20.77,1.86c0,0,7.21-1.67,9.17,10.29c3.12,18.98-10.62,37.42-10.62,37.42s0.12-12.4-2.62-14.04
				c-2.74-1.64-5.1,2.26-5.1,2.26l-5.59,1c0,0,8.5-18.35-1.7-19.03C401.25,138.78,396.7,141.54,390.86,140.48z"/>
		</g>
		<g>
			<path class="st5" d="M418.89,152.54c0.53-5.46,10.41-7.55,9.75-1.82c-0.66,5.73-5.53,11.23-7.77,11.03
				C418.62,161.56,418.48,156.7,418.89,152.54z"/>
		</g>
		<g>
			<path class="st22" d="M476.72,230.34c-3.22-10.31-6-18.47-7.24-19.35c-2.16-1.55-19.3-6.27-27.44-9.45
				c-0.26-0.1-0.52-0.2-0.77-0.3c-0.73-0.29-1.47-0.57-2.17-0.85c-0.35-0.14-0.7-0.27-1.05-0.4c-0.19-0.07-0.37-0.14-0.56-0.21
				c-0.15-0.06-0.3-0.12-0.45-0.17c-0.01,0.01-0.02,0.03-0.04,0.04c-0.72,0.81-4.49,5.09-8.98,11.49
				c-8.41,11.95-19.36,31.31-17.68,49.18c0.54,5.73,1.21,13.97,2.32,23.21c0.08,0.73,0.17,1.47,0.27,2.21h37.94
				c0.46-9.68,1.29-22.42,2.53-27.36c0.01-0.03,0.02-0.05,0.03-0.08c0-0.03,0.01-0.07,0.02-0.1c0.01-0.05,0.03-0.1,0.04-0.15
				c0.01-0.03,0.02-0.05,0.03-0.08c0-0.01,0-0.02,0-0.02c0-0.01,0.01-0.02,0.01-0.02s9.18,14.35,9.65,27.81h23.88
				C485.89,273.23,482.24,248.04,476.72,230.34z"/>
		</g>
		<g>
			<path class="st22" d="M396.52,202.12c0,0-2.87,9.53-6.57,33.34c0,0,0,0,0,0.01c-0.13,0.79-0.25,1.61-0.38,2.44
				c-0.01,0.09-0.03,0.19-0.04,0.29c-0.09,0.54-0.17,1.11-0.25,1.67c-0.01,0.07-0.02,0.13-0.03,0.2c-0.06,0.37-0.12,0.75-0.17,1.15
				c-0.14,0.94-0.28,1.9-0.42,2.88c-1.39,9.72-3.24,25.15-5.12,41.63h-15c-0.81-4.58-1.58-8.74-1.52-11.6
				c-0.03,0.06-0.05,0.13-0.07,0.19c-1.2,3.32-2.51,6.93-3.85,10.44c-0.12,0.32-0.24,0.64-0.36,0.97h-25.85l25.75-67.35
				c0.51-0.4,7.14-3.97,11.53-6.05c4.58-2.18,10.36-4.87,15.49-7.23c2.45-1.14,4.76-2.19,6.71-3.09L396.52,202.12z"/>
		</g>
		<g>
			<path class="st23" d="M431.39,225.68l-9.91,5.59l4.23,4.31l-9.29,50.15h-3.5c-1.29-10.14-2.02-19.24-2.59-25.43
				c-2.58-27.64,24.99-58.81,26.7-60.71c1.33,0.5,2.76,1.06,4.23,1.64L431.39,225.68z"/>
		</g>
		<g>
			<path class="st23" d="M396.67,201.86c0,0-3.7,12.08-8.01,42.24c-1.39,9.71-3.25,25.15-5.13,41.63h-1.46l-1.92-47.38l4.72-5.11
				l-4.19-5.24l8.97-22.91c2.45-1.14,4.76-2.19,6.71-3.09L396.67,201.86z"/>
		</g>
		<g>
			<path class="st24" d="M437.53,199.72l-8.21-4.99c0,0-0.23,4.5-20.56,16.26l5.77,16.26L437.53,199.72z"/>
		</g>
		<g>
			<path class="st24" d="M403.36,197c0,0,0.32,4.86,5.41,13.99l-11.27,14.69l-0.82-23.82L403.36,197z"/>
		</g>
		<g>
			<path class="st25" d="M408.79,210.99c0,0,2.18,8.74,1.4,11.18c0,0-4.8,1.75-8.25-0.44C401.94,221.74,404.38,215.62,408.79,210.99
				z"/>
		</g>
		<g>
			<path class="st25" d="M406.15,240.69c-2.3,15.69-2.3,31.56-1.45,45.04h-9.63c-0.13-1.9-0.25-3.88-0.37-5.95
				c-1.79-31.07,9.19-58.83,9.19-58.83l4.9-1.23C408.79,219.72,407.21,233.45,406.15,240.69z"/>
		</g>
		<g>
			<path class="st26" d="M367.33,260.05c-0.37,7.45-0.31,14.07-0.31,14.07s0,0,0,0c0,0.04-0.01,0.24-0.03,0.57
				c-0.02-0.13-0.03-0.25-0.05-0.37c-1.19,3.32-2.51,6.93-3.85,10.44c-0.31-4.07-0.39-7.86-0.3-11.37
				c0.53-20.9,7.11-31.86,7.11-31.86C368.4,245.17,367.68,252.99,367.33,260.05z"/>
		</g>
	</g>
	<g>
		<g>
			<polygon class="st27" points="277.37,285.82 246.62,302.73 215.73,254.13 253.09,241.15 			"/>
		</g>
		<g>
			<polygon class="st28" points="275.42,284.36 246.66,300.17 217.78,254.72 252.71,242.59 			"/>
		</g>
		<g>
			<path class="st5" d="M285.95,275.86c0,0-5.35-2.56-7.7-3.9c-2.35-1.34-8.39-3.18-8.88-3.61c-0.49-0.44-17.92-1.51-18.97-2.42
				c-1.06-0.91-2.08,2.14,2.43,3.13c4.52,0.99,10.8,3.41,11.15,5.17c0.34,1.77-4.64,2.18-5.14,3.64c-0.5,1.45,0.14,1.13,0.86,1.44
				c0.71,0.31,5.93-2.58,8.22-1.76c2.29,0.82,5.8-0.32,7.55,0.29c1.76,0.6,10.3,3.48,10.3,3.48L285.95,275.86z"/>
		</g>
		<g>
			<path class="st5" d="M245.12,296.63c0,0-4.5-4.05-6.67-5.74c-2.18-1.69-6.26-6.67-6.86-6.96c-0.6-0.29-8.4-16.29-9.67-16.93
				c-1.27-0.64,1.2-2.8,3.89,1.07c2.69,3.87,7.42,8.85,9.22,8.49c1.8-0.36,0.25-5.22,1.42-6.26c1.17-1.04,1.12-0.31,1.69,0.25
				c0.57,0.55-0.12,6.59,1.55,8.43c1.66,1.84,1.96,5.59,3.21,7.01c1.25,1.42,7.29,8.35,7.29,8.35L245.12,296.63z"/>
		</g>
		<g>
			<path class="st29" d="M341.96,512.95c0,0,0.97,6.75,1.09,7.77c0.12,1.01,10.82-0.6,10.82-0.6l0.87-8.04
				C354.74,512.08,343.3,511.99,341.96,512.95z"/>
		</g>
		<g>
			<path class="st27" d="M342.94,519.85c0,0-3.39,4.07-6.67,5.84c-3.28,1.77-8.43,2.48-10.37,4.31c-1.4,1.33-5.1,7.03,8.52,6.91
				c13.62-0.12,20.18,0.81,21.64-1.38c1.46-2.19-2.11-16.14-2.11-16.14S350.73,520.56,342.94,519.85z"/>
		</g>
		<g>
			<path class="st29" d="M265.3,512.95c0,0,0.97,6.75,1.09,7.77c0.12,1.01,10.82-0.6,10.82-0.6l0.87-8.04
				C278.08,512.08,266.64,511.99,265.3,512.95z"/>
		</g>
		<g>
			<path class="st27" d="M266.28,519.85c0,0-3.39,4.07-6.67,5.84c-3.28,1.77-15.34,3.23-17.28,5.07c-1.4,1.33-3.73,6.66,15.43,6.16
				c13.61-0.35,20.18,0.81,21.64-1.38c1.46-2.19-2.11-16.14-2.11-16.14S274.25,520.64,266.28,519.85z"/>
		</g>
		<g>
			<path class="st27" d="M333.1,339.46c0,0,10.05,15.97,9.3,30.41c-0.75,14.44,3.65,30.2,5.16,45.28
				c1.68,16.81,8.57,56.62,8.82,65.61c0.25,8.99-1.07,37.71-1.07,37.71l-13.79,0.32c0,0-11.58-69.59-14.58-76.69
				c-3-7.1-17.88-57.72-18.38-63.4C308.06,373.02,333.1,339.46,333.1,339.46z"/>
		</g>
		<g>
			<path class="st27" d="M280.18,341.62c0,0-7.58,39.57-8.58,48.41c-1,8.84-1.67,42.76-2.17,48.29c-0.5,5.52-3.33,72.27-6,80.48
				h17.63c0,0,13.54-48.52,13.54-71.48c0-22.96,10.46-49.91,17.21-65.06c6.75-15.15,22.2-15.51,26.35-43.61
				C338.16,338.64,285.8,332.71,280.18,341.62z"/>
		</g>
		<g>
			<path class="st5" d="M316.32,205.17c0,0-13.49-5.04-19.72,5.23c-6.22,10.27-5.62,30.84,1.18,33.36c6.8,2.53,17.02,1.21,20.5-5.22
				c3.48-6.43,6.63-15.72,6.48-21.93C324.61,210.41,319.87,206.97,316.32,205.17z"/>
		</g>
		<g>
			<path class="st5" d="M299.25,244.24c0,0,0.56,3.64-0.37,5.44c-0.93,1.79,17.48,1.84,17.48,1.84s1.49-9.76,4.33-18.01
				C323.53,225.26,299.25,244.24,299.25,244.24z"/>
		</g>
		<g>
			<path class="st30" d="M320.7,233.51c0,0-1.27,2.1-6.46,1.28c-5.19-0.81-11.51-7.71-13.68-8.47c-2.17-0.76-2.19-2.03-2.19-2.03
				l-1.36,1.98l-2.3,0.15c0,0,2.1-6.17-1.07-8.69c-3.16-2.52,3.28-19.98,19.92-14.17c0,0,12.78,3.52,12.31,10.79
				C325.42,221.61,323.56,229.89,320.7,233.51z"/>
		</g>
		<g>
			<path class="st31" d="M297.79,249.46c0,0,0.06-3.43,1.61-3.76c1.55-0.33,17.16-1.83,19.06-1.08v3.99
				C318.47,248.62,314.79,250.88,297.79,249.46z"/>
		</g>
		<g>
			<path class="st5" d="M298.72,221.65c0.29-1.22,3.39-4.7,4.58-0.97s-1.79,8.74-3.45,8.32
				C298.18,228.56,297.98,224.74,298.72,221.65z"/>
		</g>
		<g>
			<path class="st32" d="M235.88,289.97c0.01,0,0.02,0,0.03,0C235.79,290.02,235.78,290.02,235.88,289.97z"/>
		</g>
		<g>
			<path class="st2" d="M344.44,377.51c0,0-8.28,2.44-22.39,3.99c-14.11,1.56-49.37-0.56-49.59-2.23
				c-0.22-1.67,7.58-62.08,7.14-65.19c-0.44-3.11-0.68-14.2-0.68-14.2c-0.17,3.04-3.27,15.44-7,22.21
				c-1.35,2.44-5.88,10.1-8.06,8.36c-10.56-8.43-26.92-40.21-27.96-40.48c0.87-0.38,7.75-3.55,8.72-3.87
				c0.85-0.28,8.47,7.79,13.08,12.79c2.06,2.23,3.52,3.85,3.52,3.85c1.33-3,6.19-21.9,7.7-28.44c3.4-14.75,2.88-15.36,2.88-15.36
				c10.32-3.12,25.99-9.48,25.99-9.48l20.68-0.84c0,0,18.98,4.18,26.45,7.55c0.71,0.32,0.71,16.93,2.66,21.28l-6.2,13.07
				c0,0-3.58,25.89-4.32,37.41C336.72,333.22,344.44,377.51,344.44,377.51z"/>
		</g>
		<g>
			<path class="st2" d="M348.44,299.02c-0.54,1.74-2.99,3.22-4.58,3.86c-1.02,0.41-2.16,0.55-3.31,0.33l-0.81-0.15v0l-14.17-2.63
				c0,0-3.1-35.71,19.36-44.26C345.51,256.37,353.4,283.03,348.44,299.02z"/>
		</g>
		<g>
			<path class="st33" d="M343.85,302.88L343.85,302.88c-1.02,0.41-2.16,0.55-3.31,0.33l-0.81-0.15v0l1.4-18.25L343.85,302.88z"/>
		</g>
		<g>
			<path class="st33" d="M261.22,302.74l-1.73,7.33c0,0-1.88-7.36-1.79-11.18C259.76,301.12,261.22,302.74,261.22,302.74z"/>
		</g>
		<g>
			<path class="st30" d="M320.17,206.38c0,0,17.68-2.21,0.3,27.32L320.17,206.38z"/>
		</g>
		<g>
			<polygon class="st27" points="229.95,251.52 228.15,248.43 242.31,243.54 244.11,246.62 			"/>
		</g>
	</g>
	<g class="st34">
		<linearGradient id="SVGID_1_" gradientUnits="userSpaceOnUse" x1="496.9374" y1="115.9873" x2="510.0385" y2="115.9873">
			<stop  offset="0" style="stop-color:#D1D7E0"/>
			<stop  offset="1" style="stop-color:#EBEBFF"/>
		</linearGradient>
		<polygon class="st35" points="500.01,119.17 510.04,119.17 506.97,112.8 496.94,112.8 		"/>
		<linearGradient id="SVGID_2_" gradientUnits="userSpaceOnUse" x1="492.2436" y1="115.9873" x2="497.704" y2="115.9873">
			<stop  offset="0" style="stop-color:#D1D7E0"/>
			<stop  offset="1" style="stop-color:#EBEBFF"/>
		</linearGradient>
		<polygon class="st36" points="495.31,119.17 497.7,119.17 494.63,112.8 492.24,112.8 		"/>
		<linearGradient id="SVGID_3_" gradientUnits="userSpaceOnUse" x1="459.3095" y1="109.9952" x2="501.275" y2="109.9952">
			<stop  offset="0" style="stop-color:#D1D7E0"/>
			<stop  offset="1" style="stop-color:#EBEBFF"/>
		</linearGradient>
		<polygon class="st37" points="460.66,111.59 501.27,111.59 499.93,108.4 459.31,108.4 		"/>
	</g>
	<g>
		<g>
			<linearGradient id="SVGID_4_" gradientUnits="userSpaceOnUse" x1="226.2494" y1="7.4631" x2="243.4613" y2="7.4631">
				<stop  offset="0" style="stop-color:#D1D7E0"/>
				<stop  offset="1" style="stop-color:#EBEBFF"/>
			</linearGradient>
			<path class="st38" d="M242.52,10.06h-15.34c-0.52,0-0.94-0.42-0.94-0.94V5.81c0-0.52,0.42-0.94,0.94-0.94h15.34
				c0.52,0,0.94,0.42,0.94,0.94v3.31C243.46,9.64,243.04,10.06,242.52,10.06z"/>
		</g>
		<g>
			<linearGradient id="SVGID_5_" gradientUnits="userSpaceOnUse" x1="226.2494" y1="19.9013" x2="243.4613" y2="19.9013">
				<stop  offset="0" style="stop-color:#D1D7E0"/>
				<stop  offset="1" style="stop-color:#EBEBFF"/>
			</linearGradient>
			<path class="st39" d="M242.52,22.49h-15.34c-0.52,0-0.94-0.42-0.94-0.94v-3.31c0-0.52,0.42-0.94,0.94-0.94h15.34
				c0.52,0,0.94,0.42,0.94,0.94v3.31C243.46,22.07,243.04,22.49,242.52,22.49z"/>
		</g>
		<g>
			<linearGradient id="SVGID_6_" gradientUnits="userSpaceOnUse" x1="226.2494" y1="32.3396" x2="243.4613" y2="32.3396">
				<stop  offset="0" style="stop-color:#D1D7E0"/>
				<stop  offset="1" style="stop-color:#EBEBFF"/>
			</linearGradient>
			<path class="st40" d="M242.52,34.93h-15.34c-0.52,0-0.94-0.42-0.94-0.94v-3.31c0-0.52,0.42-0.94,0.94-0.94h15.34
				c0.52,0,0.94,0.42,0.94,0.94V34C243.46,34.51,243.04,34.93,242.52,34.93z"/>
		</g>
		<g>
			<linearGradient id="SVGID_7_" gradientUnits="userSpaceOnUse" x1="250.5681" y1="7.4631" x2="255.4653" y2="7.4631">
				<stop  offset="0" style="stop-color:#D1D7E0"/>
				<stop  offset="1" style="stop-color:#EBEBFF"/>
			</linearGradient>
			<path class="st41" d="M254.53,10.06h-3.02c-0.52,0-0.94-0.42-0.94-0.94V5.81c0-0.52,0.42-0.94,0.94-0.94h3.02
				c0.52,0,0.94,0.42,0.94,0.94v3.31C255.47,9.64,255.05,10.06,254.53,10.06z"/>
		</g>
		<g>
			<linearGradient id="SVGID_8_" gradientUnits="userSpaceOnUse" x1="250.5681" y1="19.9013" x2="255.4653" y2="19.9013">
				<stop  offset="0" style="stop-color:#D1D7E0"/>
				<stop  offset="1" style="stop-color:#EBEBFF"/>
			</linearGradient>
			<path class="st42" d="M254.53,22.49h-3.02c-0.52,0-0.94-0.42-0.94-0.94v-3.31c0-0.52,0.42-0.94,0.94-0.94h3.02
				c0.52,0,0.94,0.42,0.94,0.94v3.31C255.47,22.07,255.05,22.49,254.53,22.49z"/>
		</g>
		<g>
			<linearGradient id="SVGID_9_" gradientUnits="userSpaceOnUse" x1="250.5681" y1="32.3396" x2="255.4653" y2="32.3396">
				<stop  offset="0" style="stop-color:#D1D7E0"/>
				<stop  offset="1" style="stop-color:#EBEBFF"/>
			</linearGradient>
			<path class="st43" d="M254.53,34.93h-3.02c-0.52,0-0.94-0.42-0.94-0.94v-3.31c0-0.52,0.42-0.94,0.94-0.94h3.02
				c0.52,0,0.94,0.42,0.94,0.94V34C255.47,34.51,255.05,34.93,254.53,34.93z"/>
		</g>
	</g>
	<g>
		<linearGradient id="SVGID_10_" gradientUnits="userSpaceOnUse" x1="182.3782" y1="284.4655" x2="205.8949" y2="284.4655">
			<stop  offset="0" style="stop-color:#D1D7E0"/>
			<stop  offset="1" style="stop-color:#EBEBFF"/>
		</linearGradient>
		<polygon class="st44" points="187.89,290.18 205.89,290.18 200.38,278.75 182.38,278.75 		"/>
		<linearGradient id="SVGID_11_" gradientUnits="userSpaceOnUse" x1="173.953" y1="284.4655" x2="183.7545" y2="284.4655">
			<stop  offset="0" style="stop-color:#D1D7E0"/>
			<stop  offset="1" style="stop-color:#EBEBFF"/>
		</linearGradient>
		<polygon class="st45" points="179.46,290.18 183.75,290.18 178.24,278.75 173.95,278.75 		"/>
	</g>
</g>
</svg>
