<?xml version="1.0" encoding="utf-8"?>
<!-- Generator: Adobe Illustrator 25.0.0, SVG Export Plug-In . SVG Version: 6.00 Build 0)  -->
<svg version="1.1" id="Layer_1" xmlns="http://www.w3.org/2000/svg" xmlns:xlink="http://www.w3.org/1999/xlink" x="0px" y="0px"
	 viewBox="0 0 750 437.85" style="enable-background:new 0 0 750 437.85;" xml:space="preserve">
<style type="text/css">
	.st0{fill:#EBF3FA;}
	.st1{fill:#C8DBF4;}
	.st2{fill:#D4E4F8;}
	.st3{fill:#9FC1F4;}
	.st4{fill:#455A64;}
	.st5{fill:#8CB4F4;}
	.st6{fill:#3C4E54;}
	.st7{fill:#9ABFE2;}
	.st8{fill:#BAD4F4;}
	.st9{fill:#DFEBFD;}
	.st10{fill:#B7D3F3;}
	.st11{fill:#C0D8FB;}
	.st12{fill:#233862;}
	.st13{fill:#FFB27D;}
	.st14{fill:#0F2549;}
	.st15{fill:#171E21;}
	.st16{fill:#263238;}
	.st17{fill:#ED975D;}
	.st18{fill:#FFFFFF;}
	.st19{fill:#EBF3FF;}
	.st20{fill:#BFBFBF;}
	.st21{fill:#E0E0E0;}
	.st22{fill:#182D4F;}
	.st23{fill:#3187AD;}
	.st24{fill:#1B3051;}
	.st25{fill:#2B478B;}
	.st26{fill:#C78976;}
	.st27{fill:#925B4C;}
	.st28{fill:#3FA4DC;}
</style>
<g>
	<path class="st0" d="M59.15,436.94c0,0-91.59-110.33-46.83-223.92c29.18-74.04,138.63-114.61,200.39-74.04
		c26.31,17.28,110.71,0.58,155.78-70.95C456.07-70.98,761.7,13.44,706.06,226.88c-26.93,103.29,81.95,107.04,26.47,210.28
		L59.15,436.94z"/>
	<g>
		<g>
			<path class="st1" d="M126.95,255.36c0,0-9.24-10.78-0.57-17.62c0,0,6.33-3.83,11.49-3.52c0,0-7.32,12.27-4.95,13.49
				c2.37,1.22,7.17-14.26,7.17-14.26s14.41-1.4,19.04,0.83c0,0-12.32,10.08-9.72,10.68c2.59,0.6,15.9-9.29,15.9-9.29
				s13.41,2.28,12.69,10.46c-0.72,8.18-5.34,10.71-7.37,10.49c-2.03-0.22-13.91-4.75-14.17-3.09c-0.26,1.66,6.89,7.1,11.9,7.36
				c0,0-9.45,10.43-15.74,7.42c-6.28-3.01-6.82-7.78-10.74-9.57c-3.92-1.79-7.26-1.78-5.64,0.04c1.62,1.82,8.71,3.6,10.95,7.56
				c2.24,3.96,4.25,6.63-2.25,5.66s-17.07-5.73-17.53-11.18C126.95,255.36,126.95,255.36,126.95,255.36z"/>
			<g>
				<path class="st1" d="M171.41,246.34c0,0-36.42-1.4-44.46,9.01c0,0-1.78,5.33-7.25,10.18l-0.85,2.33c0,0,6.31-6.65,8.57-7.06
					C127.41,260.8,123.88,247.9,171.41,246.34z"/>
				<path class="st1" d="M119.7,265.53c0,0-7.82,5.78-8.36,16.11l1.42,0.13c0,0,2.5-10.68,7.01-14.86S119.7,265.53,119.7,265.53z"/>
			</g>
		</g>
		<g>
			<path class="st1" d="M94.65,241.8c0,0,14.69-8.23,7.84-19.4c0,0-5.49-6.86-11.36-8.62c0,0,3.13,16.65,0,17.05
				c-3.13,0.39-2.16-18.81-2.16-18.81s-15.48-7.45-21.55-6.86c0,0,9.6,16.26,6.47,15.87c-3.13-0.39-13.91-16.85-13.91-16.85
				s-15.87-2.94-18.42,6.47c-2.55,9.4,1.57,14.11,3.92,14.69c2.35,0.59,17.44,0.39,17.05,2.35c-0.39,1.96-10.58,5.09-16.26,3.33
				c0,0,6.27,15.48,14.5,14.69c8.23-0.78,10.78-5.88,15.87-6.27c5.09-0.39,8.82,0.98,6.27,2.35c-2.55,1.37-11.17,0.45-15.28,3.95
				c-4.11,3.5-7.45,5.65,0.2,7.22c7.64,1.57,21.36,0.59,24.1-5.29C94.65,241.8,94.65,241.8,94.65,241.8z"/>
			<g>
				<path class="st1" d="M48.81,213.59c0,0,41.14,13.32,45.85,28.21c0,0-0.2,6.66,3.92,14.3v2.94c0,0-4.31-9.99-6.66-11.36
					C91.91,247.68,101.12,234.75,48.81,213.59z"/>
				<path class="st1" d="M98.57,256.1c0,0,6.35,9.64,2.73,21.36l-1.63-0.44c0,0,1.58-12.92-1.74-19.42
					C94.61,251.12,98.57,256.1,98.57,256.1z"/>
			</g>
		</g>
		<g>
			<path class="st2" d="M118.03,230.45c0,0-19.37-10.85-10.33-25.57c0,0,7.23-9.04,14.98-11.36c0,0-4.13,21.95,0,22.47
				c4.13,0.52,2.84-24.79,2.84-24.79s20.4-9.81,28.41-9.04c0,0-12.66,21.44-8.52,20.92c4.13-0.52,18.34-22.21,18.34-22.21
				s20.92-3.87,24.28,8.52c3.36,12.4-2.07,18.6-5.17,19.37c-3.1,0.77-22.99,0.52-22.47,3.1c0.52,2.58,13.95,6.71,21.44,4.39
				c0,0-8.26,20.4-19.11,19.37c-10.85-1.03-14.2-7.75-20.92-8.26c-6.71-0.52-11.62,1.29-8.26,3.1c3.36,1.81,14.72,0.59,20.14,5.2
				c5.42,4.61,9.81,7.45-0.26,9.52c-10.07,2.07-28.15,0.77-31.77-6.97C118.03,230.45,118.03,230.45,118.03,230.45z"/>
			<g>
				<path class="st2" d="M178.46,193.26c0,0-54.24,17.56-60.43,37.19c0,0,0.26,8.78-5.17,18.85v3.87c0,0,5.68-13.17,8.78-14.98
					C121.65,238.2,109.51,221.16,178.46,193.26z"/>
				<path class="st2" d="M112.86,249.31c0,0-8.36,12.7-3.6,28.16l2.15-0.58c0,0-2.09-17.03,2.29-25.59
					C118.08,242.73,112.86,249.31,112.86,249.31z"/>
			</g>
		</g>
		<path class="st2" d="M117.38,311c20.96,0,37.94-16.99,37.94-37.94H79.43C79.43,294.01,96.42,311,117.38,311z"/>
		<path class="st2" d="M155.84,312.93H78.91v-0.28c0-2.43,1.97-4.4,4.4-4.4h68.12c2.43,0,4.4,1.97,4.4,4.4V312.93z"/>
		<rect x="78.19" y="273.05" class="st3" width="78" height="1.16"/>
	</g>
	<g>
		<g>
			<path class="st4" d="M313.16,436.15l0.19,0c1.53-0.03,2.72-1.28,2.57-2.72l-10.23-102.14l-8.92,0.8l14.69,102.69
				C311.57,435.57,312.3,436.17,313.16,436.15z"/>
		</g>
		<g>
			<path class="st4" d="M214.68,436.15l-0.19,0c-1.53-0.03-2.72-1.28-2.57-2.72l10.23-102.14l8.92,0.8l-14.69,102.69
				C216.27,435.57,215.54,436.17,214.68,436.15z"/>
		</g>
		<g>
			<path class="st5" d="M385.32,436.15l0.19,0c1.53-0.03,2.72-1.28,2.57-2.72l-10.23-102.14l-8.92,0.8l14.69,102.69
				C383.72,435.57,384.46,436.17,385.32,436.15z"/>
		</g>
		<path class="st4" d="M217.73,316.42l-18.15-89.65c-2.33-12.14,7.73-23.24,20.79-22.94l35.01,0.8
			c12.08,0.28,22.58,8.36,25.94,19.97l26.56,91.83H217.73z"/>
		<path class="st6" d="M228.71,316.42l-18.15-89.65c-2.33-12.14,7.73-23.24,20.79-22.94l35.01,0.8
			c12.08,0.28,22.58,8.36,25.94,19.97l26.56,91.83H228.71z"/>
		<path class="st4" d="M225.42,332.78h133.26c4.23,0,7.69-3.46,7.69-7.69v-0.97c0-4.23-3.46-7.69-7.69-7.69H217.73v8.66
			C217.73,329.31,221.19,332.78,225.42,332.78z"/>
		<path class="st4" d="M291.41,332.78h81.08c4.23,0,7.69-3.46,7.69-7.69v-0.97c0-4.23-3.46-7.69-7.69-7.69h-81.08
			c-4.23,0-7.69,3.46-7.69,7.69v0.97C283.71,329.31,287.18,332.78,291.41,332.78z"/>
	</g>
	<g>
		<path class="st7" d="M176.39,315.26v3.06c0,1.07-0.35,1.95-0.77,1.95H64.01c-0.42,0-0.77-0.87-0.77-1.95v-3.06
			c0-1.07,0.35-1.95,0.77-1.95h111.62C176.05,313.31,176.39,314.19,176.39,315.26z"/>
		<path class="st8" d="M176.39,315.26v3.06c0,1.07-0.32,1.95-0.71,1.95H87.08c-0.39,0-0.71-0.87-0.71-1.95v-3.06
			c0-1.07,0.32-1.95,0.71-1.95h88.61C176.08,313.31,176.39,314.19,176.39,315.26z"/>
		<rect x="68.9" y="320.26" class="st1" width="79.24" height="115.5"/>
		<rect x="91.11" y="320.26" class="st9" width="79.24" height="115.5"/>
		<g>
			<g>
				<path class="st10" d="M166.09,429.38H95.37V323.52h70.72V429.38z M96.13,428.62h69.2V324.29h-69.2V428.62z"/>
			</g>
			<g>
				<rect x="95.75" y="358.54" class="st10" width="69.96" height="0.76"/>
			</g>
			<g>
				<rect x="95.75" y="394.24" class="st10" width="69.96" height="0.76"/>
			</g>
			<path class="st10" d="M137.9,330.35h-12.98c-0.63,0-1.15-0.52-1.15-1.15l0,0c0-0.63,0.52-1.15,1.15-1.15h12.98
				c0.63,0,1.15,0.52,1.15,1.15l0,0C139.04,329.84,138.53,330.35,137.9,330.35z"/>
			<path class="st10" d="M137.9,365.26h-12.98c-0.63,0-1.15-0.52-1.15-1.15l0,0c0-0.63,0.52-1.15,1.15-1.15h12.98
				c0.63,0,1.15,0.52,1.15,1.15l0,0C139.04,364.75,138.53,365.26,137.9,365.26z"/>
			<path class="st10" d="M137.9,401.66h-12.98c-0.63,0-1.15-0.52-1.15-1.15l0,0c0-0.63,0.52-1.15,1.15-1.15h12.98
				c0.63,0,1.15,0.52,1.15,1.15l0,0C139.04,401.14,138.53,401.66,137.9,401.66z"/>
		</g>
	</g>
	<g>
		<path class="st11" d="M476.27,112.6h-27.82c-8.47,0-15.39-6.93-15.39-15.39V71.13c0-8.47,6.93-15.39,15.39-15.39h27.82
			c8.47,0,15.39,6.93,15.39,15.39V97.2C491.66,105.67,484.73,112.6,476.27,112.6z"/>
		<path class="st9" d="M475.06,110.13h-25.41c-7.73,0-14.06-6.33-14.06-14.06V72.26c0-7.73,6.33-14.06,14.06-14.06h25.41
			c7.73,0,14.06,6.33,14.06,14.06v23.82C489.12,103.81,482.8,110.13,475.06,110.13z"/>
		<g>
			<g>
				<circle class="st10" cx="462.36" cy="63.39" r="1.21"/>
				<path class="st10" d="M470.94,65.1c0.33-0.59,1.06-0.8,1.65-0.47c0.59,0.33,0.8,1.06,0.47,1.65c-0.33,0.59-1.06,0.8-1.65,0.47
					C470.82,66.43,470.61,65.69,470.94,65.1z"/>
				<path class="st10" d="M479.33,71.77c0.56-0.36,1.31-0.2,1.68,0.36c0.36,0.56,0.2,1.31-0.36,1.68c-0.56,0.36-1.31,0.2-1.68-0.36
					C478.61,72.89,478.77,72.13,479.33,71.77z"/>
				<path class="st10" d="M483.49,82.09c0.67,0,1.21,0.54,1.21,1.21c0,0.67-0.54,1.21-1.21,1.21c-0.67,0-1.21-0.54-1.21-1.21
					C482.28,82.64,482.82,82.09,483.49,82.09z"/>
				<path class="st10" d="M481.37,94.07c0.47,0.47,0.47,1.24,0,1.72c-0.47,0.47-1.24,0.47-1.72,0c-0.47-0.47-0.47-1.24,0-1.72
					C480.12,93.59,480.89,93.59,481.37,94.07z"/>
				<path class="st10" d="M473.74,101.71c0.47,0.47,0.47,1.24,0,1.72c-0.47,0.47-1.24,0.47-1.72,0c-0.47-0.47-0.47-1.24,0-1.72
					C472.5,101.24,473.27,101.24,473.74,101.71z"/>
				<path class="st10" d="M461.14,105.65c0-0.67,0.54-1.21,1.21-1.21c0.67,0,1.21,0.54,1.21,1.21c0,0.67-0.54,1.21-1.21,1.21
					C461.69,106.87,461.14,106.32,461.14,105.65z"/>
			</g>
			<g>
				<path class="st10" d="M453.73,65.1c-0.33-0.59-1.06-0.8-1.65-0.47c-0.59,0.33-0.8,1.06-0.47,1.65c0.33,0.59,1.07,0.8,1.65,0.47
					C453.85,66.43,454.06,65.69,453.73,65.1z"/>
				<path class="st10" d="M445.34,71.77c-0.56-0.36-1.32-0.2-1.68,0.36c-0.36,0.56-0.2,1.31,0.36,1.68c0.56,0.36,1.32,0.2,1.68-0.36
					C446.07,72.89,445.91,72.13,445.34,71.77z"/>
				<path class="st10" d="M441.18,82.09c-0.67,0-1.21,0.54-1.21,1.21c0,0.67,0.54,1.21,1.21,1.21c0.67,0,1.21-0.54,1.21-1.21
					C442.4,82.64,441.85,82.09,441.18,82.09z"/>
				<path class="st10" d="M443.31,94.07c-0.47,0.47-0.47,1.24,0,1.72c0.47,0.47,1.24,0.47,1.72,0c0.47-0.47,0.47-1.24,0-1.72
					C444.55,93.59,443.78,93.59,443.31,94.07z"/>
				<circle class="st10" cx="451.79" cy="102.57" r="1.21"/>
			</g>
		</g>
		<g>
			<path class="st10" d="M462.03,83.31c0-0.67,0.54-1.21,1.21-1.21c0.67,0,1.21,0.54,1.21,1.21c0,0.67-0.54,1.21-1.21,1.21
				C462.57,84.52,462.03,83.98,462.03,83.31z"/>
			<g>
				<rect x="463.08" y="68.14" class="st10" width="0.33" height="15.17"/>
			</g>
			<g>
				
					<rect x="462" y="79.63" transform="matrix(0.7866 -0.6175 0.6175 0.7866 50.208 305.5276)" class="st10" width="10.22" height="0.99"/>
			</g>
		</g>
	</g>
	<g>
		<g>
			<path class="st12" d="M338.4,297.66c-7.49,13.04-16.92,18.08-16.92,18.08h-39.21C282.27,315.74,344.12,287.71,338.4,297.66z"/>
			<g>
				<path class="st13" d="M386.77,427.24c-0.42,4.11,5.3,5.18,11.94,5.58c6.64,0.4,4.62,1.74,13.7,3.49
					c9.08,1.75,12.76-0.71,13.43-1.93c0.6-1.08-3.61-2.84-8.1-4.81c-0.57-0.25-1.13-0.5-1.7-0.76c-5.05-2.29-7.85-6.87-11.76-11.13
					c-3.7-4.04-7.13-16.87-7.13-16.87l-12.34-2.77c0,0,3.35,11.55,4.5,16.48c0.68,2.9-0.4,6.12-1.36,8.57
					C387.43,424.43,386.91,425.79,386.77,427.24z"/>
				<path class="st14" d="M398.7,432.82c6.64,0.4,4.62,1.74,13.7,3.49c9.08,1.75,12.76-0.71,13.43-1.93c0.6-1.08-3.61-2.84-8.1-4.81
					l-0.07,0.08c0,0-6.42,2.1-13.79,0.02c-6-1.7-11.78-5.36-15.92-6.57c-0.51,1.33-1.03,2.7-1.18,4.15
					C386.34,431.36,392.06,432.42,398.7,432.82z"/>
				<path class="st15" d="M368.07,284.3c-6.64-4.66-50.55-12.97-72.97-15.38l-24.77-21.5c0,0-21.08,31.23-21.25,55.12
					c-0.08,11.14,5.05,12.25,5.05,12.25c0,0,79.41,0.59,82.89,0.95c5.7,0.59,13.21,14.78,15.09,27.71
					c1.88,12.93,34.99,65.51,34.99,65.51s6.91,2.21,10.1,2.03c3.43-0.2,5.02-1.35,5.02-1.35S383.04,294.82,368.07,284.3z"/>
				<path class="st13" d="M366.23,427.24c-0.42,4.11,5.3,5.18,11.94,5.58c6.64,0.4,4.62,1.74,13.7,3.49
					c9.08,1.75,12.76-0.71,13.43-1.93c0.6-1.08-3.61-2.84-8.1-4.81c-0.56-0.25-1.13-0.5-1.7-0.76c-5.05-2.29-7.85-6.87-11.76-11.13
					c-3.7-4.04-7.13-16.87-7.13-16.87l-12.34-2.77c0,0,3.35,11.55,4.5,16.48c0.68,2.9-0.4,6.12-1.36,8.57
					C366.89,424.43,366.37,425.79,366.23,427.24z"/>
				<path class="st12" d="M378.16,432.82c6.64,0.4,4.62,1.74,13.7,3.49c9.08,1.75,12.76-0.71,13.43-1.93
					c0.6-1.08-3.61-2.84-8.1-4.81l-0.07,0.08c0,0-6.42,2.1-13.79,0.02c-6-1.7-11.78-5.36-15.92-6.57c-0.51,1.33-1.03,2.7-1.18,4.15
					C365.8,431.36,371.52,432.42,378.16,432.82z"/>
				<path class="st16" d="M347.35,284.3c-5.77-4.05-23.11-7.19-42.26-9.52c-5.29-0.64-9.64-4.49-10.93-9.67l0,0l-44.54-17.69
					c0,0-21.08,31.23-21.25,55.12c-0.08,11.14,5.05,12.25,5.05,12.25c0,0,79.41,0.59,82.89,0.95c5.7,0.59,13.21,14.78,15.09,27.71
					c1.88,12.93,34.99,65.51,34.99,65.51s6.91,2.21,10.1,2.03c3.43-0.2,5.02-1.35,5.02-1.35S362.32,294.82,347.35,284.3z"/>
				<path class="st16" d="M287.75,117.67c-6.12-3.21-15.43-3.65-16.95-3.85c-18.1-2.43-29,23.88-29.64,31.85
					c-1.18,14.69-8.95,16.93-19.89,26.14c-21.94,18.45-15.5,39.89-3.51,47.86c7.2,4.78,19.88,0,19.88,0
					c0.18,0.13,34.69-19.29,51.71-28.66C314.86,187.37,303.35,125.86,287.75,117.67z"/>
				<path class="st13" d="M283.98,181.95c0.08,0.04-8.04,3.74-13.91,1.8c-5.52-1.82-10.38-10.12-10.3-10.14
					c2.39-0.35,4.83-2.71,5.51-16.71l1.06,0.27l17.83,4.51c0,0-0.71,5.65-1,10.99C282.92,177.15,282.97,181.41,283.98,181.95z"/>
				<path class="st17" d="M284.17,161.67c0,0,0,1.16-0.67,6.42c-10.08-2.54-14.53-5.89-17.66-9.71L284.17,161.67z"/>
				<path class="st13" d="M287.97,162.38c0,0-23.58,3.84-25.74-10.88c-2.16-14.72-6.67-24.14,8.3-27.21
					c14.96-3.07,18.72,2.11,20.64,6.85C293.08,135.88,294.05,161.01,287.97,162.38z"/>
				<path class="st16" d="M287.99,123.68c0,0-10.71,16.9-20.26,20.9c-9.56,4-14.25,1.97-14.25,1.97s4.35-6.59,5.48-15.45
					c0.33-2.61,2.03-4.85,4.48-5.82C270.29,122.53,283.56,118.2,287.99,123.68z"/>
				<path class="st16" d="M278.59,125.31c0,0,6.28,3.22,8.86,6.23c2.49,2.91,5.37,10.81,5.17,14.35c0,0,3.1-16.99-3.35-22.83
					C282.43,116.87,278.59,125.31,278.59,125.31z"/>
				<path class="st18" d="M302.84,217.9c-0.72,47.92-0.2,37.91-5.44,42.46c-1.26,1.09-4.81,1.75-9.49,2.06
					c-14.69,0.98-40.53-1.45-41.51-4.16c-3.39-9.4-1-12.32-3.82-26.7c-0.29-1.53-0.66-3.19-1.09-4.99
					c-2.36-9.88-4.65-13.24,3.71-29.12c7.59-14.38,16.51-26.06,17.22-25.64c20.01,11.88,20.7,1.92,20.7,1.92
					S303.19,194.53,302.84,217.9z"/>
				<path class="st18" d="M283.12,173.73c0,0,20.48,3.47,22.9,12.34c2.42,8.87,16.65,60.99,16.65,60.99s-10.47,1.88-15.31-2.96
					c-4.84-4.84-16.83-44.87-16.83-44.87L283.12,173.73z"/>
				<path class="st19" d="M287.91,262.42c-14.69,0.98-40.53-1.45-41.51-4.16c-3.39-9.4-1-12.32-3.82-26.7l7.09-19.96
					c0,0-1.17,22.22,5.38,28.07c6.55,5.85,26.84,11.28,30.02,16.17C286.61,258.18,287.62,260.53,287.91,262.42z"/>
				<path class="st13" d="M271.07,253.07c0,0,14.5-3.23,16.84-1.94c2.34,1.29,8.06,5.97,8.77,7.6c0.72,1.63-5.21-1.24-7.13-1.75
					c-1.25-0.33-4.53,0.81-6.16,1.35c-6.84,2.28-11.03,1.11-11.03,1.11L271.07,253.07z"/>
				<path class="st18" d="M262.42,171.81c0,0-20.52,1.2-27.26,10.6c-9.49,13.23-28.3,69.62-17.52,77.14
					c12.15,8.47,55.28,2.22,55.28,2.22s1.44-6.71-0.56-9.95c-2-3.25-34.45-8.49-35.95-9.99c-1.5-1.5,18.72-29.21,18.72-33.7
					C255.13,203.63,262.42,171.81,262.42,171.81z"/>
				<path class="st13" d="M288.61,255.16c0,0,3.04,3.92,4.03,4.39c1,0.47,1.64,0.35,1.64,0.35l-2.05-3.68L288.61,255.16z"/>
				<path class="st13" d="M287.91,251.13l8.83,4.29c0,0-0.38,0.61-1.46,0.57c-1.09-0.05-3.83-1.05-3.83-1.05L287.91,251.13z"/>
			</g>
		</g>
	</g>
	<g>
		<path class="st20" d="M320.45,261.3h-41.02l0,0c0-1.81,1.46-3.27,3.27-3.27h37.75V261.3z"/>
		<polygon class="st20" points="320.33,216.62 383.74,216.62 368.53,261.3 304.71,261.3 		"/>
		<polygon class="st21" points="384.68,216.62 369.47,261.3 305.64,261.3 321.26,216.62 		"/>
		<path class="st18" d="M350.49,238.55c-0.39,1.71-2.1,3.09-3.8,3.09c-1.71,0-2.77-1.38-2.38-3.09c0.39-1.71,2.1-3.09,3.8-3.09
			C349.82,235.46,350.88,236.84,350.49,238.55z"/>
	</g>
	<g>
		<path class="st22" d="M267.86,271.35h272.69c2.61,0,4.73-2.12,4.73-4.73v-0.6c0-2.61-2.12-4.73-4.73-4.73H267.86
			c-2.61,0-4.73,2.12-4.73,4.73v0.6C263.13,269.23,265.25,271.35,267.86,271.35z"/>
		<g>
			<path class="st22" d="M549.96,436.9l0.12-0.01c1.42-0.18,2.43-1.45,2.25-2.84l-24.77-167.64l-9.07,0.26l29.14,168.54
				C547.83,436.29,548.85,437.04,549.96,436.9z"/>
		</g>
		<g>
			<path class="st22" d="M255.94,436.9l-0.12-0.01c-1.42-0.18-2.43-1.45-2.25-2.84l24.77-167.64l9.07,0.26l-29.14,168.54
				C258.08,436.29,257.05,437.04,255.94,436.9z"/>
		</g>
		<g>
			<path class="st22" d="M313.28,436.9l-0.12-0.01c-1.42-0.18-2.43-1.45-2.25-2.84l24.77-167.64l9.07,0.26L315.6,435.21
				C315.41,436.29,314.39,437.04,313.28,436.9z"/>
		</g>
	</g>
	<path class="st16" d="M749.01,437.85H36.39c-0.54,0-0.99-0.45-0.99-0.99v-0.12c0-0.54,0.45-0.99,0.99-0.99h712.62
		c0.54,0,0.99,0.45,0.99,0.99v0.12C750,437.4,749.55,437.85,749.01,437.85z"/>
	<g>
		<path class="st12" d="M459.38,436.76h49.14c2.36-2.88,1.49-13.53,1.14-17c-0.07-0.7-0.12-1.11-0.12-1.11s-16.78-13.42-19.09-3.14
			c-0.07,0.32-0.16,0.64-0.25,0.95c-2.9,9.61-15.93,13.98-23.45,15.2C461.86,432.45,460.05,434.99,459.38,436.76z"/>
		<path class="st12" d="M593.48,277.08c-1.77,0-84.18,15.47-97.81,32.35c-6.81,8.43-7.82,105.78-7.82,105.78s8.42,10.44,26.62,4.38
			c0,0,13.34-66.6,12.35-86.8c-0.27-5.59,56.3-0.81,66.66-3.49c10.36-2.68,35.66-25.21,30.08-36.18
			C617.98,282.13,593.48,277.08,593.48,277.08z"/>
		<path class="st13" d="M496.02,253.24c0,0-16.62,0.22-20.55,1.91c-3.93,1.68-11.91,5.55-9.77,6.15c2.13,0.59,12.32-0.24,14.52,0.09
			c2.2,0.34,4.91-0.09,6.26-0.09c1.35,0,7.63,0,7.63,0L496.02,253.24z"/>
		<path class="st13" d="M476.58,213.35c0,0-5.67-4.05-11.17-4.84c-3.14-0.45-6.19-1.01-8.04-1.66c-5.08-1.79-15.24-10.93-14.47-12
			c2.46-3.43,14.33,3.83,16.4,3.05c2.07-0.78-3.98-5.08-1.88-6.59c1.1-0.79,3.67,3.17,5.77,3.57c2.84,0.54,5.07,4.55,5.92,4.76
			c1.67,0.41,8.96,5.84,8.96,5.84L476.58,213.35z"/>
		<path class="st23" d="M585.27,166.06c0,0-12.65,3.92-25.12,38.25c-12.47,34.33-17.2,36.18-21.73,37.53
			c-4.53,1.35-44.31,9.27-44.31,9.27v10.19h61.29c0,0,22.98-21.86,29.87-36.58C592.16,210,585.27,166.06,585.27,166.06z"/>
		<path class="st24" d="M437.66,436.76h49.14c2.36-2.88,1.49-13.53,1.14-17c-0.07-0.7-0.12-1.11-0.12-1.11s-16.78-13.42-19.09-3.14
			c-0.07,0.32-0.16,0.64-0.25,0.95c-2.9,9.61-15.93,13.98-23.45,15.2C440.14,432.45,438.33,434.99,437.66,436.76z"/>
		<path class="st25" d="M569.19,277.08c-1.77,0-84.18,15.47-97.81,32.35c-6.81,8.43-7.82,105.78-7.82,105.78s8.42,10.44,26.62,4.38
			c0,0,13.34-66.6,12.35-86.8c-0.27-5.59,56.3-0.81,66.66-3.49c10.35-2.68,35.66-25.21,30.08-36.18
			C593.7,282.13,569.19,277.08,569.19,277.08z"/>
		<path class="st26" d="M574.35,176.94c5.93-0.49,12.14-2.07,17.52-3.81c6.71-2.18,12.13-5.36,8.64-11.5
			c-3.21-5.66-8.42-18.29-8.07-28.76l-12.5,10.07l-8.49,6.84c0,0,0.04,4.03,0.96,11.1c0.17,1.29,0.37,2.68,0.6,4.16
			c0.19,1.2-0.36,2.4-1.4,3.04c-0.06,0.04-0.13,0.08-0.19,0.12C567.21,170.84,569.38,177.35,574.35,176.94z"/>
		<path class="st27" d="M571.46,148.11c0,0-0.43,1.46,0.31,6.87c7.57-1.23,14.64-7.27,14.64-7.27c-3.85-1.06-5.25-5.22-8.12-4.83
			L571.46,148.11z"/>
		<path class="st26" d="M564.46,149.34c0,0,29.11,4.84,31.84-13.34c2.73-18.17,8.33-29.79-10.14-33.64
			c-18.47-3.86-23.13,2.53-25.52,8.38C558.25,116.58,556.96,147.61,564.46,149.34z"/>
		<path class="st16" d="M556.36,102.69c-1.25,4.38,2.1,9.71,7.71,11.46c8.34,2.6,6.49,12.83,10.24,12.69
			c3.75-0.14,5.26-5.88,8.61-1.29c2.86,3.91-2.38,8.55-2.02,10.69c0.62,3.68,6.39,11.21,11.58,10.84
			c5.2-0.38,14.92-25.08,12.98-32.72c-1.94-7.64-9.72-15.7-17.09-16.81c-7.36-1.11-17.59,2.07-19.95,2.07
			C566.07,99.62,557.03,100.33,556.36,102.69z"/>
		<path class="st28" d="M623.95,191.28c-4.21-16.93-15.84-34.7-23.7-34.69c-13.4,0.03-32.66,3.56-40.43,22.74
			c-5.73,14.13-13.37,95.4-4.73,101.18c19.74,13.21,65.49,40.19,73.61,12.68C636.14,267.99,631.25,220.67,623.95,191.28z"/>
		<path class="st28" d="M591.4,174.43c-3.82-9.94-16.15-13.38-24.56-6.84c-4.55,3.54-10.12,8.58-16.84,15.74
			c-25,26.62-30.08,26.46-34.78,25.91c-4.7-0.55-44.37-8.97-44.37-8.97s-2.03,1.5-3.23,3.92c-1.6,3.24-0.79,5.44-0.79,5.44
			c-1.55-1,14.06,9.76,21.84,14.05c10.27,5.67,25.73,10.98,31.9,13c1.75,0.57,3.63,0.54,5.36-0.08c9.14-3.3,39.85-15.31,64.85-36.15
			C597.37,194.96,594.95,183.65,591.4,174.43z"/>
		<path class="st18" d="M601.6,156.76l-3.03-6.83c0,0-27.15,2.21-31.71,17.67C566.85,167.59,587.89,157.09,601.6,156.76z"/>
	</g>
	<g>
		<g>
			<path class="st4" d="M667.52,436.15l0.19,0c1.53-0.03,2.72-1.28,2.57-2.72l-10.23-102.14l-8.92,0.8l14.69,102.69
				C665.92,435.57,666.66,436.17,667.52,436.15z"/>
		</g>
		<g>
			<path class="st4" d="M614.87,436.15l0.19,0c1.53-0.03,2.72-1.28,2.57-2.72l-10.23-102.14l-8.92,0.8l14.69,102.69
				C613.28,435.57,614.01,436.17,614.87,436.15z"/>
		</g>
		<g>
			<path class="st4" d="M516.04,436.15l-0.19,0c-1.53-0.03-2.72-1.28-2.57-2.72l10.23-102.14l8.92,0.8l-14.69,102.69
				C517.63,435.57,516.9,436.17,516.04,436.15z"/>
		</g>
		<path class="st4" d="M664.62,316.81l9.71-85.31c1.27-12.29-2.84-24.33-20.58-25.26l-31.21-1.9c-18.5-0.76-26.85,14.63-29.19,26.48
			l-18.53,93.78L664.62,316.81z"/>
		<path class="st4" d="M656.78,332.78H523.52c-4.23,0-7.69-3.46-7.69-7.69v-0.97c0-4.23,3.46-7.69,7.69-7.69h140.95v8.66
			C664.47,329.31,661.01,332.78,656.78,332.78z"/>
		<path class="st4" d="M656.78,332.78h-74.27c-4.23,0-7.69-3.46-7.69-7.69v-0.97c0-4.23,3.46-7.69,7.69-7.69h81.96v8.66
			C664.47,329.31,661.01,332.78,656.78,332.78z"/>
	</g>
</g>
</svg>
