<svg viewBox="0 0 60 60" xmlns="http://www.w3.org/2000/svg"><g data-name="Layer 2"><path d="M0 0h60v60H0z" fill="none"></path><path d="M56.08 22.58 44.41 10.91a3 3 0 0 0-4.2 0l-1.63 1.63a3 3 0 0 0-.13 4.05 6.84 6.84 0 0 1-5.24 1.55 8.83 8.83 0 0 0-5.08.91h-.07l-4-.51a2 2 0 0 1-1.18-.58l-1.33-1.33a3 3 0 0 0-.11-4.07l-1.63-1.63a3 3 0 0 0-4.2 0L3.92 22.58a3 3 0 0 0 0 4.2l1.63 1.63a3 3 0 0 0 4.07.11l2.56 2.55A3.31 3.31 0 0 1 13 32.5a11.52 11.52 0 0 0 3 5.17 3.32 3.32 0 0 0 2.93 4.88 3.31 3.31 0 0 0 3.33 3.33 3.37 3.37 0 0 0 1 2.36 3.3 3.3 0 0 0 3.91.57l.18.18a3.31 3.31 0 0 0 5.46-1.2l.41.41a3.32 3.32 0 0 0 4.71 0 3.15 3.15 0 0 0 .73-1.2l.49.49a3.33 3.33 0 0 0 4.71-4.71l-.49-.49a3.15 3.15 0 0 0 1.19-.76 3.3 3.3 0 0 0 1-2.35 3.25 3.25 0 0 0-.38-1.51l.19-.2a9.1 9.1 0 0 0 2.53-4.73 7.16 7.16 0 0 1 2-3.74l.51-.51a3 3 0 0 0 4.07-.11l1.63-1.63a3 3 0 0 0-.03-4.17ZM6.93 27 5.3 25.41a1 1 0 0 1 0-1.41L17 12.29a1 1 0 0 1 1.45 0L20 13.92a1 1 0 0 1 0 1.45L8.38 27a1 1 0 0 1-1.45 0ZM18 40.22a1.39 1.39 0 0 1 0-2 1.39 1.39 0 0 1 1.95 0 1.38 1.38 0 0 1-1.95 2Zm3.33 3.33a1.38 1.38 0 0 1 1-2.36 1.35 1.35 0 0 1 1 .4 1.4 1.4 0 0 1 0 2 1.41 1.41 0 0 1-2.05-.04Zm3.33 3.33a1.38 1.38 0 0 1 0-2 1.41 1.41 0 0 1 1-.4 1.38 1.38 0 1 1-1 2.36Zm18.58-6.69a1.43 1.43 0 0 1-2 0L31.09 30a1 1 0 1 0-1.38 1.38l12.77 12.81a1.39 1.39 0 0 1 .41 1 1.36 1.36 0 0 1-.41 1 1.39 1.39 0 0 1-1.95 0L27.76 33.37a1 1 0 0 0-1.38 1.38l10.15 10.14a1.39 1.39 0 0 1-2 2L24.43 36.7a1 1 0 0 0-1.38 1.38l7.6 7.6a1.38 1.38 0 1 1-2 2l-.18-.18a3.3 3.3 0 0 0-2.93-4.87 3.26 3.26 0 0 0-3.33-3.3 3.31 3.31 0 0 0-4.87-3A9.56 9.56 0 0 1 14.88 32a5 5 0 0 0-1.33-2.3L11 27.16 20.16 18l1.32 1.32a4 4 0 0 0 2.31 1.13l2.06.26-4.92 4.92a3.75 3.75 0 1 0 5.3 5.3l3.31-3.31a2.77 2.77 0 0 1 2.27-.77l11.38 11.38a1.38 1.38 0 0 1 .4 1 1.39 1.39 0 0 1-.4.96Zm2.76-7.8a7.27 7.27 0 0 1-2 3.74l-.07.07-7.73-7.71a13.24 13.24 0 0 0 3 .42.93.93 0 0 0 1-.95 1 1 0 0 0-1-1 11.79 11.79 0 0 1-5.41-1.48 4.76 4.76 0 0 0-5.67.75l-3.31 3.31a1.8 1.8 0 1 1-2.5-2.54l5-5A6.86 6.86 0 0 1 33 20.07 8.78 8.78 0 0 0 39.81 18L49 27.16l-.5.49a9.15 9.15 0 0 0-2.5 4.74Zm8.73-7L53.07 27a1 1 0 0 1-1.45 0L40 15.37a1 1 0 0 1 0-1.45l1.63-1.63a1 1 0 0 1 1.45 0L54.7 24a1 1 0 0 1 0 1.41Z" fill="#ff4d4f" class="fill-3d3d63"></path></g></svg>