<svg width="50" height="50" viewBox="0 0 50 50" fill="none" xmlns="http://www.w3.org/2000/svg">
<path d="M49.9993 25C49.9993 18.3223 47.3988 12.0441 42.677 7.32227C37.9551 2.60049 31.677 0 24.9993 0L22.916 25L24.9993 50C31.677 50 37.9551 47.3995 42.677 42.6777C47.3988 37.9559 49.9993 31.6777 49.9993 25V25Z" fill="#02CC47"/>
<path d="M25 0C18.3223 0 12.0442 2.60049 7.32227 7.32227C2.60049 12.0441 0 18.3223 0 25C0 31.6777 2.60049 37.9559 7.32227 42.6777C12.0442 47.3995 18.3223 50 25 50V0Z" fill="#07BC45"/>
<path d="M26.8828 16.1562H29.8125V32.1271H26.8828V16.1562Z" fill="white"/>
<path d="M20.678 16.1562V22.4532H14.583V16.1562H11.6533V32.1271H14.583V25.3829H20.678V32.1271H23.6077V16.1562H20.678Z" fill="white"/>
<path d="M35.7335 30.123C34.6683 30.123 33.8047 30.9865 33.8047 32.0518C33.8047 33.1171 34.6683 33.9806 35.7335 33.9806C36.7987 33.9806 37.6623 33.117 37.6623 32.0518C37.6624 30.9865 36.7988 30.123 35.7335 30.123Z" fill="white"/>
<path d="M34.2812 14.5546H37.2109V28.2478H34.2812V14.5546Z" fill="white"/>
</svg>
