<?xml version="1.0" encoding="utf-8"?>
<!-- Generator: Adobe Illustrator 25.0.0, SVG Export Plug-In . SVG Version: 6.00 Build 0)  -->
<svg version="1.1" id="Isolation_Mode" xmlns="http://www.w3.org/2000/svg" xmlns:xlink="http://www.w3.org/1999/xlink" x="0px"
	 y="0px" viewBox="0 0 510.4 555" style="enable-background:new 0 0 510.4 555;" xml:space="preserve">
<style type="text/css">
	.st0{opacity:0.38;fill:#F0F3FC;enable-background:new    ;}
	.st1{fill:#61A27D;}
	.st2{fill:#578B71;}
	.st3{fill:#7CC97D;}
	.st4{fill:#A9A7E7;}
	.st5{fill:#24ADB2;}
	.st6{fill:#26C6DA;}
	.st7{fill:#E1543C;}
	.st8{fill:#FF634D;}
	.st9{fill:#EB594D;}
	.st10{fill:#3FA4DC;}
	.st11{fill:#4F57A0;}
	.st12{fill:#E2E7FF;}
	.st13{fill:#666666;}
	.st14{fill:#FFFFFF;}
	.st15{fill:#FF8D68;}
	.st16{fill:#E5E5E5;}
	.st17{fill:#B7B7B7;}
	.st18{fill:#CCCCCC;}
	.st19{fill:#1C1C1C;}
	.st20{fill:#383C3D;}
	.st21{fill:#201360;}
	.st22{fill:none;stroke:#16749E;stroke-width:0.8263;stroke-miterlimit:10;}
	.st23{fill:none;stroke:#333333;stroke-width:0.8263;stroke-miterlimit:10;}
	.st24{fill:#1A1D1E;}
	.st25{fill:none;stroke:#E66657;stroke-width:1.2805;stroke-miterlimit:10;}
	.st26{fill:#AEC9D3;}
	.st27{fill:#387AB6;}
	.st28{fill:#DCE4FF;}
	.st29{fill:#FBA894;}
	.st30{fill:#713336;}
	.st31{opacity:0.53;fill:#505E83;enable-background:new    ;}
	.st32{fill:none;stroke:#87B8EB;stroke-width:0.3595;stroke-miterlimit:10;}
	.st33{fill:#BFD9FF;}
	.st34{fill:none;stroke:#A9A7E7;stroke-width:0.75;stroke-miterlimit:10;}
	.st35{fill:#EDF4FF;}
	.st36{fill:#CAE5FF;}
	.st37{opacity:0.9;fill:#DBDBDB;enable-background:new    ;}
	.st38{fill:none;stroke:#A9C2FF;stroke-width:1.076;stroke-linecap:round;stroke-linejoin:round;stroke-miterlimit:10;}
	.st39{fill:none;stroke:#84AEE5;stroke-width:0.3587;stroke-miterlimit:10;}
	.st40{fill:#3583A5;}
	.st41{fill:#C2D4D9;}
	.st42{fill:#FFA402;}
	.st43{fill:none;stroke:#BABABA;stroke-miterlimit:10;}
	.st44{fill:none;stroke:#FFFFFF;stroke-width:2;stroke-miterlimit:10;}
</style>
<g>
	<path class="st0" d="M411.4,31.5c93.1,65.9,97.1,165.1,97.1,165.1c16.9,93.2-79.5,165-132.9,174.2c-53.5,9.1-84,32.1-94.8,79.5
		c-10.8,47.4-61.1,85.7-125.4,84.1C91.2,533,1,491.7,14.8,393.9s130-111.6,114.6-171.2S120.3,10.1,262.5,2.6
		C262.5,2.6,348.8-12.8,411.4,31.5z"/>
	<g>
		<g>
			<path class="st1" d="M344.7,246.5c0,0-2.9-37.8-7.8-57.2s-2.9-39.7-2.9-39.7s3.9-2.9,9.7,4.9c14.5,33,10.7,82.3,10.7,82.3
				L344.7,246.5z"/>
			<path class="st2" d="M357.3,232.9h-4.9c0,0,5.8-15.4,6.8-19.3s5.9-28.1,19.4-36.8c13.5-8.8,33-7.8,33-7.8s-4.9-0.1-29.1,20.3
				C358.3,209.8,357.3,232.9,357.3,232.9L357.3,232.9z"/>
			<path class="st2" d="M346.4,235.7c0,0-8.1-14.4-9.7-18.1c-1.7-3.7-10.1-26.9-24.9-33.4s-33.7-2.6-33.7-2.6s4.8-0.7,31.9,15.6
				s31.6,39.2,31.6,39.2L346.4,235.7z"/>
			<path class="st3" d="M345.8,235.8c0,0,3.9-7.7,6.8-16.4c2.9-8.8,4.8-40.7,12.5-62c7.8-21.3,33.8-30,34.8-27.1
				C377.6,149.6,352.4,233,352.4,233"/>
			<path class="st3" d="M342.7,250.4c3-21.3-25.2-68.8-23.2-74.6c25.2,15.5,34.8,61,34.8,61S339.8,271.7,342.7,250.4z"/>
		</g>
		<path class="st4" d="M372.7,253.3c0.8-11-2.9-20.3-4.8-24.2h-36.7c-1.8,3.9-5.5,13.2-4.8,24.2c0.3,5.3,2.2,19.3,4.6,34.8h37.3
			C370.5,272.6,372.4,258.6,372.7,253.3z"/>
	</g>
	<g>
		<rect x="29.1" y="195.3" class="st5" width="68.3" height="92.4"/>
		<rect x="36.2" y="195.3" class="st6" width="68.3" height="92.4"/>
	</g>
	<g>
		<rect x="53.3" y="186" class="st7" width="68.3" height="101.8"/>
		<rect x="60.3" y="186" class="st8" width="78.3" height="101.8"/>
		<rect x="60.1" y="186" class="st9" width="13.4" height="101.8"/>
	</g>
	<path class="st10" d="M433.4,226.8l-12.8,46.8c0,0,25.4,11.4,25.4,13.4s25.4-39.5,20.8-54.9c-4.8-15.4-15.4-20.8-15.4-20.8
		L433.4,226.8z"/>
	<g>
		<polyline class="st11" points="219.1,292.7 233.2,255.3 197.8,255.3 183.7,292.7 		"/>
		<g>
			<polyline class="st12" points="308.5,243.8 107.4,243.8 110.9,262.7 312.1,262.7 			"/>
			<path class="st13" d="M284.8,143.5h-189c-3.8,0-6.5,3.4-5.9,7.1l17.4,93.2h201.1l-17.8-95.4C290.2,145.5,287.6,143.5,284.8,143.5
				z"/>
		</g>
	</g>
	<polygon class="st14" points="239.8,274.7 190.7,236.5 138.4,239.5 191.7,279.2 	"/>
	<path class="st15" d="M222.8,271.3c0.4,8.7-2.9,14.9-2.9,14.9l-6.5-1.3l-7,0.1c0,0-11-0.6-14.2-1.3c-3.2-0.9-12.1-8.2-12.1-8.2
		s-4.7-3-5.5-4.2c-0.9-1.2-2.9-6.2-2.9-6.2l2.9,0.7l12.4,1.8l-2.3-6.7c0,0-3.6-0.6-5-3.2c-1.4-2.7-0.3-3.9,0.1-3.9
		c0.4,0,13.3,5.3,13.3,5.3l13.4,7.3L222.8,271.3z"/>
	<g>
		<g>
			<g>
				<polygon class="st16" points="104.4,295.8 79,550.2 88.3,550.2 127.2,297.1 				"/>
				<polygon class="st16" points="25.4,295.8 0,550.2 9.3,550.2 48.2,297.1 				"/>
			</g>
		</g>
		<g>
			<polygon class="st16" points="298.6,295.8 324,550.2 314.7,550.2 275.9,297.1 			"/>
			<polygon class="st16" points="377.7,295.8 403.1,550.2 393.7,550.2 354.9,297.1 			"/>
		</g>
		<rect x="20" y="294.4" class="st17" width="349.6" height="12.1"/>
	</g>
	<path class="st18" d="M6.7,293.1L6.7,293.1c0-3.7,3-6.7,6.7-6.7H359c3.7,0,6.7,3,6.7,6.7l0,0c0,3.7-3,6.7-6.7,6.7H13.3
		C9.7,299.8,6.7,296.8,6.7,293.1z"/>
	<g>
		<path class="st19" d="M347.8,554c-4.3,1.2-22.2,0.7-22.2,0.7c-5.3,0.6-29.1-2.1-30.4-3.9c-1.2-1.9-0.3-5.7,6-6.4
			c6.4-0.8,14.4-5.5,16.5-6.5s5.5-5.7,6.8-10.2c1.2-4.5,2.3-6.2,11.5-7.2c9.1-1,11.3,4.4,11.3,4.4
			C347.6,526.6,351.9,552.8,347.8,554z"/>
		<path class="st15" d="M321.1,506.4l1.7,26.4c0,0,6.1,6.5,13.4,1.1c5-3.7,11.5-5.8,11.5-5.8l-2.8-41.9L321.1,506.4z"/>
		<path class="st20" d="M333.7,406.3c1,7,16.1,116.5,16.1,116.5c-17.1,8-31.2,6-31.2,6l-27.1-116.5
			C293.5,406.3,332.8,399.2,333.7,406.3z"/>
		<g>
			<path class="st15" d="M446.1,149.4c-4.1,12.4-11.7,31.1-30.4,36c-17.8,4.6-30.4,5.3-34.3,0.9s-5.7-40.4,1.7-56.8
				c7.3-16.4,18.4-18.5,18.4-18.5C434.7,99.3,454,125.6,446.1,149.4z"/>
			<path class="st15" d="M393.2,205l1.3-19.6l3.8-4.7c11.3-10.5,27.7-4.6,27.7-4.6l6.4,30.6C410.4,209.5,393.2,204.9,393.2,205z"/>
			<path class="st21" d="M427.9,353.7c-13.3-14.4-62.5-0.2-76.9,3.6c-14.4,3.8-47.5,10.8-46.2,22.3c1.3,11.4,6.9,23.5,49.5,25
				c42.6,1.4,78.5-9.1,78.5-9.1C444.3,385.6,441.2,368.1,427.9,353.7z"/>
			<path class="st19" d="M248.1,554c-4.3,1.2-22.2,0.7-22.2,0.7c-5.3,0.6-29.1-2.1-30.4-3.9c-1.2-1.9-0.4-5.7,6-6.4
				c6.4-0.8,14.4-5.5,16.5-6.5s5.5-5.7,6.8-10.2s2.4-6.2,11.7-7.2c9.1-1,11.3,4.4,11.3,4.4C248.1,526.6,252.5,552.8,248.1,554z"/>
		</g>
		<path class="st15" d="M229.5,501.3l-7.3,32.2c0,0,8.7,2.7,13.4-1.3c4.8-4,12.8-2,12.8-2l10.1-40.8L229.5,501.3z"/>
		<path class="st20" d="M365,353.5c0,0,54.8,2,45.5,26.7s-24.7,25.4-47.5,29.4s-76.4,6.7-76.4,6.7c0,6.7-31.5,107.3-32.2,110
			c-13.4,2-34.2-5.3-32.8-8c1.3-2.7,22.8-122.1,36.2-132.7c13.3-10.1,81.7-32.8,83.7-32.8L365,353.5z"/>
		<path class="st12" d="M224.3,286.8h-11.4c0,0,0,0-3.7-2.7c-4.3-5,0.3-17.1,1.3-18.4s14.1-1,14.1-1L224.3,286.8z"/>
		<path class="st12" d="M385,206.4c0,0,2.4-7,7-11.5c18.1-8.1,39.2-1.6,39.2-1.6l3.6,9L385,206.4z"/>
		<path class="st10" d="M459.3,224.6c-1.3,12.1-9.4,139.4-14.8,150c-17.3,10.7-68.3,13.3-87,6.7c-18.8-6.7-24.1-17.3-24.1-26.7
			s16.1-75,16.1-75s-4.1-10.8-2.7-20.8s3.4-40.8,10.1-44.8s26.7-10.7,26.7-10.7s2.7-2.7,8-4.7c14.1-4,35.5-1.3,40.2-0.7
			c4.7,0.7,7.3,5.3,7.3,5.3S460.7,212.7,459.3,224.6z"/>
		<path class="st10" d="M370.9,261.6c0,0-46.9,27.1-60.9,28.1s-88.7-2-88.7-2c-12.1-11-1-25.1-1-25.1s77.4-4,81.3-6
			c4-2,37.1-32.2,49.2-40.2s17.1-5,17.1-5C390,233.5,370.9,261.6,370.9,261.6z"/>
	</g>
	<g>
		<path class="st22" d="M279.1,289.7c0,0,27.6,1.1,35,0c7.3-1.1,69.9-34,69.9-34"/>
		<path class="st22" d="M304.7,282.4c-7.3-6.8-5.2-18.3-5.2-18.3"/>
		<path class="st22" d="M291.6,278.1c-3.1-7.3,3.1-17.2,3.1-17.2"/>
		<path class="st22" d="M371.4,212.4c18.3,12,13.1,30.3,13.1,30.3"/>
		<path class="st22" d="M455.6,273c0-15.2-3.7-47.5-3.7-47.5"/>
		<path class="st22" d="M389.2,204.1c19.9-2.1,43.8,0,43.8,0"/>
		<path class="st23" d="M260.3,393c4.1,17.8,15.6,21.4,15.6,21.4"/>
		<path class="st23" d="M258.4,404.4c3.1,9.4,9.9,11.5,9.9,11.5"/>
		<line class="st23" x1="327.2" y1="522.4" x2="310" y2="436.3"/>
	</g>
	<path class="st24" d="M378.7,116c0.4,2.4,4,7,4,7s0,0-1-4.6s2-16.6,4-15.1c0.4,3,2,6.5,2,6.5s-1.4-8.5,1.6-7.5s14,0,25.1,0
		c11,0,31.1,9.5,35.6,22.6c4.4,13.1,5,24.6,5,24.6l-2.6-5c-0.6,16.5-9,29.5-10.5,28.1c-1.6-1.4,0-5,0-5s-6.4,13.1-15,13.7
		c-8.5,0.6-14.1-3-14.1-3l2.6,3.6c-12.1-1.4-18.6-11.5-18.6-11.5s6.5-14.5,4.6-14.1c-2,0.6-8.5,11.1-8.5,11.1s-0.6,1.4-2.6,0.4
		c-2-1.1,1-10.1,1-10.1l0.4-10.1c-8-6-6-15.1-6-15.1C377,126.5,376.4,115.4,378.7,116z"/>
	<path class="st8" d="M393.3,172.4c4.7,1.3,12.5-14.4,7-18s-7.5,3.2-7.5,3.2C391.5,160.1,388.7,171,393.3,172.4z"/>
	<polyline class="st25" points="171.9,265 174.7,271.1 189,274 	"/>
	<path class="st25" d="M189,279.8c0,0-4.6-1.2-5.5-1.7c-1-0.6-8.2-6.5-8.2-6.5"/>
	<path class="st25" d="M385,185.7c12.1-4.1,10.1-11.1,10.1-11.1"/>
	<polygon class="st26" points="107.1,157.8 214.3,157.8 227.6,227.5 120.5,227.5 	"/>
	<g>
		<path class="st10" d="M260.5,174.2H137.3l1.7,8.9c0.3,1.6,1.7,2.7,3.2,2.7h116.6c2.1,0,3.7-1.9,3.2-3.9L260.5,174.2z"/>
		<path class="st16" d="M124.8,109.5l12.4,64.7h123.3l-12.7-65.9c-0.3-1.6-1.7-2.7-3.2-2.7H128.1
			C126.1,105.7,124.5,107.5,124.8,109.5z"/>
	</g>
	<g>
		<path class="st27" d="M207.9,185.9h20.4c-0.9-2.7-1.9-5.5-2.7-8.2c-2.6-8.7-8-12.8-8-12.8c-15.8-4.8-12.2,13.7-12.2,13.7
			S206.3,181.7,207.9,185.9L207.9,185.9z"/>
		<path class="st28" d="M175.3,185.9L221,186c-1.9-9.9-3.7-17.8-4.3-19.3c-2.2-4.9-8.9-6.8-8.9-6.8l-16.1-2.4
			c0,0-11.8,4.8-14.6,10.1C176.2,169.6,175.7,176.8,175.3,185.9L175.3,185.9z"/>
		<path class="st15" d="M193,138.5v16.9c0,0-1.2,4.2,7.3,6s8-2.3,8-2.3c-2.1-5.2-3.1-12.4-3.1-12.4L193,138.5z"/>
		<g>
			<g>
				<path class="st15" d="M212,118.9c-3.4-2.1-15.2-3.8-18.8,2s-3.7,16.2,0.9,23.1c4.6,6.9,15.3,12,18.4,8.8
					c4.6-7.8,4.7-23.9,4.7-23.9C217.4,126.3,215.4,120.7,212,118.9z"/>
			</g>
			<path class="st29" d="M195.9,142.4c-0.6,2.1-7.7-3.6-5.5-6.3s5.1,1.9,5.1,1.9S196.4,140.2,195.9,142.4z"/>
		</g>
		<path class="st30" d="M204.2,125.3c-1.8-0.3-6.2-0.6-7.2,2.3c-0.9,2.9-1.3,6.9-1.3,9.1c0,2.2,0,5.1-0.6,5.1s-1-1.3-1-3.1
			s-2.3-2.3-3.1-3.3s-1.8-11,1-15.2s10.1-5,14.2-4.2c4.1,0.8,6-1.3,9.9,1.6c6.8,6.3,1.1,11.3,1.1,11.3
			C207.1,130.1,205.9,125.6,204.2,125.3z"/>
		<g>
			<path class="st31" d="M195.7,133.5L195.7,133.5c0.2,0,0.3,0.1,0.3,0.1L195.7,133.5z"/>
			<path class="st30" d="M193.3,134.6c0.6,2.8,0.3,6.8,0.8,8.9c0.4,2.1,2.2,3.6,4.9,6s8.8,5.5,11.3,4.6c2.6-1,4.2-4.9,4-5.5
				c-1.1,0.6-0.9-0.3-2.1-2.3c-1.3-2-3.9-2.1-6.9-1.7c-3,0.6-3.1,3.8-7,1.2c-3.8-2.6-2.7-11.9-2.7-12.2
				C194.9,133.2,193,132.5,193.3,134.6z M203.8,146.8c1.3-2.9,5.3-1,5.3-1c3.8,1.2,4.2,4.1,0.6,4.9
				C206,151.5,203.2,148.6,203.8,146.8z"/>
		</g>
		<path class="st14" d="M191.9,157.5c0.8,2.8,9.2,8.3,10.5,7.9c1.3-0.4,3.1-3,3.1-3s2.7,1.8,3.3,1.7c0.6-1.4,0-5,0-5l-1.2-1.8
			c0,0-0.9,2.9-2.4,3.4c-7.7-0.7-12.3-6.5-12.3-6.5C191.9,155.5,191.9,157.5,191.9,157.5z"/>
		<path class="st27" d="M197.1,185.9c-2.7-16.1-5.3-28.4-5.3-28.4c-7.1,1-14.3,6.8-16.2,11.2c-0.4,1.4-1,8.2-1.4,17.2H197.1z"/>
		<path class="st27" d="M215.5,185.9h8c-2.3-9.9-4.6-18.1-6-21c-2.7-2.7-6.4-4.3-8.7-4.6C208.9,160.4,211.7,169.9,215.5,185.9
			L215.5,185.9z"/>
		<path class="st27" d="M175.6,185.9l17.8-0.1c-1.2-6.9-3-15.2-4.3-17.5c-2.4-4.2-7.2-4.6-11.8-0.7
			C175.8,169.5,175.3,177.3,175.6,185.9L175.6,185.9z"/>
		<path class="st32" d="M209.1,179.1c-1.1-5.7-2.2-11.2-3.6-16.8"/>
	</g>
	<g>
		
			<ellipse transform="matrix(0.6619 -0.7496 0.7496 0.6619 -32.2249 133.3121)" class="st10" cx="131.7" cy="102.4" rx="21.3" ry="27.3"/>
		<path class="st10" d="M107.5,121.7c3.7,0,7.3,2.9,8.2,6.5c0.9,3.6-1.3,6.5-5,6.5s-7.3-2.9-8.2-6.5
			C101.7,124.6,103.9,121.7,107.5,121.7z"/>
		<path class="st14" d="M125.4,111.3c-0.7,0-1.2-0.3-1.7-0.8l-5.3-7.2c-0.8-1-0.3-2.6,0.9-3.7c1.2-1,2.9-1,3.7,0l5.1,5.3l13.2-11.4
			c1.2-1,2.9-1,3.7,0s0.3,2.6-0.9,3.7l-16.8,13.4C126.7,111.1,126,111.3,125.4,111.3z"/>
	</g>
	<g>
		<g>
			<path class="st33" d="M304.3,58.7l-2-7.9c-0.6-1.9,0.7-3.6,2.7-3.6h7.9c2,0,4,1.6,4.4,3.6l2,7.9c0.6,1.9-0.7,3.6-2.7,3.6h-7.9
				C306.7,62.3,304.7,60.6,304.3,58.7z"/>
		</g>
		<g>
			<path class="st34" d="M310.1,81.8l-2-7.9c-0.6-1.9,0.7-3.6,2.7-3.6h7.9c2,0,4,1.6,4.4,3.6l2,7.9c0.6,2-0.7,3.6-2.7,3.6h-7.9
				C312.5,85.3,310.5,83.8,310.1,81.8z"/>
			<path class="st10" d="M285,81.8l-2-7.9c-0.6-1.9,0.7-3.6,2.7-3.6h7.9c2,0,4,1.6,4.4,3.6l2,7.9c0.6,2-0.7,3.6-2.7,3.6h-7.9
				C287.4,85.3,285.4,83.8,285,81.8z"/>
			<path class="st14" d="M259.9,81.8l-2-7.9c-0.6-1.9,0.7-3.6,2.7-3.6h7.9c2,0,4,1.6,4.4,3.6l2,7.9c0.6,2-0.7,3.6-2.7,3.6h-7.9
				C262.3,85.3,260.3,83.8,259.9,81.8z"/>
		</g>
		<g>
			<path class="st10" d="M315.9,105.4l-2-7.9c-0.6-2,0.7-3.6,2.7-3.6h7.9c2,0,4,1.6,4.4,3.6l2,7.9c0.6,2-0.7,3.6-2.7,3.6h-7.9
				C318.5,109,316.4,107.4,315.9,105.4z"/>
			<path class="st14" d="M322.3,130.7l-2-7.9c-0.6-2,0.7-3.6,2.7-3.6h7.9c2,0,4,1.6,4.4,3.6l2,7.9c0.6,2-0.7,3.6-2.7,3.6h-7.9
				C324.7,134.3,322.7,132.7,322.3,130.7z"/>
			<path class="st35" d="M290.9,105.4l-2-7.9c-0.6-2,0.7-3.6,2.7-3.6h7.9c2,0,4,1.6,4.4,3.6l2,7.9c0.6,2-0.7,3.6-2.7,3.6h-7.9
				C293.3,109,291.3,107.4,290.9,105.4z"/>
			<path class="st34" d="M301.9,149.6l-2-7.9c-0.6-2,0.7-3.6,2.7-3.6h7.9c2,0,4,1.6,4.4,3.6l2,7.9c0.6,2-0.7,3.6-2.7,3.6h-7.9
				C304.3,153.2,302.3,151.5,301.9,149.6z"/>
		</g>
	</g>
	<g>
		<g>
			<path class="st36" d="M67.4,121.2l-0.7-2.9c-0.1-0.8,0.2-1.3,1-1.3h2.9c0.8,0,1.4,0.6,1.7,1.3l0.7,2.9c0.1,0.8-0.2,1.3-1,1.3h-3
				C68.4,122.5,67.6,121.9,67.4,121.2z"/>
		</g>
		<g>
			<path class="st36" d="M69.5,129.6l-0.7-2.9c-0.1-0.8,0.2-1.3,1-1.3h2.9c0.8,0,1.4,0.6,1.7,1.3l0.7,2.9c0.1,0.8-0.2,1.3-1,1.3
				h-2.9C70.5,131,69.7,130.4,69.5,129.6z"/>
			<path class="st36" d="M60.3,129.6l-0.7-2.9c-0.1-0.8,0.2-1.3,1-1.3h2.9c0.8,0,1.4,0.6,1.7,1.3l0.7,2.9c0.1,0.8-0.2,1.3-1,1.3H62
				C61.3,131,60.5,130.4,60.3,129.6z"/>
			<path class="st36" d="M51,129.6l-0.7-2.9c-0.1-0.8,0.2-1.3,1-1.3h2.9c0.8,0,1.4,0.6,1.7,1.3l0.7,2.9c0.1,0.8-0.2,1.3-1,1.3h-2.9
				C52,131,51.3,130.4,51,129.6z"/>
		</g>
		<g>
			<path class="st36" d="M71.7,138.3l-0.7-2.9c-0.1-0.8,0.2-1.3,1-1.3h2.9c0.8,0,1.4,0.6,1.7,1.3l0.7,2.9c0.1,0.8-0.2,1.3-1,1.3
				h-2.9C72.6,139.6,71.8,139.1,71.7,138.3z"/>
			<path class="st36" d="M73.9,147.6l-0.7-2.9c-0.1-0.8,0.3-1.3,1-1.3h2.9c0.8,0,1.4,0.6,1.7,1.3l0.7,2.9c0.1,0.8-0.2,1.3-1,1.3
				h-2.9C74.9,148.9,74.1,148.4,73.9,147.6z"/>
			<path class="st36" d="M62.5,138.3l-0.7-2.9c-0.1-0.8,0.3-1.3,1-1.3h2.9c0.8,0,1.4,0.6,1.7,1.3l0.7,2.9c0.1,0.8-0.2,1.3-1,1.3
				h-2.9C63.4,139.6,62.7,139.1,62.5,138.3z"/>
			<path class="st36" d="M66.5,154.5l-0.7-2.9c-0.1-0.8,0.3-1.3,1-1.3h2.9c0.8,0,1.4,0.7,1.7,1.3l0.7,2.9c0.1,0.8-0.3,1.3-1,1.3
				h-2.9C67.4,155.8,66.7,155.3,66.5,154.5z"/>
		</g>
	</g>
	<g>
		<path class="st37" d="M68.5,231.1l-8.9-34.2C59.3,196,60,195,61,195h95.2c0.7,0,1.2,0.4,1.4,1.1l8.9,34.2c0.3,0.9-0.4,1.9-1.4,1.9
			H69.9C69.2,232.2,68.7,231.7,68.5,231.1z"/>
		<g>
			<line class="st38" x1="119" y1="202.3" x2="152.1" y2="202.3"/>
			<line class="st38" x1="121.5" y1="217.6" x2="154.7" y2="217.6"/>
			<line class="st38" x1="107.6" y1="211.9" x2="140.7" y2="211.9"/>
			<line class="st38" x1="143" y1="207.4" x2="152.9" y2="207.4"/>
			<line class="st38" x1="144.4" y1="211.9" x2="154.4" y2="211.9"/>
			<line class="st38" x1="101.9" y1="202.3" x2="113.8" y2="202.3"/>
			<path class="st39" d="M107.8,224.6l-0.8-3c0,0,0-0.1,0.1-0.1h17.6c0,0,0.1,0,0.1,0.1l0.8,3c0,0,0,0.1-0.1,0.1h-17.6
				C107.9,224.7,107.8,224.7,107.8,224.6z"/>
			<path class="st39" d="M129.7,224.6l-0.8-3c0,0,0-0.1,0.1-0.1h17.6c0,0,0.1,0,0.1,0.1l0.8,3c0,0,0,0.1-0.1,0.1h-17.6
				C129.7,224.7,129.7,224.7,129.7,224.6z"/>
		</g>
		<path class="st40" d="M76.2,225.3h24.2c-0.2-0.7-1.4-3.8-2.8-4.9c-1.6-1.2-5.5-2.1-7.2-3.3c-0.8-0.6-1.3-1.7-1.7-2.6
			c0.3-0.3,0.6-0.7,0.7-0.9c0.1-0.4,0.1-1.1,0.1-1.8c0.2,0.1,0.3,0.2,0.6,0.2c0.4,0,1.1-2.6,0.3-3.1c-0.4-0.3-0.8-0.1-0.9,0.2
			c0-1.1-0.1-2-0.1-2l0,0c0-0.1-0.1-0.3-0.1-0.4c-0.7-3-3.6-5.3-6.5-5.3c-3,0-4.8,2.4-4,5.3c0,0.2,0.1,0.3,0.1,0.4l0,0
			c0,0,0.3,0.9,0.8,2c-0.3-0.2-0.8-0.6-1-0.2c-0.4,0.6,1.4,3.1,1.9,3.1c0.2,0,0.3-0.1,0.4-0.2c0.3,0.7,0.7,1.3,1,1.8
			c0.2,0.2,0.6,0.4,0.9,0.7c0.1,1,0.1,2.1-0.4,2.8c-1,1.2-4.7,2.1-5.5,3.3C76.1,221.4,76.5,224.6,76.2,225.3z"/>
	</g>
	<g>
		<path class="st14" d="M183.6,207.5L183.6,207.5c-1.7-6.9,2.4-12.4,9.3-12.4H271c6.9,0,13.9,5.5,15.5,12.4l0,0
			c1.7,6.9-2.4,12.4-9.3,12.4h-78.1C192.2,220,185.2,214.4,183.6,207.5z"/>
		<g>
			<g>
				<path class="st41" d="M268.6,210.9l-2.6,1.6c-0.2,0.1-0.7-0.1-0.7-0.4l-0.2-3.3c0-0.1-0.1-0.2-0.2-0.3l-3-2.3
					c-0.3-0.2-0.3-0.7,0-0.7l3.2-0.4c0.1,0,0.2-0.1,0.2-0.2l0.8-3c0-0.2,0.4-0.2,0.7,0l2.2,3c0.1,0.1,0.2,0.2,0.3,0.2l3.4,0.4
					c0.3,0.1,0.4,0.4,0.3,0.7l-1.8,2.3c0,0.1-0.1,0.2,0,0.3l1.3,3.3c0.1,0.3-0.1,0.6-0.4,0.4l-3.3-1.6
					C268.8,210.8,268.6,210.8,268.6,210.9z"/>
			</g>
			<g>
				<path class="st42" d="M252,210.9l-2.6,1.6c-0.2,0.1-0.7-0.1-0.7-0.4l-0.2-3.3c0-0.1-0.1-0.2-0.2-0.3l-3-2.3
					c-0.3-0.2-0.3-0.7,0-0.7l3.2-0.4c0.1,0,0.2-0.1,0.2-0.2l0.8-3c0-0.2,0.4-0.2,0.7,0l2.2,3c0.1,0.1,0.2,0.2,0.3,0.2l3.4,0.4
					c0.3,0.1,0.4,0.4,0.3,0.7l-1.8,2.3c0,0.1-0.1,0.2,0,0.3l1.3,3.3c0.1,0.3-0.1,0.6-0.4,0.4l-3.3-1.6
					C252.2,210.8,252.1,210.8,252,210.9z"/>
			</g>
			<g>
				<path class="st42" d="M235.6,210.9l-2.6,1.6c-0.2,0.1-0.7-0.1-0.7-0.4l-0.2-3.3c0-0.1-0.1-0.2-0.2-0.3l-3-2.3
					c-0.3-0.2-0.3-0.7,0-0.7l3.2-0.4c0.1,0,0.2-0.1,0.2-0.2l0.8-3c0-0.2,0.4-0.2,0.7,0l2.2,3c0.1,0.1,0.2,0.2,0.3,0.2l3.4,0.4
					c0.3,0.1,0.4,0.4,0.3,0.7l-1.8,2.3c0,0.1-0.1,0.2,0,0.3l1.3,3.3c0.1,0.3-0.1,0.6-0.4,0.4l-3.3-1.6
					C235.8,210.8,235.6,210.8,235.6,210.9z"/>
			</g>
			<g>
				<path class="st42" d="M219.1,210.9l-2.6,1.6c-0.2,0.1-0.7-0.1-0.7-0.4l-0.2-3.3c0-0.1-0.1-0.2-0.2-0.3l-3-2.3
					c-0.3-0.2-0.3-0.7,0-0.7l3.2-0.4c0.1,0,0.2-0.1,0.2-0.2l0.8-3c0.1-0.2,0.4-0.2,0.7,0l2.2,3c0.1,0.1,0.2,0.2,0.3,0.2l3.4,0.4
					c0.3,0.1,0.4,0.4,0.3,0.7l-1.8,2.3c0,0.1,0,0.2,0,0.3l1.3,3.3c0.1,0.3-0.1,0.6-0.4,0.4l-3.3-1.6
					C219.3,210.8,219.2,210.8,219.1,210.9z"/>
			</g>
			<g>
				<path class="st42" d="M202.5,210.9l-2.6,1.6c-0.2,0.1-0.7-0.1-0.7-0.4l-0.2-3.3c0-0.1-0.1-0.2-0.2-0.3l-3-2.3
					c-0.3-0.2-0.3-0.7,0-0.7l3.2-0.4c0.1,0,0.2-0.1,0.2-0.2l0.8-3c0.1-0.2,0.4-0.2,0.7,0l2.2,3c0.1,0.1,0.2,0.2,0.3,0.2l3.4,0.4
					c0.3,0.1,0.4,0.4,0.3,0.7l-1.8,2.3c0,0.1,0,0.2,0,0.3l1.3,3.3c0.1,0.3-0.1,0.6-0.4,0.4l-3.3-1.6
					C202.8,210.8,202.6,210.8,202.5,210.9z"/>
			</g>
		</g>
	</g>
	<g>
		<path class="st17" d="M321.6,423.4c6.4,11,26.4,19.1,50.3,19.1s43.8-8.1,50.3-19.1H321.6z"/>
		<g>
			<polygon class="st16" points="299.3,368.1 306,422.4 298.6,422.4 286.5,366.8 			"/>
			<g>
				<path class="st16" d="M264.5,366.3c0-4.6,3.7-8.3,8.3-8.3h99.5v13.4H264.5V366.3L264.5,366.3z"/>
				<g>
					<path class="st16" d="M356.2,416.3l26.3-127.2c1-4.7,5.1-8,9.9-8h86.5c5.1,0,8.9,4.7,7.9,9.7l-26.1,125.5"/>
					<path class="st16" d="M283.2,430.2v-13.9h177.5l-1.3,4.9c-1.6,5.3-6.4,9-12,9H283.2L283.2,430.2z"/>
				</g>
			</g>
		</g>
		<rect x="363.9" y="436.4" class="st18" width="13.1" height="116.5"/>
		<polygon class="st17" points="363.9,436.4 377,436.4 377,468.5 363.9,458 		"/>
		<polygon class="st18" points="315.4,555 424,555 375.1,535.6 370.3,535.6 369.1,535.6 364.3,535.6 		"/>
		<g>
			<line class="st43" x1="397.6" y1="289.7" x2="475.3" y2="289.7"/>
			<line class="st43" x1="376.3" y1="365.5" x2="389.5" y2="298.6"/>
			<line class="st43" x1="371.1" y1="396.6" x2="373.9" y2="377.3"/>
		</g>
	</g>
	<g>
		<path class="st37" d="M60.4,184.9l-0.3-2.3c-0.4-2.6,1.4-4.8,4-4.8h48.8c2,0,3.7,1.4,4,3.4l0.3,2.3c0.4,2.6-1.4,4.8-4,4.8H64.4
			C62.4,188.3,60.6,186.9,60.4,184.9z"/>
		<line class="st44" x1="69" y1="183.1" x2="111.2" y2="183.1"/>
	</g>
	<g>
		<path class="st8" d="M233.3,139.1L233.3,139.1c1.3,6.3,7.5,11.4,13.9,11.4h1.3c0,1.4-0.3,3.8-1.8,6.7c0,0,7.7,1,10.9-6.7h2.9
			c6.3,0,10.3-5.1,9-11.4l0,0c-1.3-6.3-7.5-11.4-13.9-11.4h-13.3C236,127.6,231.9,132.8,233.3,139.1z"/>
		<line class="st44" x1="241.9" y1="137" x2="254.6" y2="137"/>
		<line class="st44" x1="241.9" y1="141.9" x2="262.3" y2="141.9"/>
	</g>
</g>
</svg>
