<svg data-name="Layer 1" viewBox="0 0 32 32" xmlns="http://www.w3.org/2000/svg"><path d="M16 7a8.36 8.36 0 0 0-8 8 8.4 8.4 0 0 0 2.29 5.7A4.56 4.56 0 0 1 12 24a1 1 0 0 0 1 1h6a1 1 0 0 0 1-1 4.46 4.46 0 0 1 1.69-3.28A7.87 7.87 0 0 0 24 15a8.17 8.17 0 0 0-2.44-5.83A7.67 7.67 0 0 0 16 7Zm4.34 12.28A6.87 6.87 0 0 0 18.09 23h-4.18a7 7 0 0 0-2.2-3.71A6.41 6.41 0 0 1 10 15a6.29 6.29 0 0 1 6-6 5.63 5.63 0 0 1 4.13 1.6A6.16 6.16 0 0 1 22 15a5.93 5.93 0 0 1-1.69 4.28ZM19 26h-6a1 1 0 0 0 0 2h6a1 1 0 0 0 0-2ZM18 29h-4a1 1 0 0 0 0 2h4a1 1 0 0 0 0-2ZM16 5a1 1 0 0 0 1-1V2a1 1 0 0 0-2 0v2a1 1 0 0 0 1 1ZM5 14H3a1 1 0 0 0 0 2h2a1 1 0 0 0 0-2ZM29 14h-2a1 1 0 0 0 0 2h2a1 1 0 0 0 0-2ZM25.9 5.1a1 1 0 0 0-1.41 0l-1.42 1.41a1 1 0 0 0 0 1.42 1 1 0 0 0 .71.29 1 1 0 0 0 .71-.29l1.41-1.42a1 1 0 0 0 0-1.41ZM8.93 7.93a1 1 0 0 0 0-1.42L7.51 5.1A1 1 0 0 0 6.1 6.51l1.41 1.42a1 1 0 0 0 .71.29 1 1 0 0 0 .71-.29Z" fill="#ff4d4f" class="fill-4d4d4d"></path></svg>