<?xml version="1.0" encoding="utf-8"?>
<!-- Generator: Adobe Illustrator 25.0.0, SVG Export Plug-In . SVG Version: 6.00 Build 0)  -->
<svg version="1.1" id="Layer_1" xmlns="http://www.w3.org/2000/svg" xmlns:xlink="http://www.w3.org/1999/xlink" x="0px" y="0px"
	 viewBox="0 0 500 500" style="enable-background:new 0 0 500 500;" xml:space="preserve">
<style type="text/css">
	.st0{fill:#ECECEC;}
	.st1{fill:#E1E1E1;}
	.st2{fill:#F0F0F0;}
	.st3{fill:#FAFAFA;}
	.st4{fill:#F5F5F5;}
	.st5{fill:#1A2E35;}
	.st6{fill:#3FA4DC;}
	.st7{opacity:0.7;fill:#FFFFFF;}
	.st8{opacity:0.3;}
	.st9{fill:#FFFFFF;}
	.st10{opacity:0.5;fill:#FFFFFF;}
	.st11{opacity:0.3;fill:#FFFFFF;}
	.st12{opacity:0.3;fill:none;}
	.st13{opacity:0.8;fill:#FFFFFF;}
	.st14{opacity:0.6;fill:#FFFFFF;}
	.st15{opacity:0.2;fill:#FFFFFF;}
	.st16{opacity:0.2;}
	.st17{fill:#007CFF;}
	.st18{fill:#FF8B7B;}
	.st19{opacity:0.2;enable-background:new    ;}
	.st20{fill:#24373F;}
	.st21{fill:#FF5551;}
	.st22{fill:#FFC3BD;}
	.st23{fill:#1D3B54;}
	.st24{fill:#142835;}
	.st25{fill:#FF847F;}
	.st26{opacity:0.5;enable-background:new    ;}
	.st27{fill:none;stroke:#3FA4DC;stroke-miterlimit:10;}
</style>
<g>
	<rect x="416.8" y="407.5" class="st0" width="33.1" height="0.2"/>
	<rect x="322.5" y="410.2" class="st0" width="8.7" height="0.2"/>
	<rect x="396.6" y="398.2" class="st0" width="19.2" height="0.2"/>
	<rect x="52.5" y="399.9" class="st0" width="43.2" height="0.2"/>
	<rect x="104.6" y="399.9" class="st0" width="6.3" height="0.2"/>
	<rect x="131.5" y="404.1" class="st0" width="93.7" height="0.2"/>
	<g>
		<path class="st0" d="M238.4,346.8H45.3c-3.1,0-5.7-2.6-5.7-5.7V69.7c0-3.1,2.6-5.7,5.7-5.7h193.1c3.1,0,5.7,2.6,5.7,5.7v271.4
			C244.1,344.3,241.5,346.8,238.4,346.8z M45.3,64.2c-3,0-5.5,2.4-5.5,5.5v271.4c0,3,2.4,5.5,5.5,5.5h193.1c3,0,5.5-2.4,5.5-5.5
			V69.7c0-3-2.4-5.5-5.5-5.5H45.3z"/>
		<path class="st0" d="M454.7,346.8H261.6c-3.1,0-5.7-2.6-5.7-5.7V69.7c0-3.1,2.6-5.7,5.7-5.7h193.1c3.1,0,5.7,2.6,5.7,5.7v271.4
			C460.4,344.3,457.8,346.8,454.7,346.8z M261.6,64.2c-3,0-5.5,2.4-5.5,5.5v271.4c0,3,2.4,5.5,5.5,5.5h193.1c3,0,5.5-2.4,5.5-5.5
			V69.7c0-3-2.4-5.5-5.5-5.5H261.6z"/>
	</g>
	<rect x="0" y="391.4" class="st0" width="500" height="0.2"/>
	<g>
		<g>
			<g>
				<g>
					<rect x="79.1" y="109.3" class="st1" width="1.8" height="140.4"/>
					<rect x="191.2" y="109.3" class="st1" width="1.8" height="140.4"/>
				</g>
				<polygon class="st0" points="200,118.2 72.1,118.2 69.4,111.9 202.7,111.9 				"/>
				<polygon class="st0" points="200,126.8 72.1,126.8 69.4,120.5 202.7,120.5 				"/>
				<polygon class="st0" points="200,135.5 72.1,135.5 69.4,129.2 202.7,129.2 				"/>
				<polygon class="st0" points="200,144.1 72.1,144.1 69.4,137.8 202.7,137.8 				"/>
				<polygon class="st0" points="200,152.8 72.1,152.8 69.4,146.5 202.7,146.5 				"/>
				<polygon class="st0" points="200,161.4 72.1,161.4 69.4,155.1 202.7,155.1 				"/>
				<polygon class="st0" points="200,170.1 72.1,170.1 69.4,163.8 202.7,163.8 				"/>
				<polygon class="st0" points="200,178.7 72.1,178.7 69.4,172.4 202.7,172.4 				"/>
				<polygon class="st0" points="200,187.4 72.1,187.4 69.4,181.1 202.7,181.1 				"/>
				<polygon class="st0" points="200,196 72.1,196 69.4,189.7 202.7,189.7 				"/>
				<polygon class="st0" points="200,204.7 72.1,204.7 69.4,198.4 202.7,198.4 				"/>
				<polygon class="st0" points="200,213.3 72.1,213.3 69.4,207 202.7,207 				"/>
				<polygon class="st0" points="200,222 72.1,222 69.4,215.7 202.7,215.7 				"/>
				<polygon class="st0" points="200,230.6 72.1,230.6 69.4,224.3 202.7,224.3 				"/>
				<polygon class="st0" points="200,239.3 72.1,239.3 69.4,233 202.7,233 				"/>
				<polygon class="st0" points="200,247.9 72.1,247.9 69.4,241.6 202.7,241.6 				"/>
				<rect x="69.4" y="247.9" class="st1" width="133.4" height="3.6"/>
				<rect x="64.7" y="104" class="st1" width="142.6" height="8.4"/>
				<path class="st1" d="M66.2,188.5L66.2,188.5c-0.8,0-1.5-0.6-1.5-1.5v-49c0-0.8,0.6-1.5,1.5-1.5l0,0c0.8,0,1.5,0.6,1.5,1.5v49
					C67.6,187.9,67,188.5,66.2,188.5z"/>
				<rect x="65.7" y="110.7" class="st1" width="1" height="29.1"/>
			</g>
		</g>
	</g>
	<g>
		<rect x="327.4" y="133.6" class="st0" width="107.9" height="256.1"/>
		<rect x="332" y="138.2" class="st2" width="98.7" height="251.4"/>
		<rect x="339.5" y="283.7" class="st3" width="84.3" height="92.1"/>
		<rect x="339.5" y="149.6" class="st3" width="84.3" height="92.1"/>
		<g>
			<rect x="340.7" y="250.9" class="st0" width="9.3" height="24.3"/>
			
				<rect x="350.1" y="250.9" transform="matrix(-1 -1.224647e-16 1.224647e-16 -1 702.0157 526.1746)" class="st1" width="1.8" height="24.3"/>
			<path class="st1" d="M347,260.5c0,2.2-1.8,3.9-3.9,3.9c-2.2,0-3.9-1.8-3.9-3.9c0-2.2,1.8-3.9,3.9-3.9
				C345.2,256.5,347,258.3,347,260.5z"/>
			<rect x="344.2" y="267.3" class="st1" width="2" height="4.9"/>
			<path class="st2" d="M355.8,260.5c0,1.3-11.6,2.4-13,2.4s-2.4-1.1-2.4-2.4s1.1-2.4,2.4-2.4S355.8,259.1,355.8,260.5z"/>
		</g>
	</g>
	<ellipse id="_x3C_Path_x3E__359_" class="st4" cx="250" cy="424.7" rx="193.9" ry="11.3"/>
	<g>
		<g>
			<g>
				<path class="st5" d="M86,413.6c0-0.3-3.5-34.4,4.3-63.4l1,0.3c-7.8,28.8-4.3,62.7-4.3,63L86,413.6z"/>
			</g>
			<g>
				<path class="st6" d="M94.5,357.5c0,0-10.8,20-8.6,43.6C85.9,401.1,90.3,372.2,94.5,357.5z"/>
				<path class="st6" d="M73.1,347.6c0,0,15.7,22.1,13,50.3C86,398,79.9,362.5,73.1,347.6z"/>
				<path class="st6" d="M85.9,404.8c0,0,3.4-29.2-14.7-37.6C71.3,367.2,80.9,374.3,85.9,404.8z"/>
			</g>
			<path class="st6" d="M87.8,350.6l-0.3,0.1c-0.5,0.1-0.8,0.6-0.7,1.1l0.4,1.5c0.2,0.6,1,0.9,1.5,0.4l0.5-0.5
				c0.5-0.4,1.2-0.3,1.4,0.3l0.7,2c0.2,0.5,0.8,0.7,1.3,0.5l1.7-1c0.5-0.3,0.6-1,0.2-1.4l-0.3-0.3c-0.5-0.5-0.2-1.5,0.6-1.5l1.5,0
				c0.5,0,0.9-0.5,0.8-1l-0.2-1.2c-0.1-0.6-0.7-0.9-1.2-0.7l-0.1,0c-0.7,0.4-1.5-0.4-1.2-1.1l0.5-1.1c0.2-0.5-0.1-1.1-0.7-1.2
				l-1.6-0.2c-0.5-0.1-1,0.3-1,0.8l0,0c0,0.9-1.2,1.2-1.6,0.4l-0.2-0.4c-0.3-0.5-0.9-0.6-1.4-0.2l-1.2,1.1c-0.4,0.3-0.4,0.9,0,1.3
				l0.9,0.9C88.8,349.6,88.6,350.5,87.8,350.6z"/>
			<path class="st7" d="M87.8,350.6l-0.3,0.1c-0.5,0.1-0.8,0.6-0.7,1.1l0.4,1.5c0.2,0.6,1,0.9,1.5,0.4l0.5-0.5
				c0.5-0.4,1.2-0.3,1.4,0.3l0.7,2c0.2,0.5,0.8,0.7,1.3,0.5l1.7-1c0.5-0.3,0.6-1,0.2-1.4l-0.3-0.3c-0.5-0.5-0.2-1.5,0.6-1.5l1.5,0
				c0.5,0,0.9-0.5,0.8-1l-0.2-1.2c-0.1-0.6-0.7-0.9-1.2-0.7l-0.1,0c-0.7,0.4-1.5-0.4-1.2-1.1l0.5-1.1c0.2-0.5-0.1-1.1-0.7-1.2
				l-1.6-0.2c-0.5-0.1-1,0.3-1,0.8l0,0c0,0.9-1.2,1.2-1.6,0.4l-0.2-0.4c-0.3-0.5-0.9-0.6-1.4-0.2l-1.2,1.1c-0.4,0.3-0.4,0.9,0,1.3
				l0.9,0.9C88.8,349.6,88.6,350.5,87.8,350.6z"/>
		</g>
		<path class="st6" d="M89.3,397.3l1.3-9.7h-11l1.3,9.7c-5.1,1.8-8.8,6.6-8.8,12.3c0,2.6,0.8,5.8,2.1,8.7c1.2,2.7,4,4.3,6.9,4.3h8
			c2.9,0,5.7-1.7,6.9-4.3c1.4-2.9,2.1-6,2.1-8.7C98.1,403.9,94.4,399.1,89.3,397.3z"/>
		<path class="st7" d="M89.3,397.3l1.3-9.7h-11l1.3,9.7c-5.1,1.8-8.8,6.6-8.8,12.3c0,2.6,0.8,5.8,2.1,8.7c1.2,2.7,4,4.3,6.9,4.3h8
			c2.9,0,5.7-1.7,6.9-4.3c1.4-2.9,2.1-6,2.1-8.7C98.1,403.9,94.4,399.1,89.3,397.3z"/>
	</g>
	<g>
		<g>
			<g>
				<polygon class="st5" points="307.9,302.5 307.9,422 311.2,422 314.1,308.6 317.9,308.6 317.9,302.5 				"/>
				<g>
					<polygon class="st5" points="310.8,422 313.9,422 317.9,302.5 313.8,302.5 					"/>
				</g>
				<g class="st8">
					<polygon class="st9" points="311.4,422 313.9,422 317.6,308.8 314.1,308.8 					"/>
				</g>
				<polygon class="st10" points="307.9,302.5 307.9,422 311.2,422 314.1,308.6 317.9,308.6 317.9,302.5 				"/>
			</g>
			<g>
				<g>
					<g>
						<g>
							<g>
								<polygon class="st5" points="112.2,422 115.3,422 119.3,302.7 115.2,302.7 								"/>
								<polygon class="st11" points="112.2,422 115.3,422 119.3,302.7 115.2,302.7 								"/>
							</g>
							<g>
								<polygon class="st5" points="162.3,302.7 162.3,422 159,422 155.1,308.5 115.4,308.5 112.5,422 109.3,422 109.3,302.7 
																	"/>
								<polygon class="st10" points="162.3,302.7 162.3,422 159,422 155.1,308.5 115.4,308.5 112.5,422 109.3,422 109.3,302.7 
																	"/>
							</g>
							<g>
								<polygon class="st5" points="162.3,422 165.4,422 166.4,302.7 162.3,302.7 								"/>
								<polygon class="st11" points="162.3,422 165.4,422 166.4,302.7 162.3,302.7 								"/>
							</g>
						</g>
						<g>
							<g>
								<polygon class="st5" points="317.9,302.7 317.9,308.5 353.8,308.5 357.6,422 360.9,422 360.9,302.7 								"/>
								<polygon class="st10" points="317.9,302.7 317.9,308.5 353.8,308.5 357.6,422 360.9,422 360.9,302.7 								"/>
								<polygon class="st12" points="317.9,302.7 317.9,308.5 353.8,308.5 357.6,422 360.9,422 360.9,302.7 								"/>
							</g>
							<g>
								<polygon class="st5" points="360.9,422 364,422 365,302.7 360.9,302.7 								"/>
							</g>
							<g class="st8">
								<polygon class="st9" points="360.9,422 364,422 365,302.7 360.9,302.7 								"/>
							</g>
						</g>
						<g>
							<g>
								
									<rect x="164.8" y="295" transform="matrix(-1 -1.224647e-16 1.224647e-16 -1 535.3074 597.651)" class="st5" width="205.6" height="7.7"/>
								
									<rect x="164.8" y="295" transform="matrix(-1 -1.224647e-16 1.224647e-16 -1 535.3074 597.651)" class="st13" width="205.6" height="7.7"/>
							</g>
							<g>
								
									<rect x="103.8" y="295" transform="matrix(-1 -1.224647e-16 1.224647e-16 -1 273.4354 597.651)" class="st5" width="65.8" height="7.7"/>
								
									<rect x="103.8" y="295" transform="matrix(-1 -1.224647e-16 1.224647e-16 -1 273.4354 597.651)" class="st14" width="65.8" height="7.7"/>
							</g>
						</g>
					</g>
				</g>
			</g>
		</g>
		<g>
			<g>
				<g>
					<path class="st5" d="M149.6,292.9v1.1c0,0.5,0.4,1,1,1h38c0.5,0,0.9-0.4,0.9-0.9v-1c0-0.5-0.4-0.9-0.9-0.9h-9.5
						c-1.1,0-1.9-1-1.7-2l3.3-19.2h-21.6l-9.2,20.5C149.7,291.8,149.6,292.3,149.6,292.9z"/>
					<path class="st15" d="M189.5,293v1c0,0.5-0.4,0.9-0.9,0.9h-38c-0.5,0-1-0.4-1-1v-1.1c0-0.3,0-0.6,0.1-0.8
						c0.1-0.2,0.1-0.5,0.2-0.7l9.2-20.5h21.6l-3.3,19.2c0,0.1,0,0.2,0,0.3c0,0.8,0.6,1.5,1.4,1.7c0.1,0,0.2,0,0.4,0h9.5
						C189.1,292.1,189.5,292.5,189.5,293z"/>
					<g>
						<g>
							<path class="st5" d="M148.7,291.3l9.2-20.5h1.2l-9.2,20.5c-0.2,0.5-0.3,1-0.3,1.5v1.1c0,0.5,0.4,1,1,1h-1.2c-0.5,0-1-0.4-1-1
								v-1.1C148.4,292.3,148.5,291.8,148.7,291.3z"/>
						</g>
					</g>
					<polygon class="st8" points="159.2,270.9 180.7,270.9 179.9,275.8 156.9,275.8 					"/>
				</g>
				<g>
					<g>
						<g>
							<path class="st5" d="M217,273h-92.1c-1.9,0-3.4-1.5-3.4-3.4l0-66.6c0-1.9,1.5-3.4,3.4-3.4H217c1.9,0,3.4,1.5,3.4,3.4l0,66.6
								C220.4,271.5,218.9,273,217,273z"/>
						</g>
					</g>
					<g class="st16">
						<g>
							<path class="st9" d="M217,273h-92.1c-1.9,0-3.4-1.5-3.4-3.4l0-66.6c0-1.9,1.5-3.4,3.4-3.4H217c1.9,0,3.4,1.5,3.4,3.4l0,66.6
								C220.4,271.5,218.9,273,217,273z"/>
						</g>
					</g>
					<path class="st6" d="M124.9,260.4h92c1,0,1.8-0.8,1.8-1.8l0-55c0-1-0.8-1.8-1.8-1.8h-92c-1,0-1.8,0.8-1.8,1.8v55
						C123.1,259.6,123.9,260.4,124.9,260.4z"/>
					<path class="st14" d="M124.9,260.4h92c1,0,1.8-0.8,1.8-1.8l0-55c0-1-0.8-1.8-1.8-1.8h-92c-1,0-1.8,0.8-1.8,1.8v55
						C123.1,259.6,123.9,260.4,124.9,260.4z"/>
					<g>
						<path class="st17" d="M122.8,199.7h2c-1.9,0-3.4,1.5-3.4,3.4v66.6c0,1.9,1.5,3.4,3.4,3.4h-2c-1.9,0-3.4-1.5-3.4-3.4v-66.6
							C119.4,201.2,121,199.7,122.8,199.7z"/>
						<path class="st5" d="M122.8,199.7h2c-1.9,0-3.4,1.5-3.4,3.4v66.6c0,1.9,1.5,3.4,3.4,3.4h-2c-1.9,0-3.4-1.5-3.4-3.4v-66.6
							C119.4,201.2,121,199.7,122.8,199.7z"/>
					</g>
					<g class="st16">
						<polygon class="st9" points="162.8,201.7 159.3,201.7 141.7,260.4 145.2,260.4 						"/>
						<polygon class="st9" points="138.1,260.4 155.7,201.7 142.4,201.7 124.8,260.4 						"/>
					</g>
				</g>
			</g>
			<path class="st15" d="M156.1,293v1c0,0.5,0.4,1,1,1h31.5c0.5,0,0.9-0.4,0.9-0.9v-1c0-0.5-0.4-0.9-0.9-0.9h-9.5
				c-0.1,0-0.2,0-0.4,0h-21.7C156.6,292,156.1,292.5,156.1,293z"/>
			<path class="st16" d="M149.7,292h29.1c-0.8-0.2-1.4-0.8-1.4-1.7h-27L149.7,292z"/>
		</g>
		<g>
			<g>
				<g>
					<path class="st5" d="M221.8,292.6h2.8c0.3,0,0.5-0.2,0.5-0.5v-2.7c0-0.3-0.2-0.5-0.5-0.5h-2c-0.2,0-0.4,0.1-0.5,0.4l-0.8,2.7
						C221.2,292.3,221.4,292.6,221.8,292.6z"/>
					<path class="st5" d="M218,292.6h2.8c0.3,0,0.5-0.2,0.5-0.5v-2.7c0-0.3-0.2-0.5-0.5-0.5h-2c-0.2,0-0.4,0.1-0.5,0.4l-0.8,2.7
						C217.4,292.3,217.6,292.6,218,292.6z"/>
					<path class="st5" d="M214.2,292.6h2.8c0.3,0,0.5-0.2,0.5-0.5v-2.7c0-0.3-0.2-0.5-0.5-0.5h-2c-0.2,0-0.4,0.1-0.5,0.4l-0.8,2.7
						C213.6,292.3,213.8,292.6,214.2,292.6z"/>
					<path class="st5" d="M210.4,292.6h2.8c0.3,0,0.5-0.2,0.5-0.5v-2.7c0-0.3-0.2-0.5-0.5-0.5h-2c-0.2,0-0.4,0.1-0.5,0.4l-0.8,2.7
						C209.8,292.3,210,292.6,210.4,292.6z"/>
					<path class="st5" d="M206.6,292.6h2.8c0.3,0,0.5-0.2,0.5-0.5v-2.7c0-0.3-0.2-0.5-0.5-0.5h-2c-0.2,0-0.4,0.1-0.5,0.4l-0.8,2.7
						C206,292.3,206.2,292.6,206.6,292.6z"/>
					<path class="st5" d="M202.8,292.6h2.8c0.3,0,0.5-0.2,0.5-0.5v-2.7c0-0.3-0.2-0.5-0.5-0.5h-2c-0.2,0-0.4,0.1-0.5,0.4l-0.8,2.7
						C202.2,292.3,202.4,292.6,202.8,292.6z"/>
					<path class="st5" d="M199,292.6h2.8c0.3,0,0.5-0.2,0.5-0.5v-2.7c0-0.3-0.2-0.5-0.5-0.5h-2c-0.2,0-0.4,0.1-0.5,0.4l-0.8,2.7
						C198.4,292.3,198.6,292.6,199,292.6z"/>
					<path class="st5" d="M195.1,292.6h2.8c0.3,0,0.5-0.2,0.5-0.5v-2.7c0-0.3-0.2-0.5-0.5-0.5h-2c-0.2,0-0.4,0.1-0.5,0.4l-0.8,2.7
						C194.6,292.3,194.8,292.6,195.1,292.6z"/>
					<path class="st5" d="M191.3,292.6h2.8c0.3,0,0.5-0.2,0.5-0.5v-2.7c0-0.3-0.2-0.5-0.5-0.5h-2c-0.2,0-0.4,0.1-0.5,0.4l-0.8,2.7
						C190.7,292.3,191,292.6,191.3,292.6z"/>
					<path class="st5" d="M187.5,292.6h2.8c0.3,0,0.5-0.2,0.5-0.5v-2.7c0-0.3-0.2-0.5-0.5-0.5h-2c-0.2,0-0.4,0.1-0.5,0.4L187,292
						C186.9,292.3,187.2,292.6,187.5,292.6z"/>
					<path class="st5" d="M183.7,292.6h2.8c0.3,0,0.5-0.2,0.5-0.5v-2.7c0-0.3-0.2-0.5-0.5-0.5h-2c-0.2,0-0.4,0.1-0.5,0.4l-0.8,2.7
						C183.1,292.3,183.4,292.6,183.7,292.6z"/>
					<path class="st5" d="M179.9,292.6h2.8c0.3,0,0.5-0.2,0.5-0.5v-2.7c0-0.3-0.2-0.5-0.5-0.5h-2c-0.2,0-0.4,0.1-0.5,0.4l-0.8,2.7
						C179.3,292.3,179.6,292.6,179.9,292.6z"/>
					<path class="st5" d="M176.1,292.6h2.8c0.3,0,0.5-0.2,0.5-0.5v-2.7c0-0.3-0.2-0.5-0.5-0.5h-2c-0.2,0-0.4,0.1-0.5,0.4l-0.8,2.7
						C175.5,292.3,175.8,292.6,176.1,292.6z"/>
					<path class="st5" d="M172.3,292.6h2.8c0.3,0,0.5-0.2,0.5-0.5v-2.7c0-0.3-0.2-0.5-0.5-0.5h-2c-0.2,0-0.4,0.1-0.5,0.4l-0.8,2.7
						C171.7,292.3,172,292.6,172.3,292.6z"/>
					<path class="st5" d="M168.5,292.6h2.8c0.3,0,0.5-0.2,0.5-0.5v-2.7c0-0.3-0.2-0.5-0.5-0.5h-2c-0.2,0-0.4,0.1-0.5,0.4L168,292
						C167.9,292.3,168.2,292.6,168.5,292.6z"/>
				</g>
				<path class="st5" d="M165.7,292.9c0,1.2,1,2.1,2.3,2.1h57c1.3,0,2.3-0.9,2.3-2.1c0-0.6-0.3-1.1-0.7-1.5c-0.4-0.4-1-0.6-1.6-0.6
					h-57c-0.2,0-0.4,0-0.6,0.1C166.4,291.1,165.7,291.9,165.7,292.9z"/>
			</g>
			<path class="st15" d="M165.7,292.9c0,1.2,1,2.1,2.3,2.1h57c1.3,0,2.3-0.9,2.3-2.1c0-0.6-0.3-1.1-0.7-1.5c-0.4-0.4-1-0.6-1.6-0.6
				h-57c-0.2,0-0.4,0-0.6,0.1C166.4,291.1,165.7,291.9,165.7,292.9z"/>
			<path class="st5" d="M165.7,292.9c0,1.2,1,2.1,2.3,2.1h19.3c0.9-0.3,1.6-1.1,1.6-2c0-0.1,0-0.3,0-0.4c-0.1-0.4-0.3-0.8-0.6-1.1
				c-0.1-0.1-0.3-0.2-0.5-0.3c-0.1,0-0.2-0.1-0.3-0.1c-0.3-0.1-0.6-0.2-0.9-0.2h-19.2C166.4,291.1,165.7,291.9,165.7,292.9z"/>
		</g>
	</g>
	<g>
		<g>
			<g>
				<path class="st5" d="M344.7,254.5c0,0,7.4,91.6,7.4,92.1l4.7,54.6h10.1c0,0,0.3-2.9,0.9-7.1c5.5-36.3,1.6-48.2,1.6-48.2
					s4.9-70.1,6.6-75.3C376.2,270,370.5,231.5,344.7,254.5z"/>
			</g>
			<g class="st16">
				<path d="M344.7,254.5c0,0,7.4,91.6,7.4,92.1l4.7,54.6h10.1c0,0,0.3-2.9,0.9-7.1c5.5-36.3,1.6-48.2,1.6-48.2s4.9-70.1,6.6-75.3
					C376.2,270,370.5,231.5,344.7,254.5z"/>
			</g>
			<g>
				<g>
					<path class="st5" d="M344.8,253.2L344.8,253.2c2.1,7.9,7.2,14.7,14.1,19.1l7,4.4c0,0,36.4-35.1,4.5-42.8
						C364.2,232.4,344.8,253.2,344.8,253.2z"/>
				</g>
			</g>
			<g>
				<g>
					<polygon class="st18" points="436.1,392.2 429.7,396.5 423.8,388.8 417.4,380.6 417.3,380.6 424.8,375.4 425.8,376.9 
						430.9,384.4 					"/>
					<polygon class="st19" points="430.9,384.4 423.8,388.8 417.4,380.6 425,375.8 425.8,376.9 					"/>
					<g>
						<path class="st5" d="M394.1,288.6c0.1,12.1,2.8,33.9,4.5,45.9c0,0,9,10.7,13.9,18.2l15.5,25.5l-9.6,6.2L388,351.6
							c-8.7-6.6-7.3-10.6-9.5-16.7c-5.4-14.8-8.9-30.8-11.3-45.2c-1.1-6.7-5.9-28.5-4.2-35c2.3-8.8,4.9-24.1,15.3-17.5
							C386.9,242.7,393.6,251.6,394.1,288.6z"/>
					</g>
					<polygon class="st20" points="431.6,380.7 419.7,388.2 414.9,383.2 428.2,374.7 					"/>
					<g>
						<path class="st5" d="M428.5,396.7l4.8-8.4c0.2-0.3,0.5-0.5,0.9-0.3l7.2,2.8c0.7,0.3,1,1.1,0.7,1.8c0,0,0,0.1-0.1,0.1
							c-1.7,2.9-2.7,4.2-4.8,7.9c-1.3,2.3-3.8,7.5-5.6,10.6c-1.8,3.1-5,1.5-4.5,0.1c2.1-6.6,1.7-10.3,1.2-13.2
							C428.2,397.7,428.2,397.2,428.5,396.7z"/>
						<path class="st6" d="M427.1,401.3c1-0.3,1.8-2.2,2.1-3.3c0-0.1,0-0.2-0.1-0.2c-0.1-0.1-0.2-0.1-0.2,0
							c-0.3,0.2-3.1,1.6-3.2,2.7c0,0.3,0.1,0.5,0.3,0.6c0.1,0.1,0.2,0.1,0.3,0.2C426.6,401.3,426.9,401.3,427.1,401.3z M428.7,398.3
							c-0.5,1.5-1.1,2.4-1.6,2.6c-0.3,0.1-0.5,0-0.7-0.2c-0.1-0.1-0.2-0.2-0.1-0.3C426.2,399.8,427.6,398.9,428.7,398.3L428.7,398.3
							z"/>
						<path class="st6" d="M429.1,398c0.1,0,0.1-0.1,0.1-0.2c0-0.1-0.1-0.1-0.1-0.2c-0.1-0.1-2.2-1.3-3.4-0.9
							c-0.3,0.1-0.5,0.3-0.7,0.6c-0.2,0.3-0.1,0.7,0.2,0.9c0.1,0.1,0.1,0.1,0.2,0.1C426.3,398.9,428.3,398.5,429.1,398z
							 M428.6,397.9c-1,0.4-2.7,0.5-3.1,0.2c-0.1-0.1-0.1-0.2,0-0.4c0.1-0.2,0.2-0.3,0.4-0.4C426.5,397,427.7,397.5,428.6,397.9
							L428.6,397.9z"/>
					</g>
				</g>
			</g>
			<g>
				<g>
					<g>
						<g>
							<path class="st18" d="M324.7,290.4l-6.7-0.4c0,0-4.7-33.9-5.2-35.2c-0.6-2.5-4.4-21.3-5.9-26.2l0.7-0.1
								c-0.8-2.5-0.1-5.2,2.5-6c2.6-0.8,6.2,0.5,7,3c1.7,5,4.9,24,5.4,26.3c0,0,0,0.1,0,0.2C323.9,261.8,324.7,290.4,324.7,290.4z"
								/>
						</g>
						<g>
							<g>
								<path class="st18" d="M324.7,290.4c0,3.1-2.8,4.7-4.8,4.9h-10.7l-0.6-0.1c-0.3-0.1-0.4-0.4-0.1-0.6l1.9-1.5
									c2.1-1.7,5-2.3,7.6-3L324.7,290.4z"/>
							</g>
						</g>
					</g>
					<path class="st6" d="M311.6,212.1c-10.9,5.3-3.3,27.1-3.3,27.1l13.4-1.3c0,0,1.3-15.9-0.2-20.8
						C319.9,212,316.8,208.7,311.6,212.1z"/>
					<path class="st19" d="M315.6,238.6c0,0-3-16-0.1-19c0.9-0.6,1.8-1.1,2.9-1.4c3.6,1.6,2.8,6.7,2.8,6.7l0.4,13.1
						C320,238.3,315.6,238.6,315.6,238.6z"/>
					<path class="st6" d="M313.6,226.1c3.5,6.1,11,14.2,31,26.7l24.7-19c-8.3-9.9-13.5-16.5-23.6-37.9c-1-2.1-2.8-3.7-5.1-4.2
						c-1.9-0.4-3.9-0.1-5.5,0.8c-1.8,1.1-3.8,2.3-5.8,3.7c-4.4,2.9-8.6,6.2-12.6,9.7c-2.8,2.6-5.5,5.5-7.5,7.6c0,0,0,0.3,0.2,1.1
						C310.1,218.6,311.6,222.5,313.6,226.1z"/>
				</g>
				<path class="st19" d="M347.2,198.1c0.3,0.9,0.7,1.7,1,2.5c1.3,3.3,3.8,8.3,5.6,11.4c-8,1.4-16.2-3-17.4-5.9
					C335.7,204.3,343.2,199.3,347.2,198.1z"/>
				<path class="st17" d="M368.4,231.9l3.2,1.5c0.2,0.1,0.2,0.5-0.1,0.7l-26.7,20.4c-0.3,0.2-0.6,0.2-0.7,0.1l-2.2-2.3
					c-0.1-0.2,0-0.5,0.2-0.7l25.7-19.6C368,231.8,368.2,231.8,368.4,231.9z"/>
				<path class="st14" d="M368.4,231.9l3.2,1.5c0.2,0.1,0.2,0.5-0.1,0.7l-26.7,20.4c-0.3,0.2-0.6,0.2-0.7,0.1l-2.2-2.3
					c-0.1-0.2,0-0.5,0.2-0.7l25.7-19.6C368,231.8,368.2,231.8,368.4,231.9z"/>
				<path class="st17" d="M342.1,251.6l25.7-19.6"/>
				<path class="st5" d="M367.1,237.9l0.7-0.6c0.2-0.1,0.2-0.3,0.1-0.4l-2.8-3c-0.1-0.1-0.3-0.1-0.4,0.1l-0.7,0.6
					c-0.1,0.1-0.2,0.3-0.1,0.4l2.8,2.9C366.7,238,366.9,238,367.1,237.9z"/>
				<path class="st5" d="M347.1,253.2l0.7-0.6c0.2-0.1,0.2-0.3,0.1-0.4l-2.8-2.9c-0.1-0.1-0.3-0.1-0.4,0l-0.7,0.6
					c-0.2,0.1-0.2,0.3-0.1,0.4l2.8,3C346.7,253.3,346.9,253.3,347.1,253.2z"/>
				<g>
					<path class="st18" d="M317.2,182.9c2.3,4.7,7.2,12.7,12.1,13.2c0,0,2.9,7.1-2.5,20.1c-11.6-2.5-10.1-10.4-10.1-10.4
						c3.7-4.6,1-7.8-2.2-10.3L317.2,182.9z"/>
					<g>
						<path class="st17" d="M327.7,217.8l0.4-1c5.5-13.4,2.7-21.1,2.5-21.5l-2.8,0.5l0.3,0.9c0,0.1,2.4,6.4-2.1,18
							c-8.9-2.4-8.4-9.9-8.4-10.1l-2,2.2c0,0.1-1.8,8.1,10.9,10.8L327.7,217.8z"/>
					</g>
					<g>
						<path class="st14" d="M327.7,217.8l0.4-1c5.5-13.4,2.7-21.1,2.5-21.5l-2.8,0.5l0.3,0.9c0,0.1,2.4,6.4-2.1,18
							c-8.9-2.4-8.4-9.9-8.4-10.1l-2,2.2c0,0.1-1.8,8.1,10.9,10.8L327.7,217.8z"/>
					</g>
					<path class="st19" d="M316.9,184.3c1.8,2.5,3,5.3,3.7,8.2c0.4,2.1-0.8,6.3-3,6c-0.8-1.2-1.8-2.2-3-3.1L316.9,184.3z"/>
					<path class="st5" d="M303.3,206.5c-9.3-7.7-11.9-18.4-12-27.9c0-1.8,0.4-7.6,2.2-7.7C307.4,170.1,291.6,184,303.3,206.5z"/>
					<path class="st18" d="M314.7,174.1c4.5,6.9,6.6,9.8,5.8,15.7c-1.2,8.9-10.7,12.9-17.2,7.5c-5.9-4.9-12.3-15.4-7.8-22.9
						c3.2-5.4,10.2-7.1,15.5-3.9C312.5,171.4,313.8,172.7,314.7,174.1z"/>
					<g>
						<path class="st5" d="M306.4,194.6c0,0,1.1-2.2,5.8-7.3c1.4,2.2,2,4.6-0.4,7.2c-1,1.4-3.3,1.6-5.1,0.3
							C306.6,194.7,306.5,194.7,306.4,194.6z"/>
						<path class="st21" d="M311.4,192c-1,0.9-1.6,2.2-1.6,3.6c0.9-0.2,1.6-0.6,2.1-1.1c1-0.9,1.6-2.2,1.6-3.6
							C312.6,191,311.9,191.4,311.4,192z"/>
						<path class="st9" d="M306.6,194.3c0.6,0.3,1.3,0.3,1.7,0c1.4-1.5,2.6-3.2,3.6-4.9c0.4-0.5,0.4-1.3,0.1-1.9
							C310,189.6,308.2,191.9,306.6,194.3z"/>
					</g>
					<path class="st21" d="M302.2,187.7c0.3,1.7,0.4,3.4,0.2,5.1c0.9,0.1,1.7-0.3,2.3-0.9L302.2,187.7z"/>
					<path class="st5" d="M304.8,180.8c-0.1,0-0.1,0-0.2,0c-1-0.3-2-0.1-2.8,0.5c-0.2,0.1-0.4,0.1-0.6,0c-0.1-0.2-0.1-0.4,0-0.5
						c0,0,0,0,0,0c1-0.8,2.3-1,3.6-0.6c0.2,0.1,0.3,0.3,0.3,0.5C305,180.7,304.9,180.8,304.8,180.8z"/>
					<path class="st5" d="M295.5,187.8L295.5,187.8c-0.3,0-0.5-0.1-0.5-0.3c-0.1-1.3,0.4-2.5,1.4-3.3c0.2-0.1,0.4-0.1,0.5,0.1
						c0.1,0.2,0.1,0.4-0.1,0.6c-0.8,0.7-1.2,1.6-1.1,2.6C295.8,187.6,295.7,187.8,295.5,187.8z"/>
					<g>
						<path class="st5" d="M305.6,183.6c0.4,0.5,0.5,1.2,0.1,1.5c-0.4,0.3-1,0-1.4-0.5c-0.4-0.5-0.5-1.2-0.1-1.5
							C304.6,182.8,305.2,183,305.6,183.6z"/>
						<path class="st5" d="M299.3,188c0.4,0.5,0.5,1.2,0.1,1.5c-0.4,0.3-1,0-1.4-0.5c-0.4-0.5-0.5-1.2-0.1-1.5
							C298.4,187.3,298.9,187.5,299.3,188z"/>
						<path class="st5" d="M298.2,187.5l-1.6,0.6C296.6,188.1,298,188.6,298.2,187.5z"/>
						<path class="st5" d="M304.4,183l-1.6,0.6C302.9,183.6,304.3,184.1,304.4,183z"/>
					</g>
					<g>
						<path class="st5" d="M317.2,178.7c3.8,1.5,3.3,11.1,3.3,11.1c-0.2,0.4,4.1-5.3,1.7-18.6c-1.6-8.9-16.9-11.8-28.2-1.1
							c-2.2,2.1-0.9,14.1,0,11.9c1-2.6,7.8-7.7,12-8.7C305.6,173,315,177.8,317.2,178.7z"/>
					</g>
					<g>
						<path class="st5" d="M316.4,171c1.2-0.7,2.1-2,2.3-3.4c0.2-1.4-0.4-2.9-1.4-3.9c-1-1-2.4-1.4-3.7-1.8
							c-1.3-0.4-2.7-0.7-3.9-1.6c-1.1-0.8-1.4-1.9-1.6-3.6c-1.2,1.1-1.1,2.3-1.2,2.7c-1-0.7-1.2-1.8-1.6-4.3c-0.8,1.5-1,2.9-0.5,4.2
							c-0.7-0.3-1.2-0.8-1.6-3.2c-1.2,3-0.5,5.6,0.2,6.1c-1.7-0.1-3.2,1.3-3.4,3c-0.3,1.6,0.5,3.3,1.7,4.5c1.2,1.1,2.8,1.8,4.4,2.1
							c3.3,0.8,6.7,0.5,9.9-0.6C316.1,171,316.4,171,316.4,171z"/>
					</g>
					<path class="st18" d="M321.9,177c0.8,1.4,1,3,0.6,4.6c-0.5,2.1-2.6,2-4,0.5c-1.2-1.3-2.4-4-1.2-5.6c1-1.2,2.7-1.3,3.8-0.4
						C321.4,176.4,321.7,176.7,321.9,177z"/>
				</g>
				<g>
					<g>
						<g>
							<g>
								<g>
									<path class="st18" d="M310.4,215.5l-8.7,1.2l0.1,7.7c0,0,5.9-1.3,8.3-4.4L310.4,215.5z"/>
									<polygon class="st18" points="296.6,220.1 296.2,225.7 301.8,224.3 301.7,216.7 									"/>
								</g>
								<g class="st19">
									<path d="M301.3,223.6c0,0-0.1,0.1-0.2,0.2L301.3,223.6z"/>
								</g>
							</g>
						</g>
					</g>
					<g>
						<path class="st18" d="M346.6,200.9c1.3,5.7,1.1,16.3,0.9,20.5c-0.1,2-0.8,3.9-2.2,5.4c-1.7,1.7-4.5,3-9,1.1
							c-4.6-2-26.3-6.8-26.2-7.9l0.2-4.4c0,0,13.2,0.4,27.3,2c0.6-6.6-0.6-15-0.1-17.2C338.5,196.7,344.9,193.7,346.6,200.9z"/>
					</g>
				</g>
				<path class="st6" d="M337.8,191.6c-3,2.2-3.4,18.8-3.4,18.8l15.3,0.3c0,0,0-11.1-1.3-14.3C346.5,191.2,341.2,189.2,337.8,191.6z
					"/>
			</g>
			<g>
				<g>
					<polygon class="st18" points="366.2,414.9 358.4,414.1 357.3,398.1 366.9,397.6 					"/>
					<polygon class="st19" points="357.4,397.8 357.9,406.9 366.5,406.3 367.1,397.6 					"/>
				</g>
				<g>
					<path class="st5" d="M356.8,411.8l10.2-0.7c0.4,0,0.7,0.2,0.9,0.6l2.8,7.9c0.2,0.7-0.1,1.4-0.7,1.6c-0.1,0-0.3,0.1-0.4,0.1
						c-3.6,0.2-5.3,0.1-9.8,0.4c-2.8,0.2-9.9,0.9-13.7,1.2c-3.8,0.3-4.8-3.5-3.2-3.9c6.8-2,10.6-4.4,12.6-6.5
						C355.8,412.1,356.3,411.8,356.8,411.8z"/>
					<path class="st6" d="M355.7,413.3c0.1,0,0.1-0.1,0.1-0.2c0-0.1-0.1-0.2-0.1-0.2c-0.7-0.3-4.4-1.5-5.2-0.7
						c-0.2,0.1-0.2,0.4-0.2,0.6c0.1,0.4,0.3,0.7,0.6,0.9c0.6,0.3,1.3,0.4,2,0.3C353.9,413.8,354.8,413.6,355.7,413.3z M351.2,412.4
						c1.3,0,2.6,0.3,3.8,0.7c-1.8,0.5-3.2,0.6-3.8,0.2c-0.2-0.1-0.4-0.4-0.4-0.6c0-0.1,0-0.2,0.1-0.2
						C350.9,412.4,351,412.4,351.2,412.4L351.2,412.4z"/>
					<path class="st6" d="M355.8,413.3c0.1-0.1,0.1-0.1,0-0.2c-0.1-0.2-1.3-3.7-3.3-3.3c-0.5,0.1-0.7,0.4-0.6,0.6
						c0,1,2.5,2.6,3.7,2.9l0.1,0C355.7,413.3,355.8,413.3,355.8,413.3z M352.8,410.1c1.2-0.1,2.2,1.8,2.5,2.6c-1.2-0.5-3-1.8-3-2.3
						c0-0.1,0.1-0.2,0.3-0.2L352.8,410.1L352.8,410.1z"/>
				</g>
				<polygon class="st20" points="369.5,403.6 354.9,404.3 353.3,397.8 370.3,396.7 				"/>
			</g>
		</g>
	</g>
	<g>
		<g>
			<g>
				<polygon class="st22" points="184.1,414.2 176.7,412.6 180.4,396.2 190.2,399.6 				"/>
				<polygon class="st19" points="192.4,393.9 181.7,389.7 179.4,400.7 188.5,403.5 				"/>
			</g>
			<g>
				<polygon class="st22" points="214.6,414.2 207.1,413.2 210.2,393.9 220.3,396.4 				"/>
				<polygon class="st19" points="222,390.6 211,387.3 209.3,399.6 218.7,401.3 				"/>
			</g>
			<g>
				<g>
					<path class="st17" d="M259.1,304.3c0,0-42.6,4.9-44.5,22.5c-1.9,22.9-0.8,16.4-6,69.4l12.6,0.7c0,0,12.8-43.3,11.1-60.6
						c14.1,0,46.5,1.2,51.2-11.5c2.3-6.5,3.5-13.3,3.4-20.2L259.1,304.3z"/>
				</g>
				<g>
					<path class="st23" d="M259.1,304.3c0,0-42.6,4.9-44.5,22.5c-1.9,22.9-0.8,16.4-6,69.4l12.6,0.7c0,0,12.8-43.3,11.1-60.6
						c14.1,0,46.5,1.2,51.2-11.5c2.3-6.5,3.5-13.3,3.4-20.2L259.1,304.3z"/>
				</g>
				<polygon class="st24" points="221.6,399.1 207.1,396.6 207.6,389.7 224.1,393.1 				"/>
			</g>
			<g>
				<path class="st5" d="M207.3,409.5l8.4,1.7c0.3,0,0.5,0.4,0.5,0.7l-0.7,8c-0.1,0.9-0.8,1.4-1.5,1.3c-2.9-0.6-4.3-1.1-8-1.8
					c-2.3-0.4-7.5-1.5-10.7-1.9c-3.2-0.4-2.8-4.1-1.4-4.3c6.2-0.8,9.7-1.8,12-3.4C206.4,409.5,206.8,409.4,207.3,409.5z"/>
				<g>
					<path class="st6" d="M203.5,410.9c0.7,0.1,1.3,0.1,2,0.1c0.1,0,0.1,0,0.1-0.1c0-0.1,0-0.1,0-0.2c-0.2-0.2-2.1-2-3.1-1.8
						c-0.2,0-0.4,0.2-0.5,0.4c-0.2,0.3-0.1,0.7,0.1,1C202.5,410.7,203,410.9,203.5,410.9z M205.1,410.7c-1.4,0-2.4-0.2-2.7-0.6
						c-0.1-0.2-0.1-0.4,0-0.6c0-0.1,0.1-0.2,0.2-0.2C203.2,409.1,204.4,410,205.1,410.7z"/>
					<path class="st6" d="M205.5,411C205.5,411,205.6,411,205.5,411c0.1,0,0.2-0.1,0.2-0.1c0-0.1,0.6-2.2-0.1-3.1
						c-0.2-0.2-0.4-0.4-0.7-0.4c-0.3,0-0.6,0.1-0.7,0.4C203.9,408.6,204.8,410.4,205.5,411C205.5,411,205.5,411,205.5,411z
						 M205,407.8c0.1,0,0.3,0.1,0.4,0.2c0.3,0.8,0.3,1.7,0.1,2.5c-0.6-0.7-0.9-1.6-0.9-2.5C204.6,407.9,204.7,407.8,205,407.8
						L205,407.8z"/>
				</g>
			</g>
			<g>
				<g>
					<path class="st23" d="M244.2,304.3c-0.3,0-56.2,5.8-56.3,24.7c-2.1,14-9.1,67.3-9.1,67.3l11.8,3.9c0,0,18.5-37.3,18.2-61.8
						c15.4-4.4,55.1,3,59.8-9.7c3.9-10.4,1.8-24.3,1.8-24.3L244.2,304.3z"/>
					<polygon class="st24" points="191.4,401.5 177.4,396.9 178.6,390.8 194.2,396.2 					"/>
				</g>
			</g>
			<g>
				<path class="st5" d="M177.2,408.6l8.4,1.8c0.3,0.1,0.5,0.4,0.5,0.8l-0.7,8.8c-0.1,0.9-0.8,1.6-1.5,1.5c0,0,0,0,0,0
					c-2.9-0.7-4.3-1.2-8-2c-2.3-0.5-8.5-2-11.6-2.8c-3.1-0.8-2.4-4.8-1-4.8c6.2-0.1,10.2-1.1,12.6-2.8
					C176.3,408.6,176.8,408.5,177.2,408.6z"/>
				<g>
					<path class="st6" d="M173.7,410.5c0.6-0.3,1.1-0.7,1.6-1.1c0.1,0,0.1-0.1,0.1-0.2c0-0.1-0.1-0.1-0.1-0.1
						c-0.3,0-2.9-0.4-3.5,0.4c-0.1,0.2-0.2,0.4-0.1,0.6c0.1,0.4,0.3,0.6,0.6,0.8C172.8,410.9,173.3,410.7,173.7,410.5z M174.9,409.3
						c-1.1,0.9-2,1.3-2.5,1.1c-0.2-0.1-0.4-0.3-0.4-0.5c0-0.1,0-0.2,0.1-0.3C172.4,409.2,173.8,409.2,174.9,409.3z"/>
					<path class="st6" d="M175.4,409.3L175.4,409.3c0.1-0.1,0.1-0.2,0.1-0.2c-0.1-0.1-0.9-2.1-1.9-2.4c-0.3-0.1-0.6,0-0.8,0.1
						c-0.3,0.2-0.4,0.5-0.3,0.8C172.7,408.4,174.4,409.3,175.4,409.3C175.3,409.3,175.4,409.3,175.4,409.3z M173.1,407
						c0.1-0.1,0.3-0.1,0.4,0c0.7,0.5,1.2,1.1,1.5,1.9c-0.9-0.2-1.7-0.7-2.2-1.5C172.8,407.4,172.8,407.2,173.1,407L173.1,407z"/>
				</g>
			</g>
			<g>
				<path class="st22" d="M273.1,251.1c2.2,11.8,2.5,19.5,2.2,27.3c-0.1,3.3-2.2,6.2-5.3,7.2c-10.7,3.7-38.4,5.1-47.3,3.9l3.6-3.8
					c0,0,38-7.4,37.1-10.4c0,0-1.8-19-3-21.8L273.1,251.1z"/>
				<g>
					<path class="st22" d="M227,285.8l-6.4-4.2l-6.7,4.5c0,0,5.1,4.4,9.9,3.3L227,285.8z"/>
					<path class="st22" d="M214.7,283.1l-3.5,2.7c-0.3,0.2-0.1,0.7,0.2,0.7l4.1,0.4l5-5.3L214.7,283.1z"/>
				</g>
			</g>
			<g>
				<path class="st22" d="M244,246c3.2,0.7,5.1,3.9,4.3,7.1c-0.3,1.4-11.2,26.7-11.7,27.6c-3.6,8.8-9.9,8.2-18.6,8.5
					c-6.9-0.1-12,0.5-18.7-1l1.7-3.6c4.7-0.2,14.8-3.7,20.7-5.4c2.3-0.6,4.3-2,5.3-4.1c2.8-6,9.2-21.3,10.1-24.9
					C237.8,247.1,240.9,245.2,244,246L244,246z"/>
				<g>
					<path class="st22" d="M201.2,284.5l-5.5-2.4l-4.6,5.4c0,0,7.4,2.4,8.7,0.1L201.2,284.5z"/>
					<path class="st22" d="M189,286.6l-1.4,1.3c-0.4,0.4,0,1,0.5,0.8l3-1.2l4.6-5.4l-4.9,3.1C190.2,285.6,189.5,286.1,189,286.6z"/>
				</g>
			</g>
			<g>
				<path class="st22" d="M249.8,214.8l5.8,3.6l8.6,4.7c0,0.4,0.2,5.1,0.5,6.5c0.7,2.7,1.7,4.9,6.5,5.4c0,0,6.3,4.4-4.8,6.1
					c-11.1,1.7-14.4-3.3-14.4-3.3C255.6,233,252.1,220.9,249.8,214.8z"/>
				<g>
					<path class="st5" d="M269.8,203.1c0.2,0.7,0.7,1.1,1.2,1c0.4-0.1,0.6-0.7,0.4-1.4c-0.2-0.7-0.7-1.1-1.2-1
						C269.8,201.8,269.6,202.5,269.8,203.1z"/>
					<path class="st5" d="M266.8,201.6c0.1,0,0.2-0.1,0.3-0.2c0.4-1,1.2-1.8,2.2-2.1c0.2-0.1,0.4-0.3,0.3-0.5c0-0.2-0.3-0.4-0.5-0.3
						c0,0,0,0,0,0l0,0c-1.3,0.4-2.3,1.3-2.8,2.6c-0.1,0.2,0,0.4,0.2,0.5C266.6,201.6,266.7,201.6,266.8,201.6z"/>
					<path class="st25" d="M270.3,203.8c1.1,1.6,2.4,3.1,3.9,4.4c-0.7,0.7-1.7,1.1-2.7,1L270.3,203.8z"/>
					<path class="st22" d="M246.7,207.1c2.9,8,4.3,12.9,9.7,16c2.4,1.4,5.2,1.8,7.8,1.3c1.5-0.3,3-0.9,4.3-1.9l0,0
						c1.2-0.9,2.3-2,3.1-3.4c1.1-1.9,1.7-4.2,1.5-6.4c-0.4-7.8-5.2-19.6-14.2-20.8c-6.1-1-11.9,3.2-12.9,9.3
						C245.8,203.2,246,205.2,246.7,207.1z"/>
					<path class="st19" d="M264.2,224.4c1.5-0.3,3-0.9,4.3-1.9c-0.2,0.1-3,1.1-4.4,0.3L264.2,224.4z"/>
				</g>
			</g>
			<path class="st5" d="M242.9,213.8c4.4,6.7,10.1,11.6,10.1,11.6c2.8-0.8,5.3-1.3,8.2-2c1.1-3.2,1.4-13.4,2.4-15.1
				c1.1-1.7,3.3-4,4.2-5.8c1.3-2.5,0.9-5.6-0.6-7.9c-1.5-2.3-4.1-3.8-6.8-4.4c-6.2-1.4-11.1,1.7-13.4,3.7c-1.9,1.6-2.9,3.7-3,5
				C240,201.5,238.9,207.7,242.9,213.8z"/>
			<path class="st5" d="M243.5,194.7c-0.2,1.4-0.1,2.8,0.3,4.1c-1-0.2-1.7-1.2-1.8-2.2C242,195.6,242.5,195.1,243.5,194.7z"/>
			<g>
				<path class="st22" d="M261,208.9c0.9,1.9,2.4,3.5,4.3,4.5c2.4,1.2,3.4-1,2.6-3.7c-0.7-2.4-2.8-5.9-5.1-5.9
					C260.4,203.8,259.8,206.4,261,208.9z"/>
			</g>
			<g>
				<path class="st5" d="M283.8,237.5c-0.8-2-4.5-4.4-8-4h-2.3c-2.5,0-3.1,0.2-6.1,0.5c-5.7,0.6-11.4,1.6-17,2.9
					c-2.6,0.7-5.1,1.5-7.1,2.3c-2-0.6-0.2,16.9,0.2,38.3c0.2,10.2,0.5,20.3,0.7,27.2h42.7c0,0-0.6-12.9-0.5-27.9
					C286.5,267.7,286.9,245.7,283.8,237.5z"/>
				<path class="st19" d="M242.6,267.3c0.3,3.8,0.7,7.9,1,11.9c4.4-14.4,7.2-28.9,7.2-28.9L242.6,267.3z"/>
			</g>
			<path class="st5" d="M239.3,240.8c-5.5,4.4-10.9,25.7-10.9,25.7l13.1,6.9c4.5-5.8,11.5-18.7,11.6-23.8
				C253.2,241.8,246.3,236.1,239.3,240.8z"/>
		</g>
		<g>
			<g>
				<path class="st5" d="M228.9,420.3c0,2.4-1.9,4.4-4.4,4.4c-2.4,0-4.4-1.9-4.4-4.4c0-2.4,1.9-4.4,4.4-4.4
					C226.9,416,228.9,417.9,228.9,420.3L228.9,420.3z"/>
				<path class="st5" d="M293.7,420.3c0,2.4,1.9,4.4,4.4,4.4c2.4,0,4.4-1.9,4.4-4.4c0-2.4-1.9-4.4-4.4-4.4
					C295.7,416,293.7,417.9,293.7,420.3L293.7,420.3z"/>
				<path class="st5" d="M257.1,419c0,2.4,1.9,4.4,4.4,4.4c2.4,0,4.3-1.9,4.3-4.4c0-2.4-1.9-4.4-4.3-4.4
					C259,414.6,257.1,416.6,257.1,419L257.1,419z"/>
			</g>
			<g>
				<path class="st5" d="M303.9,413.5c-0.2,1-1,1.7-2,1.7l-41.7-0.6l-39,1c-0.9,0-1.8-0.7-2-1.7c-0.2-1.1,0.5-2.3,1.5-2.5l21.3-4.5
					c2.2-0.5,4.5-0.7,6.7-0.7h22.9c2.3,0,4.5,0.2,6.7,0.7l24,4.2C303.4,411.2,304.1,412.4,303.9,413.5z"/>
			</g>
			<g>
				<rect x="253.5" y="367.7" class="st5" width="15.4" height="38.5"/>
				<rect x="255.8" y="349.8" class="st17" width="11" height="17.9"/>
				<rect x="255.8" y="349.8" class="st6" width="11" height="17.9"/>
				<rect x="255.8" y="349.8" class="st26" width="11" height="17.9"/>
				<polygon class="st26" points="255.8,355 266.8,357.8 266.8,349.8 255.8,349.8 				"/>
			</g>
			<g>
				<g>
					<rect x="218.5" y="309.2" class="st6" width="5.6" height="23.9"/>
					<rect x="218.5" y="309.2" class="st26" width="5.6" height="23.9"/>
					<path class="st6" d="M252.1,349.8v-96.9c0-3.9,1.7-7.7,4.6-10.2l7.4-6.5c2.5-2.2,5.7-3.4,9-3.4h13.6l13,13.9v103.1H252.1z"/>
					<path class="st17" d="M212.4,329.7h60.9v20.1h-70.8c-4,0-7.2-3.2-7.2-7.2c0-1.3,0.3-2.6,1-3.7l0,0
						C199.6,333.2,205.8,329.7,212.4,329.7z"/>
					<path class="st7" d="M299.8,246.6v103.1h-97.3c-4,0-7.2-3.2-7.2-7.2c0-1.3,0.3-2.6,1-3.7c3.4-5.7,9.5-9.2,16.1-9.2H243
						c5,0,9.1-4.1,9.1-9.1v-67.8c0-3.9,1.7-7.7,4.6-10.2l7.4-6.5c2.5-2.2,5.7-3.4,9-3.4h13.6L299.8,246.6z"/>
					<g>
						<path class="st6" d="M261,349.8v-96.9c0-3.9,1.7-7.7,4.6-10.2l7.4-6.5c2.5-2.2,5.7-3.4,9-3.4h7.7c3.8,0,7.3,1.6,9.9,4.3
							l5.3,5.7c2.4,2.5,3.7,5.9,3.7,9.3v87.4c0,5.7-4.6,10.4-10.4,10.4H261z"/>
						<path class="st10" d="M261,349.8v-96.9c0-3.9,1.7-7.7,4.6-10.2l7.4-6.5c2.5-2.2,5.7-3.4,9-3.4h7.7c3.8,0,7.3,1.6,9.9,4.3
							l5.3,5.7c2.4,2.5,3.7,5.9,3.7,9.3v87.4c0,5.7-4.6,10.4-10.4,10.4H261z"/>
					</g>
				</g>
				<g>
					<path class="st17" d="M240.3,316.3c-12.3-4.3-25.7-4.3-38,0c-2.6,1-5.4-0.1-6.7-2.6l0,0c-1.1-2.4,0.4-5.5,3.5-6.6
						c14.4-5,30-5,44.4,0c3.1,1.1,4.6,4.2,3.5,6.6l0,0C245.7,316.2,242.8,317.3,240.3,316.3z"/>
					<path class="st7" d="M240.3,316.3c-12.3-4.3-25.7-4.3-38,0c-2.6,1-5.4-0.1-6.7-2.6l0,0c-1.1-2.4,0.4-5.5,3.5-6.6
						c14.4-5,30-5,44.4,0c3.1,1.1,4.6,4.2,3.5,6.6l0,0C245.7,316.2,242.8,317.3,240.3,316.3z"/>
				</g>
			</g>
		</g>
	</g>
	<g>
		<g>
			<circle class="st1" cx="380.1" cy="104.3" r="20.7"/>
			
				<ellipse transform="matrix(0.1602 -0.9871 0.9871 0.1602 215.9663 460.6539)" class="st0" cx="378.7" cy="103.4" rx="20.7" ry="20.7"/>
			<path class="st13" d="M395.3,103.5c0,9.2-7.4,16.6-16.6,16.6c-9.2,0-16.6-7.4-16.6-16.6c0-9.2,7.4-16.6,16.6-16.6
				C387.9,86.9,395.3,94.4,395.3,103.5z"/>
		</g>
		<g>
			<g>
				<path class="st1" d="M377.8,105.1c-0.7-0.7-0.7-1.7,0-2.4s1.7-0.7,2.4,0c0.7,0.7,0.7,1.7,0,2.4
					C379.5,105.8,378.5,105.8,377.8,105.1z"/>
			</g>
			<g>
				<polygon class="st1" points="378.7,103.3 388.5,103 388.5,104.1 379.6,104.3 378.7,119.8 377.7,119.8 				"/>
			</g>
		</g>
	</g>
	<g>
		<g id="freepik--speech-bubbles--inject-120_5_">
			<path class="st27" d="M311,130.9l27.5-0.3c2.1,0,3.7-1.6,3.7-3.7l0-28.2c0-0.2,0-0.4,0-0.5c-0.3-1.8-1.9-3.2-3.7-3.1l-61.3,0.4
				c-2.1,0.1-3.7,1.6-3.7,3.7l0,28.2c0,0.2,0,0.4,0,0.5c0.3,1.8,1.9,3.2,3.7,3.1l24.9,0l4.9,15.4L311,130.9z"/>
		</g>
		<g>
			<line class="st27" x1="314.3" y1="101.7" x2="286.6" y2="101.7"/>
			<line class="st27" x1="337.4" y1="101.7" x2="320.8" y2="101.7"/>
			<line class="st27" x1="294.5" y1="109" x2="279.3" y2="109"/>
			<line class="st27" x1="336.4" y1="109" x2="299.9" y2="109"/>
			<line class="st27" x1="317.7" y1="116.4" x2="279.2" y2="116.4"/>
			<line class="st27" x1="336.3" y1="116.4" x2="323.7" y2="116.4"/>
			<line class="st27" x1="289.4" y1="123.8" x2="279.4" y2="123.8"/>
		</g>
	</g>
	<g>
		<g>
			<g id="freepik--speech-bubbles--inject-120_4_">
				<path class="st27" d="M347.9,135.4l41.8-0.4c1.8-0.1,3.4,1.3,3.7,3.1c0,0.2,0,0.4,0,0.5l0,28.2c-0.1,2.1-1.6,3.6-3.7,3.7
					l-26.5,0.3c-5.7,8.1-15.2,9.4-15.2,9.4s5.3-5.4,6.3-9.4l-6.4,0c-1.8,0.1-3.4-1.3-3.7-3.1c0-0.2,0-0.4,0-0.5l0-28.2
					C344.2,137.1,345.8,135.5,347.9,135.4z"/>
			</g>
			<g>
				<line class="st27" x1="365" y1="149" x2="349.9" y2="149"/>
				<g>
					<line class="st27" x1="382.2" y1="141.6" x2="354.6" y2="141.6"/>
					<line class="st27" x1="387.2" y1="149" x2="367.8" y2="149"/>
					<line class="st27" x1="385.7" y1="156.4" x2="347.2" y2="156.4"/>
					<line class="st27" x1="357.3" y1="163.7" x2="347.3" y2="163.7"/>
				</g>
			</g>
		</g>
	</g>
	<g>
		<g>
			<g>
				<path class="st27" d="M259.9,166.6l-2.4,7.8l-3.2-7.9c-7.3-1.5-12.8-7.9-12.8-15.7c0-8.8,7.2-16,16-16c8.9,0,16,7.2,16,16
					C273.5,158.7,267.6,165.4,259.9,166.6z"/>
			</g>
			<g>
				<path class="st6" d="M259.1,148.3c0.1-1-0.8-1.6-2-1.6c-1.3,0-2.5,0.7-3.3,1.8l-3.5-2c1.5-2.2,4-3.7,7.7-3.7
					c3.8,0,6.4,1.6,6.1,4.7c-0.3,3.9-4.5,4.4-4.7,6.7H255C255.3,150.9,258.9,150.1,259.1,148.3z M254.1,158.1c0.1-1.5,1.4-2.6,3-2.6
					c1.7,0,2.7,1.1,2.6,2.6c-0.1,1.4-1.4,2.6-3.1,2.6C255,160.7,254,159.6,254.1,158.1z"/>
			</g>
		</g>
		<g>
			<g>
				<circle class="st27" cx="234.6" cy="188.3" r="1.6"/>
				<path class="st27" d="M231.5,182.1c0.3,0.4,0.4,0.9,0.4,1.5c0,1.5-1.2,2.7-2.7,2.7c-1.2,0-2.2-0.8-2.6-1.8
					c-1.5,0.4-3,0.7-4.6,0.7c-8.8,0-16-7.2-16-16s7.2-16,16-16c8.8,0,16,7.2,16,16C238,174.5,235.5,179.1,231.5,182.1z"/>
			</g>
			<g>
				<g>
					<path class="st6" d="M223.7,166.5c0.1-1-0.8-1.6-2-1.6c-1.3,0-2.5,0.7-3.3,1.8l-3.5-2c1.5-2.2,4-3.7,7.7-3.7
						c3.8,0,6.4,1.6,6.1,4.7c-0.3,3.9-4.5,4.4-4.7,6.7h-4.4C219.9,169.1,223.5,168.3,223.7,166.5z M218.7,176.3
						c0.1-1.5,1.4-2.6,3-2.6c1.7,0,2.7,1.1,2.6,2.6c-0.1,1.4-1.4,2.6-3.1,2.6C219.6,178.9,218.6,177.8,218.7,176.3z"/>
				</g>
			</g>
		</g>
	</g>
</g>
</svg>
