<?xml version="1.0" encoding="utf-8"?>
<!-- Generator: Adobe Illustrator 25.0.0, SVG Export Plug-In . SVG Version: 6.00 Build 0)  -->
<svg version="1.1" id="Layer_1" xmlns="http://www.w3.org/2000/svg" xmlns:xlink="http://www.w3.org/1999/xlink" x="0px" y="0px"
	 viewBox="0 0 351.9 340.65" style="enable-background:new 0 0 351.9 340.65;" xml:space="preserve">
<style type="text/css">
	.st0{fill:#ECECEC;}
	.st1{fill:#E1E1E1;}
	.st2{fill:#F0F0F0;}
	.st3{fill:#FFFFFF;}
	.st4{fill:#FAFAFA;}
	.st5{fill:#1A2E35;}
	.st6{fill:#00A4DE;}
	.st7{fill:#004E5B;}
	.st8{fill:#008CAC;}
	.st9{fill:#0084A2;}
	.st10{opacity:0.13;}
	.st11{opacity:0.22;}
	.st12{fill:#0094BE;}
	.st13{opacity:0.19;}
	.st14{fill:#12B9DC;}
	.st15{fill:#0089AF;}
	.st16{fill:#375A64;}
	.st17{fill:#F5F5F5;}
	.st18{fill:#FF4F5B;}
	.st19{fill:#244648;}
	.st20{fill:#C78976;}
	.st21{fill:#B66955;}
	.st22{fill:#94BDFD;}
	.st23{opacity:0.15;}
	.st24{fill:#365E60;}
</style>
<g>
	<g>
		<g>
			<g>
				<g>
					<g>
						<g>
							<path class="st0" d="M137.31,8.29L54.39,116l223-55.43L153.18,4.29C147.61,1.77,141.03,3.42,137.31,8.29z"/>
							<path class="st1" d="M53.22,116.76L136.95,8.01c3.87-5.06,10.62-6.76,16.43-4.13l125.41,56.82L53.22,116.76z M147.73,3.57
								c-3.85,0-7.58,1.76-10.06,5l0,0L55.56,115.24l220.44-54.8l-123-55.73C151.29,3.94,149.5,3.57,147.73,3.57z"/>
						</g>
						<g>
							<path class="st2" d="M300.17,193.29L97.18,243.75c-5.74,1.43-11.55-2.07-12.97-7.81L54.39,116l223.77-55.63l29.82,119.94
								C309.4,186.05,305.91,191.86,300.17,193.29z"/>
						</g>
						<g>
							<path class="st3" d="M264.39,67.02l-77.52,79.21L69.66,119.85L56.25,57.7c-1.54-6.67,2.55-13.34,9.19-15L234.95,0.56
								c6.72-1.67,13.52,2.42,15.19,9.14L264.39,67.02z"/>
						</g>
					</g>
					<g>
						<path class="st1" d="M176.22,139.99L84.16,236.2l0,0c1.37,5.5,6.93,8.85,12.43,7.48l204.09-50.76
							c5.5-1.37,8.85-6.93,7.48-12.43l-0.19-0.77L187.6,137.28C183.6,135.87,179.15,136.93,176.22,139.99z"/>
					</g>
					<g>
						
							<rect x="80.32" y="60.04" transform="matrix(0.9704 -0.2414 0.2414 0.9704 -11.9478 29.5117)" class="st1" width="68.34" height="6.98"/>
					</g>
					<g>
						
							<rect x="83.47" y="67.13" transform="matrix(0.9704 -0.2414 0.2414 0.9704 -12.4446 40.5442)" class="st1" width="151.62" height="7.88"/>
					</g>
					<g>
						
							<rect x="88.12" y="85.82" transform="matrix(0.9704 -0.2414 0.2414 0.9704 -16.8193 42.219)" class="st1" width="151.62" height="7.88"/>
					</g>
					<g>
						<polygon class="st1" points="239.65,92.39 235.04,97 111.52,129.29 95.38,125.52 94.77,123.77 241.43,87.29 242.06,89.83 
													"/>
					</g>
					<g>
						<polygon class="st1" points="208.05,124.57 152.4,138.41 135.39,134.52 218.56,113.84 						"/>
					</g>
				</g>
				<g>
					<g>
						<path class="st4" d="M172.86,143.5c0.01,0.01-0.07,0.09-0.21,0.26c-0.16,0.18-0.38,0.42-0.66,0.72
							c-0.61,0.65-1.47,1.57-2.56,2.75c-2.26,2.39-5.5,5.82-9.49,10.04c-8.03,8.46-19.13,20.15-31.48,32.96
							c-12.35,12.82-23.66,24.31-31.91,32.56c-4.13,4.12-7.48,7.44-9.82,9.72c-1.15,1.12-2.06,2-2.7,2.62
							c-0.3,0.28-0.53,0.5-0.71,0.67c-0.16,0.15-0.25,0.22-0.25,0.22c-0.01-0.01,0.07-0.09,0.22-0.25c0.17-0.18,0.39-0.41,0.68-0.71
							c0.62-0.63,1.51-1.53,2.63-2.68c2.31-2.34,5.63-5.69,9.71-9.82c8.2-8.3,19.46-19.83,31.81-32.65
							c12.32-12.82,23.48-24.43,31.58-32.86c4.04-4.18,7.31-7.57,9.6-9.93c1.13-1.15,2.01-2.05,2.63-2.68
							c0.29-0.29,0.52-0.52,0.69-0.69C172.77,143.57,172.85,143.5,172.86,143.5z"/>
					</g>
				</g>
				<g>
					<g>
						<path class="st4" d="M307.97,179.72c-0.04,0.12-25.71-8.79-57.33-19.9c-31.63-11.12-57.22-20.23-57.18-20.35
							c0.04-0.12,25.71,8.78,57.33,19.9C282.42,170.48,308.02,179.6,307.97,179.72z"/>
					</g>
				</g>
				<g>
					<g>
						<path class="st4" d="M268.08,63.2c0.01,0.01-0.05,0.08-0.17,0.22c-0.14,0.16-0.31,0.36-0.53,0.6
							c-0.5,0.55-1.19,1.32-2.07,2.29c-1.84,2-4.46,4.84-7.69,8.35c-6.52,7.03-15.6,16.66-25.77,27.17
							c-10.18,10.51-19.52,19.9-26.33,26.64c-3.41,3.34-6.17,6.04-8.11,7.94c-0.95,0.91-1.69,1.62-2.23,2.14
							c-0.24,0.23-0.44,0.41-0.59,0.55c-0.13,0.12-0.21,0.18-0.21,0.17c-0.01-0.01,0.05-0.08,0.18-0.21
							c0.14-0.15,0.33-0.34,0.55-0.58c0.52-0.53,1.24-1.26,2.16-2.2c1.91-1.93,4.64-4.67,8-8.05c6.75-6.8,16.06-16.22,26.23-26.73
							C241.68,91,250.79,81.4,257.38,74.44c3.27-3.46,5.93-6.27,7.8-8.25c0.91-0.95,1.62-1.7,2.13-2.23
							c0.23-0.24,0.42-0.42,0.56-0.57C268,63.26,268.07,63.2,268.08,63.2z"/>
					</g>
				</g>
				<g>
					<g>
						<path class="st4" d="M172.86,143.5c0,0.01-0.11-0.01-0.31-0.05c-0.23-0.05-0.52-0.12-0.9-0.21c-0.82-0.2-1.97-0.48-3.44-0.84
							c-2.98-0.75-7.31-1.8-12.67-3.06c-10.71-2.54-25.55-5.8-41.96-9.35c-16.42-3.56-31.26-6.87-41.95-9.49
							c-5.35-1.3-9.66-2.4-12.63-3.2c-1.46-0.4-2.61-0.71-3.42-0.93c-0.37-0.11-0.66-0.19-0.89-0.25c-0.2-0.06-0.3-0.09-0.3-0.1
							c0-0.01,0.11,0.01,0.31,0.05c0.23,0.05,0.52,0.12,0.9,0.21c0.82,0.2,1.97,0.48,3.44,0.84c2.98,0.75,7.31,1.8,12.67,3.06
							c10.71,2.54,25.56,5.8,41.97,9.36c16.41,3.55,31.25,6.87,41.94,9.49c5.35,1.3,9.66,2.4,12.64,3.2
							c1.46,0.4,2.61,0.71,3.42,0.93c0.37,0.11,0.66,0.19,0.89,0.25C172.76,143.46,172.86,143.49,172.86,143.5z"/>
					</g>
				</g>
			</g>
			<g>
				<g>
					<path class="st1" d="M264.39,67.02c0,0-0.09-0.28-0.23-0.84c-0.15-0.57-0.36-1.39-0.64-2.47c-0.55-2.18-1.36-5.38-2.41-9.5
						c-2.07-8.27-5.07-20.21-8.77-34.97c-0.46-1.85-0.93-3.74-1.42-5.67c-0.24-0.97-0.49-1.94-0.73-2.93
						c-0.12-0.49-0.24-0.99-0.4-1.47c-0.13-0.49-0.32-0.96-0.53-1.43c-0.8-1.89-2.17-3.55-3.85-4.85c-1.71-1.25-3.76-2.16-5.95-2.39
						c-1.09-0.16-2.21-0.09-3.32,0.04c-1.1,0.19-2.21,0.5-3.33,0.77c-2.24,0.56-4.52,1.13-6.84,1.71
						c-4.63,1.15-9.39,2.34-14.27,3.56c-19.53,4.86-41,10.21-63.54,15.81c-22.55,5.6-44.03,10.93-63.57,15.78
						c-4.88,1.21-9.65,2.39-14.28,3.54c-1.16,0.29-2.31,0.57-3.45,0.85c-1.14,0.3-2.27,0.52-3.31,1c-1.05,0.44-2.02,1.03-2.88,1.75
						c-0.88,0.69-1.63,1.53-2.27,2.42c-0.66,0.88-1.13,1.88-1.53,2.88c-0.36,1.02-0.61,2.07-0.71,3.13
						c-0.26,2.13,0.33,4.18,0.75,6.22c0.87,4.06,1.71,7.96,2.5,11.68c3.18,14.88,5.75,26.92,7.53,35.26
						c0.88,4.16,1.56,7.39,2.02,9.59c0.22,1.09,0.4,1.92,0.51,2.5c0.11,0.56,0.16,0.85,0.16,0.85s-0.08-0.28-0.21-0.84
						c-0.13-0.57-0.32-1.4-0.56-2.49c-0.49-2.2-1.2-5.42-2.11-9.57c-1.81-8.33-4.44-20.36-7.68-35.23
						c-0.81-3.72-1.65-7.62-2.53-11.68c-0.42-2.01-1.03-4.13-0.77-6.33c0.09-1.09,0.35-2.18,0.72-3.23
						c0.41-1.03,0.89-2.07,1.57-2.98c0.66-0.92,1.43-1.79,2.34-2.5c0.89-0.74,1.9-1.35,2.98-1.81c1.07-0.5,2.24-0.74,3.37-1.03
						c1.14-0.28,2.29-0.57,3.44-0.86c4.63-1.15,9.39-2.34,14.27-3.56c19.53-4.86,41.01-10.21,63.56-15.82
						c22.54-5.6,44.02-10.93,63.55-15.78c4.88-1.21,9.65-2.39,14.27-3.54c2.31-0.57,4.59-1.14,6.84-1.69
						c1.12-0.27,2.22-0.58,3.37-0.77c1.14-0.14,2.3-0.21,3.43-0.04c2.26,0.24,4.38,1.18,6.14,2.48c1.73,1.34,3.13,3.06,3.95,5.01
						c0.21,0.48,0.41,0.97,0.54,1.48c0.16,0.5,0.28,1,0.4,1.49c0.24,0.99,0.49,1.97,0.72,2.93c0.48,1.93,0.95,3.82,1.4,5.67
						c3.64,14.77,6.59,26.73,8.62,35.01c1.01,4.13,1.79,7.34,2.32,9.52c0.26,1.08,0.46,1.91,0.59,2.48
						C264.33,66.73,264.39,67.02,264.39,67.02z"/>
				</g>
			</g>
		</g>
	</g>
	<g>
		<g>
			<line class="st5" x1="0" y1="340.15" x2="351.9" y2="340.15"/>
		</g>
		<g>
			<g>
				<path class="st5" d="M351.9,340.15c0,0.13-78.78,0.24-175.94,0.24C78.76,340.39,0,340.29,0,340.15
					c0-0.13,78.76-0.24,175.96-0.24C273.12,339.92,351.9,340.02,351.9,340.15z"/>
			</g>
		</g>
	</g>
	<g>
		<g>
			<polygon class="st6" points="166.99,21.04 158.38,27.6 158.8,40.13 150.91,33.87 146.56,37.59 130.01,17.16 			"/>
		</g>
		<g>
			<g>
				<path class="st7" d="M155.14,30.27c0.01,0.38,3.66,9.86,3.66,9.86l-7.89-6.26L155.14,30.27z"/>
			</g>
		</g>
		<g>
			<polygon class="st8" points="130.01,17.16 155.14,30.27 158.8,40.13 158.38,27.6 			"/>
		</g>
		<g>
			<g>
				<g>
					<g>
						<path class="st5" d="M199.69,186.16c-0.03,0.13-1.06-0.01-2.29-0.31c-1.23-0.3-2.21-0.65-2.18-0.78
							c0.03-0.13,1.06,0.01,2.29,0.31C198.75,185.69,199.72,186.04,199.69,186.16z"/>
					</g>
				</g>
				<g>
					<g>
						<path class="st5" d="M206.82,187.91c-0.03,0.13-0.65,0.09-1.39-0.09c-0.74-0.18-1.31-0.43-1.27-0.56
							c0.03-0.13,0.65-0.09,1.39,0.09C206.28,187.53,206.85,187.78,206.82,187.91z"/>
					</g>
				</g>
			</g>
			<g>
				<g>
					<g>
						<path class="st5" d="M177.42,38.49c-0.04,0.13-1.05-0.07-2.28-0.35c-1.23-0.29-2.22-0.55-2.2-0.69
							c0.02-0.13,1.06-0.07,2.31,0.22C176.49,37.96,177.46,38.36,177.42,38.49z"/>
					</g>
				</g>
				<g>
					<g>
						<path class="st5" d="M185.85,42.1c-0.07,0.12-1-0.31-2.13-0.88c-1.13-0.57-2.03-1.06-1.98-1.18c0.05-0.12,1.05,0.18,2.19,0.75
							C185.07,41.37,185.91,41.99,185.85,42.1z"/>
					</g>
				</g>
				<g>
					<g>
						<path class="st5" d="M193.15,47.65c-0.1,0.09-0.89-0.56-1.85-1.38c-0.95-0.82-1.71-1.52-1.63-1.63
							c0.08-0.1,0.98,0.43,1.95,1.26C192.59,46.74,193.25,47.56,193.15,47.65z"/>
					</g>
				</g>
				<g>
					<g>
						<path class="st5" d="M198.73,54.92c-0.12,0.06-0.7-0.78-1.39-1.83c-0.69-1.05-1.24-1.92-1.13-2c0.1-0.08,0.83,0.67,1.53,1.74
							C198.44,53.89,198.84,54.86,198.73,54.92z"/>
					</g>
				</g>
				<g>
					<g>
						<path class="st5" d="M201.89,63.51c-0.13,0.03-0.43-0.96-0.77-2.17c-0.34-1.21-0.6-2.2-0.48-2.25
							c0.12-0.05,0.59,0.89,0.94,2.12C201.93,62.45,202.02,63.49,201.89,63.51z"/>
					</g>
				</g>
				<g>
					<g>
						<path class="st5" d="M202.36,72.66c-0.13-0.02-0.12-1.04-0.1-2.3c0.03-1.26,0.07-2.28,0.21-2.29c0.13-0.01,0.3,1.02,0.27,2.3
							C202.71,71.65,202.49,72.68,202.36,72.66z"/>
					</g>
				</g>
				<g>
					<g>
						<path class="st5" d="M199.98,81.5c-0.12-0.06,0.22-1.02,0.65-2.21c0.43-1.18,0.78-2.15,0.91-2.11
							c0.13,0.03-0.02,1.07-0.46,2.27C200.64,80.66,200.09,81.55,199.98,81.5z"/>
					</g>
				</g>
				<g>
					<g>
						<path class="st5" d="M194.66,88.93c-0.09-0.1,0.59-0.87,1.41-1.81c0.83-0.94,1.49-1.72,1.6-1.65c0.11,0.07-0.4,0.99-1.24,1.96
							C195.59,88.4,194.75,89.03,194.66,88.93z"/>
					</g>
				</g>
				<g>
					<g>
						<path class="st5" d="M186.98,93.89c-0.05-0.13,0.86-0.6,1.97-1.19c1.11-0.58,2.02-1.06,2.1-0.94
							c0.07,0.11-0.74,0.77-1.88,1.37C188.03,93.72,187.02,94.01,186.98,93.89z"/>
					</g>
				</g>
				<g>
					<g>
						<path class="st5" d="M178.04,95.81c0-0.13,1.02-0.25,2.26-0.4c1.25-0.15,2.26-0.28,2.29-0.14c0.03,0.13-0.96,0.47-2.24,0.62
							C179.08,96.03,178.04,95.93,178.04,95.81z"/>
					</g>
				</g>
				<g>
					<g>
						<path class="st5" d="M169.07,94.11c0.06-0.12,1.03,0.2,2.23,0.56c1.2,0.37,2.19,0.64,2.16,0.77c-0.02,0.13-1.07,0.06-2.3-0.31
							C169.92,94.76,169.01,94.23,169.07,94.11z"/>
					</g>
				</g>
				<g>
					<g>
						<path class="st5" d="M162.71,87.8c0.13-0.04,0.53,0.89,1.25,1.9c0.71,1.02,1.4,1.77,1.3,1.87c-0.08,0.09-0.95-0.53-1.7-1.6
							C162.8,88.9,162.58,87.83,162.71,87.8z"/>
					</g>
				</g>
				<g>
					<g>
						<path class="st5" d="M166.57,80.67c0.04,0.14-0.95,0.44-1.94,1.15c-1,0.7-1.52,1.58-1.65,1.51c-0.12-0.04,0.26-1.12,1.37-1.9
							C165.45,80.65,166.56,80.55,166.57,80.67z"/>
					</g>
				</g>
				<g>
					<g>
						<path class="st5" d="M174.45,83.94c-0.12,0.07-0.68-0.79-1.58-1.62c-0.89-0.83-1.83-1.25-1.78-1.38
							c0.03-0.12,1.12,0.12,2.1,1.03C174.17,82.87,174.56,83.89,174.45,83.94z"/>
					</g>
				</g>
				<g>
					<g>
						<path class="st5" d="M174.75,92.83c-0.13-0.06,0.2-1.02,0.42-2.24c0.24-1.22,0.29-2.24,0.43-2.24
							c0.13-0.01,0.29,1.05,0.04,2.33C175.4,91.96,174.86,92.89,174.75,92.83z"/>
					</g>
				</g>
				<g>
					<g>
						<path class="st5" d="M168.78,99.67c-0.08-0.11,0.71-0.77,1.66-1.58c0.95-0.81,1.7-1.51,1.8-1.42c0.1,0.08-0.51,0.95-1.49,1.78
							C169.78,99.29,168.85,99.78,168.78,99.67z"/>
					</g>
				</g>
				<g>
					<g>
						<path class="st5" d="M160.63,103.9c-0.05-0.12,0.84-0.65,1.99-1.17c1.15-0.53,2.13-0.86,2.19-0.74
							c0.06,0.12-0.83,0.64-1.99,1.17C161.67,103.69,160.69,104.02,160.63,103.9z"/>
					</g>
				</g>
				<g>
					<g>
						<path class="st5" d="M152.45,108.06c-0.07-0.11,0.76-0.73,1.86-1.39c1.11-0.64,2.1-0.98,2.15-0.87
							c0.06,0.13-0.82,0.66-1.91,1.29C153.46,107.74,152.52,108.17,152.45,108.06z"/>
					</g>
				</g>
				<g>
					<g>
						<path class="st5" d="M145.51,114.05c-0.1-0.09,0.51-0.94,1.42-1.83c0.91-0.9,1.77-1.49,1.86-1.39
							c0.09,0.1-0.62,0.84-1.52,1.73C146.36,113.45,145.61,114.14,145.51,114.05z"/>
					</g>
				</g>
				<g>
					<g>
						<path class="st5" d="M140.25,121.57c-0.12-0.06,0.27-1.03,0.94-2.12c0.67-1.09,1.36-1.87,1.46-1.8
							c0.11,0.08-0.4,0.97-1.06,2.05C140.94,120.77,140.37,121.63,140.25,121.57z"/>
					</g>
				</g>
				<g>
					<g>
						<path class="st5" d="M136.9,130.1c-0.13-0.03,0.02-1.06,0.42-2.28c0.4-1.22,0.88-2.14,1-2.09c0.12,0.05-0.16,1.04-0.55,2.24
							C137.38,129.17,137.03,130.14,136.9,130.1z"/>
					</g>
				</g>
				<g>
					<g>
						<path class="st5" d="M135.7,139.19c-0.13,0-0.24-1.04-0.16-2.31c0.09-1.28,0.34-2.29,0.47-2.27c0.13,0.02,0.09,1.04,0.01,2.3
							C135.94,138.17,135.83,139.19,135.7,139.19z"/>
					</g>
				</g>
				<g>
					<g>
						<path class="st5" d="M136.9,148.28c-0.13,0.04-0.45-0.95-0.72-2.2c-0.3-1.25-0.32-2.29-0.19-2.31
							c0.13-0.02,0.36,0.99,0.66,2.21C136.91,147.22,137.03,148.24,136.9,148.28z"/>
					</g>
				</g>
				<g>
					<g>
						<path class="st5" d="M140.45,156.73c-0.11,0.07-0.73-0.77-1.3-1.92c-0.57-1.15-0.86-2.15-0.74-2.2
							c0.12-0.05,0.61,0.85,1.17,1.98C140.14,155.73,140.56,156.67,140.45,156.73z"/>
					</g>
				</g>
				<g>
					<g>
						<path class="st5" d="M145.95,164.07c-0.09,0.09-0.89-0.58-1.72-1.55c-0.83-0.97-1.36-1.87-1.25-1.95
							c0.11-0.08,0.8,0.68,1.62,1.64C145.41,163.17,146.05,163.98,145.95,164.07z"/>
					</g>
				</g>
				<g>
					<g>
						<path class="st5" d="M153.02,169.91c-0.07,0.11-1-0.35-2.04-1.11c-1.03-0.75-1.76-1.5-1.67-1.6c0.09-0.1,0.94,0.47,1.96,1.22
							C152.29,169.16,153.1,169.8,153.02,169.91z"/>
					</g>
				</g>
				<g>
					<g>
						<path class="st5" d="M161.3,173.87c-0.04,0.12-1.06-0.09-2.25-0.57c-1.19-0.48-2.07-1.03-2.01-1.15
							c0.06-0.12,1.02,0.24,2.19,0.7C160.4,173.33,161.34,173.74,161.3,173.87z"/>
					</g>
				</g>
				<g>
					<g>
						<path class="st5" d="M165.91,175.03c-0.02,0.13-0.08,0.23-0.12,0.22c-0.04-0.01-0.06-0.12-0.04-0.25
							c0.02-0.13,0.08-0.23,0.12-0.22C165.92,174.79,165.93,174.9,165.91,175.03z"/>
					</g>
				</g>
			</g>
		</g>
		<g>
			<g>
				<g>
					
						<rect x="148.48" y="150.52" transform="matrix(0.9501 0.3121 -0.3121 0.9501 55.614 -40.2282)" class="st9" width="10.02" height="6.24"/>
				</g>
			</g>
			<g class="st10">
				<g>
					<g>
						<path d="M159.22,152.24c0.04,0.12-2.4,1.13-5.52,2.27l-0.17,0.06l-0.11-0.14c-0.05-0.07-0.1-0.14-0.16-0.21
							c-2.08-2.74-3.68-5.03-3.57-5.11c0.11-0.08,1.87,2.08,3.95,4.82c0.05,0.07,0.11,0.14,0.16,0.21l-0.27-0.08
							C156.66,152.93,159.18,152.12,159.22,152.24z"/>
					</g>
				</g>
			</g>
			<g class="st10">
				<g>
					<g>
						<path d="M152.45,152.74c0.06,0.12-0.95,0.73-2.24,1.36c-1.3,0.63-2.4,1.05-2.45,0.93c-0.06-0.12,0.95-0.73,2.24-1.36
							C151.3,153.04,152.39,152.62,152.45,152.74z"/>
					</g>
				</g>
			</g>
			<g class="st10">
				<g>
					<g>
						<path d="M157.45,158.22c-0.12,0.05-0.66-0.94-1.22-2.21c-0.58-1.3-0.96-2.41-0.78-2.4c0.13,0.01,0.67,0.93,1.22,2.21
							C157.22,157.09,157.57,158.17,157.45,158.22z"/>
					</g>
				</g>
			</g>
		</g>
		<g>
			<g>
				
					<rect x="170.42" y="171.03" transform="matrix(0.9501 0.3121 -0.3121 0.9501 65.035 -48.2658)" class="st6" width="25.79" height="16.04"/>
			</g>
			<g class="st11">
				<g>
					<g>
						<path d="M198.06,175.46c0.01,0.03-0.38,0.2-1.09,0.5c-0.8,0.31-1.83,0.71-3.05,1.19c-2.59,0.99-6.18,2.33-10.19,3.8
							l-0.17,0.06l-0.11-0.14c-0.13-0.17-0.27-0.35-0.41-0.54c-2.67-3.53-5.07-6.74-6.79-9.07c-0.81-1.12-1.48-2.05-2.01-2.78
							c-0.47-0.66-0.71-1.04-0.69-1.06c0.03-0.02,0.32,0.32,0.83,0.95c0.56,0.71,1.28,1.61,2.13,2.69c1.79,2.28,4.23,5.46,6.9,8.99
							c0.14,0.18,0.28,0.37,0.41,0.54l-0.27-0.08c4.01-1.46,7.63-2.75,10.24-3.66c1.24-0.42,2.28-0.77,3.1-1.05
							C197.64,175.54,198.05,175.43,198.06,175.46z"/>
					</g>
				</g>
			</g>
			<g class="st11">
				<g>
					<g>
						<path d="M180.64,176.75c0.06,0.12-2.6,1.54-5.94,3.16c-3.34,1.63-6.09,2.85-6.15,2.73c-0.06-0.12,2.6-1.54,5.94-3.16
							C177.83,177.86,180.59,176.63,180.64,176.75z"/>
					</g>
				</g>
			</g>
			<g class="st11">
				<g>
					<g>
						<path d="M193.5,190.84c-0.12,0.05-1.37-2.56-2.8-5.83c-1.42-3.27-2.48-5.96-2.36-6.02c0.12-0.05,1.37,2.56,2.8,5.83
							C192.57,188.1,193.63,190.79,193.5,190.84z"/>
					</g>
				</g>
			</g>
		</g>
		<g>
			<g>
				<g>
					<path class="st5" d="M174.92,171.15c-1.7,1.25-4.1,0.88-5.35-0.82c-1.25-1.7-0.88-4.1,0.82-5.35c1.7-1.25,4.1-0.88,5.35,0.82
						C176.99,167.51,176.62,169.9,174.92,171.15z"/>
				</g>
			</g>
			<g>
				<g>
					<g>
						<path class="st3" d="M175.06,167.37c0.04,0.06-1.12,0.77-2.57,1.59c-0.21,0.12-0.42,0.23-0.61,0.34l-0.11,0.06l-0.06-0.11
							c-0.65-1.16-1.1-2.04-1.05-2.07c0.05-0.03,0.59,0.8,1.27,1.94l-0.17-0.05c0.2-0.11,0.4-0.23,0.61-0.35
							C173.82,167.92,175.03,167.31,175.06,167.37z"/>
					</g>
				</g>
			</g>
		</g>
		<g>
			<g>
				<g>
					
						<rect x="167.85" y="152.59" transform="matrix(0.9501 0.3121 -0.3121 0.9501 57.6535 -46.6594)" class="st12" width="13.51" height="8.4"/>
				</g>
			</g>
			<g class="st13">
				<g>
					<g>
						<path d="M182.33,154.91c0.01,0.02-0.2,0.11-0.57,0.26c-0.42,0.16-0.96,0.37-1.6,0.62c-1.35,0.52-3.24,1.22-5.34,1.99
							l-0.09,0.03l-0.06-0.07c-0.07-0.09-0.14-0.19-0.21-0.28c-1.4-1.85-2.66-3.53-3.56-4.75c-0.42-0.58-0.78-1.07-1.05-1.46
							c-0.24-0.35-0.37-0.54-0.36-0.56c0.01-0.01,0.17,0.17,0.44,0.5c0.29,0.37,0.67,0.84,1.12,1.41c0.94,1.2,2.21,2.86,3.61,4.71
							c0.07,0.1,0.15,0.19,0.21,0.28l-0.14-0.04c2.1-0.77,4-1.44,5.37-1.92c0.65-0.22,1.2-0.41,1.62-0.55
							C182.11,154.95,182.32,154.89,182.33,154.91z"/>
					</g>
				</g>
			</g>
			<g class="st13">
				<g>
					<g>
						<path d="M173.2,155.59c0.03,0.06-1.36,0.8-3.11,1.66c-1.75,0.85-3.19,1.49-3.22,1.43c-0.03-0.06,1.36-0.8,3.11-1.66
							C171.73,156.17,173.17,155.52,173.2,155.59z"/>
					</g>
				</g>
			</g>
			<g class="st13">
				<g>
					<g>
						<path d="M179.94,162.97c-0.06,0.03-0.72-1.34-1.46-3.05c-0.75-1.71-1.3-3.12-1.23-3.15c0.06-0.03,0.72,1.34,1.46,3.05
							C179.45,161.53,180,162.94,179.94,162.97z"/>
					</g>
				</g>
			</g>
		</g>
		<g>
			<g>
				<path class="st5" d="M79.25,54.94c-2.47,9.74-12.37,15.63-22.11,13.16c-9.74-2.47-15.63-12.37-13.16-22.11
					c2.47-9.74,12.37-15.63,22.11-13.16C75.83,35.3,81.72,45.2,79.25,54.94z"/>
			</g>
			<g>
				<g>
					<path class="st3" d="M68.36,40.6c0.32,0.12-1.75,6.21-4.62,13.6c-0.42,1.07-0.83,2.1-1.23,3.11l-0.22,0.56l-0.55-0.21
						c-5.9-2.28-10.21-4.15-10.1-4.42c0.1-0.27,4.58,1.14,10.52,3.3l-0.77,0.34c0.39-1.01,0.78-2.05,1.19-3.12
						C65.46,46.37,68.04,40.48,68.36,40.6z"/>
				</g>
			</g>
		</g>
	</g>
	<g>
		<g>
			<g>
				<path class="st14" d="M302.83,312.35c3.18-1.64,6.93-1.86,10.46-1.27c1.9,0.31,3.88,0.88,5.17,2.31
					c1.29,1.43,1.54,3.93,0.05,5.16c-0.88,0.73-2.11,0.84-3.26,0.83c-2.77-0.03-5.83-0.52-8.04,1.14c-1.26,0.95-2.1,2.53-3.61,2.99
					c-1.47,0.46-3.14-0.41-3.92-1.74c-0.78-1.33-0.81-2.99-0.44-4.49C299.24,317.27,299.62,314,302.83,312.35z"/>
			</g>
		</g>
		<g>
			<path class="st6" d="M295.54,298.27c1.95,2.78,5.73,1.86,7.48,0.16c1.75-1.7,2.49-4.15,3.17-6.5c1.54-5.36,3.1-10.98,1.95-16.43
				c-0.34-1.63-0.95-3.26-2.1-4.47c-1.15-1.21-2.91-1.93-4.52-1.5c-1.91,0.5-3.09,2.37-3.95,4.15c-2.52,5.22-3.85,11.01-3.87,16.81
				C293.69,293.2,294.01,296.04,295.54,298.27"/>
		</g>
		<g>
			<g>
				<path class="st15" d="M290.2,302.26c2.11-2.51,2.51-6.16,1.57-9.31c-0.94-3.14-3.06-5.81-5.51-8c-2.87-2.56-6.24-4.55-9.87-5.82
					c-1.43-0.5-2.93-0.9-4.44-0.75c-1.51,0.14-3.02,0.91-3.73,2.25c-1.04,1.98-0.04,4.38,1.03,6.34c1.9,3.45,4.07,6.76,6.48,9.87
					c1.94,2.51,4.17,4.98,7.13,6.11c2.96,1.13,6.04,1,7.61-1.05"/>
			</g>
		</g>
		<g>
			<g>
				<path class="st5" d="M295.41,340.2c0.04,0,0.1-0.45,0.18-1.26c0.09-0.92,0.2-2.07,0.34-3.45c0.16-1.45,0.37-3.18,0.78-5.06
					c0.4-1.87,1.03-3.91,1.84-5.97c0.84-2.05,1.86-3.91,3.05-5.4c1.18-1.5,2.56-2.58,3.85-3.2c1.29-0.64,2.44-0.9,3.24-1.01
					c0.81-0.08,1.26-0.15,1.26-0.18c0-0.04-0.45-0.04-1.28-0.02c-0.82,0.05-2.02,0.26-3.38,0.88c-1.36,0.6-2.82,1.7-4.06,3.23
					c-1.25,1.52-2.31,3.42-3.16,5.51c-0.82,2.1-1.44,4.15-1.82,6.06c-0.38,1.91-0.56,3.66-0.67,5.12c-0.11,1.46-0.15,2.65-0.17,3.47
					C295.36,339.74,295.37,340.2,295.41,340.2z"/>
			</g>
		</g>
		<g>
			<g>
				<path class="st5" d="M295.64,337.55c0.02,0,0.03-0.2,0.03-0.59c0-0.44,0-0.99,0-1.68c0-1.45,0-3.56,0.07-6.16
					c0.13-5.2,0.58-12.37,1.44-20.26c0.87-7.89,2.02-14.98,3.08-20.07c0.25-1.28,0.5-2.42,0.73-3.43c0.22-1.01,0.42-1.88,0.6-2.58
					c0.16-0.66,0.29-1.2,0.39-1.63c0.08-0.37,0.12-0.57,0.1-0.58c-0.02-0.01-0.09,0.18-0.2,0.55c-0.13,0.42-0.29,0.95-0.49,1.61
					c-0.22,0.7-0.44,1.56-0.69,2.56c-0.26,1-0.54,2.15-0.81,3.42c-1.15,5.08-2.36,12.19-3.23,20.09c-0.87,7.9-1.26,15.1-1.29,20.31
					c-0.03,2.61,0.02,4.71,0.09,6.17c0.04,0.68,0.08,1.23,0.1,1.67C295.6,337.35,295.63,337.55,295.64,337.55z"/>
			</g>
		</g>
		<g>
			<g>
				<path class="st5" d="M295.68,323.67c0.04,0,0.03-0.62-0.01-1.75c-0.06-1.12-0.22-2.75-0.54-4.74c-0.34-1.99-0.81-4.35-1.54-6.91
					c-0.7-2.57-1.66-5.35-2.89-8.18c-2.4-5.69-5.65-10.33-8.49-13.21c-0.66-0.76-1.4-1.32-2-1.86c-0.31-0.26-0.58-0.52-0.85-0.72
					c-0.28-0.19-0.54-0.37-0.77-0.53c-0.93-0.64-1.45-0.97-1.47-0.94c-0.08,0.11,2.09,1.39,4.83,4.31c2.73,2.91,5.9,7.53,8.27,13.16
					c1.21,2.8,2.18,5.55,2.91,8.1c0.76,2.54,1.26,4.87,1.64,6.84c0.36,1.97,0.57,3.58,0.7,4.7
					C295.57,323.05,295.64,323.67,295.68,323.67z"/>
			</g>
		</g>
	</g>
	<g>
		<polygon class="st16" points="163.2,208.84 199.67,208.84 214.11,168.49 212.09,168.49 197.77,206.87 163.2,207.06 		"/>
	</g>
	<g>
		<g>
			<polygon class="st5" points="147.08,213.93 148.43,340.31 152.14,340.31 150.63,213 			"/>
		</g>
		<g>
			<path class="st5" d="M225.15,212.7c-0.5,2.41,3.34,127.9,3.34,127.9h3.5l-2.83-127.9H225.15z"/>
		</g>
		<g>
			<polygon class="st5" points="267.79,208.84 112.71,208.84 112.71,215.23 125.51,215.23 117.18,339.9 120.82,340.1 129.16,215.23 
				254.74,215.23 260.82,340.15 264.47,340.15 258.39,215.23 267.79,215.23 			"/>
		</g>
	</g>
	<g>
		<g>
			<g>
				<g>
					<g>
						<path class="st6" d="M180.27,335.56l0.04-9.58l-17.95-0.18l-0.2,14.02l1.11,0.08c4.95,0.33,25.19,1.31,28.51,0.34
							C195.48,339.15,180.27,335.56,180.27,335.56z"/>
					</g>
				</g>
				<g>
					<g>
						<path class="st17" d="M168.66,339.74c-0.24-1.5-1.06-2.9-2.25-3.85c-1.19-0.95-2.66-1.45-4.18-1.35l-0.05,5.02L168.66,339.74z
							"/>
					</g>
				</g>
			</g>
			<g>
				<g>
					<path class="st17" d="M187.7,337.58c0,0,5.33,1.6,4.65,2.47c-0.68,0.87-21.17,0.65-30.2-0.24l0.03-0.4l23.9,0.46
						C186.09,339.88,186.65,337.61,187.7,337.58z"/>
				</g>
			</g>
			<g>
				<g>
					<g>
						<path class="st5" d="M161.91,339.4c0,0.01,0.11,0.02,0.31,0.04c0.27,0.02,0.56,0.04,0.89,0.06c0.89,0.05,1.98,0.11,3.26,0.18
							c2.75,0.13,6.56,0.26,10.77,0.31c4.21,0.05,8.02,0.01,10.77-0.06c1.29-0.04,2.38-0.07,3.26-0.1c0.33-0.02,0.62-0.03,0.89-0.04
							c0.2-0.01,0.31-0.02,0.31-0.03c0-0.01-0.11-0.01-0.31-0.01c-0.27,0-0.56,0-0.89,0c-0.89,0.01-1.98,0.02-3.26,0.03
							c-2.76,0.03-6.56,0.04-10.77-0.01c-4.2-0.05-8.01-0.15-10.77-0.24c-1.29-0.04-2.38-0.08-3.26-0.11
							c-0.33-0.01-0.62-0.02-0.89-0.02C162.01,339.39,161.91,339.39,161.91,339.4z"/>
					</g>
				</g>
			</g>
			<g>
				<g>
					<g>
						<path class="st5" d="M186.08,340.15c0.07,0.01,0.13-0.77,0.63-1.55c0.49-0.79,1.16-1.18,1.13-1.24
							c-0.01-0.05-0.79,0.28-1.31,1.12C185.99,339.33,186.03,340.17,186.08,340.15z"/>
					</g>
				</g>
			</g>
			<g>
				<g>
					<g>
						<path class="st5" d="M180.81,337.41c0.05,0.03,0.31-0.27,0.57-0.68c0.27-0.41,0.44-0.77,0.39-0.8
							c-0.05-0.03-0.31,0.27-0.57,0.68C180.94,337.02,180.76,337.38,180.81,337.41z"/>
					</g>
				</g>
			</g>
			<g>
				<g>
					<g>
						<path class="st5" d="M179.37,336.63c0.04,0.05,0.32-0.14,0.64-0.42c0.31-0.27,0.53-0.53,0.49-0.58
							c-0.04-0.05-0.32,0.14-0.64,0.42C179.55,336.32,179.33,336.58,179.37,336.63z"/>
					</g>
				</g>
			</g>
			<g>
				<g>
					<g>
						<path class="st5" d="M178.47,334.92c0,0.06,0.42,0.12,0.94,0.13c0.52,0.01,0.94-0.03,0.94-0.09c0-0.06-0.42-0.12-0.94-0.13
							C178.89,334.82,178.47,334.86,178.47,334.92z"/>
					</g>
				</g>
			</g>
			<g>
				<g>
					<g>
						<path class="st5" d="M178.16,333.72c-0.02,0.05,0.43,0.26,1.04,0.32c0.61,0.05,1.09-0.08,1.08-0.13
							c-0.01-0.06-0.48-0.03-1.06-0.08C178.65,333.78,178.18,333.66,178.16,333.72z"/>
					</g>
				</g>
			</g>
			<g>
				<g>
					<g>
						<path class="st5" d="M181.44,335.85c0,0.02,0.44,0.08,1.15,0.01c0.36-0.04,0.78-0.12,1.23-0.26c0.23-0.08,0.46-0.14,0.71-0.28
							c0.11-0.08,0.24-0.18,0.29-0.36c0.05-0.17-0.04-0.37-0.17-0.46c-1.1-0.58-2.21,0.03-2.62,0.59c-0.23,0.29-0.33,0.57-0.38,0.77
							c-0.05,0.2-0.05,0.31-0.03,0.31c0.04,0.02,0.08-0.45,0.54-0.98c0.22-0.26,0.56-0.51,0.99-0.63c0.41-0.12,0.99-0.14,1.37,0.11
							c0.18,0.14,0.11,0.35-0.1,0.47c-0.19,0.12-0.44,0.19-0.65,0.27c-0.44,0.15-0.85,0.24-1.19,0.3
							C181.88,335.82,181.44,335.82,181.44,335.85z"/>
					</g>
				</g>
			</g>
			<g>
				<g>
					<g>
						<path class="st5" d="M181.74,335.91c0.02,0.01,0.19-0.28,0.14-0.8c-0.03-0.25-0.12-0.56-0.31-0.85
							c-0.2-0.26-0.46-0.61-0.95-0.6c-0.27,0.03-0.4,0.33-0.36,0.53c0.02,0.2,0.11,0.38,0.19,0.52c0.17,0.29,0.36,0.53,0.54,0.7
							c0.36,0.36,0.64,0.5,0.65,0.47c0.02-0.03-0.23-0.21-0.54-0.58c-0.16-0.18-0.33-0.42-0.48-0.7c-0.16-0.25-0.26-0.68,0.03-0.73
							c0.29-0.02,0.58,0.27,0.75,0.5c0.18,0.25,0.28,0.52,0.32,0.75C181.81,335.6,181.7,335.9,181.74,335.91z"/>
					</g>
				</g>
			</g>
			<g>
				<g>
					<g>
						<path class="st5" d="M162.32,334.49c0,0.04,0.51-0.04,1.32,0.06c0.8,0.1,1.92,0.44,2.88,1.22c0.96,0.79,1.52,1.81,1.78,2.57
							c0.27,0.77,0.29,1.29,0.33,1.29c0.01,0,0.02-0.13,0-0.36c-0.02-0.23-0.07-0.57-0.19-0.97c-0.23-0.8-0.79-1.88-1.79-2.7
							c-1-0.82-2.17-1.15-3-1.21c-0.42-0.03-0.76-0.02-0.99,0.01C162.45,334.45,162.32,334.48,162.32,334.49z"/>
					</g>
				</g>
			</g>
			<g>
				<g>
					<g>
						<path class="st5" d="M164.27,327.04c-0.06,0-0.15,1.65-0.2,3.68c-0.05,2.04-0.04,3.69,0.02,3.69c0.06,0,0.15-1.65,0.2-3.69
							C164.34,328.7,164.33,327.05,164.27,327.04z"/>
					</g>
				</g>
			</g>
			<g>
				<g>
					<g>
						<path class="st5" d="M170.94,338.01c-0.01,0.06,1.16,0.26,2.62,0.29c1.46,0.03,2.63-0.13,2.63-0.18
							c-0.01-0.06-1.18,0-2.62-0.04C172.12,338.06,170.95,337.95,170.94,338.01z"/>
					</g>
				</g>
			</g>
			<g>
				<g>
					<g>
						<path class="st5" d="M167.42,337.97c-0.04,0.04,0.09,0.25,0.21,0.52c0.12,0.27,0.18,0.51,0.24,0.51c0.06,0,0.1-0.28-0.04-0.59
							C167.7,338.09,167.46,337.93,167.42,337.97z"/>
					</g>
				</g>
			</g>
			<g>
				<g>
					<g>
						<path class="st5" d="M166.12,336.31c-0.04,0.04,0.07,0.23,0.25,0.42c0.18,0.19,0.37,0.31,0.41,0.27
							c0.04-0.04-0.07-0.23-0.25-0.42C166.34,336.39,166.16,336.27,166.12,336.31z"/>
					</g>
				</g>
			</g>
			<g>
				<g>
					<g>
						<path class="st5" d="M164.23,335.53c0.01,0.06,0.25,0.06,0.51,0.16c0.26,0.09,0.45,0.24,0.5,0.2c0.05-0.03-0.1-0.29-0.43-0.4
							C164.49,335.37,164.21,335.48,164.23,335.53z"/>
					</g>
				</g>
			</g>
			<g>
				<g>
					<g>
						<path class="st5" d="M162.88,335.16c-0.02,0.06,0.08,0.15,0.23,0.21c0.15,0.06,0.29,0.06,0.31,0.01
							c0.02-0.06-0.08-0.15-0.23-0.21C163.04,335.11,162.9,335.11,162.88,335.16z"/>
					</g>
				</g>
			</g>
		</g>
	</g>
	<g>
		<g>
			<g>
				<g>
					<g>
						<path class="st6" d="M215.61,325.89l-3.91-8.75l-16.43,7.22l5.58,12.86l1.05-0.38c4.65-1.74,23.5-9.17,26.13-11.42
							C230.95,322.9,215.61,325.89,215.61,325.89z"/>
					</g>
				</g>
				<g>
					<g>
						<path class="st17" d="M206.75,334.47c-0.84-1.27-2.16-2.21-3.64-2.58c-1.47-0.37-3.03-0.23-4.37,0.49l2.01,4.59L206.75,334.47
							z"/>
					</g>
				</g>
			</g>
			<g>
				<g>
					<path class="st17" d="M223.21,324.67c0,0,5.51-0.74,5.26,0.34c-0.26,1.07-19.03,9.3-27.62,12.21l-0.13-0.38l21.97-9.41
						C222.68,327.42,222.27,325.13,223.21,324.67z"/>
				</g>
			</g>
			<g>
				<g>
					<g>
						<path class="st5" d="M200.45,336.94c0,0.01,0.1-0.03,0.3-0.09c0.25-0.09,0.52-0.19,0.83-0.31c0.83-0.32,1.84-0.72,3.04-1.18
							c2.56-1.02,6.09-2.47,9.94-4.15c3.86-1.69,7.31-3.29,9.8-4.48c1.16-0.57,2.14-1.04,2.93-1.43c0.29-0.15,0.55-0.28,0.79-0.4
							c0.18-0.09,0.27-0.15,0.27-0.15c0-0.01-0.1,0.03-0.29,0.11c-0.24,0.11-0.51,0.23-0.81,0.37c-0.8,0.37-1.79,0.83-2.96,1.37
							c-2.5,1.16-5.97,2.74-9.82,4.42c-3.85,1.68-7.36,3.16-9.91,4.21c-1.19,0.49-2.2,0.91-3.02,1.25c-0.3,0.13-0.57,0.24-0.82,0.34
							C200.54,336.89,200.45,336.93,200.45,336.94z"/>
					</g>
				</g>
			</g>
			<g>
				<g>
					<g>
						<path class="st5" d="M222.79,327.68c0.06-0.02-0.2-0.75-0.07-1.67c0.12-0.92,0.57-1.55,0.52-1.59
							c-0.03-0.04-0.6,0.57-0.73,1.56C222.37,326.96,222.75,327.71,222.79,327.68z"/>
					</g>
				</g>
			</g>
			<g>
				<g>
					<g>
						<path class="st5" d="M216.86,327.35c0.06,0.01,0.17-0.38,0.24-0.86c0.07-0.48,0.09-0.88,0.03-0.89
							c-0.06-0.01-0.17,0.37-0.24,0.86C216.82,326.94,216.8,327.34,216.86,327.35z"/>
					</g>
				</g>
			</g>
			<g>
				<g>
					<g>
						<path class="st5" d="M215.22,327.23c0.05,0.02,0.24-0.26,0.41-0.64c0.17-0.38,0.27-0.71,0.21-0.73
							c-0.05-0.02-0.24,0.26-0.41,0.64C215.26,326.87,215.17,327.2,215.22,327.23z"/>
					</g>
				</g>
			</g>
			<g>
				<g>
					<g>
						<path class="st5" d="M213.7,326.04c0.02,0.06,0.43-0.06,0.91-0.27c0.48-0.2,0.84-0.41,0.82-0.47
							c-0.02-0.06-0.43,0.06-0.91,0.27C214.05,325.78,213.68,325.99,213.7,326.04z"/>
					</g>
				</g>
			</g>
			<g>
				<g>
					<g>
						<path class="st5" d="M212.93,325.08c0,0.06,0.5,0.06,1.08-0.14c0.58-0.2,0.96-0.52,0.93-0.56c-0.03-0.05-0.45,0.17-1,0.36
							C213.39,324.92,212.93,325.01,212.93,325.08z"/>
					</g>
				</g>
			</g>
			<g>
				<g>
					<g>
						<path class="st5" d="M216.79,325.67c0.01,0.02,0.44-0.11,1.05-0.47c0.31-0.18,0.66-0.43,1.02-0.74
							c0.17-0.16,0.37-0.31,0.53-0.55c0.07-0.12,0.15-0.26,0.12-0.44c-0.03-0.18-0.19-0.32-0.35-0.35c-1.24-0.08-2,0.93-2.15,1.62
							c-0.09,0.36-0.07,0.66-0.04,0.86c0.04,0.2,0.09,0.3,0.1,0.3c0.04,0-0.11-0.45,0.09-1.11c0.1-0.33,0.3-0.69,0.65-0.98
							c0.32-0.27,0.84-0.54,1.3-0.47c0.22,0.05,0.24,0.28,0.11,0.47c-0.12,0.19-0.32,0.36-0.48,0.51c-0.34,0.31-0.67,0.57-0.96,0.76
							C217.18,325.46,216.78,325.64,216.79,325.67z"/>
					</g>
				</g>
			</g>
			<g>
				<g>
					<g>
						<path class="st5" d="M217.09,325.6c0.02,0,0.06-0.33-0.2-0.79c-0.13-0.22-0.33-0.46-0.63-0.65c-0.29-0.15-0.67-0.37-1.12-0.15
							c-0.23,0.14-0.23,0.47-0.11,0.63c0.1,0.18,0.25,0.3,0.39,0.39c0.27,0.2,0.54,0.33,0.78,0.42c0.47,0.18,0.79,0.19,0.79,0.16
							c0.01-0.03-0.29-0.1-0.73-0.3c-0.22-0.1-0.47-0.25-0.72-0.44c-0.24-0.16-0.52-0.52-0.27-0.68c0.25-0.14,0.64,0,0.89,0.14
							c0.27,0.16,0.47,0.36,0.6,0.56C217.03,325.29,217.05,325.61,217.09,325.6z"/>
					</g>
				</g>
			</g>
			<g>
				<g>
					<g>
						<path class="st5" d="M198.81,332.29c0.02,0.04,0.45-0.25,1.23-0.49c0.77-0.24,1.93-0.39,3.13-0.07
							c1.2,0.32,2.13,1.02,2.68,1.61c0.56,0.59,0.79,1.06,0.83,1.04c0.01-0.01-0.03-0.13-0.14-0.33c-0.11-0.21-0.3-0.49-0.57-0.81
							c-0.54-0.63-1.49-1.39-2.74-1.72c-1.25-0.33-2.45-0.15-3.23,0.13c-0.39,0.14-0.7,0.3-0.89,0.42
							C198.9,332.2,198.8,332.28,198.81,332.29z"/>
					</g>
				</g>
			</g>
			<g>
				<g>
					<g>
						<path class="st5" d="M197.52,324.71c-0.06,0.02,0.54,1.56,1.34,3.44c0.79,1.88,1.48,3.38,1.54,3.35
							c0.06-0.02-0.54-1.56-1.34-3.44C198.26,326.18,197.57,324.68,197.52,324.71z"/>
					</g>
				</g>
			</g>
			<g>
				<g>
					<g>
						<path class="st5" d="M208.11,331.96c0.02,0.05,1.16-0.24,2.5-0.81c1.34-0.57,2.35-1.2,2.32-1.25
							c-0.03-0.06-1.08,0.48-2.41,1.05C209.2,331.51,208.09,331.9,208.11,331.96z"/>
					</g>
				</g>
			</g>
			<g>
				<g>
					<g>
						<path class="st5" d="M204.89,333.37c-0.02,0.06,0.19,0.19,0.41,0.39c0.22,0.2,0.37,0.39,0.43,0.36
							c0.05-0.02-0.03-0.3-0.28-0.52C205.19,333.36,204.91,333.31,204.89,333.37z"/>
					</g>
				</g>
			</g>
			<g>
				<g>
					<g>
						<path class="st5" d="M203.01,332.39c-0.02,0.06,0.16,0.18,0.4,0.28c0.25,0.1,0.46,0.13,0.49,0.08
							c0.02-0.06-0.16-0.18-0.4-0.28C203.25,332.37,203.03,332.33,203.01,332.39z"/>
					</g>
				</g>
			</g>
			<g>
				<g>
					<g>
						<path class="st5" d="M200.97,332.46c0.04,0.05,0.25-0.05,0.53-0.07c0.28-0.03,0.51,0.03,0.54-0.02
							c0.03-0.05-0.21-0.22-0.55-0.19C201.14,332.2,200.93,332.42,200.97,332.46z"/>
					</g>
				</g>
			</g>
			<g>
				<g>
					<g>
						<path class="st5" d="M199.59,332.68c0,0.06,0.13,0.1,0.29,0.1c0.16-0.01,0.29-0.06,0.28-0.12c0-0.06-0.13-0.1-0.29-0.1
							C199.72,332.56,199.59,332.62,199.59,332.68z"/>
					</g>
				</g>
			</g>
		</g>
	</g>
	<g>
		<g>
			<path class="st18" d="M52.71,261.86L39.75,165c-0.35-2.59,1.79-4.84,4.4-4.62l31.24,2.64c2.88,0.24,5.16,2.53,5.4,5.41l7.61,91.7
				L52.71,261.86z"/>
		</g>
		<g>
			<path class="st19" d="M52.71,261.86L39.75,165c-0.35-2.59,1.79-4.84,4.4-4.62l31.24,2.64c2.88,0.24,5.16,2.53,5.4,5.41l7.61,91.7
				L52.71,261.86z"/>
		</g>
	</g>
	<g>
		<g>
			<path class="st5" d="M82.85,119.51c-0.26-3.69-1.23-7.28-1.77-10.94c-0.54-3.66-0.62-7.51,0.83-10.92
				c1.63-3.85,5.11-6.73,9.01-8.24c3.9-1.51,8.19-1.77,12.35-1.41c0.75,0.06,1.52,0.15,2.19,0.5c0.67,0.34,1.23,1,1.25,1.75
				c0.02,0.75-0.65,1.51-1.39,1.41c1.58,0.22,3.18,0.44,4.68,1c0.6,0.22,1.21,0.53,1.51,1.09c0.34,0.64,0.19,1.45-0.21,2.05
				c-0.39,0.61-0.99,1.05-1.57,1.48c0.73-0.23,1.53,0.4,1.69,1.14c0.17,0.75-0.15,1.53-0.6,2.15c-0.45,0.62-1.02,1.14-1.48,1.76
				c-1.88,2.51-1.51,5.98-1.06,9.08"/>
		</g>
		<g>
			<g>
				<g>
					<g>
						<path class="st20" d="M83.19,141.16l17.6-0.32c0.24-2.04,0.58-9.96,0.58-9.96s7.36-0.68,7.9-7.96
							c0.54-7.28,0.31-24.09,0.31-24.09l0,0c-8.21-4.15-18.02-3.52-25.64,1.63l-1.13,0.76L83.19,141.16z"/>
					</g>
				</g>
				<g>
					<g>
						<g>
							<path class="st5" d="M107.13,111.46c-0.41-0.42-0.4-1.09,0.02-1.5c0.42-0.41,1.09-0.4,1.5,0.02c0.41,0.42,0.4,1.09-0.02,1.5
								C108.21,111.88,107.54,111.88,107.13,111.46z"/>
						</g>
					</g>
					<g>
						<g>
							<g>
								<path class="st5" d="M109,109.69c-0.12,0.12-0.8-0.48-1.81-0.54c-1-0.08-1.76,0.41-1.87,0.27c-0.05-0.06,0.08-0.28,0.41-0.5
									c0.33-0.22,0.88-0.42,1.5-0.37c0.62,0.05,1.14,0.32,1.43,0.59C108.97,109.4,109.06,109.63,109,109.69z"/>
							</g>
						</g>
					</g>
				</g>
				<g>
					<g>
						<g>
							<path class="st5" d="M97.38,109.85c0.48,0.34,0.59,1,0.26,1.48c-0.34,0.48-1,0.59-1.48,0.26c-0.48-0.34-0.59-1-0.26-1.48
								C96.24,109.63,96.9,109.51,97.38,109.85z"/>
						</g>
					</g>
					<g>
						<g>
							<g>
								<path class="st5" d="M98.04,109.9c-0.12,0.12-0.8-0.48-1.81-0.54c-1-0.08-1.76,0.41-1.87,0.27
									c-0.05-0.06,0.08-0.28,0.41-0.5c0.33-0.22,0.88-0.42,1.5-0.37c0.62,0.05,1.14,0.32,1.43,0.59
									C98.01,109.61,98.1,109.85,98.04,109.9z"/>
							</g>
						</g>
					</g>
				</g>
				<g>
					<g>
						<g>
							<path class="st5" d="M101.56,118.43c0-0.08,0.63-0.17,1.64-0.24c0.26-0.01,0.47-0.06,0.5-0.2c0.06-0.16-0.03-0.44-0.14-0.76
								c-0.22-0.68-0.44-1.37-0.67-2.09c-0.92-2.97-1.54-5.42-1.39-5.47c0.15-0.05,1.02,2.33,1.93,5.3c0.22,0.73,0.42,1.42,0.62,2.1
								c0.08,0.31,0.24,0.68,0.08,1.1c-0.09,0.21-0.3,0.36-0.48,0.39c-0.18,0.04-0.33,0.03-0.45,0.03
								C102.19,118.56,101.56,118.51,101.56,118.43z"/>
						</g>
					</g>
				</g>
				<g>
					<g>
						<path class="st3" d="M98.23,119.33c-1.01-0.69,2.78,1.71,4.83,1.73c0,0-1.29,1.8-3.34,0.9
							C97.59,121.04,98.23,119.33,98.23,119.33z"/>
					</g>
				</g>
				<g>
					<g>
						<path class="st21" d="M101.39,130.77c0,0-4.63,0.09-9.33-3.29c0,0,1.92,5.38,9.23,5.18L101.39,130.77z"/>
					</g>
				</g>
			</g>
		</g>
		<g>
			<path class="st5" d="M82.57,106.74l0.38,9.45c0,0,3.31-1.01,3.54-1.1c0.22-0.1-0.06-11.57-0.06-11.57s-0.46-4.33,2.36-5.36
				c2.97-1.08,4.26,1.08,8.47,1.78c13.88,2.34,12.92-1.92,12.92-1.92s1.75-1.87-1.81-3.93c-3.68-2.13-12.48-2.75-17.36-1.07
				c-9.61,3.31-10.16,6.59-10.16,9.49C80.84,106.56,82.57,106.74,82.57,106.74z"/>
		</g>
		<g>
			<g>
				<g>
					<path class="st20" d="M84.2,107.68c-0.16-0.06-5.41-0.74-4.91,5.46c0.5,6.2,6.59,3.65,6.59,3.47
						C85.88,116.43,84.2,107.68,84.2,107.68z"/>
				</g>
			</g>
			<g>
				<g>
					<g>
						<path class="st21" d="M83.81,114.58c-0.03-0.02-0.1,0.08-0.28,0.18c-0.17,0.1-0.47,0.18-0.81,0.08
							c-0.67-0.19-1.31-1.18-1.43-2.3c-0.06-0.56,0.01-1.11,0.18-1.57c0.15-0.47,0.42-0.81,0.75-0.89c0.32-0.1,0.57,0.08,0.66,0.24
							c0.1,0.17,0.07,0.29,0.1,0.3c0.02,0.01,0.12-0.11,0.05-0.37c-0.04-0.12-0.12-0.26-0.27-0.37c-0.16-0.11-0.38-0.15-0.61-0.11
							c-0.48,0.07-0.87,0.55-1.05,1.05c-0.21,0.51-0.3,1.13-0.24,1.76c0.14,1.25,0.87,2.36,1.79,2.55c0.45,0.08,0.8-0.08,0.97-0.24
							C83.81,114.73,83.83,114.59,83.81,114.58z"/>
					</g>
				</g>
			</g>
		</g>
	</g>
	<g>
		<path class="st20" d="M153.38,191.22c0,0,8.67-0.42,10.48,0.37c3.02,1.32,11.99,15.38,11.53,15.38c-1.35,0.01-4.15-0.01-4.15-0.01
			l-13.96-5.28l-3.28,0.83L153.38,191.22z"/>
	</g>
	<g>
		<g>
			<path class="st5" d="M190.83,231.59c0,0,26.09,90.28,26.13,89.82c0.04-0.46-23.36,11.26-23.36,11.26l-15.8-65.28L190.83,231.59z"
				/>
		</g>
		<g>
			<polygon class="st16" points="193.08,333.22 217.77,321.17 216.7,317.88 191.82,329.94 			"/>
		</g>
		<g>
			<g>
				<g>
					<path class="st16" d="M189.84,300.01c-0.13,0.04-0.4-0.52-0.62-1.25c-0.21-0.73-0.29-1.35-0.16-1.39
						c0.13-0.04,0.4,0.52,0.62,1.25C189.9,299.35,189.97,299.98,189.84,300.01z"/>
				</g>
			</g>
			<g>
				<g>
					<path class="st16" d="M191.45,305.28c-0.13,0.04-0.41-0.52-0.64-1.25c-0.22-0.73-0.3-1.35-0.18-1.39
						c0.13-0.04,0.41,0.52,0.64,1.25C191.5,304.62,191.58,305.24,191.45,305.28z"/>
				</g>
			</g>
			<g>
				<g>
					<path class="st16" d="M193.13,310.53c-0.13,0.04-0.42-0.51-0.65-1.24c-0.24-0.72-0.32-1.34-0.2-1.38
						c0.13-0.04,0.42,0.51,0.65,1.24C193.17,309.87,193.26,310.49,193.13,310.53z"/>
				</g>
			</g>
			<g>
				<g>
					<path class="st16" d="M194.89,315.76c-0.12,0.04-0.43-0.51-0.67-1.23c-0.25-0.72-0.34-1.34-0.22-1.38
						c0.13-0.04,0.43,0.51,0.67,1.23C194.92,315.09,195.02,315.71,194.89,315.76z"/>
				</g>
			</g>
			<g>
				<g>
					<path class="st16" d="M196.72,320.96c-0.12,0.04-0.43-0.5-0.69-1.22c-0.26-0.72-0.36-1.33-0.24-1.38
						c0.12-0.04,0.43,0.5,0.69,1.22C196.74,320.29,196.85,320.91,196.72,320.96z"/>
				</g>
			</g>
			<g>
				<g>
					<path class="st16" d="M198.63,326.13c-0.12,0.05-0.44-0.49-0.71-1.21c-0.27-0.71-0.38-1.33-0.26-1.38
						c0.12-0.05,0.44,0.5,0.71,1.21C198.64,325.47,198.75,326.09,198.63,326.13z"/>
				</g>
			</g>
		</g>
		<g>
			<g>
				<path class="st16" d="M197.24,328.3c-0.03,0.01-0.21-0.32-0.52-0.95c-0.31-0.62-0.73-1.53-1.2-2.68
					c-0.97-2.28-2.16-5.5-3.36-9.08c-1.2-3.59-2.21-6.85-2.93-9.22c-0.33-1.11-0.6-2.05-0.83-2.81c-0.19-0.67-0.28-1.04-0.24-1.05
					c0.03-0.01,0.18,0.34,0.42,0.99c0.24,0.65,0.57,1.6,0.97,2.77c0.82,2.45,1.88,5.64,3.06,9.18c1.2,3.58,2.34,6.8,3.22,9.11
					c0.42,1.08,0.77,1.99,1.06,2.73C197.14,327.93,197.27,328.29,197.24,328.3z"/>
			</g>
		</g>
	</g>
	<g>
		<path class="st5" d="M69.25,225.32c0.22-4.79-2.5,26.24,21.35,27.07c23.87,0.82,72.58,0.46,72.58,0.46l-5.71,78.68h28.61
			l5.98-83.67c0,0,3.05-24.25-13.54-27.35c-10.39-1.94-74.96-2.56-74.96-2.56L69.25,225.32z"/>
	</g>
	<g>
		<polygon class="st16" points="156.81,331.69 186.94,331.69 186.94,327.01 156.81,327.04 		"/>
	</g>
	<g>
		<g>
			<path class="st16" d="M109.68,248.66c0-0.01,0.1-0.02,0.31-0.03c0.23-0.01,0.52-0.03,0.9-0.05c0.82-0.04,1.99-0.09,3.49-0.15
				c3.06-0.12,7.46-0.28,12.93-0.49c11-0.38,26.31-0.9,43.63-1.5l0.28-0.01l-0.03,0.28c-0.39,3.21-0.72,6.59-1,10.04
				c-0.38,4.92-0.75,9.71-1.11,14.35c-0.38,4.64-0.88,9.1-1.31,13.34c-0.89,8.49-1.69,16.14-2.37,22.57
				c-0.69,6.4-1.25,11.6-1.64,15.21c-0.2,1.77-0.36,3.16-0.47,4.13c-0.06,0.45-0.1,0.81-0.13,1.07c-0.03,0.24-0.05,0.37-0.06,0.36
				c-0.01,0,0-0.13,0.01-0.37c0.02-0.27,0.05-0.62,0.09-1.08c0.09-0.97,0.22-2.36,0.38-4.14c0.35-3.62,0.86-8.82,1.49-15.23
				c0.65-6.44,1.41-14.09,2.27-22.58c0.42-4.25,0.92-8.71,1.28-13.34c0.35-4.64,0.72-9.43,1.1-14.35c0.28-3.45,0.61-6.84,1.01-10.06
				l0.24,0.27c-17.32,0.53-32.63,1-43.64,1.34c-5.47,0.15-9.87,0.27-12.94,0.35c-1.5,0.03-2.67,0.06-3.49,0.07
				c-0.38,0-0.68,0.01-0.9,0.01C109.78,248.67,109.68,248.67,109.68,248.66z"/>
		</g>
	</g>
	<g>
		<g>
			<g>
				<path class="st16" d="M112.43,245.28c0,0.13-0.61,0.25-1.37,0.27c-0.76,0.02-1.38-0.07-1.38-0.21c0-0.13,0.61-0.25,1.37-0.27
					C111.81,245.06,112.43,245.15,112.43,245.28z"/>
			</g>
		</g>
		<g>
			<g>
				<path class="st16" d="M117.95,245.15c0,0.13-0.61,0.25-1.37,0.27c-0.76,0.02-1.38-0.07-1.38-0.21c0-0.13,0.61-0.25,1.37-0.27
					C117.32,244.93,117.94,245.02,117.95,245.15z"/>
			</g>
		</g>
		<g>
			<g>
				<path class="st16" d="M123.46,245.02c0,0.13-0.61,0.25-1.37,0.27c-0.76,0.02-1.38-0.07-1.38-0.21c0-0.13,0.61-0.25,1.37-0.27
					C122.84,244.8,123.46,244.89,123.46,245.02z"/>
			</g>
		</g>
		<g>
			<g>
				<path class="st16" d="M128.97,244.89c0,0.13-0.61,0.25-1.37,0.27c-0.76,0.02-1.38-0.07-1.38-0.21c0-0.13,0.61-0.25,1.37-0.27
					C128.35,244.67,128.97,244.76,128.97,244.89z"/>
			</g>
		</g>
		<g>
			<g>
				<path class="st16" d="M134.49,244.76c0,0.13-0.61,0.25-1.37,0.27c-0.76,0.02-1.38-0.07-1.38-0.21c0-0.13,0.61-0.25,1.37-0.27
					C133.86,244.54,134.48,244.63,134.49,244.76z"/>
			</g>
		</g>
		<g>
			<g>
				<path class="st16" d="M140,244.63c0,0.13-0.61,0.25-1.37,0.27c-0.76,0.02-1.38-0.07-1.38-0.21c0-0.13,0.61-0.25,1.37-0.27
					C139.38,244.41,140,244.5,140,244.63z"/>
			</g>
		</g>
		<g>
			<g>
				<path class="st16" d="M145.51,244.5c0,0.13-0.61,0.25-1.37,0.27c-0.76,0.02-1.38-0.07-1.38-0.21c0-0.13,0.61-0.25,1.37-0.27
					C144.89,244.28,145.51,244.37,145.51,244.5z"/>
			</g>
		</g>
		<g>
			<g>
				<path class="st16" d="M151.03,244.37c0,0.13-0.61,0.25-1.37,0.27c-0.76,0.02-1.38-0.07-1.38-0.21c0-0.13,0.61-0.25,1.37-0.27
					C150.4,244.15,151.02,244.24,151.03,244.37z"/>
			</g>
		</g>
		<g>
			<g>
				<path class="st16" d="M156.54,244.24c0,0.13-0.61,0.25-1.37,0.27c-0.76,0.02-1.38-0.07-1.38-0.21c0-0.13,0.61-0.25,1.37-0.27
					C155.92,244.02,156.54,244.11,156.54,244.24z"/>
			</g>
		</g>
		<g>
			<g>
				<path class="st16" d="M162.05,244.12c0,0.13-0.61,0.25-1.37,0.27c-0.76,0.02-1.38-0.07-1.38-0.21c0-0.13,0.61-0.25,1.37-0.27
					C161.43,243.89,162.05,243.98,162.05,244.12z"/>
			</g>
		</g>
		<g>
			<g>
				<path class="st16" d="M167.57,243.99c0,0.13-0.61,0.25-1.37,0.27c-0.76,0.02-1.38-0.07-1.38-0.21c0-0.13,0.61-0.25,1.37-0.27
					C166.94,243.76,167.56,243.85,167.57,243.99z"/>
			</g>
		</g>
		<g>
			<g>
				<path class="st16" d="M173.08,243.86c0,0.13-0.61,0.25-1.37,0.27c-0.76,0.02-1.38-0.07-1.38-0.21c0-0.13,0.61-0.25,1.37-0.27
					C172.46,243.63,173.08,243.72,173.08,243.86z"/>
			</g>
		</g>
		<g>
			<g>
				<path class="st16" d="M173.07,248.85c-0.13-0.01-0.18-0.64-0.1-1.4c0.07-0.76,0.24-1.36,0.37-1.35c0.13,0.01,0.18,0.64,0.1,1.4
					C173.37,248.26,173.2,248.87,173.07,248.85z"/>
			</g>
		</g>
		<g>
			<g>
				<path class="st16" d="M172.53,254.34c-0.13-0.01-0.18-0.64-0.1-1.4c0.07-0.76,0.24-1.36,0.37-1.35c0.13,0.01,0.18,0.64,0.1,1.4
					C172.83,253.75,172.66,254.36,172.53,254.34z"/>
			</g>
		</g>
		<g>
			<g>
				<path class="st16" d="M171.99,259.83c-0.13-0.01-0.18-0.64-0.1-1.4c0.07-0.76,0.24-1.36,0.37-1.35c0.13,0.01,0.18,0.64,0.1,1.4
					C172.29,259.24,172.13,259.84,171.99,259.83z"/>
			</g>
		</g>
		<g>
			<g>
				<path class="st16" d="M171.46,265.32c-0.13-0.01-0.18-0.64-0.1-1.4c0.07-0.76,0.24-1.36,0.37-1.35c0.13,0.01,0.18,0.64,0.1,1.4
					C171.75,264.73,171.59,265.33,171.46,265.32z"/>
			</g>
		</g>
		<g>
			<g>
				<path class="st16" d="M170.92,270.81c-0.13-0.01-0.18-0.64-0.1-1.4c0.07-0.76,0.24-1.36,0.37-1.35c0.13,0.01,0.18,0.64,0.1,1.4
					C171.22,270.22,171.05,270.82,170.92,270.81z"/>
			</g>
		</g>
		<g>
			<g>
				<path class="st16" d="M170.38,276.3c-0.13-0.01-0.18-0.64-0.1-1.4c0.07-0.76,0.24-1.36,0.37-1.35c0.13,0.01,0.18,0.64,0.1,1.4
					C170.68,275.71,170.51,276.31,170.38,276.3z"/>
			</g>
		</g>
		<g>
			<g>
				<path class="st16" d="M169.84,281.79c-0.13-0.01-0.18-0.64-0.1-1.4c0.07-0.76,0.24-1.36,0.37-1.35c0.13,0.01,0.18,0.64,0.1,1.4
					C170.14,281.19,169.97,281.8,169.84,281.79z"/>
			</g>
		</g>
		<g>
			<g>
				<path class="st16" d="M169.3,287.27c-0.13-0.01-0.18-0.64-0.1-1.4c0.07-0.76,0.24-1.36,0.37-1.35c0.13,0.01,0.18,0.64,0.1,1.4
					C169.6,286.68,169.43,287.29,169.3,287.27z"/>
			</g>
		</g>
		<g>
			<g>
				<path class="st16" d="M168.76,292.76c-0.13-0.01-0.18-0.64-0.1-1.4c0.07-0.76,0.24-1.36,0.37-1.35c0.13,0.01,0.18,0.64,0.1,1.4
					C169.06,292.17,168.89,292.78,168.76,292.76z"/>
			</g>
		</g>
		<g>
			<g>
				<path class="st16" d="M168.22,298.25c-0.13-0.01-0.18-0.64-0.1-1.4c0.07-0.76,0.24-1.36,0.37-1.35c0.13,0.01,0.18,0.64,0.1,1.4
					C168.52,297.66,168.36,298.26,168.22,298.25z"/>
			</g>
		</g>
		<g>
			<g>
				<path class="st16" d="M167.69,303.74c-0.13-0.01-0.18-0.64-0.1-1.4c0.07-0.76,0.24-1.36,0.37-1.35c0.13,0.01,0.18,0.64,0.1,1.4
					C167.98,303.15,167.82,303.75,167.69,303.74z"/>
			</g>
		</g>
		<g>
			<g>
				<path class="st16" d="M167.15,309.23c-0.13-0.01-0.18-0.64-0.1-1.4c0.07-0.76,0.24-1.36,0.37-1.35c0.13,0.01,0.18,0.64,0.1,1.4
					C167.45,308.64,167.28,309.24,167.15,309.23z"/>
			</g>
		</g>
		<g>
			<g>
				<path class="st16" d="M166.61,314.72c-0.13-0.01-0.18-0.64-0.1-1.4c0.07-0.76,0.24-1.36,0.37-1.35c0.13,0.01,0.18,0.64,0.1,1.4
					C166.91,314.13,166.74,314.73,166.61,314.72z"/>
			</g>
		</g>
		<g>
			<g>
				<path class="st16" d="M166.07,320.21c-0.13-0.01-0.18-0.64-0.1-1.4c0.07-0.76,0.24-1.36,0.37-1.35c0.13,0.01,0.18,0.64,0.1,1.4
					C166.37,319.61,166.2,320.22,166.07,320.21z"/>
			</g>
		</g>
		<g>
			<g>
				<path class="st16" d="M165.53,325.69c-0.13-0.01-0.18-0.64-0.1-1.4c0.07-0.76,0.24-1.36,0.37-1.35c0.13,0.01,0.18,0.64,0.1,1.4
					C165.83,325.1,165.66,325.71,165.53,325.69z"/>
			</g>
		</g>
		<g>
			<g>
				<path class="st16" d="M165.25,328.6c-0.13-0.01-0.23-0.06-0.23-0.11c0-0.05,0.11-0.07,0.25-0.06c0.13,0.01,0.23,0.06,0.23,0.11
					C165.49,328.59,165.38,328.62,165.25,328.6z"/>
			</g>
		</g>
	</g>
	<g>
		<g>
			<path class="st5" d="M167.08,249.18c0.09,0.1-0.76,1.02-1.88,2.04c-1.12,1.03-2.11,1.78-2.2,1.69c-0.09-0.09,0.75-1.01,1.88-2.04
				C166.01,249.83,166.99,249.08,167.08,249.18z"/>
		</g>
	</g>
	<g>
		<g>
			<path class="st5" d="M169.05,250.24c0.05,0.12-1.32,0.86-3.08,1.64c-1.75,0.79-3.22,1.33-3.27,1.21
				c-0.05-0.12,1.32-0.86,3.08-1.64C167.53,250.66,169,250.12,169.05,250.24z"/>
		</g>
	</g>
	<g>
		<g>
			<path class="st22" d="M110.87,187.8c0,0-2.92-31.26-8.1-44.95l1.03-0.78l-1.54-5.39l-19.39-2.35l0.3,4.21
				c-2.91,1.41-5.34,3.57-6.63,6.3c-6.95,14.76-3.52,31.98-7.23,63.92c0,0-4.33,14.97,0.15,19.66l42.3-9.86l-2.02-9.65
				c18.47-0.35,48.83-3.75,48.83-3.75l-0.85-17.47C157.72,187.69,112.35,187.96,110.87,187.8"/>
		</g>
	</g>
	<g class="st23">
		<g>
			<g>
				<path class="st1" d="M102.22,136.66c0.13-0.04,0.75,1.53,1.4,3.5c0.14,0.5,0.35,0.93,0.39,1.47c0.01,0.27-0.09,0.55-0.25,0.73
					c-0.16,0.19-0.35,0.3-0.52,0.37c-0.73,0.23-1.15,0.06-1.15,0.03c-0.02-0.09,0.46-0.08,1.01-0.34c0.27-0.15,0.51-0.41,0.47-0.77
					c-0.03-0.36-0.25-0.85-0.4-1.34C102.51,138.34,102.09,136.7,102.22,136.66z"/>
			</g>
		</g>
		<g>
			<g>
				<path class="st5" d="M106.84,159.94c0,0.13-7.8,0.24-17.41,0.24c-9.62,0-17.41-0.11-17.41-0.24c0-0.13,7.8-0.24,17.41-0.24
					C99.04,159.7,106.84,159.81,106.84,159.94z"/>
			</g>
		</g>
		<g>
			<g>
				<path class="st5" d="M105.02,151.13c0,0.13-6.91,0.24-15.43,0.24c-8.53,0-15.44-0.11-15.44-0.24c0-0.13,6.91-0.24,15.44-0.24
					C98.11,150.89,105.02,151,105.02,151.13z"/>
			</g>
		</g>
		<g>
			<g>
				<path class="st5" d="M102.48,143.38c0,0.13-5.72,0.24-12.77,0.24c-7.05,0-12.77-0.11-12.77-0.24c0-0.13,5.72-0.24,12.77-0.24
					C96.76,143.14,102.48,143.25,102.48,143.38z"/>
			</g>
		</g>
		<g>
			<g>
				<path class="st5" d="M102.22,137.92c0,0.13-4.38,0.24-9.78,0.24c-5.4,0-9.78-0.11-9.78-0.24c0-0.13,4.38-0.24,9.78-0.24
					C97.84,137.68,102.22,137.79,102.22,137.92z"/>
			</g>
		</g>
		<g>
			<g>
				<path class="st5" d="M108.07,168.41c0,0.13-8.25,0.24-18.42,0.24c-10.18,0-18.42-0.11-18.42-0.24c0-0.13,8.25-0.24,18.42-0.24
					C99.82,168.17,108.07,168.27,108.07,168.41z"/>
			</g>
		</g>
		<g>
			<g>
				<path class="st5" d="M109.57,176.92c0,0.13-8.58,0.24-19.17,0.24c-10.59,0-19.17-0.11-19.17-0.24c0-0.13,8.58-0.24,19.17-0.24
					C100.98,176.68,109.57,176.79,109.57,176.92z"/>
			</g>
		</g>
		<g>
			<g>
				<path class="st5" d="M110.51,184.76c0,0.13-8.79,0.24-19.64,0.24c-10.85,0-19.64-0.11-19.64-0.24c0-0.13,8.79-0.24,19.64-0.24
					C101.71,184.52,110.51,184.63,110.51,184.76z"/>
			</g>
		</g>
		<g>
			<g>
				<path class="st5" d="M153.38,193.34c0,0.13-18.56,0.24-41.44,0.24c-22.89,0-41.44-0.11-41.44-0.24c0-0.13,18.55-0.24,41.44-0.24
					C134.83,193.1,153.38,193.2,153.38,193.34z"/>
			</g>
		</g>
		<g>
			<g>
				<path class="st5" d="M153.7,200.21c0,0.13-18.7,0.24-41.75,0.24c-23.07,0-41.76-0.11-41.76-0.24c0-0.13,18.69-0.24,41.76-0.24
					C135.01,199.97,153.7,200.08,153.7,200.21z"/>
			</g>
		</g>
		<g>
			<g>
				<path class="st5" d="M109.1,208.67c0,0.13-8.93,0.24-19.95,0.24c-11.02,0-19.95-0.11-19.95-0.24c0-0.13,8.93-0.24,19.95-0.24
					C100.16,208.43,109.1,208.54,109.1,208.67z"/>
			</g>
		</g>
		<g>
			<g>
				<path class="st5" d="M111.13,216.53c0,0.13-9.71,0.24-21.69,0.24c-11.98,0-21.69-0.11-21.69-0.24c0-0.13,9.71-0.24,21.69-0.24
					C101.42,216.29,111.13,216.4,111.13,216.53z"/>
			</g>
		</g>
		<g>
			<g>
				<path class="st5" d="M74.19,218.61c-0.13,0-0.24-15.23-0.24-34.02c0-18.79,0.11-34.02,0.24-34.02c0.13,0,0.24,15.23,0.24,34.02
					C74.43,203.38,74.32,218.61,74.19,218.61z"/>
			</g>
		</g>
		<g>
			<g>
				<path class="st5" d="M84.66,217.77c-0.13,0-0.24-18.62-0.24-41.59c0-22.98,0.11-41.59,0.24-41.59c0.13,0,0.24,18.62,0.24,41.59
					C84.9,199.15,84.79,217.77,84.66,217.77z"/>
			</g>
		</g>
		<g>
			<g>
				<path class="st5" d="M96.22,216.53c-0.13,0-0.24-17.95-0.24-40.1c0-22.15,0.11-40.1,0.24-40.1c0.13,0,0.24,17.95,0.24,40.1
					C96.46,198.57,96.35,216.53,96.22,216.53z"/>
			</g>
		</g>
		<g>
			<g>
				<path class="st5" d="M105.93,218.58c-0.13,0-0.24-14.09-0.24-31.47c0-17.39,0.11-31.48,0.24-31.48c0.13,0,0.24,14.09,0.24,31.48
					C106.17,204.49,106.06,218.58,105.93,218.58z"/>
			</g>
		</g>
		<g>
			<g>
				<path class="st5" d="M116.21,187.76c0.07,0,0.1,1.17,0.1,3.06c0,1.89-0.04,4.49-0.11,7.37c-0.07,2.88-0.16,5.48-0.25,7.37
					c-0.09,1.89-0.18,3.05-0.24,3.05c-0.07,0-0.1-1.17-0.1-3.06c0-1.89,0.04-4.5,0.11-7.38c0.07-2.88,0.16-5.49,0.25-7.37
					C116.06,188.92,116.15,187.76,116.21,187.76z"/>
			</g>
		</g>
		<g>
			<g>
				<path class="st5" d="M127.14,188.12c0.07,0,0.1,1.1,0.1,2.87c0,1.77-0.03,4.21-0.09,6.91c-0.06,2.7-0.15,5.14-0.24,6.9
					c-0.09,1.77-0.17,2.86-0.24,2.86c-0.07,0-0.1-1.09-0.1-2.86c0-1.77,0.03-4.21,0.1-6.91c0.06-2.7,0.15-5.14,0.24-6.91
					C126.99,189.21,127.08,188.12,127.14,188.12z"/>
			</g>
		</g>
		<g>
			<g>
				<path class="st5" d="M138.09,187.93c0.07,0,0.1,1.07,0.1,2.78c0,1.71-0.03,4.08-0.09,6.69c-0.06,2.61-0.15,4.98-0.23,6.69
					c-0.08,1.71-0.17,2.77-0.24,2.77c-0.07,0-0.1-1.06-0.1-2.77c0-1.71,0.03-4.08,0.09-6.7c0.06-2.62,0.15-4.98,0.23-6.7
					S138.02,187.93,138.09,187.93z"/>
			</g>
		</g>
		<g>
			<g>
				<path class="st5" d="M149.03,187.62c0.07,0,0.1,1.03,0.1,2.7c0,1.66-0.02,3.96-0.09,6.5c-0.06,2.54-0.14,4.83-0.23,6.49
					c-0.08,1.66-0.17,2.69-0.23,2.69c-0.07,0-0.1-1.03-0.1-2.69c0-1.66,0.02-3.96,0.09-6.5c0.06-2.54,0.14-4.84,0.23-6.5
					C148.88,188.64,148.97,187.62,149.03,187.62z"/>
			</g>
		</g>
		<g>
			<g>
				<g>
					<path class="st5" d="M107.07,191.69c-0.11-0.06,0.48-1.34,1.64-2.62c1.15-1.29,2.35-2.02,2.42-1.92
						c0.08,0.11-0.96,0.99-2.06,2.24C107.95,190.63,107.19,191.76,107.07,191.69z"/>
				</g>
			</g>
			<g>
				<g>
					<path class="st5" d="M109.57,191.91c-0.12,0.02-0.33-1.21,0.19-2.63c0.51-1.42,1.47-2.22,1.55-2.13
						c0.11,0.1-0.63,0.98-1.1,2.29C109.72,190.75,109.71,191.9,109.57,191.91z"/>
				</g>
			</g>
			<g>
				<g>
					<path class="st5" d="M154.14,205.07c-0.13,0.01-0.58-3.73-1-8.36c-0.42-4.63-0.65-8.39-0.52-8.4c0.13-0.01,0.58,3.73,1,8.36
						C154.04,201.29,154.27,205.06,154.14,205.07z"/>
				</g>
			</g>
			<g>
				<g>
					<path class="st5" d="M154.73,191.6c0.04,0.06-0.24,0.23-0.28,0.67c-0.02,0.21,0.04,0.47,0.21,0.64
						c0.16,0.17,0.46,0.21,0.73,0.09c0.28-0.12,0.45-0.36,0.44-0.6c0-0.24-0.16-0.46-0.32-0.59c-0.34-0.27-0.66-0.19-0.68-0.26
						c-0.05-0.04,0.32-0.31,0.86-0.03c0.25,0.14,0.53,0.41,0.58,0.84c0.06,0.44-0.26,0.89-0.69,1.07c-0.42,0.19-0.97,0.11-1.25-0.23
						c-0.28-0.33-0.29-0.72-0.22-1C154.28,191.62,154.74,191.54,154.73,191.6z"/>
				</g>
			</g>
			<g>
				<g>
					<path class="st5" d="M110.81,187.71c0-0.01,0.07,0,0.22,0.01c0.16,0.01,0.37,0.03,0.64,0.05c0.56,0.06,1.4,0.11,2.5,0.15
						c2.19,0.09,5.42,0.13,9.52,0.1c8.2-0.06,19.91-0.36,33.95-0.91l0.21-0.01l0.01,0.21c0.27,5.43,0.57,11.36,0.88,17.58l0.01,0.2
						l-0.18,0.03c-2.23,0.42-4.48,0.59-6.79,0.83c-2.31,0.2-4.66,0.4-7.04,0.61c-4.77,0.39-9.7,0.75-14.71,1.11
						c-6.31,0.43-12.47,0.84-18.41,1.24l-0.01,0l-0.02,0c-5.34-0.34-10.52-2.26-14.14-5.78c-1.83-1.72-3.2-3.83-4.11-6.04
						c-0.93-2.2-1.52-4.46-2.06-6.64c-2.15-8.75-3.51-16.64-4.57-23.23c-0.53-3.29-0.97-6.26-1.35-8.86
						c-0.36-2.6-0.77-4.83-0.77-6.68c-0.03-1.85,0.37-3.27,0.86-4.11c0.48-0.84,0.89-1.16,0.89-1.16c0.03,0.02-0.36,0.36-0.81,1.2
						c-0.45,0.84-0.82,2.24-0.77,4.07c0.02,1.83,0.45,4.05,0.84,6.64c0.41,2.6,0.89,5.56,1.41,8.85c1.1,6.57,2.49,14.46,4.66,23.18
						c0.55,2.18,1.14,4.41,2.06,6.57c0.9,2.17,2.23,4.21,4.02,5.88c3.54,3.42,8.62,5.3,13.87,5.63h-0.03
						c5.94-0.4,12.1-0.82,18.41-1.25c5.01-0.38,9.93-0.75,14.71-1.1c2.38-0.2,4.73-0.41,7.04-0.6c2.29-0.23,4.58-0.41,6.72-0.81
						l-0.17,0.23c-0.3-6.22-0.58-12.15-0.84-17.58l0.22,0.2c-14.05,0.52-25.76,0.76-33.97,0.74c-4.1,0-7.33-0.08-9.52-0.22
						c-1.1-0.06-1.94-0.13-2.5-0.21c-0.27-0.03-0.48-0.06-0.64-0.08C110.88,187.73,110.81,187.72,110.81,187.71z"/>
				</g>
			</g>
			<g>
				<g>
					<path class="st5" d="M110.81,187.71c-0.03,0.01-0.19-0.48-0.45-1.37c-0.26-0.89-0.61-2.18-1.02-3.78
						c-0.83-3.2-1.87-7.65-2.99-12.56c-1.11-4.92-2.14-9.36-2.9-12.58c-0.37-1.54-0.67-2.82-0.9-3.81c-0.21-0.9-0.31-1.4-0.28-1.41
						c0.03-0.01,0.19,0.48,0.46,1.36c0.27,0.89,0.62,2.17,1.05,3.77c0.85,3.19,1.93,7.63,3.04,12.55c1.1,4.88,2.1,9.29,2.85,12.59
						c0.35,1.55,0.65,2.83,0.87,3.81C110.74,187.2,110.84,187.7,110.81,187.71z"/>
				</g>
			</g>
		</g>
		<g>
			<g>
				<path class="st5" d="M102.27,137.02c0.03,0.01,0,0.35-0.09,0.96c-0.09,0.61-0.23,1.5-0.42,2.59c-0.11,0.55-0.15,1.13-0.37,1.81
					c-0.11,0.32-0.36,0.71-0.78,0.84c-0.41,0.13-0.81,0.04-1.17-0.04c-1.44-0.29-3.01-0.68-4.64-1.13c-3.27-0.9-6.18-1.84-8.3-2.49
					c-0.98-0.31-1.81-0.57-2.5-0.78c-0.59-0.19-0.91-0.31-0.91-0.34c0.01-0.03,0.35,0.03,0.95,0.16c0.61,0.14,1.48,0.35,2.55,0.64
					c2.14,0.57,5.07,1.46,8.33,2.36c1.63,0.45,3.18,0.84,4.61,1.16c0.35,0.08,0.69,0.15,0.95,0.07c0.26-0.08,0.43-0.31,0.54-0.59
					c0.2-0.56,0.28-1.2,0.4-1.73c0.23-1.08,0.42-1.96,0.57-2.56C102.14,137.35,102.24,137.02,102.27,137.02z"/>
			</g>
		</g>
	</g>
	<g>
		<g>
			<g>
				<polygon class="st5" points="87.03,257.61 93.12,340.25 95.66,339.66 94.72,259.36 				"/>
			</g>
			<g>
				<polygon class="st5" points="61.23,260.49 42.74,340.15 46.08,340.15 72.55,260.49 				"/>
			</g>
			<g>
				<polygon class="st5" points="110.14,260.49 135.37,340.15 138.07,340.15 118.03,260.49 				"/>
			</g>
			<g>
				<polygon class="st5" points="113.52,265.84 56.99,302.78 56.99,304.8 115.1,265.84 				"/>
			</g>
			<g>
				<polygon class="st5" points="65.55,265.84 126.81,307.06 126.81,303.9 67.35,264.04 				"/>
			</g>
		</g>
		<g>
			<g>
				<path class="st19" d="M52.78,261.86l72.84-1.32c2.75-0.05,4.86-2.46,4.54-5.2l0,0c-0.28-2.37-2.31-4.15-4.7-4.11l-73.87,1.19
					L52.78,261.86z"/>
			</g>
			<g>
				<path class="st19" d="M52.78,261.86l72.84-1.32c2.75-0.05,4.86-2.46,4.54-5.2l0,0c-0.28-2.37-2.31-4.15-4.7-4.11l-73.87,1.19
					L52.78,261.86z"/>
			</g>
		</g>
		<g>
			<g>
				<path class="st24" d="M45.36,205.55l7.35,56.31l57.43-1.37l-0.15-34.2c0.08-5.69-4.78-10.19-10.45-9.68l-43.8,3.95l-5.76-59.68
					l-5.82-0.49c-2.61-0.22-4.75,2.04-4.39,4.63L45.36,205.55z"/>
			</g>
		</g>
	</g>
</g>
</svg>
