<?xml version="1.0" encoding="utf-8"?>
<!-- Generator: Adobe Illustrator 25.0.0, SVG Export Plug-In . SVG Version: 6.00 Build 0)  -->
<svg version="1.1" id="Layer_1" xmlns="http://www.w3.org/2000/svg" xmlns:xlink="http://www.w3.org/1999/xlink" x="0px" y="0px"
	 viewBox="0 0 446 499.9" style="enable-background:new 0 0 446 499.9;" xml:space="preserve">
<style type="text/css">
	.st0{fill-rule:evenodd;clip-rule:evenodd;fill:#CAE0EA;}
	.st1{fill-rule:evenodd;clip-rule:evenodd;fill:#DFE9EF;}
	.st2{fill-rule:evenodd;clip-rule:evenodd;fill:#EBF3F9;}
	.st3{fill-rule:evenodd;clip-rule:evenodd;fill:#1E1E1E;}
	.st4{fill-rule:evenodd;clip-rule:evenodd;fill:#FFFFFF;}
	.st5{fill-rule:evenodd;clip-rule:evenodd;fill:#184F96;}
	.st6{fill-rule:evenodd;clip-rule:evenodd;fill:#BA8B80;}
	.st7{fill-rule:evenodd;clip-rule:evenodd;fill:#263238;}
	.st8{opacity:0.21;clip-path:url(#SVGID_2_);}
	.st9{opacity:0.5;}
	.st10{opacity:0.4;fill-rule:evenodd;clip-rule:evenodd;fill:#FFFFFF;enable-background:new    ;}
	.st11{fill-rule:evenodd;clip-rule:evenodd;fill:#F08156;}
	.st12{fill-rule:evenodd;clip-rule:evenodd;fill:#3FA4DC;}
	.st13{fill-rule:evenodd;clip-rule:evenodd;fill:#3482A5;}
	.st14{fill-rule:evenodd;clip-rule:evenodd;fill:#947169;}
	.st15{fill-rule:evenodd;clip-rule:evenodd;fill:#685D5C;}
	.st16{fill-rule:evenodd;clip-rule:evenodd;fill:#999999;}
	.st17{fill-rule:evenodd;clip-rule:evenodd;fill:#333333;}
	.st18{fill:none;stroke:#000000;stroke-width:1.9199;stroke-linecap:round;stroke-linejoin:round;stroke-miterlimit:22.9256;}
	.st19{clip-path:url(#SVGID_4_);}
	.st20{fill-rule:evenodd;clip-rule:evenodd;}
	.st21{fill-rule:evenodd;clip-rule:evenodd;fill:#E07348;}
	.st22{fill-rule:evenodd;clip-rule:evenodd;fill:#FFA37F;}
	.st23{fill-rule:evenodd;clip-rule:evenodd;fill:#FBC9BE;}
	.st24{fill-rule:evenodd;clip-rule:evenodd;fill:#D9ABA1;}
	.st25{opacity:8.000000e-02;fill-rule:evenodd;clip-rule:evenodd;fill:#FF5765;enable-background:new    ;}
	.st26{fill-rule:evenodd;clip-rule:evenodd;fill:#161616;}
	.st27{fill-rule:evenodd;clip-rule:evenodd;fill:#666666;}
	.st28{fill-rule:evenodd;clip-rule:evenodd;fill:#0C3D7D;}
</style>
<g>
	<path class="st0" d="M244.7,409.6c21.6-56.5,142.1-41.4,118.6,15.1c72.9-33.9,67.1,36.7,11.3,48.9c-69.6,15.1-285.1,14.1-314.3,0
		c-30.1-24.5,10.4-70.6,90.3-47.1C128.9,316.4,220.2,355,244.7,409.6z"/>
	<path class="st1" d="M103.3,128.8h74.8c0.5-32.8,14.7-48.6,41.5-48.6c24,0,38.2,10.4,38.2,33.3c0,52.4-67.2,57.4-67.2,141.5h72.7
		c0-63.9,84.1-74.8,84.1-157.3C347.5,36.4,302.1,2,228.9,2C150.8,2,103.8,48.5,103.3,128.8L103.3,128.8z M225.6,296.5
		c-27.3,0-46.4,19.1-46.4,47s19.1,47.5,46.4,47.5s47-19.7,47-47.5C272.6,315.6,253,296.5,225.6,296.5z"/>
	<g>
		<g>
			<g>
				<path class="st2" d="M343.7,456c4.4-11,0.1-47.6-10.9-46C318.1,412.1,327.4,450,343.7,456z"/>
				<path class="st2" d="M346.2,456.8c6.1-10.1,38-14.4,43.4-4.6C396.8,465.2,360.9,466.2,346.2,456.8z"/>
			</g>
			<g>
				<path class="st2" d="M363.7,423.1c8.2-4.6,17.6-30.9,9.2-33.7C362.8,386.1,356.5,411.1,363.7,423.1z"/>
				<path class="st2" d="M365.2,424.4c6.2-7.1,35-10.2,34.8-1.3C399.8,431.7,372.8,431.4,365.2,424.4z"/>
			</g>
			<g>
				<path class="st2" d="M350.7,438.4c7.5-7.1,11.7-36.8,3.6-39C343.3,396.5,339.9,427.7,350.7,438.4z"/>
				<path class="st2" d="M352.8,439.3c7.9-8.7,39.8-12.2,39.4-4.1C391.6,447.8,362.6,445.9,352.8,439.3z"/>
			</g>
			<g>
				<path class="st2" d="M432.2,361.1c1.7-4.7-2.6-18.9-7-17.2C419.3,346.2,425.2,358.7,432.2,361.1z"/>
				<path class="st2" d="M433.3,361.2c0.4-5,8.1-14.1,11.4-10.8C449.2,354.8,440.6,361.9,433.3,361.2z"/>
			</g>
			<g>
				<path class="st2" d="M424.9,375.9c3.2-4.9,0.4-22-4.9-20.7C412.9,356.9,417.6,371.5,424.9,375.9z"/>
				<path class="st2" d="M426.1,376.3c1.7-5.6,15.3-15.9,18.3-10.7C448,372.1,434.2,379.1,426.1,376.3z"/>
			</g>
			<g>
				<path class="st2" d="M414.4,387.9c4.5-4.4,2.9-25-3-24.1C403.6,364.9,407.7,381.4,414.4,387.9z"/>
				<path class="st2" d="M415.6,388.6c3.1-5.5,18.8-12.6,21.1-6.8C439.6,389.2,423.6,393.5,415.6,388.6z"/>
			</g>
			<g>
				<path class="st2" d="M398.7,399.4c6.4-4.2,11.2-25.9,4.3-27.8C394.2,369.2,392.3,390.2,398.7,399.4z"/>
				<path class="st2" d="M399.9,400.6c5-5.8,24.4-11.9,26.2-5.4C428.6,404.5,408.2,408.2,399.9,400.6z"/>
			</g>
			<g>
				<path class="st2" d="M381.2,409.8c7.5-4.1,15.2-25.4,8.4-29.7C380.9,374.7,374.8,398.8,381.2,409.8z"/>
				<path class="st2" d="M382.5,411.2c6.1-6,31-6.8,29.7,0.1C410.6,419.5,391.1,420.4,382.5,411.2z"/>
			</g>
			<path class="st2" d="M342.5,479.8c0.1,5,6.9,4.4,5.8-0.8c-9.1-79.8,79.2-57,88-131.9c0.4-3-2.3-3.3-2.7-0.3
				C425.2,418.8,333,396.1,342.5,479.8z"/>
			<path class="st2" d="M434.7,350.3c7.9-4.9,7.4-17.4,2.8-18.2C431.9,331.2,429.7,345.2,434.7,350.3z"/>
		</g>
	</g>
	<g>
		<g>
			<path class="st2" d="M306.4,465.1c-0.1,1.2,1.4,0.9,3.4-0.6c1.9-1.5,3.6-3.6,3.7-4.7c0.9-11.8,14.2-48.4,35.9-86.9
				c14.7-26.1,33-53,53.7-73.2c1.8-1.8,2.8-3.7,2.1-4.2c-0.7-0.5-2.7,0.5-4.5,2.3c-22.5,22-42.1,50.5-57.5,78
				C321,415.2,307.3,452.8,306.4,465.1z"/>
			<path class="st2" d="M338.1,400.9c9.6,2.3,44.4-2.3,45.4-14.6c1.2-15.2-40,7.7-45.4,10.2C331.9,399.4,332.7,399.6,338.1,400.9z"
				/>
			<path class="st2" d="M349.2,377.5c8.1,1.9,37.4-1.9,38.2-12.3c1-12.8-33.7,6.5-38.2,8.6C344,376.3,344.6,376.4,349.2,377.5z"/>
			<path class="st2" d="M360.7,357.3c7.2,1.7,33-1.7,33.7-10.9c0.9-11.3-29.7,5.7-33.7,7.6C356.1,356.2,356.7,356.3,360.7,357.3z"/>
			<path class="st2" d="M373.6,340.2c5.6,1.3,25.7-1.3,26.2-8.4c0.7-8.8-23.1,4.5-26.2,5.9C370,339.3,370.5,339.4,373.6,340.2z"/>
			<path class="st2" d="M386,323.8c4.6,1.1,21.3-1.1,21.7-7c0.6-7.3-19.2,3.7-21.7,4.9C383.1,323.1,383.4,323.2,386,323.8z"/>
			<path class="st2" d="M396.2,309.3c3.3,0.8,15.4-0.8,15.8-5.1c0.4-5.3-13.9,2.7-15.8,3.5C394.1,308.8,394.3,308.9,396.2,309.3z"/>
			<path class="st2" d="M402.9,298.5c3.8-1.6,15.1-11,13-14.9c-2.6-4.8-12.4,11.6-13.8,13.6C400.4,299.5,400.7,299.4,402.9,298.5z"
				/>
			<path class="st2" d="M329.1,395.5c-6.4-7.7-18.2-41.3-7.9-47.8c12.8-8,11.5,39.8,11.7,45.8C333.2,400.4,332.7,399.8,329.1,395.5z
				"/>
			<path class="st2" d="M341.6,372.8c-5.2-6.7-14.3-35.4-5.5-40.6c10.9-6.4,8.7,33.9,8.7,39C345,377,344.5,376.5,341.6,372.8z"/>
			<path class="st2" d="M354.3,351.5c-4.1-6.4-10-32.6-2-36.5c9.9-4.8,5.2,30.9,4.9,35.4C357,355.6,356.6,355.1,354.3,351.5z"/>
			<path class="st2" d="M367.1,335.6c-3.1-5-7.3-25.6-1.1-28.5c7.8-3.6,3.6,24.1,3.4,27.7C369.1,338.8,368.8,338.4,367.1,335.6z"/>
			<path class="st2" d="M380.5,319.1c-2.6-4.1-6.5-21-1.3-23.6c6.4-3.1,3.4,19.9,3.2,22.8C382.2,321.7,382,321.4,380.5,319.1z"/>
			<path class="st2" d="M392.1,305c-1.8-3.1-4.1-15.5-0.2-17.2c4.7-2,1.9,14.6,1.6,16.7C393.3,307,393.1,306.7,392.1,305z"/>
			<path class="st2" d="M327,429.2c10.1,1.7,46-5.4,46.2-18.1c0.3-15.6-41,10.7-46.5,13.6C320.5,428.1,321.3,428.3,327,429.2z"/>
			<path class="st2" d="M315.8,424.1c-6.5-6.8-19.5-37.4-10.1-44.1c11.7-8.3,13,36.4,13.6,42C320,428.5,319.5,427.9,315.8,424.1z"/>
			<path class="st2" d="M316.6,451.4c9,2.9,42.2,1,43.8-10.8c2-14.6-38.3,4.6-43.6,6.6C310.8,449.5,311.5,449.8,316.6,451.4z"/>
			<path class="st2" d="M308.9,448.4c-8.1-5.6-27.4-34.3-18.4-43.1c11.1-10.9,20.3,34.6,21.9,40.2
				C314.1,452,313.4,451.5,308.9,448.4z"/>
		</g>
	</g>
	<g>
		<g>
			<g>
				<path class="st2" d="M146.5,430.8c-4.6-10.9-0.8-47.6,10.2-46.2C171.5,386.5,162.7,424.6,146.5,430.8z"/>
				<path class="st2" d="M144,431.6c-6.3-10-38.2-13.8-43.5-4C93.5,440.8,129.5,441.3,144,431.6z"/>
			</g>
			<g>
				<path class="st2" d="M126,398.2c-8.3-4.5-18.1-30.7-9.7-33.5C126.3,361.2,133,386.2,126,398.2z"/>
				<path class="st2" d="M124.5,399.6c-6.3-7-35.1-9.6-34.8-0.8C90,407.4,117,406.7,124.5,399.6z"/>
			</g>
			<g>
				<path class="st2" d="M139.2,413.3c-7.6-7-12.3-36.7-4.2-38.9C146,371.3,149.8,402.4,139.2,413.3z"/>
				<path class="st2" d="M137.2,414.2c-8-8.6-40-11.6-39.5-3.5C98.5,423.4,127.4,421,137.2,414.2z"/>
			</g>
			<g>
				<path class="st2" d="M56.6,337.2c-1.8-4.7,2.4-19,6.7-17.3C69.2,322.2,63.5,334.8,56.6,337.2z"/>
				<path class="st2" d="M55.5,337.4c-0.5-5-8.3-14-11.6-10.6C39.4,331.2,48.1,338.2,55.5,337.4z"/>
			</g>
			<g>
				<path class="st2" d="M64.1,352c-3.3-4.8-0.8-22,4.6-20.8C75.8,332.8,71.4,347.4,64.1,352z"/>
				<path class="st2" d="M62.9,352.4c-1.8-5.5-15.6-15.7-18.5-10.4C40.9,348.5,54.8,355.3,62.9,352.4z"/>
			</g>
			<g>
				<path class="st2" d="M74.8,363.8c-4.6-4.4-3.3-25,2.6-24.2C85.2,340.7,81.4,357.2,74.8,363.8z"/>
				<path class="st2" d="M73.6,364.5c-3.2-5.5-19-12.3-21.2-6.5C49.5,365.5,65.7,369.5,73.6,364.5z"/>
			</g>
			<g>
				<path class="st2" d="M90.7,375.1c-6.5-4.1-11.6-25.7-4.7-27.7C94.6,344.8,96.9,365.7,90.7,375.1z"/>
				<path class="st2" d="M89.4,376.2c-5.1-5.7-24.6-11.5-26.3-5C60.8,380.6,81.3,384,89.4,376.2z"/>
			</g>
			<g>
				<path class="st2" d="M108.3,385.2c-7.6-4-15.6-25.2-8.8-29.5C108,350.1,114.5,374.1,108.3,385.2z"/>
				<path class="st2" d="M107,386.6c-6.2-5.9-31.1-6.4-29.7,0.6C79.1,395.3,98.6,396,107,386.6z"/>
			</g>
			<path class="st2" d="M148,454.6c0,5-6.9,4.5-5.8-0.7c7.9-80-80.1-55.8-90-130.5c-0.4-3,2.3-3.3,2.7-0.3
				C64.4,394.9,156.2,370.7,148,454.6z"/>
			<path class="st2" d="M53.9,326.5c-8-4.8-7.7-17.3-3.1-18.2C56.4,307.4,58.8,321.4,53.9,326.5z"/>
		</g>
	</g>
	<g>
		<g>
			<path class="st2" d="M148.3,473c1.1,0.3,1.1-1.1,0.1-3.3c-1-2.1-2.6-4.1-3.7-4.4c-10.8-3.2-42.2-22.9-73.8-50.8
				c-21.4-18.9-42.8-41.4-57.5-64.7c-1.3-2.1-2.9-3.3-3.5-2.8s0,2.6,1.3,4.7c16,25.4,38.7,49.3,61.1,69.2
				C104.8,449.5,137.1,469.7,148.3,473z"/>
			<path class="st2" d="M94.9,430.7c4.1-8.5,6.8-41.9-4.5-45.2c-13.9-4.1-0.8,38.8,0.4,44.3C92.2,436.2,92.6,435.5,94.9,430.7z"/>
			<path class="st2" d="M75.3,415.7c3.4-7.2,5.7-35.2-3.8-38.1c-11.7-3.5-0.7,32.7,0.4,37.3C73.1,420.3,73.4,419.7,75.3,415.7z"/>
			<path class="st2" d="M58.7,400.9c3-6.3,5-31.1-3.4-33.6c-10.4-3.1-0.6,28.8,0.3,32.9C56.8,404.9,57,404.4,58.7,400.9z"/>
			<path class="st2" d="M45.4,385.4c2.4-4.9,3.9-24.2-2.6-26.1c-8.1-2.4-0.5,22.4,0.3,25.6C43.8,388.6,44,388.2,45.4,385.4z"/>
			<path class="st2" d="M32.6,370.6c2-4.1,3.2-20-2.2-21.7c-6.7-2-0.4,18.6,0.2,21.2C31.3,373.2,31.5,372.9,32.6,370.6z"/>
			<path class="st2" d="M21.1,358.2c1.4-3,2.4-14.5-1.6-15.7c-4.8-1.4-0.3,13.5,0.2,15.4C20.2,360.1,20.3,359.9,21.1,358.2z"/>
			<path class="st2" d="M12.4,349.8c-0.7-3.9-7.2-16.2-11.3-15.1c-5,1.5,8.3,13.9,9.9,15.6C12.8,352.3,12.7,352,12.4,349.8z"/>
			<path class="st2" d="M88,438c-8.5,4.4-42.2,8.7-46.2-2.2C37,422.3,81.2,433,86.9,434C93.4,435.1,92.7,435.5,88,438z"/>
			<path class="st2" d="M69.3,421.8c-7.3,3.5-35.9,6.2-38.9-3c-3.8-11.4,33.4-1.3,38.1-0.3C74,419.5,73.4,419.8,69.3,421.8z"/>
			<path class="st2" d="M52.1,405.7c-6.7,2.5-32.4,2.8-34.4-5.5c-2.5-10.2,29.8,1.3,34,2.5C56.4,404,55.9,404.3,52.1,405.7z"/>
			<path class="st2" d="M39.8,390.6c-5.3,1.9-25.3,1.7-26.8-4.7c-1.8-7.9,23.2,1.4,26.5,2.4C43.2,389.4,42.7,389.6,39.8,390.6z"/>
			<path class="st2" d="M27.1,374.8c-4.3,1.6-20.9,1.8-22.2-3.5c-1.6-6.6,19.2,0.8,21.9,1.6C29.9,373.7,29.6,373.9,27.1,374.8z"/>
			<path class="st2" d="M16.3,361.1c-3.2,1-15.3,0.7-16.1-3.2c-1-4.8,14,1.2,15.9,1.8C18.4,360.4,18.1,360.5,16.3,361.1z"/>
			<path class="st2" d="M119,446.7c3.6-9.1,4.1-43.9-7.6-46.7c-14.5-3.4,1.7,40.4,3.4,46.1C116.7,452.5,117,451.8,119,446.7z"/>
			<path class="st2" d="M112,456.1c-7.6,4.7-38.8,10.7-43.1,0.6c-5.4-12.5,36.5-4.9,41.9-4.3C116.9,453.1,116.3,453.5,112,456.1z"/>
			<path class="st2" d="M137.6,460.8c4.5-7.8,9.4-39.1-1.3-43c-13.2-4.8-3.4,36.6-2.6,41.9C134.7,465.8,135.1,465.2,137.6,460.8z"/>
			<path class="st2" d="M133.3,467.4c-6.8,6.5-37.4,18.7-43.9,8.6c-7.9-12.5,36.3-12,41.9-12.3C137.6,463.3,137.1,463.8,133.3,467.4
				z"/>
		</g>
	</g>
	<ellipse class="st2" cx="225.4" cy="476.9" rx="179.3" ry="23"/>
	<path class="st3" d="M287.5,127.2c-0.8,4.7-6.6,11.3-7,15.6c-1.3,14,10.2,27,29,25.6c26.6-2,37.3-1.9,40.2-17.9
		c2.4-13-4.2-15.9-4.5-24.7c-0.2-5.1,0.8-8.7-2.3-15.3c-8.8-19.1-36.4-19.5-43.6-10.8c-1.9,2.3-7.3,2.2-10.7,9.2
		C285.8,114.8,288.7,120,287.5,127.2z"/>
	<path class="st4" d="M312.9,256.4c-7,7-22.5,8.9-30.5,7.5C284.3,242.8,286.9,234,312.9,256.4z"/>
	<path class="st5" d="M307.6,472.4c-7.8,5.1-27.9,7.7-37.6,5.8c-5.4-1.1-5.8-8.9,1.3-11.9c12.3-5.2,23.8-8.8,36.9-11.7
		C309.3,460.9,311,470.2,307.6,472.4z"/>
	<path class="st6" d="M294.8,457.8c-20.1,5.6,12.9,12.6,13.8,0.5c-1.2-59,3-56.3,0.7-99.7c-1-18.5-25.6-17.3-24.9,2.7
		C285.7,401,298.5,436.6,294.8,457.8z"/>
	<path class="st5" d="M344.8,480.7c-5.3,4.8-27.4,8.8-37.1,7.3c-5.5-0.8-5.8-8.5,1.2-11.8c12.1-5.8,23-10.1,35.9-13.5
		C346.2,468.9,347.9,477.9,344.8,480.7z"/>
	<path class="st6" d="M345.3,465c-2.2-41.5,0.9-65.8-1.1-98.1c-1.1-18.5-27.3-17.7-25.7,2.3c2.8,34.7,13,75.7,13.3,97.2
		C312.9,473,342.3,477.8,345.3,465z"/>
	<path class="st7" d="M355.8,373.6c-3.3-39.9,3.9-91.8-16.3-122.8c-18.9-8.1-42.7-5.6-53.5-5.7c-13.9,38.9-7.5,94.3-10.2,130.2
		C286.9,377.4,342.8,386.9,355.8,373.6z"/>
	<g>
		<g>
			<defs>
				<path id="SVGID_1_" d="M355.8,373.6c-3.3-39.9,3.9-91.8-16.3-122.8c-18.9-8.1-42.7-5.6-53.5-5.7c-13.9,38.9-7.5,94.3-10.2,130.2
					C286.9,377.4,342.8,386.9,355.8,373.6z"/>
			</defs>
			<clipPath id="SVGID_2_">
				<use xlink:href="#SVGID_1_"  style="overflow:visible;"/>
			</clipPath>
			<g class="st8">
				<g class="st9">
					<path class="st10" d="M271.2,375.3c1.4,0,2.5,1.1,2.5,2.5s-1.1,2.5-2.5,2.5s-2.5-1.1-2.5-2.5
						C268.7,376.5,269.8,375.3,271.2,375.3z"/>
					<path class="st10" d="M286.1,375.3c1.4,0,2.5,1.1,2.5,2.5s-1.1,2.5-2.5,2.5s-2.5-1.1-2.5-2.5
						C283.5,376.5,284.7,375.3,286.1,375.3z"/>
					<path class="st10" d="M301,375.3c1.4,0,2.5,1.1,2.5,2.5s-1.1,2.5-2.5,2.5s-2.5-1.1-2.5-2.5C298.4,376.5,299.6,375.3,301,375.3z
						"/>
					<path class="st10" d="M315.9,375.3c1.4,0,2.5,1.1,2.5,2.5s-1.1,2.5-2.5,2.5s-2.5-1.1-2.5-2.5
						C313.3,376.5,314.5,375.3,315.9,375.3z"/>
					<path class="st10" d="M330.8,375.3c1.4,0,2.5,1.1,2.5,2.5s-1.1,2.5-2.5,2.5s-2.5-1.1-2.5-2.5
						C328.2,376.5,329.4,375.3,330.8,375.3z"/>
					<path class="st10" d="M345.6,375.3c1.4,0,2.5,1.1,2.5,2.5s-1.1,2.5-2.5,2.5s-2.5-1.1-2.5-2.5
						C343.1,376.5,344.2,375.3,345.6,375.3z"/>
					<path class="st10" d="M360.5,375.3c1.4,0,2.5,1.1,2.5,2.5s-1.1,2.5-2.5,2.5s-2.5-1.1-2.5-2.5
						C358,376.5,359.1,375.3,360.5,375.3z"/>
					<path class="st10" d="M278.6,364.5c1.4,0,2.5,1.1,2.5,2.5s-1.1,2.5-2.5,2.5s-2.5-1.1-2.5-2.5S277.2,364.5,278.6,364.5z"/>
					<path class="st10" d="M293.5,364.5c1.4,0,2.5,1.1,2.5,2.5s-1.1,2.5-2.5,2.5s-2.5-1.1-2.5-2.5S292.1,364.5,293.5,364.5z"/>
					<path class="st10" d="M308.4,364.5c1.4,0,2.5,1.1,2.5,2.5s-1.1,2.5-2.5,2.5s-2.5-1.1-2.5-2.5S307,364.5,308.4,364.5z"/>
					<path class="st10" d="M323.3,364.5c1.4,0,2.5,1.1,2.5,2.5s-1.1,2.5-2.5,2.5s-2.5-1.1-2.5-2.5S321.9,364.5,323.3,364.5z"/>
					<path class="st10" d="M338.2,364.5c1.4,0,2.5,1.1,2.5,2.5s-1.1,2.5-2.5,2.5s-2.5-1.1-2.5-2.5S336.8,364.5,338.2,364.5z"/>
					<path class="st10" d="M353.1,364.5c1.4,0,2.5,1.1,2.5,2.5s-1.1,2.5-2.5,2.5s-2.5-1.1-2.5-2.5S351.7,364.5,353.1,364.5z"/>
					<path class="st10" d="M271.2,353.4c1.4,0,2.5,1.1,2.5,2.5s-1.1,2.5-2.5,2.5s-2.5-1.1-2.5-2.5S269.8,353.4,271.2,353.4z"/>
					<path class="st10" d="M286.1,353.4c1.4,0,2.5,1.1,2.5,2.5s-1.1,2.5-2.5,2.5s-2.5-1.1-2.5-2.5
						C283.5,354.5,284.7,353.4,286.1,353.4z"/>
					<path class="st10" d="M301,353.4c1.4,0,2.5,1.1,2.5,2.5s-1.1,2.5-2.5,2.5s-2.5-1.1-2.5-2.5C298.4,354.5,299.6,353.4,301,353.4z
						"/>
					<path class="st10" d="M315.9,353.4c1.4,0,2.5,1.1,2.5,2.5s-1.1,2.5-2.5,2.5s-2.5-1.1-2.5-2.5
						C313.3,354.5,314.5,353.4,315.9,353.4z"/>
					<path class="st10" d="M330.8,353.4c1.4,0,2.5,1.1,2.5,2.5s-1.1,2.5-2.5,2.5s-2.5-1.1-2.5-2.5
						C328.2,354.5,329.4,353.4,330.8,353.4z"/>
					<path class="st10" d="M345.6,353.4c1.4,0,2.5,1.1,2.5,2.5s-1.1,2.5-2.5,2.5s-2.5-1.1-2.5-2.5S344.2,353.4,345.6,353.4z"/>
					<path class="st10" d="M360.5,353.4c1.4,0,2.5,1.1,2.5,2.5s-1.1,2.5-2.5,2.5s-2.5-1.1-2.5-2.5S359.1,353.4,360.5,353.4z"/>
					<path class="st10" d="M278.6,342.5c1.4,0,2.5,1.1,2.5,2.5s-1.1,2.5-2.5,2.5s-2.5-1.1-2.5-2.5
						C276.1,343.7,277.2,342.5,278.6,342.5z"/>
					<path class="st10" d="M293.5,342.5c1.4,0,2.5,1.1,2.5,2.5s-1.1,2.5-2.5,2.5s-2.5-1.1-2.5-2.5
						C291,343.7,292.1,342.5,293.5,342.5z"/>
					<path class="st10" d="M308.4,342.5c1.4,0,2.5,1.1,2.5,2.5s-1.1,2.5-2.5,2.5s-2.5-1.1-2.5-2.5
						C305.9,343.7,307,342.5,308.4,342.5z"/>
					<path class="st10" d="M323.3,342.5c1.4,0,2.5,1.1,2.5,2.5s-1.1,2.5-2.5,2.5s-2.5-1.1-2.5-2.5
						C320.8,343.7,321.9,342.5,323.3,342.5z"/>
					<path class="st10" d="M338.2,342.5c1.4,0,2.5,1.1,2.5,2.5s-1.1,2.5-2.5,2.5s-2.5-1.1-2.5-2.5
						C335.7,343.7,336.8,342.5,338.2,342.5z"/>
					<path class="st10" d="M353.1,342.5c1.4,0,2.5,1.1,2.5,2.5s-1.1,2.5-2.5,2.5s-2.5-1.1-2.5-2.5
						C350.6,343.7,351.7,342.5,353.1,342.5z"/>
					<path class="st10" d="M271.2,331.4c1.4,0,2.5,1.1,2.5,2.5s-1.1,2.5-2.5,2.5s-2.5-1.1-2.5-2.5S269.8,331.4,271.2,331.4z"/>
					<path class="st10" d="M286.1,331.4c1.4,0,2.5,1.1,2.5,2.5s-1.1,2.5-2.5,2.5s-2.5-1.1-2.5-2.5
						C283.5,332.5,284.7,331.4,286.1,331.4z"/>
					<path class="st10" d="M301,331.4c1.4,0,2.5,1.1,2.5,2.5s-1.1,2.5-2.5,2.5s-2.5-1.1-2.5-2.5C298.4,332.5,299.6,331.4,301,331.4z
						"/>
					<path class="st10" d="M315.9,331.4c1.4,0,2.5,1.1,2.5,2.5s-1.1,2.5-2.5,2.5s-2.5-1.1-2.5-2.5
						C313.3,332.5,314.5,331.4,315.9,331.4z"/>
					<path class="st10" d="M330.8,331.4c1.4,0,2.5,1.1,2.5,2.5s-1.1,2.5-2.5,2.5s-2.5-1.1-2.5-2.5S329.4,331.4,330.8,331.4z"/>
					<path class="st10" d="M345.6,331.4c1.4,0,2.5,1.1,2.5,2.5s-1.1,2.5-2.5,2.5s-2.5-1.1-2.5-2.5S344.2,331.4,345.6,331.4z"/>
					<path class="st10" d="M360.5,331.4c1.4,0,2.5,1.1,2.5,2.5s-1.1,2.5-2.5,2.5s-2.5-1.1-2.5-2.5S359.1,331.4,360.5,331.4z"/>
					<path class="st10" d="M278.6,320.5c1.4,0,2.5,1.1,2.5,2.5s-1.1,2.5-2.5,2.5s-2.5-1.1-2.5-2.5S277.2,320.5,278.6,320.5z"/>
					<path class="st10" d="M293.5,320.5c1.4,0,2.5,1.1,2.5,2.5s-1.1,2.5-2.5,2.5s-2.5-1.1-2.5-2.5S292.1,320.5,293.5,320.5z"/>
					<path class="st10" d="M308.4,320.5c1.4,0,2.5,1.1,2.5,2.5s-1.1,2.5-2.5,2.5s-2.5-1.1-2.5-2.5S307,320.5,308.4,320.5z"/>
					<path class="st10" d="M323.3,320.5c1.4,0,2.5,1.1,2.5,2.5s-1.1,2.5-2.5,2.5s-2.5-1.1-2.5-2.5S321.9,320.5,323.3,320.5z"/>
					<path class="st10" d="M338.2,320.5c1.4,0,2.5,1.1,2.5,2.5s-1.1,2.5-2.5,2.5s-2.5-1.1-2.5-2.5S336.8,320.5,338.2,320.5z"/>
					<path class="st10" d="M353.1,320.5c1.4,0,2.5,1.1,2.5,2.5s-1.1,2.5-2.5,2.5s-2.5-1.1-2.5-2.5
						C350.6,321.7,351.7,320.5,353.1,320.5z"/>
					<path class="st10" d="M271.2,309.4c1.4,0,2.5,1.1,2.5,2.5s-1.1,2.5-2.5,2.5s-2.5-1.1-2.5-2.5S269.8,309.4,271.2,309.4z"/>
					<path class="st10" d="M286.1,309.4c1.4,0,2.5,1.1,2.5,2.5s-1.1,2.5-2.5,2.5s-2.5-1.1-2.5-2.5
						C283.5,310.5,284.7,309.4,286.1,309.4z"/>
					<path class="st10" d="M301,309.4c1.4,0,2.5,1.1,2.5,2.5s-1.1,2.5-2.5,2.5s-2.5-1.1-2.5-2.5C298.4,310.5,299.6,309.4,301,309.4z
						"/>
					<path class="st10" d="M315.9,309.4c1.4,0,2.5,1.1,2.5,2.5s-1.1,2.5-2.5,2.5s-2.5-1.1-2.5-2.5
						C313.3,310.5,314.5,309.4,315.9,309.4z"/>
					<path class="st10" d="M330.8,309.4c1.4,0,2.5,1.1,2.5,2.5s-1.1,2.5-2.5,2.5s-2.5-1.1-2.5-2.5
						C328.2,310.5,329.4,309.4,330.8,309.4z"/>
					<path class="st10" d="M345.6,309.4c1.4,0,2.5,1.1,2.5,2.5s-1.1,2.5-2.5,2.5s-2.5-1.1-2.5-2.5S344.2,309.4,345.6,309.4z"/>
					<path class="st10" d="M360.5,309.4c1.4,0,2.5,1.1,2.5,2.5s-1.1,2.5-2.5,2.5s-2.5-1.1-2.5-2.5S359.1,309.4,360.5,309.4z"/>
					<path class="st10" d="M278.6,298.5c1.4,0,2.5,1.1,2.5,2.5s-1.1,2.5-2.5,2.5s-2.5-1.1-2.5-2.5S277.2,298.5,278.6,298.5z"/>
					<path class="st10" d="M293.5,298.5c1.4,0,2.5,1.1,2.5,2.5s-1.1,2.5-2.5,2.5s-2.5-1.1-2.5-2.5S292.1,298.5,293.5,298.5z"/>
					<path class="st10" d="M308.4,298.5c1.4,0,2.5,1.1,2.5,2.5s-1.1,2.5-2.5,2.5s-2.5-1.1-2.5-2.5S307,298.5,308.4,298.5z"/>
					<path class="st10" d="M323.3,298.5c1.4,0,2.5,1.1,2.5,2.5s-1.1,2.5-2.5,2.5s-2.5-1.1-2.5-2.5S321.9,298.5,323.3,298.5z"/>
					<circle class="st10" cx="338.2" cy="301.1" r="2.5"/>
					<path class="st10" d="M353.1,298.5c1.4,0,2.5,1.1,2.5,2.5s-1.1,2.5-2.5,2.5s-2.5-1.1-2.5-2.5
						C350.6,299.7,351.7,298.5,353.1,298.5z"/>
					<path class="st10" d="M271.2,287.4c1.4,0,2.5,1.1,2.5,2.5s-1.1,2.5-2.5,2.5s-2.5-1.1-2.5-2.5S269.8,287.4,271.2,287.4z"/>
					<path class="st10" d="M286.1,287.4c1.4,0,2.5,1.1,2.5,2.5s-1.1,2.5-2.5,2.5s-2.5-1.1-2.5-2.5
						C283.5,288.5,284.7,287.4,286.1,287.4z"/>
					<path class="st10" d="M301,287.4c1.4,0,2.5,1.1,2.5,2.5s-1.1,2.5-2.5,2.5s-2.5-1.1-2.5-2.5C298.4,288.5,299.6,287.4,301,287.4z
						"/>
					<path class="st10" d="M315.9,287.4c1.4,0,2.5,1.1,2.5,2.5s-1.1,2.5-2.5,2.5s-2.5-1.1-2.5-2.5
						C313.3,288.5,314.5,287.4,315.9,287.4z"/>
					<path class="st10" d="M330.8,287.4c1.4,0,2.5,1.1,2.5,2.5s-1.1,2.5-2.5,2.5s-2.5-1.1-2.5-2.5
						C328.2,288.5,329.4,287.4,330.8,287.4z"/>
					<path class="st10" d="M345.6,287.4c1.4,0,2.5,1.1,2.5,2.5s-1.1,2.5-2.5,2.5s-2.5-1.1-2.5-2.5S344.2,287.4,345.6,287.4z"/>
					<path class="st10" d="M360.5,287.4c1.4,0,2.5,1.1,2.5,2.5s-1.1,2.5-2.5,2.5s-2.5-1.1-2.5-2.5S359.1,287.4,360.5,287.4z"/>
					<path class="st10" d="M278.6,276.5c1.4,0,2.5,1.1,2.5,2.5s-1.1,2.5-2.5,2.5s-2.5-1.1-2.5-2.5
						C276.1,277.7,277.2,276.5,278.6,276.5z"/>
					<path class="st10" d="M293.5,276.5c1.4,0,2.5,1.1,2.5,2.5s-1.1,2.5-2.5,2.5s-2.5-1.1-2.5-2.5
						C291,277.7,292.1,276.5,293.5,276.5z"/>
					<path class="st10" d="M308.4,276.5c1.4,0,2.5,1.1,2.5,2.5s-1.1,2.5-2.5,2.5s-2.5-1.1-2.5-2.5
						C305.9,277.7,307,276.5,308.4,276.5z"/>
					<path class="st10" d="M323.3,276.5c1.4,0,2.5,1.1,2.5,2.5s-1.1,2.5-2.5,2.5s-2.5-1.1-2.5-2.5
						C320.8,277.7,321.9,276.5,323.3,276.5z"/>
					<circle class="st10" cx="338.2" cy="279.1" r="2.5"/>
					<path class="st10" d="M353.1,276.5c1.4,0,2.5,1.1,2.5,2.5s-1.1,2.5-2.5,2.5s-2.5-1.1-2.5-2.5
						C350.6,277.7,351.7,276.5,353.1,276.5z"/>
					<path class="st10" d="M271.2,265.4c1.4,0,2.5,1.1,2.5,2.5s-1.1,2.5-2.5,2.5s-2.5-1.1-2.5-2.5S269.8,265.4,271.2,265.4z"/>
					<path class="st10" d="M286.1,265.4c1.4,0,2.5,1.1,2.5,2.5s-1.1,2.5-2.5,2.5s-2.5-1.1-2.5-2.5
						C283.5,266.5,284.7,265.4,286.1,265.4z"/>
					<path class="st10" d="M301,265.4c1.4,0,2.5,1.1,2.5,2.5s-1.1,2.5-2.5,2.5s-2.5-1.1-2.5-2.5C298.4,266.5,299.6,265.4,301,265.4z
						"/>
					<path class="st10" d="M315.9,265.4c1.4,0,2.5,1.1,2.5,2.5s-1.1,2.5-2.5,2.5s-2.5-1.1-2.5-2.5
						C313.3,266.5,314.5,265.4,315.9,265.4z"/>
					<path class="st10" d="M330.8,265.4c1.4,0,2.5,1.1,2.5,2.5s-1.1,2.5-2.5,2.5s-2.5-1.1-2.5-2.5
						C328.2,266.5,329.4,265.4,330.8,265.4z"/>
					<path class="st10" d="M345.6,265.4c1.4,0,2.5,1.1,2.5,2.5s-1.1,2.5-2.5,2.5s-2.5-1.1-2.5-2.5S344.2,265.4,345.6,265.4z"/>
					<path class="st10" d="M360.5,265.4c1.4,0,2.5,1.1,2.5,2.5s-1.1,2.5-2.5,2.5s-2.5-1.1-2.5-2.5S359.1,265.4,360.5,265.4z"/>
				</g>
			</g>
		</g>
	</g>
	<path class="st11" d="M178.9,158c7.3,17.8,10,30.8,12.3,47.1c1.7,11.9-9.7,13.9-15.9,5.4c-10.3-14.2-15.6-27.7-20.7-43.3
		C148.4,148.6,171.9,140.9,178.9,158z"/>
	<path class="st11" d="M171.5,169.3c5,10.3,5.1,19.7,4.8,28s-15.1,3.3-15.1,3.3S162.4,177.8,171.5,169.3z"/>
	<path class="st12" d="M284.3,166.8c-10.3,9-27.9,25.2-36.5,35.8c-6.8,8.5,3.6,15.9,12.7,9.9c15.5-10.3,29.4-17.4,43.1-32.9
		C315.4,166.3,296.8,155.9,284.3,166.8z"/>
	<path class="st13" d="M277.6,201.5c7.2-5.1,12.8-9.1,18.9-14.8c-1.7-6.5-3.6-10.8-6.9-15.8C282.4,184,279.3,190.1,277.6,201.5z"/>
	<path class="st12" d="M279.3,266.2c-8.9-2.7,10.7-36.4,8-44.9c-1.5-4.9-8.2-13.7-7.3-21.8c0.6-5.8,3.6-17.3,10.2-36.4
		c15.1-3.8,30.5-5.8,54.7,3c5.2,27.9-5.4,43-4.9,65c0.2,9.3,13.2,26.2,7,31.3C332.8,274.6,297.8,271.7,279.3,266.2z"/>
	<path class="st6" d="M301.9,160.9c5.7-1.3,10.8-2,20.4-0.5c-2.4,6.6-12.1,15.9-18,19.2C302.8,174.8,301.7,166.5,301.9,160.9z"/>
	<path class="st6" d="M303.8,142.4l16.3,0.1L320,162c0,8.1-16.3,7.6-16.3-0.1L303.8,142.4z"/>
	<path class="st12" d="M343.5,201.2c2.9,10.3,9.9,18.6,15.9,26.3c6.8,8.6,16.2,9,13.9-1.7c-4.1-19-14.8-49.8-25.9-58.1
		C338.2,160.6,338.8,184.4,343.5,201.2z"/>
	<path class="st14" d="M303.8,151l16.3,0.1v9.9c-4.2,2.6-13,1.9-16.3-5.5V151z"/>
	<path class="st6" d="M315.9,101.6c-31.2-4.5-31.5,52.5-8.3,54.3C332.4,157.8,349.8,106.5,315.9,101.6z"/>
	<g>
		<path class="st3" d="M298.7,124.9c0.9,0.1,1.5,0.9,1.4,1.8s-0.9,1.6-1.8,1.5c-0.9-0.1-1.5-0.9-1.4-1.8
			C297,125.4,297.8,124.8,298.7,124.9z"/>
		<path class="st3" d="M314.3,126.6c0.9,0.1,1.5,0.9,1.4,1.8s-0.9,1.6-1.8,1.5s-1.5-0.9-1.4-1.8
			C312.6,127.2,313.4,126.5,314.3,126.6z"/>
	</g>
	<path class="st14" d="M305.6,137.7c-3.7-1.4-2.4-3.8-0.9-7C301.9,133,300.1,136.8,305.6,137.7z"/>
	<path class="st14" d="M299.1,140.2c3.2,0.1,8.1,0.5,14.5,1.2C310.3,149.7,300.8,147.9,299.1,140.2z"/>
	<path class="st3" d="M328.2,120.9c-0.2,7.5,3.1,12.9,5.4,13.4C336,134.8,338.6,121.6,328.2,120.9z"/>
	<path class="st6" d="M336.3,129.3c-1.3-0.5-3.3,1.4-4.3,4.3c-1.1,2.9-0.8,5.6,0.5,6.1s3.3-1.4,4.3-4.3
		C337.9,132.5,337.6,129.8,336.3,129.3z"/>
	<path class="st15" d="M313,122.6c-1.2,0-1.7-1.4-0.3-1.7c2.1-0.4,6.1,0.7,7.3,2c0.7,0.8,0.2,1.5-0.8,1.1
		C317.5,123.2,313.8,122.6,313,122.6z"/>
	<path class="st15" d="M302.4,121.5c1,0.3,1.9-0.9,0.7-1.6c-1.8-0.9-5.1-0.9-7,0.1c-0.9,0.5-0.5,1.5,0.5,1.2
		C297.9,120.9,301.4,121.2,302.4,121.5z"/>
	<path class="st16" d="M142.1,471.9c8.3,5.4,29.7,8.1,40,6.1c5.8-1.1,6.2-9.5-1.4-12.7c-13.1-5.5-25.3-9.4-39.3-12.4
		C140.2,459.7,138.4,469.6,142.1,471.9z"/>
	<path class="st17" d="M167.5,460.6c-5.1,2.5-21.4,3.3-28.2-1.5c-2.8-57.1-0.2-73.8,1.5-104.3c1-18.6,27.9-16.1,27.1,3.9
		C166.5,398.5,169,446.1,167.5,460.6z"/>
	<path class="st17" d="M138.3,241.7c2.2,14.1,3.1,30,0.1,45.1c-2.1,25.2-8.5,54.5-10.6,79.7c-1,12.6-28,12.8-28-2.5
		c0-39.9-6.5-79,1.4-123.9C112,240.1,127.5,241.7,138.3,241.7z"/>
	<path class="st18" d="M127.6,256.6c-2.9,4.4-11.9,11.9-15.5,14.3"/>
	<path class="st17" d="M134.4,241.7c-2.2,14.1-2.6,34.6,0.4,49.7c1.7,25.3,4.9,45,6.5,70.3c0.8,12.6,26.3,14,26.4-1.3
		c0.1-39.9,3.6-74.1,0.7-119.1C157.1,241.4,145.8,241.6,134.4,241.7z"/>
	<g>
		<g>
			<defs>
				<path id="SVGID_3_" d="M134.4,241.7c-2.2,14.1-2.6,34.6,0.4,49.7c1.7,25.3,4.9,45,6.5,70.3c0.8,12.6,26.3,14,26.4-1.3
					c0.1-39.9,3.6-74.1,0.7-119.1C157.1,241.4,145.8,241.6,134.4,241.7z"/>
			</defs>
			<clipPath id="SVGID_4_">
				<use xlink:href="#SVGID_3_"  style="overflow:visible;"/>
			</clipPath>
			<g class="st19">
				<path class="st18" d="M158.5,253c2.9,4.4,11.9,11.9,15.5,14.3"/>
			</g>
		</g>
	</g>
	<path class="st18" d="M146.1,255.7c-0.2,5.5,0.5,17.8-2,18.2s-5.5,0.5-5.5,0.5"/>
	<path class="st18" d="M136.8,306.2c3.4,20.7,7.3,41.3,8,50.9c0.8,9.6-4.6,63.9-1.9,96.1"/>
	<path class="st20" d="M137.7,323.1c2.2-13.2,3.9-25.6,2.8-48.3c-1.4,13.4-3.3,26.1-4.7,34.3C136.4,312.8,137.1,317.4,137.7,323.1z"
		/>
	<path class="st16" d="M97.4,478.7c7.9,5.9,29.1,10.1,39.5,8.8c5.8-0.7,6.8-9-0.6-12.8c-12.7-6.4-24.7-11.1-38.4-15
		C96.4,466.3,93.9,476.1,97.4,478.7z"/>
	<path class="st17" d="M122.4,467.7c-5.7,3.8-17.1,4.2-27.9-0.6c-1.8-45.5,3.8-81.1,6.7-111.7c1.8-18.6,29.3-18.6,27.8,1.5
		C125.9,397.2,124.4,453.3,122.4,467.7z"/>
	<path class="st18" d="M110.3,251.1c-5,28.7-5.7,104.9-7.3,117.1c-1.5,12.2-4.6,81.5-4.2,92.6"/>
	<path class="st21" d="M172.3,198.3c4,0.2,9.8-0.2,11.8,1.6s-3-6.7-11.8-5.8C170.4,195.1,170.1,197,172.3,198.3z"/>
	<path class="st22" d="M174.7,151.2c1.6,24.2-1.3,43.4-3.6,60.1c-1.9,13.5,4.4,24.2,0.8,43.7c-24.1,9.3-50.7,9.9-74.3-1.7
		c-4.3-6.2,6.9-21.9,6.7-36.7c-0.3-18.1-13.1-39.6-11.4-64.1C118.2,136.3,165.2,142,174.7,151.2z"/>
	<path class="st23" d="M114.9,205.2c-6.5-2.3-12-5-11-6.4c1.5-2.2,10.9,3.2,16,3.2c-1.7-0.9-4.5-2.6-4-3.7
		c1.6-3.8,19.6,9.3,17.7,14.6c-3.3,8.7-31.7,0.4-30.7-3.1c0.4-1.3,2.9,0.9,9,1.5c-5.9-1.5-12.5-3.5-11.6-5.9c0.5-1.3,8.5,2.3,13.3,3
		c-5.1-2-14.2-5.1-13.3-6.7C101.6,199.8,109.5,204.4,114.9,205.2z"/>
	<path class="st23" d="M135.4,103.8L135.4,103.8c6.1-0.2,11.3,4.5,11.5,10.5l1,30.9c0.2,5.1,2.4,14.4-5.1,15.1
		c-11.1,1.1-16.9-8.4-17.1-14.4l-1-30.9C124.5,109.1,129.3,104,135.4,103.8z"/>
	<path class="st24" d="M147.7,139.7l-22.5-10.2l0.5,16.4C132.1,149.2,143.3,147.5,147.7,139.7z"/>
	<path class="st23" d="M127.1,78.2c20-5.6,28.9,12.4,31.1,30.8c1.8,14.7,1.2,28.4-8.4,32.3c-11.8,4.8-29.7-3-34.1-13.6
		C108,109.5,105.5,84.3,127.1,78.2z"/>
	<path class="st15" d="M144.2,102.1c-1.6,0.4-2.5-1.6-1-2.3c2.9-1.3,6.7-1.6,9.4,0.3c1.3,1,0.6,2.4-1,1.9
		C149.6,101.3,146.2,101.6,144.2,102.1z"/>
	<path class="st24" d="M140.6,123.8c4.8-1.3,3.5-4.5,2.1-8.6C146,118.4,147.8,123.5,140.6,123.8z"/>
	<path class="st24" d="M152.1,123.1c-3.5,2.3-11,4.7-18.5,4.5C138.2,130.5,150.5,127.5,152.1,123.1z"/>
	<path class="st15" d="M133.3,102.3c1.7,0,1.6,2.3,0,2.5c-1.4,0.2-4.5,1.1-7,2.8c-1.4,0.9-2.3,0-1.5-1.4
		C126.5,103.4,130.2,102.3,133.3,102.3z"/>
	<path class="st24" d="M149,128.6c-2.5,0.9-6.3,2.1-9.1,2.6C141.7,132.7,148.4,131.1,149,128.6z"/>
	<g>
		<path class="st3" d="M132.4,112c0.9-0.3,1.9,0.3,2.2,1.3s-0.3,2-1.2,2.2c-0.9,0.3-1.9-0.3-2.2-1.3S131.5,112.2,132.4,112z"/>
		<path class="st3" d="M148.5,107.9c0.9-0.3,1.9,0.3,2.2,1.3s-0.3,2-1.2,2.2c-0.9,0.3-1.9-0.3-2.2-1.3S147.6,108.1,148.5,107.9z"/>
	</g>
	<path class="st11" d="M137.2,208.1c4.1,11.3-7,16.8-15.1,10.1c-15.2-12.6-24.3-25.4-31.8-40.3c-13.2-25.9,10.9-41,28.7-6.9
		C126.7,185.9,129.8,187.9,137.2,208.1z"/>
	<path class="st21" d="M127.1,185.2c-3.1,3.1-7,12.7-6.5,21.8c5.8-4.5,9.9-15.9,9.9-15.9L127.1,185.2z"/>
	<path class="st25" d="M315.8,132.1c2.8,0.6,4.8,2.4,4.5,4.1c-0.3,1.6-2.8,2.5-5.7,1.8c-2.8-0.6-4.8-2.4-4.5-4.1
		C310.4,132.3,313,131.5,315.8,132.1z"/>
	<path class="st25" d="M296.7,130.5c-2.6,0.1-4.8,1.6-4.8,3.2c0,1.7,2.1,2.9,4.8,2.8c2.6-0.1,4.8-1.6,4.8-3.2
		C301.5,131.7,299.3,130.4,296.7,130.5z"/>
	<path class="st25" d="M151.4,112.6c2.8-0.4,5.3,0.7,5.5,2.3c0.2,1.6-1.8,3.2-4.6,3.6s-5.3-0.7-5.5-2.3
		C146.5,114.5,148.6,112.9,151.4,112.6z"/>
	<path class="st25" d="M130.6,118.6c-2.7,0.9-4.4,2.9-4,4.5c0.5,1.6,3.1,2.1,5.7,1.2c2.7-0.9,4.4-2.9,4-4.5
		C135.9,118.2,133.3,117.6,130.6,118.6z"/>
	<path class="st12" d="M227.1,169.8c-0.3,2.3,2.6,4.7,3.6,7.2c5.6,14.2,9.7,23.6,15.6,33.8c5.4,9.3,17.7,0.9,14.2-9.3
		c-4.3-12.5-11.6-21.3-17.5-32.5c-1.1-2-0.8-5.8-2.8-6.5C235.7,161.1,227.7,165.9,227.1,169.8z"/>
	<path class="st12" d="M386.8,184.5c3,3.6-1.4,11.8-2.4,17.1c-1.9,9.7-3.4,18.5-8.1,27.7c-4.9,9.8-18.1,3.6-15.4-7
		c2.4-9.2,5.3-16.9,8.1-24.9c1.8-5.2,0.7-15.2,6.9-16.9C379.5,179.6,383.8,180.8,386.8,184.5z"/>
	<path class="st4" d="M301.1,140.5c2.6,0.2,5.9,0.5,9.9,0.9C310.7,143,300.8,141.9,301.1,140.5z"/>
	<path class="st11" d="M125.8,200.1c12.4-0.4,49.7-3.3,57.5-0.8c11.4,3.7,9.3,17.7-2.6,19.2c-6.9,0.9-42.3,0.8-56.3-1.4
		C123.3,211.1,124,204.8,125.8,200.1z"/>
	<path class="st21" d="M149.1,198.8c-1.8,6.5-6.6,15-12.4,19.3C133.5,203.4,134.9,198.6,149.1,198.8z"/>
	<path class="st20" d="M168.4,460.4c-5.1,2.5-22.8,3.9-29.6-1c-0.2-4.2-0.4-8.1-0.5-11.9c7.5,3.7,24.6,2.6,30.5,0.5
		C168.8,453.3,168.7,457.5,168.4,460.4z"/>
	<path class="st20" d="M123.3,468.6c-5.1,2.5-22.8,3.9-29.6-1c-0.2-4.2-0.1-8-0.2-11.8c7.5,3.7,24.3,2.5,30.2,0.4
		C123.7,461.5,123.6,465.7,123.3,468.6z"/>
	<path class="st13" d="M256.8,192.7c4,4.8,5.9,10,7.1,14.4C265,200.7,262.3,195.5,256.8,192.7z"/>
	<path class="st13" d="M366.7,204.1c-3.8,4.9-4.8,13.7-5.7,18.1C358.5,216,361.3,207.2,366.7,204.1z"/>
	<path class="st13" d="M340.8,190.8c0.3,2.4,1.6,7.7,3.1,11.9c-0.3,1.4-0.4,2.1-0.7,3.5C340.6,202.2,340,195.9,340.8,190.8z"/>
	<path class="st3" d="M299.5,101.3c-2.8,11.5,24.7,29.2,39.8,27.8S333.6,91.7,299.5,101.3z"/>
	<path class="st26" d="M291.8,123.1c2.7-9.2,7.9-14.4,15.2-16.8c-0.5-2.8-2.8-6-2.8-6S291.6,106,291.8,123.1z"/>
	<g>
		<g>
			<path class="st3" d="M112.8,87.3c17.9,16.4,28.7,1.6,38.3,5.2c5.9,2.2,6,11.4,7.3,16.9c1.3-2.8,3.6-14.6,0.2-18
				c-3.7-3.8,3.4-16.5-12.8-14.9C139.1,77.1,119.8,65.2,112.8,87.3z"/>
			<path class="st3" d="M120.3,82.4c5.5,10.1,1.2,14.9-3.5,18.9c-4.5,3.9,5,18-4,19.6c-3.4-5-13.1-23.1-6.5-26.8
				C109.8,92.2,105,80.2,120.3,82.4z"/>
		</g>
		<path class="st26" d="M153.4,91.4c-8.2-10.2-27.2,7.5-36.2-7.5c10.5-16.8,27.6,0,32.5-4.7c-4.4,6.4-23.2-1.9-29.3,4.4
			C124.5,88.9,150.4,78,153.4,91.4z"/>
		<path class="st26" d="M117.6,83.6c-9.4,0.8-5,8.1-8.6,10.8c3.6-0.7,6.4-10.1,10.8-8.9C119.9,84.6,119.8,83.4,117.6,83.6z"/>
	</g>
	<path class="st23" d="M109.8,114.6c1.4-0.7,3.9,1.2,5.4,4.2c1.6,3.1,1.7,6.2,0.2,6.9c-1.4,0.7-3.9-1.2-5.4-4.2
		C108.5,118.4,108.4,115.3,109.8,114.6z"/>
	<path class="st26" d="M340.6,124.6c-15.5,3.7-37.1-15.5-38.9-22.2C302.8,103.8,323.7,118.2,340.6,124.6z"/>
	<path class="st26" d="M288.8,118c-1.4-7.3,3.7-13.8,8.4-14.9C294.2,105.5,289.5,112.6,288.8,118z"/>
	<path class="st24" d="M157.8,126.5c0.5-3.1,0.4-4.4-1.2-4.3c-2.8,0-5,11.2-8.1,15.6c-4.9-0.3-7.1-4.8-8.3-4.3
		c-3.8,1.5,4.7,20.9,8.5,23.6c8.4,5.9,20.5-26.5,16.9-26.4c-0.9,0-1.1,3-3.7,7.7c-1.2-1.1-2.3-0.3-3.8-1c1.4-5.6,4-14.3,2.1-14.4
		C159,123.2,158.3,124.1,157.8,126.5z"/>
	<path class="st23" d="M154.9,136.5c2-7,3.8-13.5,2-13.5c-2.8,0-4.9,13.1-8,17.5c-4.9-0.3-7.2-6.4-8.4-5.9
		c-3.5,1.4,5.9,20.2,9.7,22.8c8.4,5.9,19.1-26.3,15.4-27.6c-1.3-0.4-0.3,2-3.5,7.7c2.3-6.1,3.8-13.4,1.1-14.1
		c-1.5-0.4-2.3,9.2-4.7,13.8c1.4-5.6,4.2-15.5,2.3-15.6C158.3,121.5,157.5,131.2,154.9,136.5z"/>
	<path class="st11" d="M144,153.7c-4.9,11.5-23,47.2-23.5,55.5c-0.7,12,14,15.4,19.7,4.8c3.3-6.1,17.1-41.5,20.1-55.4
		C155.2,155.4,149.1,153.6,144,153.7z"/>
	<path class="st4" d="M303.8,155.4c-1.5,2.6-2.6,3.7-4.2,6.3c-0.1,9.4,2.3,14.5,4.7,17.8C303.7,174.5,304,164.1,303.8,155.4z"/>
	<path class="st4" d="M320.2,154.1c1,2.5,2.2,5.1,2.7,7.2c-3.1,7.5-10.1,16.2-18.6,18.3C311.3,174.7,317.6,164,320.2,154.1z"/>
	<path class="st4" d="M303.8,155.4c-3.4,3.3-5.6,6-8.3,10.7c2.9-1,6.1-2.7,8.4-2.4C304,160.7,303.5,159.6,303.8,155.4z"/>
	<path class="st4" d="M320.2,154.1c3.4,5.3,6.2,9.7,7.1,15.4c-4.6-3-7.3-3.9-10.9-5.4C318,160.9,319.2,157.8,320.2,154.1z"/>
	<path class="st27" d="M97.4,478.7c7.9,5.9,29.1,10.1,39.5,8.8c2.6-0.3,4.2-2.1,4.6-4.4c-0.8,0.7-1.9,1.2-3.2,1.4
		c-11.2,1.4-34-3.1-42.6-9.4c0,0,0,0-0.1-0.1C95.9,476.6,96.4,477.9,97.4,478.7z"/>
	<path class="st27" d="M142.1,471.9c8.3,5.4,29.7,8.1,40,6.1c2.6-0.5,4.1-2.4,4.3-4.7c-0.8,0.8-1.8,1.4-3.1,1.6
		c-11.1,2.2-34.2-0.8-43.1-6.6c0,0-0.1,0-0.1-0.1C140.5,470,141.1,471.3,142.1,471.9z"/>
	<path class="st28" d="M344.8,480.7c-5.3,4.8-27.4,8.8-37.1,7.3c-2.4-0.4-3.8-2-4-4c0.7,0.6,1.6,1,2.7,1.2
		c10.4,1.5,33.8-2.7,39.3-7.8c0.3-0.3,0.5-0.6,0.8-1C346.3,478.3,345.8,479.8,344.8,480.7z"/>
	<path class="st28" d="M307.6,472.4c-5.5,4.6-27.7,7.5-37.4,5.6c-2.4-0.5-3.7-2.2-3.9-4.2c0.7,0.6,1.6,1.1,2.7,1.3
		c10.3,2,33.8-1.1,39.7-5.9c0.3-0.3,0.6-0.6,0.8-0.9C309.1,470.1,308.6,471.6,307.6,472.4z"/>
	<path class="st6" d="M392.6,174.2c6.6-2.3,12.2-5,11.2-6.4c-1.5-2.2-14.8,4.1-20,4.1c-0.5-3.5,3.2-5.7,2.7-7.3
		c-1.3-3.5-11.2,7.2-10.8,17c0.1,2.5,3.2,4.8,8.3,4.5c9.4-0.6,21.5-4.8,20.8-7.2c-0.4-1.3-3,0.9-9.2,1.5c6-1.5,12.7-3.5,11.8-5.9
		c-0.5-1.4-8.6,2.3-13.5,3c5.2-2,14.5-5.1,13.5-6.7C406.2,168.7,398.1,173.4,392.6,174.2z"/>
	<path class="st6" d="M220.9,158c-6.9-1.2-12.8-3-12.1-4.6c1.1-2.4,15.3,1.5,20.4,0.6c0-3.5-4.8-5.2-3.8-6.5
		c2-2.6,12.2,5.6,13.8,13.9c1,5.1-2.1,5.9-8,6.8c-9.3,1.4-21.9-1.1-21.6-3.6c0.2-1.3,3.1,0.4,9.3,0c-6.2-0.5-13.1-1.4-12.6-4
		c0.3-1.4,8.9,0.9,13.8,0.8c-5.4-1.1-15.1-2.8-14.4-4.5C206.6,154.8,215.3,158.1,220.9,158z"/>
	<path class="st0" d="M277.6,19.9l14.7,3.5c1.7-6.4,5.2-8.8,10.4-7.6c4.7,1.1,7,3.8,5.9,8.3c-2.5,10.3-15.9,8.1-19.9,24.6l14.2,3.4
		c3-12.5,20-10.7,23.9-26.9c2.9-12-4.4-20.9-18.7-24.4C292.9-2.7,281.5,4.2,277.6,19.9L277.6,19.9z M293.7,58.6
		c-5.4-1.3-10,1.6-11.3,7c-1.3,5.5,1.5,10.2,6.9,11.5s10.1-1.6,11.5-7.1C302,64.5,299,59.9,293.7,58.6z"/>
	<path class="st0" d="M198,87.1l10.6,1.3c0.6-4.6,2.9-6.7,6.7-6.2c3.4,0.4,5.3,2.1,4.9,5.4c-0.9,7.5-10.5,7-12,19l10.3,1.2
		c1.1-9.1,13.2-9.2,14.6-20.9c1-8.7-4.8-14.4-15.2-15.6C206.9,69.9,199.5,75.7,198,87.1L198,87.1z M212.5,113
		c-3.9-0.5-6.9,1.9-7.4,5.9s1.9,7.1,5.8,7.5c3.9,0.5,7-2,7.5-5.9C218.9,116.5,216.4,113.5,212.5,113z"/>
	<path class="st0" d="M95.1,28.7l10.5-2.6c-1.1-4.6,0.4-7.3,4.1-8.2c3.4-0.8,5.7,0.1,6.5,3.4c1.8,7.3-7.4,10.3-4.5,22.1l10.2-2.5
		c-2.2-9,9.2-13.4,6.4-24.9c-2.1-8.6-9.6-11.8-19.9-9.3C97.4,9.3,92.5,17.4,95.1,28.7L95.1,28.7z M118.1,48
		c-3.8,0.9-5.8,4.3-4.9,8.2c1,3.9,4.3,6,8.1,5.1c3.8-0.9,5.9-4.4,4.9-8.3C125.3,49,121.9,47,118.1,48z"/>
</g>
</svg>
