<?xml version="1.0" encoding="utf-8"?>
<!-- Generator: Adobe Illustrator 25.0.0, SVG Export Plug-In . SVG Version: 6.00 Build 0)  -->
<svg version="1.1" id="Layer_1" xmlns="http://www.w3.org/2000/svg" xmlns:xlink="http://www.w3.org/1999/xlink" x="0px" y="0px"
	 viewBox="0 0 500 500" style="enable-background:new 0 0 500 500;" xml:space="preserve">
<style type="text/css">
	.st0{fill:#ECECEC;}
	.st1{fill:#E7E7E7;}
	.st2{fill:#F5F5F5;}
	.st3{fill:#FFFFFF;}
	.st4{fill:#F0F0F0;}
	.st5{fill:#E1E1E1;}
	.st6{fill:#FAFAFA;}
	.st7{fill:#00A4DE;}
	.st8{opacity:0.8;fill:#FFFFFF;}
	.st9{clip-path:url(#SVGID_2_);}
	.st10{fill:#FFC3BD;}
	.st11{fill:#1A2E35;}
	.st12{opacity:0.2;}
	.st13{fill:#FF847F;}
	.st14{clip-path:url(#SVGID_4_);}
	.st15{fill:#FFB570;}
	.st16{fill:#007CFF;}
	.st17{opacity:0.3;}
	.st18{opacity:0.95;}
	.st19{fill:#FF8935;}
	.st20{clip-path:url(#SVGID_6_);}
	.st21{fill:#FF8B7B;}
	.st22{fill:#FF5551;}
	.st23{opacity:0.2;fill:#FFFFFF;}
	.st24{opacity:0.4;}
	.st25{opacity:0.3;fill:#00A4DE;}
	.st26{fill:#0083AA;}
	.st27{fill:#903C38;}
	.st28{clip-path:url(#SVGID_8_);}
	.st29{opacity:0.2;fill:#007CFF;}
	.st30{fill:#740606;}
	.st31{fill:#006BDE;}
</style>
<g>
	<g>
		<g>
			<rect x="0.5" y="391.1" class="st0" width="500" height="0.2"/>
			<rect x="417.3" y="407.2" class="st0" width="18.9" height="0.2"/>
			<rect x="293.6" y="405.5" class="st0" width="29.5" height="0.2"/>
			<rect x="369.2" y="398" class="st0" width="47.1" height="0.2"/>
			<rect x="53" y="399.6" class="st0" width="11" height="0.2"/>
			<rect x="72.8" y="399.6" class="st0" width="38.6" height="0.2"/>
			<rect x="171.5" y="403.9" class="st0" width="54.1" height="0.2"/>
			<path class="st0" d="M237.5,346.5H44.4c-3.1,0-5.7-2.6-5.7-5.7V69.4c0-3.1,2.6-5.7,5.7-5.7h193.1c3.1,0,5.7,2.6,5.7,5.7v271.4
				C243.2,344,240.7,346.5,237.5,346.5z M44.4,63.9c-3,0-5.5,2.4-5.5,5.5v271.4c0,3,2.4,5.5,5.5,5.5h193.1c3,0,5.5-2.4,5.5-5.5V69.4
				c0-3-2.4-5.5-5.5-5.5H44.4z"/>
			<path class="st0" d="M453.8,346.5H260.7c-3.1,0-5.7-2.6-5.7-5.7V69.4c0-3.1,2.6-5.7,5.7-5.7h193.1c3.1,0,5.7,2.6,5.7,5.7v271.4
				C459.5,344,457,346.5,453.8,346.5z M260.7,63.9c-3,0-5.5,2.4-5.5,5.5v271.4c0,3,2.4,5.5,5.5,5.5h193.1c3,0,5.5-2.4,5.5-5.5V69.4
				c0-3-2.4-5.5-5.5-5.5H260.7z"/>
		</g>
		<g>
			<rect x="417.3" y="407.2" class="st0" width="18.9" height="0.2"/>
			<rect x="293.6" y="405.5" class="st0" width="29.5" height="0.2"/>
			<rect x="369.2" y="398" class="st0" width="47.1" height="0.2"/>
			<rect x="53" y="399.6" class="st0" width="11" height="0.2"/>
			<rect x="72.8" y="399.6" class="st0" width="38.6" height="0.2"/>
			<rect x="171.5" y="403.9" class="st0" width="54.1" height="0.2"/>
		</g>
	</g>
	<g>
		<g>
			<g>
				<g>
					<g>
						<rect x="138.1" y="94.4" class="st1" width="59.4" height="135"/>
						<rect x="141.7" y="94.4" class="st2" width="59.4" height="135"/>
						
							<rect x="109.9" y="138.7" transform="matrix(-1.836970e-16 1 -1 -1.836970e-16 333.258 -9.4941)" class="st3" width="122.9" height="46.4"/>
						
							<rect x="131.7" y="160.5" transform="matrix(-1.836970e-16 1 -1 -1.836970e-16 355.0651 -31.3011)" class="st1" width="122.9" height="2.7"/>
						<rect x="144.4" y="186.8" class="st2" width="54" height="8.2"/>
						<rect x="144.4" y="111.2" class="st2" width="54" height="8.2"/>
					</g>
				</g>
			</g>
			<g>
				<g>
					<g>
						<rect x="218.1" y="94.4" class="st1" width="59.4" height="135"/>
						<rect x="221.7" y="94.4" class="st2" width="59.4" height="135"/>
						
							<rect x="190" y="138.7" transform="matrix(-1.836970e-16 1 -1 -1.836970e-16 413.317 -89.5531)" class="st3" width="122.9" height="46.4"/>
						
							<rect x="211.8" y="160.5" transform="matrix(-1.836970e-16 1 -1 -1.836970e-16 435.1241 -111.3602)" class="st1" width="122.9" height="2.7"/>
						<rect x="224.4" y="186.8" class="st2" width="54" height="8.2"/>
						<rect x="224.4" y="111.2" class="st2" width="54" height="8.2"/>
					</g>
				</g>
			</g>
			<g>
				<g>
					<g>
						<rect x="58" y="94.4" class="st1" width="59.4" height="135"/>
						<rect x="61.6" y="94.4" class="st2" width="59.4" height="135"/>
						
							<rect x="29.9" y="138.7" transform="matrix(-1.836970e-16 1 -1 -1.836970e-16 253.1989 70.565)" class="st3" width="122.9" height="46.4"/>
						
							<rect x="51.7" y="160.5" transform="matrix(-1.836970e-16 1 -1 -1.836970e-16 275.006 48.7579)" class="st1" width="122.9" height="2.7"/>
						<rect x="64.3" y="186.8" class="st2" width="54" height="8.2"/>
						<rect x="64.3" y="111.2" class="st2" width="54" height="8.2"/>
					</g>
				</g>
			</g>
		</g>
		<g>
			<g>
				<rect x="320" y="256.2" class="st1" width="9.7" height="134.9"/>
				<rect x="326.6" y="256.2" class="st4" width="5.7" height="134.9"/>
				
					<rect x="196.2" y="256.2" transform="matrix(-1 -1.224647e-16 1.224647e-16 -1 530.295 522.6144)" class="st4" width="137.9" height="10.1"/>
				<rect x="55.9" y="256.2" class="st1" width="9.7" height="134.9"/>
				<rect x="61.7" y="256.2" class="st4" width="5.7" height="134.9"/>
				
					<rect x="54.2" y="256.2" transform="matrix(-1 -1.224647e-16 1.224647e-16 -1 246.2206 522.6144)" class="st1" width="137.9" height="10.1"/>
				<rect x="185.7" y="256.2" class="st1" width="9.7" height="134.9"/>
				<rect x="192.3" y="256.2" class="st4" width="5.7" height="134.9"/>
			</g>
			<g>
				<polygon class="st1" points="170.7,211.4 242.7,211.4 248.3,253.9 176.3,253.9 				"/>
				<polygon class="st1" points="176.3,253.9 176.6,256.2 248.6,256.2 248.3,253.9 				"/>
				<polygon class="st4" points="172.9,211.4 244.9,211.4 250.5,253.9 178.5,253.9 				"/>
				<polygon class="st3" points="180.3,252 175.1,213.3 243.1,213.3 248.3,252 				"/>
				<polygon class="st4" points="197.3,253.9 197.6,256.2 276.9,256.2 276.6,253.9 				"/>
			</g>
		</g>
		<g>
			<path class="st5" d="M327.4,219.7h-35.6c-12.7,0-23.2,9.1-24.8,21.6l-5.2,39.3l-19.4-0.1h-0.1c-9.2,0-16.4,6.6-17.2,15.6
				l-1.1,13.5c-3.8,0.6-6.9,3.5-7.4,7.5h95.6c12.7,0,23.1-9.1,24.8-21.6l7.5-56.5C345.8,229,337.7,219.7,327.4,219.7z M243.4,309.6
				h-14.3l1.1-12.4c0.6-6.7,5.9-11.5,12.7-11.5h0.1l18.2,0.1l-1.3,9.6C258.7,303.6,251.8,309.6,243.4,309.6z"/>
			<g>
				<polygon class="st4" points="238.7,317.2 233.7,317.2 222.1,391.1 227,391.1 				"/>
				<polygon class="st4" points="257.3,317.2 252.3,317.2 240.7,391.1 245.7,391.1 				"/>
			</g>
			<g>
				<polygon class="st4" points="301,317.2 305.9,317.2 317.6,391.1 312.6,391.1 				"/>
				<polygon class="st4" points="282.4,317.2 287.3,317.2 298.9,391.1 294,391.1 				"/>
			</g>
		</g>
		<g>
			<rect x="343.4" y="96.7" class="st1" width="96.7" height="202"/>
			<rect x="345.2" y="96.7" class="st4" width="101.6" height="202"/>
			
				<rect x="303.5" y="155.4" transform="matrix(-1.836970e-16 1 -1 -1.836970e-16 593.7562 -198.282)" class="st6" width="185" height="84.6"/>
			<polygon class="st3" points="383.7,290.2 394.2,105.2 408.3,105.2 397.8,290.2 			"/>
			<polygon class="st3" points="400.5,290.2 411,105.2 425.1,105.2 414.7,290.2 			"/>
		</g>
	</g>
	<ellipse id="_x3C_Path_x3E__205_" class="st2" cx="250.5" cy="425" rx="193.9" ry="11.3"/>
	<g>
		<g>
			<polygon class="st7" points="241.3,130.3 225.8,356.8 414.9,356.8 432,106.6 266.7,106.6 			"/>
			<polygon class="st8" points="241.3,130.3 225.8,356.8 414.9,356.8 432,106.6 266.7,106.6 			"/>
		</g>
		<g>
			<g>
				
					<ellipse transform="matrix(0.7191 -0.6949 0.6949 0.7191 -5.9032 308.4858)" class="st7" cx="378.6" cy="161.5" rx="32.1" ry="30"/>
				<g>
					<defs>
						
							<ellipse id="SVGID_1_" transform="matrix(0.7191 -0.6949 0.6949 0.7191 -5.9023 308.4881)" cx="378.6" cy="161.5" rx="30.4" ry="28.4"/>
					</defs>
					<use xlink:href="#SVGID_1_"  style="overflow:visible;fill:#FFFFFF;"/>
					<clipPath id="SVGID_2_">
						<use xlink:href="#SVGID_1_"  style="overflow:visible;"/>
					</clipPath>
					<g class="st9">
						<path class="st10" d="M370.9,171.8l-5.8-0.4c0,0-2.7,13.8-4.4,15c-2.3,1.6-7,5.6-10.1,7c-0.3,0.6-0.5,2.4-0.2,2.9
							c4.8,0,13.7-4.8,15.2-6.9C369.2,184.7,370.9,171.8,370.9,171.8z"/>
						<path class="st11" d="M373.7,163.1c1.7,3.3-3.7,15-3.7,15l-7.4-2.4c0,0,0.3-5.9,2.5-10.5C366.9,161.4,371.7,159.5,373.7,163.1
							z"/>
						<path class="st12" d="M368,169.1c1,2.4-0.3,8.1-1.3,11.7C364.1,176.4,363.8,172.4,368,169.1z"/>
						<path class="st11" d="M368,163.6c-1.1,4.2-3.4,15.1-1.5,32.3H386c0.5-3.3-0.1-19.2,4.5-34.6c0,0-3.6-0.7-7.1-0.9
							c-2.7-0.1-6.6-0.2-9.1,0c-1.5,0.1-2.8,0.4-3.8,0.7C369.3,161.4,368.3,162.4,368,163.6z"/>
						<path class="st12" d="M385.4,165.1c-0.6,2.5-0.4,8.6,1.4,15.6c0.5-5.4,1.4-11.7,3.1-17.9l0,0
							C388.6,162.7,386,162.7,385.4,165.1z"/>
						<path class="st10" d="M383,151.9c-0.8,2.9-1.5,6.5,0.4,8.5c0,0-1.4,3-6.9,3c-5,0-2.2-3-2.2-3c3.3-0.8,3.5-4.8,3.2-7.1
							L383,151.9z"/>
						<path class="st3" d="M376.5,163.4c0.9,1.5,0.8,2.8,0.8,2.8s7-2.4,7-5.9c0,0-0.9-0.6-1.5-1C382.8,159.2,382.3,162,376.5,163.4z
							"/>
						<path class="st3" d="M376.3,163.4c-1.1,1.5-1.4,2.6-1.4,2.6s-2.9-2.1-1.6-5.5c0,0,0.9-0.4,1.8-0.6
							C375.1,159.8,374.2,162.6,376.3,163.4z"/>
						<path class="st12" d="M377.5,153.3c0.2,1.3,0.2,3.3-0.5,4.8c0.5-0.1,1-0.2,1.5-0.4c1.9-0.9,2.9-2.2,4.1-4.2
							c0.1-0.5,0.3-1,0.4-1.5L377.5,153.3z"/>
						<g>
							<path class="st10" d="M372.7,150.6c0.3,1,1.1,1.7,1.8,2c1.2,0.5,2-0.6,1.9-1.8c-0.1-1.1-0.8-2.7-2.1-2.7
								C373.1,148.2,372.4,149.5,372.7,150.6z"/>
							<path class="st12" d="M372.7,150.6c0.3,1,1.1,1.7,1.8,2c1.2,0.5,2-0.6,1.9-1.8c-0.1-1.1-0.8-2.7-2.1-2.7
								C373.1,148.2,372.4,149.5,372.7,150.6z"/>
						</g>
						<path class="st11" d="M378,142.5c-0.4-2.3-3.8,1.7-3.1,3.9S378.4,145.1,378,142.5z"/>
						<path class="st10" d="M385.3,148.3c-1.3,3.9-1.8,6.2-4.2,7.8c-3.7,2.5-7.9-0.1-7.8-4.2c0.1-3.7,2.1-9.4,6.3-10.3
							C383.6,140.9,386.5,144.5,385.3,148.3z"/>
						<path class="st11" d="M384.1,146c-4.2-0.6-10.3-1.4-8.1-4.8c2.1-3.3,10.4-2.7,7.9-1.2c3.3,0.2,7.4,1.8,4.3,2.8
							c2.5,1.8,1.5,6.6-3.3,8.3C383.6,149.1,382.5,148.2,384.1,146z"/>
						<path class="st10" d="M385.9,152.9c-0.8,0.8-1.8,1.2-2.7,1.2c-1.3,0.1-1.6-1.2-0.9-2.3c0.6-1,2.1-2.2,3.2-1.7
							C386.7,150.6,386.8,152,385.9,152.9z"/>
						<path class="st11" d="M379.2,148.4c-0.1,0.3-0.3,0.5-0.5,0.5c-0.2,0-0.3-0.3-0.2-0.6c0.1-0.3,0.3-0.5,0.5-0.5
							C379.2,147.8,379.3,148.1,379.2,148.4z"/>
						<path class="st11" d="M375.7,147.8c-0.1,0.3-0.3,0.5-0.5,0.5c-0.2,0-0.3-0.3-0.2-0.6c0.1-0.3,0.3-0.5,0.5-0.5
							C375.7,147.2,375.8,147.5,375.7,147.8z"/>
						<path class="st13" d="M376.8,148.1c0,0-1.2,1.7-2.2,2.5c0.4,0.6,1.4,0.5,1.4,0.5L376.8,148.1z"/>
						<path class="st11" d="M376.7,152.2c-0.1,0-0.1-0.1-0.1-0.1c0-0.1,0.1-0.1,0.1-0.1c1.4,0.2,2.3-0.6,2.3-0.6c0,0,0.1,0,0.1,0
							c0,0,0,0.1,0,0.1C379.1,151.5,378.1,152.4,376.7,152.2z"/>
						<path class="st11" d="M380.6,147.4c-0.1,0-0.1,0-0.1-0.1c-0.3-0.8-1-0.8-1-0.8c-0.1,0-0.2-0.1-0.1-0.2c0-0.1,0.1-0.2,0.2-0.2
							c0,0,0.9,0.1,1.3,1c0,0.1,0,0.2-0.1,0.3C380.7,147.4,380.6,147.4,380.6,147.4z"/>
						<path class="st11" d="M374.5,146.2C374.4,146.2,374.4,146.2,374.5,146.2c-0.1-0.1-0.1-0.2-0.1-0.3c0.7-0.8,1.6-0.7,1.6-0.7
							c0.1,0,0.2,0.1,0.1,0.2c0,0.1-0.1,0.2-0.2,0.2l0,0c0,0-0.7-0.1-1.3,0.6C374.6,146.2,374.5,146.3,374.5,146.2z"/>
						<path class="st10" d="M392.1,166.7l-5.3,2.8c0,0,5.1,12.6,4.2,14.5c-1.2,2.6-3.2,8.3-5.1,11.1c0.1,0.6,0.9,2.2,1.4,2.5
							c4.2-2.6,9.5-11.2,9.7-13.7C397.6,178.1,392.1,166.7,392.1,166.7z"/>
						<path class="st11" d="M390.4,161.3c3.7,0.7,6.4,13.8,6.4,13.8l-9.1,2.6c0,0-2-4.7-3.2-9.3
							C383.3,163.5,386.5,160.6,390.4,161.3z"/>
						<path class="st10" d="M387.9,194.5l-3.8-0.3l1.6,4.2c0,0,3.3,0.1,4.1-2.4L387.9,194.5z"/>
						<polygon class="st10" points="380.9,196.2 382.6,199.9 385.8,198.5 384.1,194.3 						"/>
					</g>
				</g>
			</g>
			<g>
				
					<ellipse transform="matrix(0.7191 -0.6949 0.6949 0.7191 -110.9157 342.8037)" class="st7" cx="368.6" cy="308.6" rx="32.1" ry="30"/>
				<g>
					<defs>
						
							<ellipse id="SVGID_3_" transform="matrix(0.7191 -0.6949 0.6949 0.7191 -110.9163 342.7952)" cx="368.6" cy="308.6" rx="30.4" ry="28.4"/>
					</defs>
					<use xlink:href="#SVGID_3_"  style="overflow:visible;fill:#FFFFFF;"/>
					<clipPath id="SVGID_4_">
						<use xlink:href="#SVGID_3_"  style="overflow:visible;"/>
					</clipPath>
					<g class="st14">
						<path class="st15" d="M358.3,319.1l-5.4-1.8c0,0-5.9,13-7.8,13.8c-2.6,1-8,3.8-11.3,4.5c-0.4,0.5-1,2.2-0.9,2.8
							c4.6,1.2,14.2-1.4,16.2-3.1C353.5,331.5,358.3,319.1,358.3,319.1z"/>
						<g>
							<path class="st16" d="M363.1,311.2c0.9,3.6-7.2,14-7.2,14l-6.5-4.1c0,0,1.7-5.7,4.9-9.7C357,307.9,362.1,307.2,363.1,311.2z"
								/>
							<path class="st17" d="M363.1,311.2c0.9,3.6-7.2,14-7.2,14l-6.5-4.1c0,0,1.7-5.7,4.9-9.7C357,307.9,362.1,307.2,363.1,311.2z"
								/>
						</g>
						<path class="st12" d="M358,315.7c0.6,2.5,0.1,6.5-1.6,10C355,323.5,353.3,318.3,358,315.7z"/>
						<g>
							<path class="st16" d="M357.9,310.7c-1.1,4.2-3.4,15.1-1.5,32.3h19.5c0.5-3.3-0.1-19.2,4.5-34.6c0,0-3.6-0.7-7.1-0.9
								c-2.7-0.1-6.6-0.2-9.1,0c-1.5,0.1-2.8,0.4-3.8,0.7C359.2,308.5,358.2,309.5,357.9,310.7z"/>
							<path class="st17" d="M357.9,310.7c-1.1,4.2-3.4,15.1-1.5,32.3h19.5c0.5-3.3-0.1-19.2,4.5-34.6c0,0-3.6-0.7-7.1-0.9
								c-2.7-0.1-6.6-0.2-9.1,0c-1.5,0.1-2.8,0.4-3.8,0.7C359.2,308.5,358.2,309.5,357.9,310.7z"/>
						</g>
						<path class="st12" d="M375.4,315.4c-0.6,2.5-1.1,8.6,1.3,12.3c0.5-5.4,1.4-11.7,3.1-17.9l0,0
							C378.5,309.7,376,313.1,375.4,315.4z"/>
						<g class="st18">
							<path class="st3" d="M366.2,315.3l-1.1,0.5l-0.8-0.7c-2.7-2.5-2.7-5.4-2.1-7.3c0.6-0.1,1.3-0.2,2-0.3c2.4-0.2,6.3-0.1,9.1,0
								c0.7,0,1.4,0.1,2.1,0.2l-0.7,0.9C374.5,308.7,371,313.2,366.2,315.3z"/>
						</g>
						<path class="st15" d="M372.9,299c-0.8,2.9-1.5,6.5,0.4,8.5c0,0-3.3,4.3-7.7,6.2c-3.3-3-1.3-6.2-1.3-6.2
							c3.3-0.8,3.5-4.8,3.2-7.1L372.9,299z"/>
						<path class="st12" d="M367.4,300.4c0.2,1.3,0.2,3.3-0.5,4.8c0.5-0.1,1-0.2,1.5-0.4c1.9-0.9,2.9-2.2,4.1-4.2
							c0.1-0.5,0.3-1,0.4-1.5L367.4,300.4z"/>
						<g>
							<path class="st15" d="M362.7,297.7c0.3,1,1.1,1.7,1.8,2c1.2,0.5,2-0.6,1.9-1.8c-0.1-1.1-0.8-2.7-2.1-2.7
								C363.1,295.3,362.3,296.6,362.7,297.7z"/>
							<path class="st12" d="M362.7,297.7c0.3,1,1.1,1.7,1.8,2c1.2,0.5,2-0.6,1.9-1.8c-0.1-1.1-0.8-2.7-2.1-2.7
								C363.1,295.3,362.3,296.6,362.7,297.7z"/>
						</g>
						<path class="st11" d="M367.3,290.8c-0.4-2.6-3.3,0.4-3.6,2.3c-0.3,1.9,1.3,3.8,2.4,1.9C367.1,293.2,367.5,292.3,367.3,290.8z"
							/>
						<path class="st15" d="M375.2,295.4c-1.3,3.9-1.8,6.2-4.2,7.8c-3.7,2.5-7.9-0.1-7.8-4.2c0.1-3.7,2.1-9.4,6.3-10.3
							C373.5,287.9,376.5,291.5,375.2,295.4z"/>
						<path class="st11" d="M373.3,299.4c-1.5-1-1.8-1.4-1-2.3c1.3-1.5-0.6-1.7,0.4-3.5c1.4-2.5-3.1-0.7-3.2-2.6
							c-0.1-1.5-4,1.2-4.4-0.5c-0.6-2.6,3.2-2.1,3.9-3.4c0.7-1.3,4.5-1.4,5.2,0.4c0.6,1.8,2.6,0.4,3.8,2.6c1.3,2.2-1.4,2.4-0.1,4.6
							c1,1.7-0.9,3-2.3,4.4C374.7,300.1,374.2,300.1,373.3,299.4z"/>
						<path class="st15" d="M376.1,299.5c-0.7,0.9-1.7,1.4-2.6,1.5c-1.3,0.2-1.7-1-1.1-2.2c0.6-1,1.9-2.4,3.1-2
							C376.7,297.1,376.9,298.5,376.1,299.5z"/>
						<path class="st11" d="M369.1,295.5c-0.1,0.3-0.3,0.5-0.5,0.5c-0.2,0-0.3-0.3-0.2-0.6c0.1-0.3,0.3-0.5,0.5-0.5
							C369.1,294.9,369.2,295.1,369.1,295.5z"/>
						<path class="st11" d="M365.6,294.8c-0.1,0.3-0.3,0.5-0.5,0.5c-0.2,0-0.3-0.3-0.2-0.6c0.1-0.3,0.3-0.5,0.5-0.5
							C365.6,294.2,365.7,294.5,365.6,294.8z"/>
						<path class="st19" d="M366.7,295.2c0,0-1.2,1.7-2.2,2.5c0.4,0.6,1.4,0.5,1.4,0.5L366.7,295.2z"/>
						<path class="st11" d="M366.6,299.2c-0.1,0-0.1-0.1-0.1-0.1c0-0.1,0.1-0.1,0.1-0.1c1.4,0.2,2.3-0.6,2.3-0.6c0,0,0.1,0,0.1,0
							c0,0,0,0.1,0,0.1C369,298.6,368.1,299.5,366.6,299.2z"/>
						<path class="st11" d="M370.5,294.5c-0.1,0-0.1,0-0.1-0.1c-0.3-0.8-1-0.8-1-0.8c-0.1,0-0.2-0.1-0.1-0.2c0-0.1,0.1-0.2,0.2-0.2
							c0,0,0.9,0.1,1.3,1c0,0.1,0,0.2-0.1,0.3C370.6,294.5,370.5,294.5,370.5,294.5z"/>
						<path class="st11" d="M364.4,293.3C364.4,293.3,364.3,293.3,364.4,293.3c-0.1-0.1-0.1-0.2-0.1-0.3c0.7-0.8,1.6-0.7,1.6-0.7
							c0.1,0,0.2,0.1,0.1,0.2c0,0.1-0.1,0.2-0.2,0.2l0,0c0,0-0.7-0.1-1.3,0.6C364.5,293.3,364.5,293.3,364.4,293.3z"/>
						<path class="st15" d="M382.5,314.2l-5.6,2.1c0,0,3.4,13.3,2.3,15c-1.5,2.4-4.2,7.9-6.4,10.4c0,0.7,0.6,2.3,1.1,2.6
							c4.5-2,10.7-10,11.3-12.5C386.4,326.3,382.5,314.2,382.5,314.2z"/>
						<g>
							<path class="st16" d="M381.5,308.6c3.5,1.1,4.5,14.7,4.5,14.7l-9.3,1.4c0,0-1.4-4.9-1.9-9.8
								C374.2,309.9,377.7,307.4,381.5,308.6z"/>
							<path class="st17" d="M381.5,308.6c3.5,1.1,4.5,14.7,4.5,14.7l-9.3,1.4c0,0-1.4-4.9-1.9-9.8
								C374.2,309.9,377.7,307.4,381.5,308.6z"/>
						</g>
						<path class="st15" d="M374.7,341.5l-3.7-0.8l1.1,4.4c0,0,3.2,0.6,4.3-1.9L374.7,341.5z"/>
						<polygon class="st15" points="367.6,342.3 368.8,346.2 372.1,345.1 371,340.8 						"/>
					</g>
				</g>
			</g>
			<g>
				
					<ellipse transform="matrix(0.7191 -0.6949 0.6949 0.7191 -84.3844 261.3842)" class="st16" cx="281.1" cy="235.1" rx="32.1" ry="30"/>
				<g>
					<defs>
						
							<ellipse id="SVGID_5_" transform="matrix(0.7191 -0.6949 0.6949 0.7191 -84.3844 261.3844)" cx="281.1" cy="235.1" rx="30.4" ry="28.4"/>
					</defs>
					<use xlink:href="#SVGID_5_"  style="overflow:visible;fill:#FFFFFF;"/>
					<clipPath id="SVGID_6_">
						<use xlink:href="#SVGID_5_"  style="overflow:visible;"/>
					</clipPath>
					<g class="st20">
						<g>
							<path class="st21" d="M293.4,242c0.2,2.4,0.3,4.8,0.4,7.2l0.3,7.1l0,0.9l0.1,0.8c0.1,0.5,0.1,1.1,0.2,1.6
								c0.2,1.1,0.5,2.2,0.8,3.3c0.6,2.2,1.3,4.5,2,6.8l-2.1,1c-1.3-2.1-2.3-4.3-3.3-6.6c-0.5-1.1-0.9-2.3-1.3-3.5
								c-0.2-0.6-0.4-1.2-0.5-1.9l-0.2-1l-0.1-0.9c-0.5-4.8-0.9-9.6-1.1-14.4L293.4,242z"/>
							<path class="st16" d="M292.3,236.8c1.8,0.5,2.6,8.1,2.6,8.1l-7.4,4.8c0,0-2.3-9.1-0.7-11.1
								C288.4,236.5,289.6,236.1,292.3,236.8z"/>
							<polygon class="st12" points="292,238.5 292.9,246.2 289.9,248.1 							"/>
							<path class="st15" d="M297.3,269.1l2.1,4.2l-3.9,0.1c0,0-1.1-3,0.1-4.5L297.3,269.1z"/>
							<path class="st11" d="M272,217c-3.1,0.4-9.7,15.4,1,22.4c10.7,7,18.6-0.9,18.6-0.9s-6.5-7.7-5.6-12.8c0.9-5,5-11.4-3.3-13.5
								C276.8,210.7,268.9,212.1,272,217z"/>
							<g>
								<polygon class="st15" points="299.5,275.5 296.1,275.2 295.4,273.5 299.3,273.4 								"/>
							</g>
							<path class="st16" d="M292.3,236.8c0,0,2.1,0.8-4,27.2c-7.3,0-14.8,0-18.3,0c0.8-7.5,1.1-12.1-1.4-27.4c0,0,3.9-0.8,7.9-1
								c3.1-0.1,5.6-0.2,8.3,0C288.3,235.9,292.3,236.8,292.3,236.8z"/>
							<path class="st12" d="M269.7,242.7c1.6,0.4,3,2.2,2.6,5.6c-0.2,2-1.3,3.5-1.8,4.2c-0.1-2.6-0.4-5.5-0.9-9.4L269.7,242.7z"/>
							<path class="st6" d="M283.4,241.5c0,0-3.2,2.5-3.4,5.1c-2.4-1.8-5.4-6.8-5.5-10c0-0.5,0.4-1,1-1c0.3,0,0.5-0.1,0.7-0.1
								c0.2,0,0.4,0,0.5,0.1L283.4,241.5z"/>
							<path class="st6" d="M283.4,241.5c0,0,2.6,1.4,2.9,4.9c2.7-1.9,1.7-7.4,0.5-10.1c-0.2-0.4-0.6-0.7-1.1-0.8
								c-0.4,0-0.6-0.1-0.8-0.1c-0.1,0-0.3,0.1-0.3,0.2L283.4,241.5z"/>
							<path class="st21" d="M277.9,226.2c0.3,2.7,0.5,7.6-1.5,9.4c0,0,2.2,3.3,7,5.9c3.9-3,1.4-5.9,1.4-5.9c-2.9-0.7-2.7-2.9-2-5
								L277.9,226.2z"/>
							<path class="st12" d="M279.9,228l2.8,2.6c-0.2,0.5-0.3,1-0.4,1.5c-1.1-0.2-2.9-1.1-3-2.4C279.3,229.1,279.7,228.3,279.9,228z
								"/>
							<path class="st21" d="M273.7,221.9c0.9,4.3,1.2,6.2,3.8,7.9c3.9,2.6,9.1,0.2,9.5-4.4c0.3-4.1-1.3-10.5-5.9-11.3
								C276.6,213.4,272.8,217.6,273.7,221.9z"/>
							<path class="st11" d="M274.9,225.8c2.8-2.6,2.9-5.9,2.2-6.9c2.4-0.2,8.5-1.7,7.6-4c-1-2.3-10.6-3.5-11.9,2.3
								C269.6,219.9,271.6,225.2,274.9,225.8z"/>
							<path class="st11" d="M281,221.5c0.1,0.4,0.3,0.6,0.5,0.5c0.2-0.1,0.4-0.4,0.3-0.7c-0.1-0.4-0.3-0.6-0.5-0.5
								C281,220.9,280.9,221.2,281,221.5z"/>
							<path class="st11" d="M285,220.6c0.1,0.4,0.3,0.6,0.5,0.5c0.2-0.1,0.4-0.4,0.3-0.7c-0.1-0.4-0.3-0.6-0.5-0.5
								C285.1,220,285,220.3,285,220.6z"/>
							<path class="st11" d="M285.3,219.9l0.8-0.4C286.1,219.5,285.7,220.3,285.3,219.9z"/>
							<path class="st22" d="M283.9,221.6c0,0,0.8,1.4,1.6,2c-0.4,0.5-1.2,0.5-1.2,0.5L283.9,221.6z"/>
							<path class="st11" d="M282.5,225.9c0.2,0,0.3,0,0.5-0.1c0.1,0,0.1-0.1,0.1-0.1c0-0.1-0.1-0.1-0.1-0.1
								c-1.6,0.3-2.5-0.6-2.5-0.6c0,0-0.1,0-0.2,0c0,0,0,0.1,0,0.2C280.4,225.2,281.1,226,282.5,225.9z"/>
							<path class="st21" d="M273.1,226.2c0.5,0.8,1.3,1.2,2,1.4c1.1,0.2,1.6-0.8,1.3-1.8c-0.3-0.9-1.2-2.1-2.3-1.9
								C273,224.1,272.6,225.3,273.1,226.2z"/>
							<path class="st11" d="M279,220.8c0.1,0,0.2-0.1,0.2-0.2c0.2-1,1.4-1.5,1.4-1.5c0.1,0,0.2-0.2,0.1-0.3c0-0.1-0.2-0.2-0.3-0.1
								c-0.1,0-1.4,0.6-1.7,1.8C278.8,220.6,278.9,220.7,279,220.8C279,220.8,279,220.8,279,220.8z"/>
							<path class="st11" d="M286,217.8c0.1,0,0.1,0,0.2-0.1c0.1-0.1,0.1-0.2,0-0.3c-0.9-0.7-1.9-0.3-1.9-0.3
								c-0.1,0-0.2,0.2-0.1,0.3c0,0.1,0.2,0.2,0.3,0.1c0,0,0.8-0.3,1.5,0.2C285.9,217.8,286,217.8,286,217.8z"/>
							<path class="st11" d="M281.2,220.8l0.8-0.4C282,220.4,281.7,221.2,281.2,220.8z"/>
							<g>
								<path class="st16" d="M269.8,262.9l-0.6,1.6c-0.1,0.1,0.1,0.3,0.3,0.3h18.9c0.2,0,0.3-0.1,0.3-0.2l0.3-1.6
									c0-0.1-0.1-0.2-0.3-0.2h-18.6C269.9,262.8,269.8,262.8,269.8,262.9z"/>
								<path class="st23" d="M269.8,262.9l-0.6,1.6c-0.1,0.1,0.1,0.3,0.3,0.3h18.9c0.2,0,0.3-0.1,0.3-0.2l0.3-1.6
									c0-0.1-0.1-0.2-0.3-0.2h-18.6C269.9,262.8,269.8,262.8,269.8,262.9z"/>
							</g>
							<g>
								<g>
									<path class="st16" d="M272.2,265h-0.5c-0.1,0-0.2-0.1-0.2-0.1l0.4-2.1c0-0.1,0.1-0.1,0.2-0.1h0.5c0.1,0,0.2,0.1,0.2,0.1
										l-0.4,2.1C272.4,264.9,272.3,265,272.2,265z"/>
									<path class="st24" d="M272.2,265h-0.5c-0.1,0-0.2-0.1-0.2-0.1l0.4-2.1c0-0.1,0.1-0.1,0.2-0.1h0.5c0.1,0,0.2,0.1,0.2,0.1
										l-0.4,2.1C272.4,264.9,272.3,265,272.2,265z"/>
								</g>
								<g>
									<path class="st16" d="M286.9,265h-0.5c-0.1,0-0.2-0.1-0.2-0.1l0.4-2.1c0-0.1,0.1-0.1,0.2-0.1h0.5c0.1,0,0.2,0.1,0.2,0.1
										l-0.4,2.1C287.1,264.9,287,265,286.9,265z"/>
									<path class="st24" d="M286.9,265h-0.5c-0.1,0-0.2-0.1-0.2-0.1l0.4-2.1c0-0.1,0.1-0.1,0.2-0.1h0.5c0.1,0,0.2,0.1,0.2,0.1
										l-0.4,2.1C287.1,264.9,287,265,286.9,265z"/>
								</g>
								<g>
									<path class="st16" d="M279.6,265h-0.5c-0.1,0-0.2-0.1-0.2-0.1l0.4-2.1c0-0.1,0.1-0.1,0.2-0.1h0.5c0.1,0,0.2,0.1,0.2,0.1
										l-0.4,2.1C279.8,264.9,279.7,265,279.6,265z"/>
									<path class="st24" d="M279.6,265h-0.5c-0.1,0-0.2-0.1-0.2-0.1l0.4-2.1c0-0.1,0.1-0.1,0.2-0.1h0.5c0.1,0,0.2,0.1,0.2,0.1
										l-0.4,2.1C279.8,264.9,279.7,265,279.6,265z"/>
								</g>
							</g>
							<path class="st15" d="M280.7,267.6l4.6-2l-1.6,4.4c0,0-2.9,0.6-4-0.8L280.7,267.6z"/>
							<path class="st21" d="M270.6,242.7c-0.5,3.1-1.1,6.1-1.7,9.1c-0.3,1.5-0.6,3-0.9,4.6l-0.5,2.3l-0.2,1c0,0.1,0,0.1,0,0.2
								c0.1,0.2,0.3,0.7,0.8,1.1c0.4,0.4,1,0.8,1.5,1.2c1.2,0.8,2.5,1.4,3.8,2.1c1.3,0.6,2.8,1.2,4.2,1.7c1.4,0.6,2.9,1,4.3,1.5
								l-0.5,2.2c-3.1-0.5-6.2-1.3-9.2-2.3c-1.5-0.5-3-1.2-4.5-2c-0.7-0.4-1.5-0.9-2.2-1.5c-0.7-0.6-1.5-1.4-2-2.6
								c-0.2-0.6-0.4-1.3-0.3-2.1c0-0.4,0.1-0.5,0.1-0.7l0.1-0.6l0.4-2.3c0.2-1.5,0.5-3.1,0.7-4.6c0.5-3.1,1-6.1,1.6-9.1
								L270.6,242.7z"/>
							<path class="st16" d="M268.6,236.6c-1.9,0.6-4.5,6.9-4.5,6.9l6,6.6c0,0,3.8-6.8,3.2-9.2C272.6,238.5,270.7,236,268.6,236.6z"
								/>
							<polygon class="st15" points="288.9,266.6 287.4,270.2 283.7,270.1 285.3,265.7 							"/>
						</g>
					</g>
				</g>
			</g>
		</g>
		<g>
			<path class="st25" d="M257.8,158.6h71.7c1.4,0,2.5-1.1,2.6-2.5l0,0c0.1-1.4-0.9-2.5-2.3-2.5h-71.7c-1.4,0-2.5,1.1-2.6,2.5l0,0
				C255.4,157.5,256.5,158.6,257.8,158.6z"/>
			<path class="st25" d="M277.6,169.4h51.1c1.4,0,2.5-1.1,2.6-2.5l0,0c0.1-1.4-0.9-2.5-2.3-2.5H278c-1.4,0-2.5,1.1-2.6,2.5l0,0
				C275.2,168.3,276.3,169.4,277.6,169.4z"/>
		</g>
		<g>
			<path class="st3" d="M289.6,147.7h40.7c1.4,0,2.5-1.1,2.6-2.5l0,0c0.1-1.4-0.9-2.5-2.3-2.5h-40.7c-1.4,0-2.5,1.1-2.6,2.5l0,0
				C287.2,146.6,288.2,147.7,289.6,147.7z"/>
		</g>
		<g>
			<path class="st25" d="M289.6,317h29c1.4,0,2.4,1.1,2.3,2.5l0,0c-0.1,1.4-1.3,2.5-2.6,2.5h-29c-1.4,0-2.4-1.1-2.3-2.5l0,0
				C287.1,318.1,288.3,317,289.6,317z"/>
			<path class="st25" d="M250.4,317h29c1.4,0,2.4,1.1,2.3,2.5l0,0c-0.1,1.4-1.3,2.5-2.6,2.5h-29c-1.4,0-2.4-1.1-2.3-2.5l0,0
				C247.8,318.1,249,317,250.4,317z"/>
			<path class="st25" d="M268.3,306.1h51.1c1.4,0,2.4,1.1,2.3,2.5l0,0c-0.1,1.4-1.3,2.5-2.6,2.5h-51.1c-1.4,0-2.4-1.1-2.3-2.5l0,0
				C265.7,307.2,266.9,306.1,268.3,306.1z"/>
			<path class="st3" d="M261.5,295.3h58.6c1.4,0,2.4,1.1,2.3,2.5l0,0c-0.1,1.4-1.3,2.5-2.6,2.5h-58.6c-1.4,0-2.4-1.1-2.3-2.5l0,0
				C259,296.4,260.2,295.3,261.5,295.3z"/>
		</g>
		<path class="st25" d="M383.3,243.4h-53.4c-1.4,0-2.5,1.1-2.6,2.5l0,0c-0.1,1.4,0.9,2.5,2.3,2.5H383c1.4,0,2.5-1.1,2.6-2.5l0,0
			C385.7,244.6,384.7,243.4,383.3,243.4z"/>
		<path class="st25" d="M355.8,232.6h-25.2c-1.4,0-2.5,1.1-2.6,2.5l0,0c-0.1,1.4,0.9,2.5,2.3,2.5h25.2c1.4,0,2.5-1.1,2.6-2.5l0,0
			C358.2,233.7,357.2,232.6,355.8,232.6z"/>
		<path class="st3" d="M370.6,221.8h-39.2c-1.4,0-2.5,1.1-2.6,2.5l0,0c-0.1,1.4,0.9,2.5,2.3,2.5h39.2c1.4,0,2.5-1.1,2.6-2.5l0,0
			C373,222.9,372,221.8,370.6,221.8z"/>
		<path class="st25" d="M402.3,232.6h-35.8c-1.4,0-2.5,1.1-2.6,2.5l0,0c-0.1,1.4,0.9,2.5,2.3,2.5H402c1.4,0,2.5-1.1,2.6-2.5l0,0
			C404.7,233.7,403.7,232.6,402.3,232.6z"/>
		<g>
			<polygon class="st25" points="241.3,130.3 268.1,130.3 266.7,106.6 			"/>
			<polygon class="st26" points="241.3,130.3 270,126.9 266.7,106.6 			"/>
		</g>
	</g>
	<g>
		<path class="st27" d="M133.3,200.6c-0.9,2-1.8,4.2-2.6,6.4c-0.8,2.2-1.7,4.3-2.4,6.5c-1.6,4.3-2.9,8.7-3.9,13
			c-0.1,0.5-0.2,1.1-0.3,1.6l-0.1,0.8l-0.1,0.6c-0.1,0.7-0.1,1.7-0.1,2.7c0.1,2,0.5,4.3,0.9,6.5c0.9,4.5,2,9.1,3.1,13.7l-5.1,2.1
			c-2.5-4.3-4.6-8.8-6.4-13.6c-0.9-2.4-1.6-4.9-2.1-7.6c-0.2-1.4-0.4-2.8-0.4-4.5l0-0.6c0-0.2,0-0.3,0-0.5l0.1-1
			c0.1-0.7,0.1-1.3,0.2-2c0.7-5.2,2-10.1,3.5-14.9c0.8-2.4,1.6-4.7,2.5-7.1c0.9-2.3,1.8-4.6,3-6.9L133.3,200.6z"/>
		<path class="st27" d="M127.6,251.2l3.9,3.8l-8.5,4c0,0-2.1-3.6-0.6-6.9L127.6,251.2z"/>
		<polygon class="st27" points="134.6,260.7 127.4,263.6 123,258.9 131.5,255 		"/>
		<g>
			<g>
				
					<ellipse transform="matrix(0.3827 -0.9239 0.9239 0.3827 -34.3998 385.3742)" class="st16" cx="271.2" cy="218.4" rx="53.2" ry="53.2"/>
				<g>
					<defs>
						<circle id="SVGID_7_" cx="271.2" cy="218.4" r="50.4"/>
					</defs>
					<use xlink:href="#SVGID_7_"  style="overflow:visible;fill:#FFFFFF;"/>
					<clipPath id="SVGID_8_">
						<use xlink:href="#SVGID_7_"  style="overflow:visible;"/>
					</clipPath>
					<g class="st28">
						<g>
							<path class="st21" d="M293,230c0.6,4.1,1,8.3,1.5,12.4l1.4,12.3l0.2,1.5l0.2,1.3l0.3,1.4l0.4,1.4c0.5,1.9,1.1,3.8,1.8,5.7
								c1.3,3.8,2.8,7.7,4.3,11.5l-3.5,1.8c-2.4-3.6-4.5-7.2-6.4-11.1c-0.9-1.9-1.8-3.9-2.6-6l-0.6-1.6l-0.5-1.6
								c-0.1-0.6-0.3-1.2-0.4-1.7l-0.3-1.6c-0.8-4.2-1.4-8.3-2-12.4c-0.6-4.1-1.1-8.3-1.6-12.4L293,230z"/>
							<path class="st7" d="M290.6,221.3c3.2,0.8,5.4,13.9,5.4,13.9l-12.2,8.3c0,0-5-15.6-2.6-19.1
								C283.8,220.8,285.9,220.1,290.6,221.3z"/>
							<polygon class="st12" points="290.3,224.2 292.7,237.5 287.8,240.8 							"/>
							<path class="st15" d="M302.9,276.8l4,7.3l-6.8,0.2c0,0-2.3-5.2-0.4-7.8L302.9,276.8z"/>
							<path class="st11" d="M253.4,187.5c-5.3,0.8-14.8,26.4,4.4,38.4c19.2,12,31.7-1.6,31.7-1.6s-12.1-13.3-11-21.9
								c1-8.6,7.2-19.5-7.3-23.2C260.9,176.6,247.6,179.1,253.4,187.5z"/>
							<g>
								<polygon class="st15" points="307.4,287.7 301.6,287.2 300.2,284.3 306.9,284.1 								"/>
							</g>
							<path class="st7" d="M290.6,221.3c0,0,3.7,1.3-3.7,46.7c-12.5,0-25.4,0-31.4,0c0.5-12.8,0.5-20.7-5.6-46.9
								c0,0,6.6-1.4,13.3-1.8c5.3-0.3,9.6-0.4,14.3,0C283.6,219.9,290.6,221.3,290.6,221.3z"/>
							<path class="st12" d="M252.5,231.5c2.8,0.7,5.5,3.8,5.2,9.5c-0.2,3.4-1.8,6-2.6,7.2c-0.5-4.4-1.3-9.5-2.7-16L252.5,231.5z"/>
							<path class="st6" d="M275.8,229.4c0,0-5.2,4.2-5.2,8.8c-4.3-3.1-10-11.7-10.7-17.1c-0.1-0.9,0.6-1.7,1.6-1.8
								c0.5,0,0.9-0.1,1.1-0.1c0.3-0.1,0.7,0,0.9,0.2L275.8,229.4z"/>
							<path class="st6" d="M275.8,229.4c0,0,4.7,2.4,5.6,8.4c4.3-3.2,2.1-12.7-0.3-17.3c-0.4-0.7-1.1-1.2-1.9-1.3
								c-0.6-0.1-1.1-0.2-1.4-0.2c-0.2,0-0.5,0.1-0.5,0.4L275.8,229.4z"/>
							<path class="st21" d="M264.6,203.3c0.9,4.6,1.8,13-1.4,16.1c0,0,4.2,5.7,12.6,10.1c6.4-5.1,1.7-10.1,1.7-10.1
								c-5.1-1.2-5-5-4.1-8.6L264.6,203.3z"/>
							<path class="st12" d="M268.2,206.3l5.2,4.4c-0.2,0.8-0.4,1.7-0.4,2.5c-2-0.3-5-1.9-5.5-4.1
								C267.3,208.2,268,206.8,268.2,206.3z"/>
							<path class="st21" d="M256.9,195.9c2.1,7.4,2.9,10.5,7.5,13.6c7,4.5,15.6,0.3,15.7-7.6c0.1-7.1-3.4-18-11.4-19.3
								C260.9,181.2,254.8,188.5,256.9,195.9z"/>
							<path class="st11" d="M259.5,202.5c4.4-4.5,4.2-10.1,2.9-11.9c4.1-0.3,14.4-2.9,12.5-6.8c-2-3.9-18.6-6.1-20.1,4
								C249.6,192.4,253.7,201.5,259.5,202.5z"/>
							<path class="st11" d="M269.3,195.2c0.1,0.6,0.6,1,1,0.9c0.4-0.1,0.6-0.7,0.5-1.3c-0.1-0.6-0.6-1-1-0.9
								C269.4,194,269.2,194.6,269.3,195.2z"/>
							<path class="st11" d="M276.2,193.7c0.1,0.6,0.6,1,1,0.9c0.4-0.1,0.6-0.7,0.5-1.3c-0.1-0.6-0.6-1-1-0.9
								C276.3,192.5,276,193.1,276.2,193.7z"/>
							<path class="st11" d="M276.5,192.5l1.4-0.7C277.9,191.8,277.4,193.1,276.5,192.5z"/>
							<path class="st22" d="M274.3,195.3c0,0,1.6,2.4,3,3.4c-0.6,0.9-2.1,0.9-2.1,0.9L274.3,195.3z"/>
							<path class="st11" d="M272.5,202.7c0.3,0,0.6-0.1,0.9-0.1c0.1,0,0.2-0.1,0.1-0.2c0-0.1-0.1-0.2-0.2-0.1c-2.7,0.6-4.3-1-4.4-1
								c-0.1-0.1-0.2-0.1-0.3,0c-0.1,0.1-0.1,0.2,0,0.3C268.8,201.5,270.1,202.8,272.5,202.7z"/>
							<path class="st21" d="M256.4,203.3c0.9,1.3,2.3,2.1,3.6,2.4c1.9,0.4,2.7-1.4,2-3.2c-0.6-1.6-2.4-3.6-4.2-3.2
								C256,199.7,255.4,201.7,256.4,203.3z"/>
							<path class="st11" d="M265.9,193.9c0.2,0,0.3-0.1,0.3-0.3c0.3-1.7,2.3-2.6,2.3-2.6c0.2-0.1,0.3-0.3,0.2-0.5
								c-0.1-0.2-0.3-0.3-0.5-0.2c-0.1,0-2.3,1.1-2.7,3.1c0,0.2,0.1,0.4,0.3,0.4C265.8,193.9,265.9,193.9,265.9,193.9z"/>
							<path class="st11" d="M277.5,188.8c0.1,0,0.2-0.1,0.3-0.2c0.1-0.2,0.1-0.4-0.1-0.5c-1.7-1.1-3.3-0.5-3.3-0.4
								c-0.2,0.1-0.3,0.3-0.2,0.5c0.1,0.2,0.3,0.3,0.5,0.2c0.1,0,1.3-0.5,2.6,0.4C277.4,188.8,277.5,188.8,277.5,188.8z"/>
							<path class="st11" d="M269.6,194l1.4-0.7C271,193.3,270.5,194.6,269.6,194z"/>
							<g>
								<path class="st16" d="M255,266.2l-0.8,2.8c-0.1,0.2,0.1,0.4,0.5,0.4H287c0.3,0,0.5-0.1,0.5-0.3l0.3-2.8
									c0-0.2-0.2-0.4-0.5-0.4h-31.8C255.2,265.9,255,266,255,266.2z"/>
								<path class="st23" d="M255,266.2l-0.8,2.8c-0.1,0.2,0.1,0.4,0.5,0.4H287c0.3,0,0.5-0.1,0.5-0.3l0.3-2.8
									c0-0.2-0.2-0.4-0.5-0.4h-31.8C255.2,265.9,255,266,255,266.2z"/>
							</g>
							<g>
								<g>
									<path class="st16" d="M259.3,269.7h-0.9c-0.2,0-0.3-0.1-0.3-0.2l0.4-3.7c0-0.1,0.2-0.2,0.3-0.2h0.9c0.2,0,0.3,0.1,0.3,0.2
										l-0.4,3.7C259.7,269.6,259.5,269.7,259.3,269.7z"/>
									<path class="st24" d="M259.3,269.7h-0.9c-0.2,0-0.3-0.1-0.3-0.2l0.4-3.7c0-0.1,0.2-0.2,0.3-0.2h0.9c0.2,0,0.3,0.1,0.3,0.2
										l-0.4,3.7C259.7,269.6,259.5,269.7,259.3,269.7z"/>
								</g>
								<g>
									<path class="st16" d="M284.6,269.7h-0.9c-0.2,0-0.3-0.1-0.3-0.2l0.4-3.7c0-0.1,0.2-0.2,0.3-0.2h0.9c0.2,0,0.3,0.1,0.3,0.2
										l-0.4,3.7C284.9,269.6,284.8,269.7,284.6,269.7z"/>
									<path class="st24" d="M284.6,269.7h-0.9c-0.2,0-0.3-0.1-0.3-0.2l0.4-3.7c0-0.1,0.2-0.2,0.3-0.2h0.9c0.2,0,0.3,0.1,0.3,0.2
										l-0.4,3.7C284.9,269.6,284.8,269.7,284.6,269.7z"/>
								</g>
								<g>
									<path class="st16" d="M272,269.7h-0.9c-0.2,0-0.3-0.1-0.3-0.2l0.4-3.7c0-0.1,0.2-0.2,0.3-0.2h0.9c0.2,0,0.3,0.1,0.3,0.2
										l-0.4,3.7C272.3,269.6,272.2,269.7,272,269.7z"/>
									<path class="st24" d="M272,269.7h-0.9c-0.2,0-0.3-0.1-0.3-0.2l0.4-3.7c0-0.1,0.2-0.2,0.3-0.2h0.9c0.2,0,0.3,0.1,0.3,0.2
										l-0.4,3.7C272.3,269.6,272.2,269.7,272,269.7z"/>
								</g>
							</g>
							<path class="st15" d="M274.3,274.3l7.6-3.4l-2.2,7.6c0,0-4.8,1.1-7-1.3L274.3,274.3z"/>
							<path class="st21" d="M254.1,231.3c-0.3,2.7-0.6,5.3-0.9,8l-1,8c-0.3,2.7-0.7,5.3-1.1,8l-0.6,4l-0.2,1.3c0,0.1,0,0.3,0.2,0.6
								c0.2,0.5,0.9,1.3,1.7,2c0.8,0.7,1.8,1.4,2.8,2c2.1,1.3,4.4,2.4,6.7,3.5c2.4,1.1,4.8,2,7.3,2.9c2.4,0.9,5,1.8,7.4,2.6
								l-0.9,3.8c-5.4-0.9-10.7-2.2-16-3.9c-2.6-0.9-5.2-1.9-7.8-3.3c-1.3-0.7-2.6-1.5-3.8-2.4c-1.3-1-2.6-2.1-3.6-3.9
								c-0.5-0.9-0.9-2-1.1-3.2c0-0.3,0-0.6,0-0.9c0-0.3,0-0.7,0-0.8l0.1-1l0.3-4c0.2-2.7,0.4-5.3,0.7-8l0.8-8
								c0.3-2.7,0.6-5.3,0.9-8L254.1,231.3z"/>
							<path class="st7" d="M249.9,221.1c-3.1,1-6.9,11.8-6.9,11.8l11,11.3c0,0,5.7-11.7,4.3-15.7
								C256.9,224.3,253.5,220,249.9,221.1z"/>
							<polygon class="st15" points="288.3,272.4 286.1,278.7 279.8,278.4 281.9,270.9 							"/>
						</g>
					</g>
				</g>
			</g>
			<path class="st29" d="M223,231.4c-7.2-26.6,8.6-54,35.2-61.1c26.6-7.2,54,8.6,61.1,35.2c7.2,26.6-8.6,54-35.2,61.1
				C257.6,273.8,230.2,258,223,231.4z"/>
			<path class="st23" d="M307.3,184.1l-41.1,84c3.5,0.3,7,0.3,10.6-0.1l36.9-75.5C311.9,189.4,309.8,186.6,307.3,184.1z
				 M319.3,205.4c-0.1-0.3-0.2-0.6-0.3-1l-29.5,60.3C312.8,255.6,326,230.2,319.3,205.4z M258.2,170.3
				c-26.6,7.2-42.3,34.5-35.2,61.1c2.6,9.8,8.1,18.2,15.2,24.5l42.3-86.4C273.3,168.1,265.7,168.2,258.2,170.3z"/>
			<path class="st7" d="M215.1,213l-1-0.1c0.2-1.7,0.4-3.4,0.7-5.1l1,0.2C215.5,209.6,215.2,211.3,215.1,213z M217,202.9l-1-0.3
				c1.3-4.4,3.1-8.7,5.4-12.8l0.9,0.5C220.1,194.3,218.3,198.5,217,202.9z"/>
			<path class="st26" d="M323.2,204.4c-7.7-28.7-37.3-45.7-66-38c-28.7,7.7-45.7,37.3-38,66c7.7,28.7,37.3,45.7,66,38
				C313.9,262.7,330.9,233.1,323.2,204.4z M223,231.4c-7.2-26.6,8.6-54,35.2-61.1c26.6-7.2,54,8.6,61.1,35.2
				c7.2,26.6-8.6,54-35.2,61.1C257.6,273.8,230.2,258,223,231.4z"/>
			<path class="st26" d="M223.8,239.6c0,2.3-0.6,2.6-1.2,2.7l-1.8,0.5l-3.6,1l-7.3,1.9l-14.5,3.7c-9.7,2.4-19.4,4.8-29.2,7.1
				l-29.2,7l-14.6,3.5c-4.9,1.2-9.7,2.3-14.5,3.7c-2.1,0.6-4.2-0.6-4.8-2.6c-0.6-2.1,0.6-4.2,2.6-4.8c0,0,0.1,0,0.2,0
				c4.9-1.2,9.6-2.7,14.4-4.1l14.4-4.3l28.8-8.7c9.6-2.9,19.2-5.7,28.8-8.5l14.5-4.1l7.2-2l3.6-1l1.8-0.5c0.6-0.2,1.2-0.3,2.4,1.7
				C223.2,234.3,223.8,237,223.8,239.6z"/>
		</g>
		<path class="st11" d="M160.9,165c0,0.6,0.3,1.1,0.7,1.1c0.4,0,0.7-0.5,0.7-1.1c0-0.6-0.3-1.1-0.7-1.1
			C161.2,164,160.9,164.4,160.9,165z"/>
		<path class="st30" d="M161.2,166.1c0,0,1.3,3.4,2.8,5.1c-1,1-2.8,0.5-2.8,0.5L161.2,166.1z"/>
		<path class="st11" d="M158.8,161.8c-0.1,0-0.2-0.1-0.3-0.1c-0.1-0.2-0.1-0.4,0.1-0.5c1.6-1.1,3.1-0.6,3.1-0.5
			c0.2,0.1,0.3,0.3,0.2,0.5c-0.1,0.2-0.3,0.3-0.4,0.2l0,0c0,0-1.2-0.4-2.5,0.5C158.9,161.7,158.9,161.8,158.8,161.8z"/>
		<path class="st27" d="M141.8,168.9c0.5,5.8,0.6,16.3-3.5,19.8c0,0,0.9,5.9,10.9,6.8c10.9,1,5.8-5.3,5.8-5.3
			c-5.8-2.1-5.2-6.8-3.8-11.1L141.8,168.9z"/>
		<path class="st16" d="M125.8,406.1c-0.9,0.4-2.8-0.5-3.5-0.9c-0.1,0-0.1-0.1-0.1-0.2c0-0.1,0.1-0.1,0.1-0.1c0.1,0,2.4-0.8,3.4-0.2
			c0.2,0.1,0.4,0.3,0.4,0.5c0.1,0.4-0.1,0.7-0.2,0.8C125.9,406,125.9,406,125.8,406.1z M122.9,405.1c1,0.5,2.4,0.9,2.9,0.6
			c0,0,0.2-0.1,0.1-0.4c0-0.1-0.1-0.2-0.2-0.3C125.1,404.6,123.7,404.9,122.9,405.1z"/>
		<path class="st16" d="M123,405c-0.2,0.1-0.4,0.1-0.5,0.2c-0.1,0-0.1,0-0.2-0.1c0,0-0.1-0.1,0-0.2c0-0.1,0.8-2.1,1.8-2.5
			c0,0,0,0,0,0c0.3-0.1,0.5-0.1,0.8,0c0.4,0.2,0.4,0.4,0.4,0.6C125.2,403.8,123.9,404.6,123,405z M122.8,404.8
			c0.9-0.3,2.1-1.2,2.2-1.7c0,0,0-0.1-0.2-0.2c-0.2-0.1-0.3-0.1-0.5,0c0,0,0,0,0,0C123.6,403.1,123,404.2,122.8,404.8z"/>
		<path class="st16" d="M171.3,417.9c-0.9,0-1.8-0.1-2.3-0.2c-0.1,0-0.1-0.1-0.1-0.1c0-0.1,0-0.1,0.1-0.2c0.1-0.1,2.7-1.5,3.9-1.2
			c0.3,0.1,0.4,0.2,0.6,0.4c0.2,0.4,0.1,0.6,0,0.8C173.1,417.7,172.2,417.9,171.3,417.9z M169.6,417.4c1.4,0.2,3.2,0.2,3.6-0.3
			c0-0.1,0.1-0.2,0-0.4c-0.1-0.1-0.2-0.2-0.3-0.2C172,416.3,170.5,416.9,169.6,417.4z"/>
		<path class="st16" d="M169,417.7c0,0-0.1,0-0.1,0c-0.1,0-0.1-0.1-0.1-0.2c0-0.1,0.2-2.1,1.1-2.8c0.3-0.2,0.6-0.3,1-0.3
			c0.5,0,0.6,0.3,0.6,0.5C171.8,415.7,170,417.2,169,417.7C169.1,417.6,169.1,417.7,169,417.7z M170.8,414.7c-0.2,0-0.4,0.1-0.6,0.2
			c-0.6,0.5-0.9,1.7-1,2.3c0.9-0.5,2.1-1.8,2-2.3c0,0,0-0.2-0.3-0.2C170.9,414.7,170.9,414.7,170.8,414.7z"/>
		<polygon class="st27" points="161,417.5 168.3,417.5 169,400.5 161.7,400.5 		"/>
		<polygon class="st27" points="114.2,403.4 121.4,404.8 129.5,389 122.3,387.7 		"/>
		<path class="st11" d="M122.2,404.1l-7.9-2.4c-0.3-0.1-0.6,0-0.7,0.3l-3.3,5.8c-0.3,0.6,0,1.4,0.7,1.6c2.8,0.8,4.2,1,7.6,2.1
			c2.1,0.6,7.8,3,10.7,3.9c2.9,0.9,4.2-1.9,3.1-2.5c-5.1-2.8-7.9-5.9-9.2-7.9C123,404.5,122.6,404.2,122.2,404.1z"/>
		<path class="st11" d="M168.3,416.6h-8c-0.3,0-0.6,0.2-0.6,0.5l-1.5,6.5c-0.2,0.7,0.4,1.3,1.1,1.3c2.9,0,7.1-0.2,10.7-0.2
			c4.3,0,7.9,0.2,12.9,0.2c3,0,3.9-3,2.6-3.3c-5.7-1.3-10.4-1.4-15.4-4.5C169.5,416.9,168.9,416.6,168.3,416.6z"/>
		<g>
			<path class="st7" d="M124.5,190.5c-6.4,3-9,23.6-9,23.6l14.7,5.7c0,0,3.5-8.3,5.5-17.2C137.8,193.4,131.1,187.4,124.5,190.5z"/>
			<path class="st12" d="M134,196.5c0.5-0.2,1-0.4,1.6-0.6c0.6,1.9,0.6,4.2,0.1,6.7c-2,8.9-5.5,17.1-5.5,17.1l-4.8-1.9
				C126.2,212.6,128.9,199,134,196.5z"/>
		</g>
		<g>
			<path class="st7" d="M167,190.4c0,0,7.8,8.8,0.4,63.5c-11.8,0-33.5,0-39.3,0c-0.3-6,3.5-35.5-2.3-63.9c0,0,6.7-1.4,13.2-1.7
				c5-0.2,12.3-0.4,16.7,0C161.5,188.8,167,190.4,167,190.4z"/>
			<path class="st12" d="M159.1,202.1c1.8-5.3,6.1-7,10.4-3.9c0.9,5.2,1.5,13.5,0.8,26.8l-7.7-0.1
				C162.7,224.9,156.5,210,159.1,202.1z"/>
		</g>
		<path class="st27" d="M171.6,198.4c0.4,2.3,0.8,4.8,1.3,7.2c0.5,2.4,1,4.8,1.6,7.2c1.1,4.7,2.4,9.4,4.2,13.6c0.4,1,0.9,2.1,1.4,3
			l0.7,1.2c0.1,0.2,0.3,0.5,0.6,0.7c1.1,1.2,3,2.4,5,3.5c4.1,2.2,8.8,4.1,13.3,5.9l-1.1,5.4c-5.4-0.4-10.5-1.4-15.8-3.2
			c-1.3-0.5-2.6-1-4-1.7c-1.3-0.7-2.7-1.5-4.1-2.6c-0.7-0.6-1.4-1.2-2-2.1l-0.5-0.6l-0.3-0.5c-0.2-0.3-0.4-0.6-0.6-0.9
			c-0.8-1.2-1.5-2.5-2.1-3.8c-2.5-5-4.2-10.1-5.5-15.3c-0.7-2.6-1.3-5.1-1.8-7.7c-0.5-2.6-1-5.1-1.3-7.9L171.6,198.4z"/>
		<g>
			<path class="st7" d="M157.2,195.7c-2.1,6.7,6.3,26.7,6.3,26.7l17.7-4.5c0,0-1.6-10.1-5.4-18.4C170,187.1,159.7,187.7,157.2,195.7
				z"/>
		</g>
		<path class="st27" d="M199.7,240.7l7.6,3.4l-7.4,6.1c0,0-3.2-1.1-3.8-6.4l-1.1-4.4l3.3,0.8C198.8,240.3,199.2,240.5,199.7,240.7z"
			/>
		<polygon class="st27" points="211.3,247.8 203.9,252.2 199.9,250.2 207.3,244.1 		"/>
		<path class="st11" d="M159.1,187.7c-3.2-2.7-10.9-4.6-19.5-5.1c-4.9-0.3-10,0.5-12.1,1.5c-2.1,0.9,0.4,7.7,3.1,7.9
			c-1.5,2.3,0.7,6.7,3.8,7.6c-0.5,3.8,9.2,4.2,15,1.1C154.1,198.2,162.9,190.9,159.1,187.7z"/>
		<g>
			<polygon class="st12" points="169,400.5 168.7,409.2 161.3,409.2 161.7,400.5 			"/>
			<polygon class="st12" points="122.3,387.7 129.5,389 125.3,397.2 118.1,395.8 			"/>
		</g>
		<path class="st27" d="M141.1,163.8c0.4,7.3,0.3,11.6,4,15.3c5.5,5.6,14.5,2.3,16.3-5c1.6-6.5,0.6-17.3-6.5-20.2
			C147.8,151,140.7,156.5,141.1,163.8z"/>
		<path class="st11" d="M154.8,167.8c2.7-2.8,7.3-8.8,5.7-13.4c-2.3-6.7-9.3-4.4-8.2-3.1c-4-2.6-12.1-2.8-10.4,0.8
			c-7.3,1-7.9,3.9-5.8,5.1c-5.2,4.9-4.9,10.1-1,9.7c-3,3,2.5,8.9,8.7,11.8C145.8,173.1,157.1,172.1,154.8,167.8z"/>
		<path class="st11" d="M151.6,170.4c0,0-0.1,0-0.1,0c-0.1-0.1-0.1-0.2-0.1-0.3c1.6-2.3,3.1-4.2,4.5-5.8c2.6-3.1,4.5-5.4,4.6-8.5
			c0.1-2.5-1.3-4.7-3.9-5.8c-1.9-0.8-3.9-0.9-4.6-0.1c-0.4,0.4-0.5,1-0.1,1.8c0.1,0.1,0,0.3-0.1,0.3c-0.1,0.1-0.3,0-0.3-0.1
			c-0.5-1.3-0.2-2,0.2-2.4c0.9-0.9,3.1-0.9,5.2,0c2.8,1.3,4.4,3.6,4.2,6.3c-0.2,3.3-2.1,5.6-4.8,8.8c-1.4,1.6-2.9,3.5-4.5,5.8
			C151.7,170.4,151.7,170.4,151.6,170.4z"/>
		<path class="st27" d="M151.9,167c0.1,1.9,1,3.7,2.1,4.9c1.6,1.8,3.3,0.7,3.6-1.5c0.3-1.9-0.3-5.2-2.2-6.2
			C153.4,163.3,151.8,164.8,151.9,167z"/>
		<g>
			<path class="st11" d="M153.5,253.9c0,0,2.5,49.5-2.3,70.5c-7.6,33.2-22.3,71.7-22.3,71.7l-13.6-2.6c0,0,11.5-38.6,14-66.2
				c2.2-24.8-1.1-53.4-1.1-73.4C137.3,253.9,153.5,253.9,153.5,253.9z"/>
			<path class="st12" d="M149.8,268.5c1-1.9,2.9,3.8,4.3,11.2c0,10.2-0.2,21.8-1.1,31.6C146.3,298.7,147.7,272.5,149.8,268.5z"/>
		</g>
		<path class="st31" d="M132.2,391.9c0.1,0-2.1,4.7-2.1,4.7l-15.8-3.1l1.7-4.7L132.2,391.9z"/>
		<path class="st11" d="M167.5,253.9c0,0,11.1,46.9,11.8,69.3c0.9,25.1-7.9,84.4-7.9,84.4H159c0,0-1.5-59.7-2.1-82.6
			c-0.6-24.9-15.2-71.1-15.2-71.1H167.5z"/>
		<path class="st31" d="M173.8,402.6c0.1,0-0.7,5.2-0.7,5.2H158l-0.4-4.6L173.8,402.6z"/>
	</g>
</g>
</svg>
