<?xml version="1.0" encoding="utf-8"?>
<!-- Generator: Adobe Illustrator 25.0.0, SVG Export Plug-In . SVG Version: 6.00 Build 0)  -->
<svg version="1.1" id="Layer_1" xmlns="http://www.w3.org/2000/svg" xmlns:xlink="http://www.w3.org/1999/xlink" x="0px" y="0px"
	 viewBox="0 0 445.2 443.8" style="enable-background:new 0 0 445.2 443.8;" xml:space="preserve">
<style type="text/css">
	.st0{fill:#F0F0F0;}
	.st1{opacity:0.33;fill:#93DAF9;}
	.st2{fill:#93DAF9;}
	.st3{opacity:0.3;}
	.st4{fill:#91B3FA;}
	.st5{fill:#7BD4EF;}
	.st6{fill:#1A2E35;}
	.st7{fill:#E6E6E6;}
	.st8{fill:#FAFAFA;}
	.st9{opacity:0.54;fill:#FFFFFF;}
	.st10{fill:#00A4DE;}
	.st11{opacity:0.41;fill:#FFFFFF;}
	.st12{opacity:0.7;fill:#FFFFFF;}
	.st13{opacity:0.78;fill:#FFFFFF;}
	.st14{fill:#A5E4F2;}
	.st15{opacity:0.67;}
	.st16{fill:#FFFFFF;}
	.st17{fill:#101B1E;}
	.st18{fill:url(#SVGID_1_);}
	.st19{fill:url(#SVGID_2_);}
	.st20{fill:#0F191C;}
	.st21{fill:url(#SVGID_3_);}
	.st22{fill:url(#SVGID_4_);}
	.st23{fill:url(#SVGID_5_);}
	.st24{fill:url(#SVGID_6_);}
	.st25{fill:url(#SVGID_7_);}
	.st26{fill:url(#SVGID_8_);}
	.st27{fill:url(#SVGID_9_);}
	.st28{fill:url(#SVGID_10_);}
	.st29{fill:url(#SVGID_11_);}
	.st30{fill:#999999;}
</style>
<g>
	<path class="st0" d="M390.4,381.4c-9.1,9.5-17.6,15.7-24.4,20.6c-79.7,57.2-174,40.5-194,36.4c-29.6-6-86.8-17.6-128.1-66.3
		c-62.6-73.6-52.8-189.5-4.3-266C48.4,92.1,95.3,14.5,190.6,2c57.7-7.5,124.9,7.7,173.6,48.5C466.4,136.1,459.1,309.1,390.4,381.4z"
		/>
	<g>
		<g>
			<path class="st1" d="M71.7,361.5c-0.1,0.9-1,1.6-1.9,1.5c-2.1-0.1-4.1-0.3-6.2-0.6c-1-0.1-1.7-1.1-1.6-2.1c0,0,0,0,0,0
				c0.2-1,1.1-1.7,2.1-1.5c1.9,0.3,3.9,0.5,5.9,0.6c1,0.1,1.8,0.9,1.7,1.9C71.7,361.4,71.7,361.5,71.7,361.5z M56,358.9
				c0,0.1,0,0.1,0,0.2c-0.3,1-1.3,1.5-2.3,1.3c-2-0.6-4-1.2-5.9-2c-0.9-0.4-1.4-1.4-1.1-2.4c0.4-0.9,1.4-1.4,2.4-1.1
				c1.8,0.7,3.7,1.3,5.6,1.9C55.6,357.1,56.2,358,56,358.9z M41.3,352.9c0,0.2-0.1,0.4-0.2,0.6c-0.5,0.9-1.6,1.2-2.5,0.7
				c-1.8-1-3.6-2.1-5.3-3.2c-0.8-0.6-1.1-1.7-0.5-2.5c0.6-0.8,1.7-1.1,2.5-0.5c1.6,1.1,3.3,2.1,5.1,3.1
				C41.1,351.4,41.4,352.1,41.3,352.9z M28.3,343.7c-0.1,0.3-0.2,0.7-0.4,0.9c-0.7,0.8-1.8,0.8-2.6,0.1c-1.5-1.4-3-2.8-4.5-4.3
				c-0.7-0.7-0.7-1.9,0.1-2.6c0.7-0.7,1.9-0.7,2.6,0.1c1.3,1.4,2.8,2.8,4.2,4.1C28.2,342.5,28.4,343.1,28.3,343.7z M17.7,331.9
				c-0.1,0.5-0.3,0.9-0.7,1.2c-0.8,0.6-2,0.4-2.5-0.4c-1.2-1.7-2.3-3.4-3.4-5.2c-0.5-0.9-0.2-2,0.6-2.5c0.9-0.5,2-0.2,2.5,0.6
				c1,1.7,2.1,3.4,3.2,5C17.7,330.9,17.8,331.4,17.7,331.9z M10,318c-0.1,0.6-0.5,1.1-1.1,1.4c-0.9,0.4-2,0-2.4-1
				c-0.8-1.9-1.5-3.9-2.2-5.8c-0.3-1,0.2-2,1.2-2.3c1-0.3,2,0.2,2.3,1.2c0.6,1.9,1.3,3.7,2,5.5C10,317.3,10.1,317.7,10,318z
				 M16.3,251.3c0,0.2-0.1,0.5-0.3,0.7c-1.1,1.6-2.1,3.3-3.1,5.1c-0.5,0.9-1.6,1.2-2.5,0.7c-0.9-0.5-1.2-1.6-0.7-2.5
				c1-1.8,2.1-3.6,3.2-5.3c0.6-0.8,1.7-1.1,2.5-0.5C16.2,249.9,16.5,250.6,16.3,251.3z M5.5,302.8c-0.1,0.7-0.7,1.4-1.5,1.5
				c-1,0.2-1.9-0.5-2.1-1.5c-0.4-2-0.6-4.1-0.8-6.2c-0.1-1,0.7-1.9,1.7-2c1-0.1,1.9,0.7,2,1.7c0.2,2,0.4,3.9,0.8,5.9
				C5.6,302.4,5.6,302.6,5.5,302.8z M9.1,265.5c0,0.1,0,0.2-0.1,0.4c-0.7,1.8-1.3,3.7-1.8,5.6c-0.3,1-1.3,1.5-2.3,1.3
				c-1-0.3-1.5-1.3-1.3-2.3c0.6-2,1.2-4,1.9-5.9c0.4-0.9,1.4-1.4,2.3-1.1C8.8,263.8,9.2,264.6,9.1,265.5z M4.6,286.9
				c-0.1,0.9-1,1.6-1.9,1.5c-1-0.1-1.8-0.9-1.7-1.9c0.1-2.1,0.3-4.1,0.6-6.2c0,0,0,0,0,0c0.2-1,1.1-1.7,2.1-1.5
				c1,0.1,1.7,1.1,1.6,2.1c-0.3,1.9-0.5,3.9-0.6,5.9C4.6,286.8,4.6,286.8,4.6,286.9z"/>
			<path class="st2" d="M24.4,241.3c-0.1,0.4-0.2,0.7-0.5,1c-0.7,0.7-1.3,1.4-1.9,2.1c-0.7,0.8-1.8,0.8-2.6,0.2
				c-0.8-0.7-0.8-1.8-0.2-2.6c0.7-0.7,1.3-1.5,2-2.2c0.7-0.7,1.9-0.7,2.6,0C24.3,240.2,24.5,240.8,24.4,241.3z"/>
		</g>
		<g class="st3">
			<path class="st4" d="M75.5,219.6c-0.1,0.9-0.9,1.5-1.8,1.5c-0.9,0-1.9,0-2.8,0.1c-1,0-1.9-0.7-1.9-1.7c0-1,0.7-1.9,1.7-1.9
				c1,0,2-0.1,3-0.1c1,0,1.8,0.8,1.8,1.8C75.6,219.4,75.5,219.5,75.5,219.6z"/>
			<path class="st4" d="M145.7,301.8c-0.1,0.8-0.3,1.7-0.4,2.5c-0.2,1-1.2,1.6-2.1,1.4c-1-0.2-1.6-1.2-1.4-2.1
				c0.4-1.9,0.7-3.8,0.9-5.7c0.1-1,1-1.7,2-1.6c1,0.1,1.7,1,1.6,2C146,299.5,145.9,300.7,145.7,301.8z M142.7,313.6
				c0,0.1,0,0.2-0.1,0.3c-0.7,1.9-1.4,3.8-2.2,5.7c-0.4,0.9-1.5,1.3-2.4,0.9c-0.9-0.4-1.3-1.5-0.9-2.4c0.8-1.8,1.5-3.6,2.1-5.4
				c0.3-1,1.4-1.5,2.3-1.1C142.4,311.9,142.9,312.8,142.7,313.6z M146.5,288.7c-0.1,0.8-0.9,1.5-1.8,1.5c-1,0-1.8-0.8-1.9-1.8
				c-0.1-1.9-0.2-3.9-0.4-5.8c-0.1-1,0.6-1.9,1.6-2c1-0.1,1.9,0.6,2,1.6c0.2,2,0.4,4.1,0.4,6.1C146.6,288.5,146.6,288.6,146.5,288.7
				z M136.1,327.8c0,0.2-0.1,0.5-0.2,0.7c-1.1,1.7-2.2,3.4-3.4,5.1c-0.6,0.8-1.7,1-2.5,0.4c-0.8-0.6-1-1.7-0.4-2.5
				c1.1-1.6,2.2-3.2,3.2-4.8c0.5-0.9,1.7-1.1,2.5-0.6C135.9,326.3,136.2,327.1,136.1,327.8z M144.4,273.2c-0.1,0.7-0.6,1.3-1.4,1.5
				c-1,0.2-2-0.3-2.2-1.3c-0.5-1.9-1-3.7-1.7-5.6c-0.3-1,0.2-2,1.1-2.3c1-0.3,2,0.2,2.3,1.1c0.7,1.9,1.3,3.9,1.8,5.9
				C144.4,272.7,144.4,273,144.4,273.2z M138.9,258.6c-0.1,0.6-0.4,1.1-1,1.3c-0.9,0.5-2,0.1-2.5-0.8c-0.9-1.7-1.8-3.4-2.8-5.1
				c-0.5-0.9-0.3-2,0.6-2.5c0.9-0.5,2-0.3,2.5,0.6c1.1,1.7,2.1,3.5,3,5.3C138.9,257.8,139,258.2,138.9,258.6z M130.4,245.5
				c-0.1,0.4-0.3,0.8-0.6,1.1c-0.8,0.6-1.9,0.5-2.6-0.3c-1.2-1.5-2.5-3-3.9-4.3c-0.7-0.7-0.7-1.9,0-2.6c0.7-0.7,1.9-0.7,2.6,0
				c1.4,1.5,2.8,3,4.1,4.6C130.3,244.5,130.5,245,130.4,245.5z M119.2,234.6c0,0.3-0.2,0.6-0.4,0.8c-0.6,0.8-1.8,0.9-2.6,0.3
				c-1.5-1.2-3.1-2.3-4.7-3.4c-0.8-0.6-1.1-1.7-0.5-2.5c0.6-0.8,1.7-1.1,2.5-0.5c1.7,1.1,3.4,2.3,5,3.6
				C119,233.3,119.3,233.9,119.2,234.6z M105.9,226.4c0,0.2-0.1,0.3-0.2,0.5c-0.4,0.9-1.5,1.3-2.4,0.9c-1.7-0.8-3.5-1.6-5.4-2.3
				c-0.9-0.4-1.4-1.4-1.1-2.3c0.4-0.9,1.4-1.4,2.3-1.1c1.9,0.7,3.8,1.5,5.6,2.4C105.6,224.8,106,225.6,105.9,226.4z M91.1,221.3
				c0,0,0,0.1,0,0.1c-0.2,1-1.2,1.6-2.2,1.4c-1.4-0.3-2.8-0.6-4.2-0.8c-0.5-0.1-1-0.2-1.5-0.2c-1-0.1-1.7-1.1-1.6-2.1
				c0.1-1,1.1-1.7,2.1-1.6c0.5,0.1,1.1,0.2,1.6,0.2c1.5,0.2,3,0.5,4.4,0.9C90.6,219.5,91.2,220.4,91.1,221.3z"/>
			<path class="st4" d="M126.4,340.2c-0.1,0.4-0.2,0.7-0.5,1c-0.7,0.7-1.4,1.4-2.1,2.1c-0.7,0.7-1.9,0.7-2.6-0.1
				c-0.7-0.7-0.7-1.9,0.1-2.6c0.7-0.7,1.4-1.3,2-2c0.7-0.7,1.9-0.7,2.6,0C126.4,339,126.5,339.6,126.4,340.2z"/>
		</g>
		<g>
			<g>
				<path class="st5" d="M105.9,334.4c0.3-0.2,0.5-0.5,0.4-0.9l-2-10.2c3.5-3.3,6.6-7.2,8.9-11.6l10.3-0.7c0.4,0,0.7-0.3,0.8-0.6
					l3.2-12c0.1-0.4,0-0.7-0.3-0.9l-8.6-5.8c0.2-5-0.5-9.9-1.9-14.5l6.8-7.8c0.2-0.3,0.3-0.7,0.1-1l-6.2-10.8
					c-0.2-0.3-0.5-0.5-0.9-0.4l-10.2,2c-3.3-3.5-7.2-6.6-11.6-8.9l-0.7-10.3c0-0.4-0.3-0.7-0.6-0.8l-12-3.2c-0.4-0.1-0.7,0-0.9,0.3
					l-5.8,8.6c-5-0.2-9.9,0.5-14.5,1.9l-7.8-6.8c-0.3-0.2-0.7-0.3-1-0.1L40.4,246c-0.3,0.2-0.5,0.5-0.4,0.9l2,10.2
					c-3.5,3.3-6.6,7.2-8.9,11.6l-10.3,0.7c-0.4,0-0.7,0.3-0.8,0.6l-3.2,12c-0.1,0.4,0,0.7,0.3,0.9l8.6,5.8c-0.2,5,0.5,9.9,1.9,14.5
					l-6.8,7.8c-0.2,0.3-0.3,0.7-0.1,1l6.2,10.8c0.2,0.3,0.5,0.5,0.9,0.4l10.2-2c3.3,3.5,7.2,6.6,11.6,8.9l0.7,10.3
					c0,0.4,0.3,0.7,0.6,0.8l12,3.2c0.4,0.1,0.7,0,0.9-0.3l5.8-8.6c5,0.2,9.9-0.5,14.5-1.9l7.8,6.8c0.3,0.2,0.7,0.3,1,0.1
					L105.9,334.4z"/>
			</g>
			<g>
				<path class="st0" d="M85.5,292.2c-1,6-6.2,10.6-12.5,10.5c-6.9-0.1-12.4-5.8-12.3-12.7c0-3.3,1.4-6.5,3.8-8.8
					c2.4-2.3,5.6-3.6,8.9-3.5c6.9,0.1,12.4,5.8,12.3,12.7C85.7,291,85.6,291.6,85.5,292.2z M63.7,288.6c-0.1,0.5-0.1,0.9-0.1,1.4
					c-0.1,5.3,4.2,9.6,9.5,9.7c5.3,0.1,9.6-4.2,9.7-9.5c0.1-5.3-4.2-9.6-9.5-9.7c-2.6,0-5,0.9-6.8,2.7C65,284.8,64,286.6,63.7,288.6
					z"/>
			</g>
			<path class="st0" d="M103.4,294.8c-0.2,1-0.4,2.1-0.7,3.1l0,0c-0.1,0.3-0.2,0.6-0.3,1c-0.5,1.6-1.1,3.1-1.8,4.6c0,0,0,0,0,0.1
				c0,0.1-0.1,0.1-0.1,0.2c-0.1,0.1-0.1,0.2-0.2,0.3c-0.1,0.3-0.5,0.4-0.8,0.4c-0.1,0-0.1,0-0.2-0.1c-0.4-0.2-0.5-0.6-0.3-1
				c0.9-1.8,1.7-3.8,2.2-5.8c2.7-10-0.2-20.3-6.8-27.4c-3.6-4-8.4-7-14-8.5c-1-0.3-2-0.5-2.9-0.6c-6.6-1.1-13.4,0.2-19.3,3.6
				c-6.8,3.9-11.6,10.2-13.6,17.8c-4.2,15.6,5.1,31.7,20.8,35.9c1,0.3,1.9,0.5,2.9,0.6c4.2,0.7,8.6,0.4,12.7-0.8c0.1,0,0.2,0,0.3,0
				c0.3,0,0.5,0.2,0.6,0.5c0.1,0.4-0.1,0.8-0.5,0.9c-4.3,1.2-8.9,1.5-13.3,0.8c-1-0.2-2-0.4-3.1-0.7c-16.4-4.4-26.2-21.3-21.8-37.6
				c2.1-7.9,7.2-14.6,14.3-18.7c6.2-3.6,13.3-4.9,20.2-3.8c1,0.2,2.1,0.4,3.1,0.7c7.9,2.1,14.6,7.2,18.7,14.3
				C103.2,280.8,104.5,287.8,103.4,294.8z"/>
		</g>
	</g>
	<g>
		<g class="st3">
			<path class="st2" d="M109.2,430.6c-0.1,0.5-0.5,0.9-1,0.9c-0.9,0.1-1.9,0.2-2.9,0.3c-0.6,0-1.2-0.4-1.2-1c0-0.6,0.4-1.2,1-1.2
				c0.9-0.1,1.8-0.1,2.7-0.3c0.6-0.1,1.2,0.4,1.3,1C109.3,430.4,109.3,430.5,109.2,430.6z"/>
			<path class="st2" d="M100.6,430.9c-0.1,0.6-0.6,1-1.2,0.9c-1.6-0.1-3.3-0.3-4.9-0.5c-0.3-0.1-0.7-0.1-1-0.2
				c-0.6-0.1-1-0.7-0.9-1.3c0.1-0.6,0.7-1,1.3-0.9c0.3,0.1,0.7,0.1,1,0.2c1.5,0.2,3.1,0.4,4.7,0.5c0.6,0,1.1,0.6,1.1,1.2
				C100.6,430.9,100.6,430.9,100.6,430.9z M89.1,428.8c0,0.1,0,0.1,0,0.2c-0.2,0.6-0.8,0.9-1.4,0.7c-1.9-0.6-3.8-1.3-5.6-2.1
				c-0.6-0.3-0.8-0.9-0.6-1.5c0.3-0.6,0.9-0.8,1.5-0.6c1.7,0.8,3.5,1.5,5.3,2C88.8,427.7,89.2,428.3,89.1,428.8z M78.4,424
				c0,0.1-0.1,0.3-0.2,0.4c-0.3,0.5-1,0.7-1.5,0.4c-1.7-1-3.4-2.2-4.9-3.4c-0.5-0.4-0.6-1.1-0.2-1.6c0.4-0.5,1.1-0.6,1.6-0.2
				c1.5,1.2,3.1,2.3,4.7,3.3C78.3,423.1,78.5,423.6,78.4,424z M69.3,416.7c0,0.2-0.1,0.5-0.3,0.6c-0.4,0.4-1.2,0.4-1.6,0
				c-1.4-1.4-2.7-3-3.9-4.5c-0.4-0.5-0.3-1.2,0.2-1.6c0.5-0.4,1.2-0.3,1.6,0.2c1.1,1.5,2.4,3,3.7,4.3
				C69.2,416,69.3,416.3,69.3,416.7z M62.2,407.4c-0.1,0.3-0.2,0.6-0.5,0.8c-0.5,0.3-1.2,0.1-1.5-0.4c-1-1.7-1.9-3.5-2.7-5.4
				c-0.2-0.6,0-1.2,0.6-1.5c0.6-0.2,1.2,0,1.5,0.6c0.7,1.7,1.6,3.5,2.6,5.1C62.2,406.9,62.2,407.1,62.2,407.4z M57.6,396.6
				c-0.1,0.4-0.4,0.8-0.8,0.9c-0.6,0.2-1.2-0.2-1.4-0.8c-0.6-1.9-1-3.9-1.3-5.8c-0.1-0.6,0.3-1.2,0.9-1.3c0.6-0.1,1.2,0.3,1.3,0.9
				c0.3,1.9,0.7,3.8,1.2,5.6C57.6,396.3,57.6,396.5,57.6,396.6z M55.8,385.1c-0.1,0.5-0.5,0.9-1.1,0.9c-0.6,0-1.1-0.5-1.2-1.1
				c-0.1-2,0-4,0.2-6c0.1-0.6,0.6-1.1,1.2-1c0.6,0.1,1.1,0.6,1,1.2c-0.2,1.9-0.2,3.8-0.2,5.7C55.8,384.9,55.8,385,55.8,385.1z
				 M58.4,367.8c0,0.1,0,0.1,0,0.2c-0.5,1.6-1,3.2-1.4,4.8c-0.1,0.2-0.1,0.5-0.2,0.7c-0.1,0.6-0.7,1-1.3,0.9c-0.6-0.1-1-0.7-0.9-1.3
				c0.1-0.3,0.1-0.5,0.2-0.8c0.4-1.7,0.9-3.4,1.4-5c0.2-0.6,0.8-0.9,1.4-0.7C58.2,366.7,58.5,367.3,58.4,367.8z"/>
		</g>
		<g class="st3">
			<path class="st2" d="M150.3,390.4c-0.1,0.6-0.7,1-1.3,0.9c-0.6-0.1-1-0.7-0.9-1.3c0.3-1.9,0.4-3.7,0.5-5.6c0-0.6,0.5-1.1,1.2-1.1
				c0.6,0,1.1,0.5,1.1,1.2C150.8,386.4,150.6,388.4,150.3,390.4C150.3,390.4,150.3,390.4,150.3,390.4z M149.1,396c0,0,0,0.1,0,0.1
				c-0.5,1.9-1.2,3.8-1.9,5.6c-0.2,0.6-0.9,0.9-1.5,0.6c-0.6-0.2-0.9-0.9-0.6-1.5c0.7-1.7,1.3-3.5,1.8-5.3c0.2-0.6,0.8-1,1.4-0.8
				C148.9,394.9,149.2,395.5,149.1,396z M150.6,378.9c-0.1,0.5-0.5,0.9-1,0.9c-0.6,0.1-1.2-0.4-1.2-1c-0.2-1.9-0.5-3.7-0.9-5.6
				c-0.1-0.6,0.2-1.2,0.9-1.3c0.6-0.1,1.2,0.2,1.3,0.9c0.4,1.9,0.7,3.9,0.9,5.8C150.6,378.7,150.6,378.8,150.6,378.9z M144.8,406.7
				c0,0.1-0.1,0.3-0.1,0.4c-1,1.7-2,3.4-3.2,5c-0.4,0.5-1.1,0.6-1.6,0.2c-0.5-0.4-0.6-1.1-0.2-1.6c1.1-1.5,2.1-3.1,3-4.7
				c0.3-0.5,1-0.7,1.5-0.4C144.6,405.7,144.8,406.2,144.8,406.7z M148.1,367.7c-0.1,0.4-0.3,0.7-0.7,0.9c-0.6,0.2-1.2-0.1-1.4-0.7
				c-0.6-1.8-1.4-3.5-2.2-5.2c-0.3-0.6,0-1.2,0.5-1.5c0.6-0.3,1.2,0,1.5,0.5c0.9,1.8,1.6,3.6,2.3,5.4
				C148.1,367.3,148.1,367.5,148.1,367.7z M143,357.4c0,0.3-0.2,0.6-0.5,0.8c-0.5,0.3-1.2,0.2-1.6-0.3c-1-1.6-2.2-3.1-3.4-4.5
				c-0.4-0.5-0.3-1.2,0.1-1.6c0.5-0.4,1.2-0.3,1.6,0.1c1.3,1.5,2.5,3.1,3.5,4.7C143,356.8,143,357.1,143,357.4z M135.5,348.6
				c0,0.2-0.1,0.4-0.3,0.6c-0.4,0.5-1.1,0.5-1.6,0.1c-1.4-1.3-2.8-2.5-4.4-3.6c-0.5-0.4-0.6-1.1-0.3-1.6c0.4-0.5,1.1-0.6,1.6-0.3
				c1.6,1.1,3.1,2.4,4.6,3.7C135.5,347.8,135.6,348.2,135.5,348.6z"/>
			<path class="st2" d="M137.9,416c0,0.2-0.1,0.4-0.3,0.6c-0.7,0.7-1.3,1.4-2,2c-0.5,0.4-1.2,0.4-1.6,0c-0.4-0.5-0.4-1.2,0-1.6
				c0.7-0.6,1.3-1.3,1.9-1.9c0.4-0.5,1.1-0.5,1.6,0C137.9,415.3,138,415.6,137.9,416z"/>
		</g>
		<g>
			<g>
				<path class="st5" d="M123.7,412.8c0.2-0.1,0.3-0.4,0.3-0.6l-1.3-6.8c2.4-2.2,4.4-4.8,6-7.8l6.9-0.5c0.2,0,0.4-0.2,0.5-0.4l2.1-8
					c0.1-0.2,0-0.5-0.2-0.6l-5.8-3.9c0.1-3.3-0.4-6.6-1.3-9.7l4.5-5.2c0.2-0.2,0.2-0.4,0.1-0.7l-4.2-7.2c-0.1-0.2-0.4-0.3-0.6-0.3
					l-6.8,1.3c-2.2-2.4-4.8-4.4-7.8-6l-0.5-6.9c0-0.2-0.2-0.4-0.4-0.5l-8-2.1c-0.2-0.1-0.5,0-0.6,0.2l-3.9,5.8
					c-3.3-0.1-6.6,0.4-9.7,1.3l-5.2-4.5c-0.2-0.2-0.4-0.2-0.7-0.1l-7.2,4.2c-0.2,0.1-0.3,0.4-0.3,0.6l1.3,6.8
					c-2.4,2.2-4.4,4.8-6,7.8l-6.9,0.5c-0.2,0-0.4,0.2-0.5,0.4l-2.1,8c-0.1,0.2,0,0.5,0.2,0.6l5.8,3.9c-0.1,3.3,0.4,6.6,1.3,9.7
					l-4.5,5.2c-0.2,0.2-0.2,0.4-0.1,0.7l4.2,7.2c0.1,0.2,0.4,0.3,0.6,0.3l6.8-1.3c2.2,2.4,4.8,4.4,7.8,6l0.5,6.9
					c0,0.2,0.2,0.4,0.4,0.5l8,2.1c0.2,0.1,0.5,0,0.6-0.2l3.9-5.8c3.3,0.1,6.6-0.4,9.7-1.3l5.2,4.5c0.2,0.2,0.4,0.2,0.7,0.1
					L123.7,412.8z"/>
			</g>
			<g>
				<path class="st0" d="M110.2,384.6c-0.3,1.8-1.1,3.4-2.5,4.7c-1.6,1.6-3.8,2.4-6.1,2.4c-4.7-0.1-8.5-3.9-8.4-8.6
					c0.1-4.7,3.9-8.5,8.6-8.4c2.3,0,4.4,0.9,6,2.6c1.6,1.6,2.4,3.8,2.4,6.1C110.3,383.7,110.3,384.2,110.2,384.6z M95.6,382.2
					c0,0.3-0.1,0.6-0.1,0.9c0,3.5,2.7,6.3,6.2,6.4c1.7,0,3.3-0.6,4.5-1.8c1.2-1.2,1.9-2.7,1.9-4.4l0,0c0-1.7-0.6-3.3-1.8-4.5
					c-1.2-1.2-2.7-1.9-4.4-1.9C98.7,376.9,96.1,379.2,95.6,382.2z"/>
			</g>
			<path class="st0" d="M122.7,386.4c-0.1,0.7-0.3,1.4-0.5,2.1c-0.4,1.4-0.9,2.8-1.5,4c0,0.1-0.1,0.1-0.1,0.2
				c-0.2,0.4-0.7,0.7-1.2,0.6c-0.1,0-0.2-0.1-0.3-0.1c-0.6-0.3-0.8-1-0.5-1.5c0.6-1.2,1.1-2.5,1.4-3.8l0,0c0-0.1,0-0.1,0.1-0.2
				c0.8-3.1,0.8-6.3,0-9.3c-0.4-1.6-1.1-3.2-1.9-4.7c0,0,0,0,0,0c0,0,0-0.1-0.1-0.1c-2.5-4.4-6.6-7.5-11.5-8.8
				c-0.6-0.2-1.3-0.3-1.9-0.4c-4.3-0.7-8.7,0.1-12.5,2.3c-4.4,2.5-7.5,6.6-8.8,11.5c-1.3,4.9-0.6,10,1.9,14.4
				c2.5,4.4,6.6,7.5,11.5,8.8c0.6,0.2,1.3,0.3,1.9,0.4c2.7,0.4,5.5,0.3,8.2-0.5c0.2,0,0.3-0.1,0.5,0c0.4,0.1,0.8,0.4,0.9,0.8
				c0.2,0.6-0.2,1.2-0.8,1.4c-3,0.9-6.1,1-9.2,0.5c-0.7-0.1-1.4-0.3-2.1-0.4c-5.5-1.5-10.1-5-12.9-9.9c-2.8-4.9-3.6-10.6-2.1-16.1
				c1.5-5.5,5-10.1,9.9-12.9c4.3-2.5,9.2-3.4,14-2.6c0.7,0.1,1.4,0.3,2.1,0.5C117.8,365.4,124.4,375.8,122.7,386.4z"/>
		</g>
	</g>
	<g>
		<g>
			<path class="st6" d="M153,22c-1.5,68.7-6.2,305.7-3.9,389.7c0.2,8.9,6.3,16,13.9,16.3c37.6,1.4,175.5,5.1,237,2.1
				c12.8-0.6,23-12.8,23.3-27.8c1.3-72.1,4.1-274.9-2.6-367.8c-0.8-11.1-8.3-20-17.8-21.1c-41-4.8-179.4-16.5-232.6-12.5
				C160.7,1.6,153.2,10.8,153,22z"/>
			<path class="st7" d="M169.7,43.1c-2,55.5-8.4,239.9-6.4,308.1c0.3,10,7,18,15.5,18.6c35.1,2.4,154.6,7.7,206.1,2.9
				c9.3-0.9,16.5-9.6,17-20.5c2.6-56.6,10.1-228.3,8.1-295.8c-0.3-10.8-7.4-19.5-16.6-20.5c-37.9-4-165-13.5-208.7-10.7
				C176.6,25.8,170.1,33.5,169.7,43.1z"/>
			<path class="st8" d="M179.6,54c-1.9,51.6-7.7,223.2-5.8,286.6c0.3,9.3,6.4,16.8,14.2,17.3c32.1,2.2,141.4,7.2,188.5,2.7
				c8.5-0.8,15.1-9,15.6-19c2.4-52.6,9.2-212.4,7.4-275.2c-0.3-10-6.8-18.2-15.2-19.1c-34.7-3.7-150.9-12.5-190.9-9.9
				C185.8,37.9,179.9,45.1,179.6,54z"/>
			<path class="st0" d="M245.9,12.8L245.9,12.8c0,2.1,1.4,3.8,3.2,4c8.9,0.5,33.9,2.1,45.1,2.8c2.2,0.1,3.9-2.2,3.5-4.7l-0.1-0.4
				c-0.3-1.7-1.5-3-3-3.2c-7.6-0.8-30.4-3.1-45.5-2.4C247.3,9,245.9,10.7,245.9,12.8z"/>
		</g>
		<g>
			<path class="st9" d="M331.4,308.3h-87.6c-7,0-12.7-5.7-12.7-12.7v-8c0-7,5.7-12.7,12.7-12.7h87.6c7,0,12.7,5.7,12.7,12.7v8
				C344.2,302.6,338.5,308.3,331.4,308.3z"/>
			<path class="st9" d="M336.3,333.6H240c-4.6,0-8.4-3.8-8.4-8.4v0c0-4.6,3.8-8.4,8.4-8.4h96.3c4.6,0,8.4,3.8,8.4,8.4v0
				C344.7,329.9,341,333.6,336.3,333.6z"/>
		</g>
	</g>
	<g>
		
			<ellipse transform="matrix(0.579 -0.8153 0.8153 0.579 -54.1217 312.6885)" class="st10" cx="275.7" cy="208.8" rx="36.3" ry="36.3"/>
		
			<ellipse transform="matrix(0.942 -0.3357 0.3357 0.942 -54.0817 104.6917)" class="st11" cx="275.7" cy="208.8" rx="35.1" ry="35.1"/>
		<path class="st12" d="M246.5,196c-0.2,0-0.4,0-0.5-0.1c-0.6-0.3-0.8-1-0.6-1.6c5.5-11.5,16.8-18.8,29.6-19.1c2,0,4.1,0.1,6.1,0.4
			c0.6,0.1,1.1,0.7,1,1.3c-0.1,0.6-0.7,1.1-1.3,1c-1.9-0.3-3.7-0.4-5.6-0.4c-11.8,0.3-22.4,7.1-27.5,17.8
			C247.4,195.7,247,196,246.5,196z"/>
		
			<ellipse transform="matrix(0.6513 -0.7588 0.7588 0.6513 -62.5557 282.8665)" class="st13" cx="276.5" cy="209.5" rx="29.7" ry="29.7"/>
		<g>
			<path class="st10" d="M274.1,231.6l-0.1-3.2c-3.4-0.1-6.7-0.8-9.1-1.8c-0.9-0.4-1.3-1.3-1.1-2.2l0.8-3c0.3-1.1,1.5-1.7,2.5-1.3
				c2.4,0.9,5.3,1.6,8.4,1.6c3.2-0.1,5.6-1.2,5.6-3.5c0-2-1.9-3.2-6.5-4.3c-6.5-1.6-11.1-4.3-11.3-10c-0.1-5.1,3.5-9.1,10-10.3
				l-0.1-3.2c0-1,0.8-1.9,1.8-1.9l1.9,0c1,0,1.9,0.8,1.9,1.8l0.1,2.9c3.1,0.1,5.4,0.5,7.2,1.1c0.9,0.3,1.5,1.3,1.2,2.2l-0.7,2.8
				c-0.3,1.1-1.4,1.7-2.4,1.3c-1.7-0.6-4-1.2-7.1-1.1c-3.8,0.1-4.9,1.7-4.9,3.1c0,1.8,2.4,2.9,7.4,4.3c7.2,2,10.2,4.9,10.3,10.2
				c0.1,4.9-3.4,9.4-10.4,10.6l0.1,3.6c0,1-0.8,1.9-1.8,1.9l-1.9,0C275,233.5,274.1,232.7,274.1,231.6z"/>
		</g>
	</g>
	<g>
		
			<ellipse transform="matrix(5.803583e-02 -0.9983 0.9983 5.803583e-02 138.5336 474.5325)" class="st10" cx="320.7" cy="163.9" rx="46.3" ry="46.3"/>
		
			<ellipse transform="matrix(0.3232 -0.9463 0.9463 0.3232 61.9966 414.4013)" class="st11" cx="320.7" cy="163.9" rx="44.8" ry="44.8"/>
		<path class="st12" d="M283.4,147.2c-0.2,0-0.3,0-0.5-0.1c-0.6-0.3-0.8-1-0.5-1.5c7-14.6,21.3-23.8,37.4-24.2
			c2.6-0.1,5.2,0.1,7.7,0.5c0.6,0.1,1,0.7,0.9,1.3c-0.1,0.6-0.7,1.1-1.3,0.9c-2.4-0.4-4.8-0.5-7.3-0.5c-15.3,0.3-28.8,9.1-35.4,22.9
			C284.3,146.9,283.9,147.2,283.4,147.2z"/>
		
			<ellipse transform="matrix(0.9736 -0.2284 0.2284 0.9736 -29.141 77.8472)" class="st13" cx="321.7" cy="164.8" rx="37.9" ry="37.9"/>
		<g>
			<path class="st10" d="M318.6,193.1l-0.1-4.1c-4.3-0.1-8.6-1-11.6-2.3c-1.1-0.4-1.7-1.6-1.4-2.8l1-3.9c0.4-1.4,1.9-2.2,3.2-1.6
				c3,1.2,6.7,2.1,10.7,2c4.1-0.1,7.2-1.6,7.1-4.4c-0.1-2.6-2.5-4.1-8.3-5.5c-8.3-2.1-14.2-5.5-14.4-12.7
				c-0.1-6.5,4.5-11.6,12.8-13.1l-0.1-4.1c0-1.3,1-2.4,2.3-2.5l2.4-0.1c1.3,0,2.4,1,2.5,2.4l0.1,3.7c4,0.1,6.9,0.7,9.2,1.4
				c1.2,0.4,1.9,1.6,1.6,2.9l-0.9,3.6c-0.3,1.4-1.8,2.2-3.1,1.7c-2.1-0.8-5.1-1.5-9-1.4c-4.9,0.1-6.3,2.2-6.2,4c0,2.2,3,3.7,9.5,5.6
				c9.2,2.5,13,6.2,13.2,13.1c0.1,6.2-4.4,12-13.3,13.5l0.1,4.6c0,1.3-1,2.4-2.3,2.5l-2.4,0.1C319.7,195.4,318.6,194.4,318.6,193.1z
				"/>
		</g>
	</g>
	<g>
		
			<ellipse transform="matrix(0.4409 -0.8976 0.8976 0.4409 124.9837 399.9924)" class="st10" cx="383.5" cy="99.7" rx="61.7" ry="61.7"/>
		
			<ellipse transform="matrix(0.4262 -0.9046 0.9046 0.4262 129.9117 404.1658)" class="st11" cx="383.5" cy="99.7" rx="59.6" ry="59.6"/>
		<path class="st12" d="M333.9,77.1c-0.2,0-0.3,0-0.5-0.1c-0.6-0.3-0.8-0.9-0.5-1.5c9.2-19.2,28.2-31.5,49.5-31.9
			c3.4-0.1,6.8,0.2,10.1,0.7c0.6,0.1,1,0.7,0.9,1.3c-0.1,0.6-0.7,1-1.3,0.9c-3.2-0.5-6.5-0.7-9.7-0.7c-20.5,0.4-38.7,12.2-47.5,30.7
			C334.7,76.8,334.3,77.1,333.9,77.1z"/>
		
			<ellipse transform="matrix(0.2413 -0.9705 0.9705 0.2413 194.0421 450.0922)" class="st13" cx="384.9" cy="100.9" rx="50.5" ry="50.5"/>
		<g>
			<path class="st10" d="M380.7,138.6l-0.1-5.5c-5.7-0.1-11.4-1.3-15.5-3c-1.4-0.6-2.2-2.2-1.8-3.7l1.3-5.1c0.5-1.9,2.5-2.9,4.3-2.2
				c4,1.6,9,2.8,14.3,2.7c5.5-0.1,9.6-2.1,9.5-5.9c-0.1-3.5-3.3-5.4-11-7.3c-11-2.8-18.9-7.3-19.1-17c-0.2-8.7,6-15.5,17-17.5
				l-0.1-5.5c0-1.8,1.4-3.2,3.1-3.3l3.2-0.1c1.8,0,3.2,1.4,3.3,3.1l0.1,4.9c5.3,0.1,9.2,0.9,12.3,1.9c1.6,0.5,2.5,2.2,2.1,3.8
				l-1.2,4.8c-0.5,1.8-2.4,2.9-4.2,2.2c-2.8-1-6.8-2-12-1.9c-6.5,0.1-8.3,2.9-8.3,5.3c0.1,3,4,5,12.6,7.4
				c12.2,3.4,17.4,8.3,17.6,17.4c0.2,8.3-5.8,15.9-17.7,18l0.1,6.1c0,1.8-1.4,3.2-3.1,3.3l-3.2,0.1
				C382.2,141.7,380.8,140.3,380.7,138.6z"/>
		</g>
	</g>
	<g>
		<path class="st14" d="M241.7,109.9H30.4c-1.8,0-3.3-1.5-3.3-3.3V3.5c0-1.8,1.5-3.3,3.3-3.3h211.3c1.8,0,3.3,1.5,3.3,3.3v103.1
			C245,108.4,243.5,109.9,241.7,109.9z"/>
		<path class="st11" d="M217.5,108H52.6c-11.5,0-20.9-9.3-20.9-20.9V34.6c0-11.5,9.3-20.9,20.9-20.9h164.9
			c11.5,0,20.9,9.3,20.9,20.9v52.5C238.4,98.6,229,108,217.5,108z"/>
		<g>
			<g class="st15">
				<rect x="38.5" y="31.4" class="st16" width="12.5" height="72.1"/>
			</g>
			<g class="st15">
				<rect x="55.3" y="31.4" class="st16" width="12.5" height="72.1"/>
			</g>
			<g class="st15">
				<rect x="71.7" y="31.4" class="st16" width="12.5" height="72.1"/>
			</g>
			<g class="st15">
				<rect x="88.4" y="31.4" class="st16" width="12.5" height="72.1"/>
			</g>
			<g class="st15">
				<rect x="104.4" y="31.4" class="st16" width="12.5" height="72.1"/>
			</g>
			<g class="st15">
				<rect x="121.1" y="31.4" class="st16" width="12.5" height="72.1"/>
			</g>
			<g class="st15">
				<rect x="137.6" y="31.4" class="st16" width="12.5" height="72.1"/>
			</g>
			<g class="st15">
				<rect x="154.3" y="31.4" class="st16" width="12.5" height="72.1"/>
			</g>
			<g class="st15">
				<rect x="171" y="31.4" class="st16" width="12.5" height="72.1"/>
			</g>
			<g class="st15">
				<rect x="187.8" y="31.4" class="st16" width="12.5" height="72.1"/>
			</g>
			<g class="st15">
				<rect x="204.2" y="31.4" class="st16" width="12.5" height="72.1"/>
			</g>
			<g class="st15">
				<rect x="221" y="31.4" class="st16" width="12.5" height="72.1"/>
			</g>
		</g>
		<path class="st14" d="M245.1,23.1V6.9c0-3.8-3.1-6.9-6.9-6.9H34c-3.8,0-6.8,3.1-6.8,6.9v16.2H245.1z"/>
		<g>
			<g>
				<rect x="38.6" y="68.7" class="st10" width="12.5" height="34.8"/>
			</g>
			<g>
				<rect x="55.3" y="58" class="st10" width="12.5" height="45.4"/>
			</g>
			<g>
				<rect x="71.8" y="77.2" class="st10" width="12.5" height="26.3"/>
			</g>
			<g>
				<rect x="88.5" y="48.5" class="st10" width="12.5" height="55"/>
			</g>
			<g>
				<rect x="104.4" y="39.3" class="st10" width="12.5" height="64.2"/>
			</g>
			<g>
				<rect x="121.2" y="83.9" class="st10" width="12.5" height="19.6"/>
			</g>
			<g>
				<rect x="137.6" y="64.4" class="st10" width="12.5" height="39.1"/>
			</g>
			<g>
				<rect x="154.4" y="58" class="st10" width="12.5" height="45.4"/>
			</g>
			<g>
				<rect x="171.1" y="67.4" class="st10" width="12.5" height="36"/>
			</g>
			<g>
				<rect x="187.9" y="43.6" class="st10" width="12.5" height="59.9"/>
			</g>
			<g>
				<rect x="204.3" y="48.5" class="st10" width="12.5" height="55"/>
			</g>
			<g>
				<rect x="221.1" y="55.4" class="st10" width="12.5" height="48.1"/>
			</g>
		</g>
	</g>
	<g>
		<path class="st17" d="M141.5,429.6c-6.2,0.5-17,1.4-25.5,1.8c-5.1,0.2-8.1-0.3-9.7-1c0,0.2,0,0.4,0,0.5c0,0.9,0.8,1.6,1.7,1.7
			c16.1,0.9,28.8,0.3,33.4,0c0.9-0.1,1.5-1.1,1-1.9C142.1,430.3,141.8,429.9,141.5,429.6z"/>
		<path class="st6" d="M116,431.3c8.5-0.4,19.3-1.2,25.5-1.8C135.4,422.1,116,417,116,417h-5.5c-3.8,5.4-4.3,10.6-4.3,13.4
			C108,431.1,110.9,431.6,116,431.3z"/>
		
			<linearGradient id="SVGID_1_" gradientUnits="userSpaceOnUse" x1="-4356.3179" y1="414.2751" x2="-4346.1011" y2="414.2751" gradientTransform="matrix(1 0 0 1 4465.9375 0)">
			<stop  offset="0" style="stop-color:#FEBBBA"/>
			<stop  offset="1" style="stop-color:#FF928E"/>
		</linearGradient>
		<path class="st18" d="M109.6,408.1l0.5,10.1c0.1,1.1,0.9,2,2,2.2c1.1,0.2,2.6,0.2,4.1-0.3c1-0.3,1.7-1.1,1.8-2.1l1.8-9.9H109.6z"
			/>
		<g>
			<path class="st17" d="M46.1,441.3c-2.7-0.5-3.9-2.3-4.4-4.2c0,0,0,0,0,0.1c-0.4,2,0.5,4.2,2.4,5.2c2.2,1.2,4.6,1.4,6.5,1.3
				c2-0.1,3.9-1.2,4.9-2.9l0,0C53.4,441.9,50.6,442.1,46.1,441.3z"/>
			<path class="st6" d="M58.8,411.2h-4.5c-6.9-0.2-11.2,18.6-12.6,25.8c0.5,1.9,1.7,3.7,4.4,4.2c4.5,0.8,7.3,0.7,9.4-0.6
				c3.7-6.3,5.6-15.6,6.4-21C62.9,413.5,58.8,411.2,58.8,411.2z"/>
		</g>
		
			<linearGradient id="SVGID_2_" gradientUnits="userSpaceOnUse" x1="-4413.6973" y1="408.9476" x2="-4401.4878" y2="408.9476" gradientTransform="matrix(1 0 0 1 4465.9375 0)">
			<stop  offset="0" style="stop-color:#FEBBBA"/>
			<stop  offset="1" style="stop-color:#FF928E"/>
		</linearGradient>
		<path class="st19" d="M54.8,401.8l-2.5,10c-0.3,1.2,0.3,2.5,1.4,3.1c1.4,0.7,3.4,1.5,5.2,1.3c0.9-0.1,1.6-0.7,1.8-1.5l3.7-10.5
			L54.8,401.8z"/>
		<path class="st6" d="M143,270.4c0,0-22.4,140.1-22,140.9c0,0-6.2,2.8-12.9,0.4c0,0,2-74.9,6.8-103.6c0,0-38.2,66.9-50.4,100.3
			c0,0-6.3-0.8-11.6-4.2c0,0,41.2-120.5,52.2-136.5L143,270.4z"/>
		<path class="st20" d="M115.7,307.5c-0.2,0-0.3,0-0.5-0.1c-0.4-0.3-0.5-0.8-0.3-1.2l8.4-13.4c0.1-0.2,0.3-0.4,0.6-0.4l6.2-1.2
			c0.5-0.1,1,0.2,1.1,0.7c0.1,0.5-0.2,1-0.7,1.1l-5.8,1.2l-8.2,13C116.3,307.4,116,307.5,115.7,307.5z"/>
		<linearGradient id="SVGID_3_" gradientUnits="userSpaceOnUse" x1="186.4853" y1="205.6132" x2="230.7639" y2="133.9622">
			<stop  offset="0" style="stop-color:#FEBBBA"/>
			<stop  offset="1" style="stop-color:#FF928E"/>
		</linearGradient>
		<path class="st21" d="M245.9,133.2c0,0-15.1,3.3-24.3,7.6c-1.8,0.8-3.3,2.3-4.1,4.1c-2.8,6-11,21.1-26.9,28.3
			c2.3,3.1,6,9.4,7.6,20.1c9.6-7.1,17.9-19.1,21.8-38.6c0,0,3,1.6,6.8-0.2c2-1,4.3-2.3,6-3.4c1.7-1.1,3-2.7,3.5-4.7
			c0.7-2.6,0.3-4.9,0.3-7.3l7.8-2.4C244.3,136.8,246.7,135.9,245.9,133.2z"/>
		<linearGradient id="SVGID_4_" gradientUnits="userSpaceOnUse" x1="207.6818" y1="54.8201" x2="190.7755" y2="87.0227">
			<stop  offset="0" style="stop-color:#FF928E"/>
			<stop  offset="1" style="stop-color:#FE7062"/>
		</linearGradient>
		<path class="st22" d="M198.1,193.4c-1.6-10.7-5.3-17-7.6-20.1c-9.9,4.5-22.8,5.9-39.2,0.2c-1.5-0.5-3.1-0.8-4.7-0.9
			c-8.7-0.5-37.6-1.4-61.4,6.4c-5,1.7-9.1,5.4-11.2,10.2c-6.4,14.8-16.9,48.5,12.1,65.5c2.2-5.5,4.8-10,7-13.2
			c-4.7-7.9-6.1-18.6,2.2-32.6c6,16.3,8.9,40.1,9.5,50.6c0.2,3.5-0.4,6.9-1.8,10.1l-0.1,0.3c-0.3,0.7,0.1,1.5,0.8,1.6
			c16.3,3.7,33.3,2.7,38.4,2.3c0.9-0.1,1.7-0.7,1.9-1.6c7.9-33.4,8-56.2,6-70.7C157.4,203.3,180.1,206.8,198.1,193.4z"/>
		<linearGradient id="SVGID_5_" gradientUnits="userSpaceOnUse" x1="229.618" y1="23.2073" x2="68.597" y2="351.6902">
			<stop  offset="0" style="stop-color:#E1473D"/>
			<stop  offset="1" style="stop-color:#E9605A"/>
		</linearGradient>
		<path class="st23" d="M150,202.7c-0.4,0-0.8-0.3-0.9-0.8c-1.9-14.1-5.6-20.1-5.7-20.2c-0.3-0.4-0.1-1,0.3-1.2
			c0.4-0.3,1-0.1,1.2,0.3c0.2,0.3,4,6.5,5.9,20.9c0.1,0.5-0.3,0.9-0.8,1C150.1,202.7,150,202.7,150,202.7z"/>
		
			<linearGradient id="SVGID_6_" gradientUnits="userSpaceOnUse" x1="-4353.5459" y1="192.4254" x2="-4348.2559" y2="164.6512" gradientTransform="matrix(1 0 0 1 4465.9375 0)">
			<stop  offset="0" style="stop-color:#FEBBBA"/>
			<stop  offset="1" style="stop-color:#FF928E"/>
		</linearGradient>
		<path class="st24" d="M109.7,153.1c0,0-1.7,17.5-3.1,22.6c-0.2,0.8,0.1,1.6,0.8,2c2.5,1.4,8.4,3.7,16.5-0.3c1.3-0.6,2.1-2,2-3.5
			l-0.7-16.9L109.7,153.1z"/>
		<g>
			
				<linearGradient id="SVGID_7_" gradientUnits="userSpaceOnUse" x1="-4339.231" y1="141.4686" x2="-4369.4155" y2="164.5644" gradientTransform="matrix(1 0 0 1 4465.9375 0)">
				<stop  offset="0" style="stop-color:#FEBBBA"/>
				<stop  offset="1" style="stop-color:#FF928E"/>
			</linearGradient>
			<path class="st25" d="M125.6,130.8c0,0,5.3,12.1,5.6,18.5c0.4,6.4,1.7,10.5-5.6,11.8c-7.4,1.3-13.6-2.4-16.9-8.7
				c0,0-5.3-9.8-4.1-13.8C105.8,134.6,125.6,130.8,125.6,130.8z"/>
			<path class="st6" d="M111.2,147.8l0.4-0.2c0.5-0.2,0.8-0.9,0.5-1.4c-1-2-3.1-6.6-0.4-7.7c3.4-1.4,16.7-4.1,19.6-8.8
				c2.8-4.6,0.3-10.4-3.4-12.1c-0.2-0.1-0.5,0-0.7,0.2l-0.3,0.6c-0.2,0.4-0.8,0.3-0.9-0.1v0c-0.1-0.4-0.7-0.5-0.9-0.1
				c-0.9,1.4-3.3,3.7-9.7,4.9c-9.1,1.7-15.1,5.4-15.2,11.6c0,0.4-0.4,0.6-0.8,0.4c-0.7-0.4-1.7-0.6-3.2,0.6c-2.5,2.1-1.5,7.5,4,12
				c0.3,0.2,0.3,0.6,0,0.8c-1,0.6-2.5,2.2,1.4,4.2c4,2.1,6.9,1.9,8.1,1.8c0.3,0,0.5-0.3,0.4-0.6l-1.2-5.5c-0.1-0.3,0.2-0.6,0.5-0.6
				H111.2z"/>
			
				<linearGradient id="SVGID_8_" gradientUnits="userSpaceOnUse" x1="-4342.9751" y1="136.5754" x2="-4373.1597" y2="159.6712" gradientTransform="matrix(1 0 0 1 4465.9375 0)">
				<stop  offset="0" style="stop-color:#FEBBBA"/>
				<stop  offset="1" style="stop-color:#FF928E"/>
			</linearGradient>
			<path class="st26" d="M111.4,148.9c0,0-2-7.7-5.5-5.6c-3.5,2.2,1.8,8.7,4.6,9L111.4,148.9z"/>
		</g>
		<linearGradient id="SVGID_9_" gradientUnits="userSpaceOnUse" x1="262.8186" y1="42.0845" x2="245.1072" y2="93.6086">
			<stop  offset="0" style="stop-color:#FF928E"/>
			<stop  offset="1" style="stop-color:#FE7062"/>
		</linearGradient>
		<path class="st27" d="M224,153.2c-0.2,0-0.4-0.1-0.6-0.2c-0.4-0.3-0.4-0.9-0.1-1.3c0.6-0.7,5.7-6.9,7.7-8.1c0.6-0.4,1-0.7,1.1-1
			c0,0,0-0.1,0-0.3l-5.7,1.1l-3.3,2.9c-0.4,0.3-0.9,0.3-1.3-0.1c-0.3-0.4-0.3-0.9,0.1-1.3l3.5-3c0.1-0.1,0.3-0.2,0.4-0.2l6.6-1.3
			c0.4-0.1,0.7,0.1,0.9,0.4c0.5,0.8,0.7,1.5,0.5,2.2c-0.2,0.8-0.8,1.6-2,2.2c-1.3,0.7-5.1,5.1-7.2,7.6
			C224.5,153.1,224.3,153.2,224,153.2z"/>
		
			<linearGradient id="SVGID_10_" gradientUnits="userSpaceOnUse" x1="-4334.7754" y1="26.5488" x2="-4328.3345" y2="-46.712" gradientTransform="matrix(1 0 0 1 4465.9375 0)">
			<stop  offset="0" style="stop-color:#FEBBBA"/>
			<stop  offset="1" style="stop-color:#FF928E"/>
		</linearGradient>
		<path class="st28" d="M111.3,266.6l23.8-0.5c0,0-20.8-5.9-22.1-4.3c0,0-12.9-8.5-19.9-20.4c-2.2,3.3-4.8,7.7-7,13.2
			C92.4,258.4,100.7,264.9,111.3,266.6z"/>
		
			<linearGradient id="SVGID_11_" gradientUnits="userSpaceOnUse" x1="-2378.9695" y1="27.7255" x2="-2372.5288" y2="-45.5352" gradientTransform="matrix(-1 0 0 1 -2274.2366 0)">
			<stop  offset="0" style="stop-color:#FEBBBA"/>
			<stop  offset="1" style="stop-color:#FF928E"/>
		</linearGradient>
		<path class="st29" d="M110.6,262.5c0,0-0.5,9.5,12,8.1c6.8-0.7,17.7-7.1,17.7-7.1S111.8,263.5,110.6,262.5z"/>
		<g>
			<path class="st30" d="M115.5,265.1c0,0,0.1,0,0.1,0l59.2-0.1c1.5,0,2.7-1.2,2.6-2.6c0-1.4-1.2-2.6-2.7-2.6l-59.2,0.1
				c-1.5,0-2.7,1.2-2.6,2.6C113,263.9,114.1,265,115.5,265.1z"/>
			<path class="st30" d="M228.1,211.8h-49.3c-3.6,0-7,2.1-8.5,5.3L147.5,265h61.3c2.3,0,4.5-1.4,5.3-3.6l17.7-44.3
				C232.8,214.6,230.9,211.8,228.1,211.8z"/>
			<path class="st9" d="M193.4,236.4c-1.1,3.3-0.3,6.5,1.8,7.1c2,0.7,4.6-1.5,5.6-4.8c1.1-3.3,0.3-6.5-1.8-7.1
				C197,231,194.4,233.1,193.4,236.4z"/>
		</g>
	</g>
</g>
</svg>
