<?xml version="1.0" encoding="utf-8"?>
<!-- Generator: Adobe Illustrator 25.0.0, SVG Export Plug-In . SVG Version: 6.00 Build 0)  -->
<svg version="1.1" id="Layer_1" xmlns="http://www.w3.org/2000/svg" xmlns:xlink="http://www.w3.org/1999/xlink" x="0px" y="0px"
	 viewBox="0 0 500 500" style="enable-background:new 0 0 500 500;" xml:space="preserve">
<style type="text/css">
	.st0{fill:#FFFFFF;}
	.st1{fill:#A2C7EB;}
	.st2{fill:none;stroke:#A2C7EB;stroke-miterlimit:10;}
	.st3{fill:#3FA4DC;}
	.st4{fill:#0097D8;}
	.st5{fill:none;stroke:#6F8BBF;stroke-linecap:round;stroke-miterlimit:10;}
	.st6{fill:#E59276;}
	.st7{fill:#1E1E1E;}
	.st8{fill:#F9A07B;}
	.st9{fill:#E06A58;}
	.st10{fill:#3095C1;}
	.st11{fill:#325F73;}
	.st12{fill:#0B2D50;}
	.st13{fill:#3C738C;}
	.st14{fill:none;stroke:#0B2D50;stroke-width:2;stroke-linecap:round;stroke-miterlimit:10;}
	.st15{fill:none;stroke:#CC454E;stroke-width:2;stroke-linecap:round;stroke-miterlimit:10;}
	.st16{fill:#262D40;}
	.st17{fill:#CC454E;}
	.st18{fill:#E8729B;}
	.st19{fill:none;stroke:#3A92C9;stroke-width:2;stroke-linecap:round;stroke-miterlimit:10;}
	.st20{fill:none;stroke:#CC454E;stroke-linecap:round;stroke-miterlimit:10;}
	.st21{fill:none;stroke:#327B9B;stroke-miterlimit:10;}
</style>
<g id="XMLID_163_">
	<g id="XMLID_329_">
		<path id="XMLID_110_" class="st0" d="M452.3,428.8c53.2-40.5,76.9-152.6-9.5-207.6c-57.2-36.4-92.8-15.6-157.1-39.7
			C207.1,152,195.4,63.2,99.9,106.9C49.2,130,14.2,195.3,8,269.4C1.9,342,27.7,391.9,80.3,425.9
			C203.8,431.2,327.5,430.2,452.3,428.8z"/>
		<path id="XMLID_109_" class="st0" d="M233.7,109.7c-8,32.3,21.8,64.2,53.2,77.5s67.5,11.7,101.2,5.4c14.5-2.7,29.5-6.6,40.8-15.8
			s17.8-25.4,11.6-38.4c-5.5-11.5-18.8-17.3-31.4-20.3c-12.7-3-26.1-4.2-37.4-10.6c-10.7-6-18.3-16-27.6-23.9
			c-17.2-14.6-41.4-21.8-63.7-17.2C257.9,71,240.5,82.3,233.7,109.7z"/>
	</g>
	<g id="XMLID_162_">
		<g id="XMLID_160_">
			<g id="XMLID_27_">
				<path id="XMLID_155_" class="st1" d="M474.4,258.1v-24.4h-9.3c-1.1-4.3-2.8-8.3-5-12l6.5-6.6l-17.3-17.3l-6.6,6.5
					c-3.7-2.2-7.7-3.9-12-5V190h-24.4v9.3c-4.3,1.1-8.3,2.8-12,5l-6.6-6.5l-17.3,17.3l6.5,6.6c-2.2,3.7-3.9,7.7-5,12H363v24.4h9.3
					c1.1,4.3,2.8,8.3,5,12l-6.5,6.6l17.3,17.3l6.6-6.5c3.7,2.2,7.7,3.9,12,5v9.3h24.4v-9.3c4.3-1.1,8.3-2.8,12-5l6.6,6.5l17.3-17.3
					l-6.5-6.6c2.2-3.7,3.9-7.7,5-12H474.4z M418.7,267c-11.7,0-21.2-9.5-21.2-21.2s9.5-21.1,21.2-21.1s21.1,9.5,21.1,21.1
					C439.8,257.6,430.4,267,418.7,267z"/>
				<path id="XMLID_66_" class="st2" d="M400.6,319.3l-4.6-12.1l-4.6,1.8c-1.4-1.9-3-3.6-4.8-5l2-4.5l-11.8-5.3l-2,4.5
					c-2.3-0.4-4.6-0.4-6.9-0.2l-1.8-4.6l-12.1,4.6l1.8,4.6c-1.9,1.4-3.6,3-5,4.8l-4.5-2l-5.3,11.8l4.5,2c-0.4,2.3-0.4,4.6-0.2,6.9
					l-4.6,1.8l4.6,12.1l4.6-1.8c1.4,1.9,3,3.6,4.8,5l-2,4.5l11.8,5.3l2-4.5c2.3,0.4,4.6,0.4,6.9,0.2l1.8,4.6l12.1-4.6l-1.8-4.6
					c1.9-1.4,3.6-3,5-4.8l4.5,2l5.3-11.8l-4.5-2c0.4-2.3,0.4-4.6,0.2-6.9L400.6,319.3z M374.7,334.3c-5.8,2.2-12.3-0.7-14.5-6.5
					s0.7-12.3,6.5-14.5s12.3,0.7,14.5,6.5C383.4,325.6,380.5,332.1,374.7,334.3z"/>
				<path id="XMLID_69_" class="st2" d="M361,276.8l-3.1-8.2l-3.1,1.2c-0.9-1.3-2-2.4-3.2-3.4l1.4-3l-8-3.6l-1.4,3
					c-1.5-0.3-3.1-0.3-4.7-0.1l-1.2-3.1l-8.2,3.1l1.2,3.1c-1.3,0.9-2.4,2-3.4,3.2l-3-1.4l-3.6,8l3,1.4c-0.3,1.5-0.3,3.1-0.1,4.7
					l-3.1,1.2l3.1,8.2l3.1-1.2c0.9,1.3,2,2.4,3.2,3.4l-1.4,3l8,3.6l1.4-3c1.5,0.3,3.1,0.3,4.7,0.1l1.2,3.1l8.2-3.1l-1.2-3.1
					c1.3-0.9,2.4-2,3.4-3.2l3,1.4l3.6-8l-3-1.4c0.3-1.5,0.3-3.1,0.1-4.7L361,276.8z M343.5,287c-3.9,1.5-8.3-0.5-9.8-4.4
					s0.5-8.3,4.4-9.8s8.3,0.5,9.8,4.4C349.3,281.1,347.4,285.5,343.5,287z"/>
			</g>
			<g id="XMLID_29_">
				<path id="XMLID_30_" class="st3" d="M358.1,133.6c0,12.3-5.7,23.2-14.7,30.3c-6.6,5.2-14.9,8.3-23.9,8.3s-17.3-3.1-23.9-8.3
					c-8.9-7.1-14.7-18-14.7-30.3c0-21.3,17.3-38.6,38.6-38.6C340.9,95,358.1,112.3,358.1,133.6z"/>
				<g id="XMLID_31_">
					
						<ellipse id="XMLID_32_" transform="matrix(0.9925 -0.1225 0.1225 0.9925 -12.4033 40.0616)" class="st0" cx="319.6" cy="120.9" rx="12.6" ry="12.6"/>
					<path id="XMLID_33_" class="st0" d="M343.5,159c-6.6,5.2-14.9,8.3-23.9,8.3s-17.3-3.1-23.9-8.3c2.5-10.9,4.7-20.2,7.1-22.6
						c3.3-3.3,12.2-5.3,16.8-5.3c4.6,0,13.9,2.4,15.6,4.1C338.6,138.7,341.7,148.3,343.5,159z"/>
				</g>
			</g>
			<g id="XMLID_34_">
				<g id="XMLID_35_">
					<path id="XMLID_36_" class="st4" d="M264.1,228.7v-19c0-5.2,4.2-9.4,9.4-9.4h60c5.2,0,9.4,4.2,9.4,9.4v19
						c0,5.2-4.2,9.4-9.4,9.4h-60C268.4,238.1,264.1,233.9,264.1,228.7z"/>
					<polyline id="XMLID_37_" class="st4" points="289.5,227.7 260.4,256 307.5,232.2 					"/>
				</g>
				<g id="XMLID_38_">
					<path id="XMLID_39_" class="st0" d="M271.4,209.1V209c0-0.8,0.6-1.4,1.4-1.4h29.7c0.8,0,1.4,0.6,1.4,1.4v0.1
						c0,0.8-0.6,1.4-1.4,1.4h-29.7C272,210.5,271.4,209.9,271.4,209.1z"/>
					<path id="XMLID_40_" class="st0" d="M305.2,209.1V209c0-0.8,0.6-1.4,1.4-1.4h25.9c0.8,0,1.4,0.6,1.4,1.4v0.1
						c0,0.8-0.6,1.4-1.4,1.4h-25.9C305.8,210.5,305.2,209.9,305.2,209.1z"/>
					<path id="XMLID_41_" class="st0" d="M293.9,215.5v-0.1c0-0.8,0.6-1.4,1.4-1.4h37.2c0.8,0,1.4,0.6,1.4,1.4v0.1
						c0,0.8-0.6,1.4-1.4,1.4h-37.2C294.5,216.9,293.9,216.3,293.9,215.5z"/>
					<path id="XMLID_42_" class="st0" d="M271.4,215.5v-0.1c0-0.8,0.6-1.4,1.4-1.4h16.6c0.8,0,1.4,0.6,1.4,1.4v0.1
						c0,0.8-0.6,1.4-1.4,1.4h-16.6C272,216.9,271.4,216.3,271.4,215.5z"/>
					<path id="XMLID_43_" class="st0" d="M299.1,221.9v-0.1c0-0.8,0.6-1.4,1.4-1.4h32c0.8,0,1.4,0.6,1.4,1.4v0.1
						c0,0.8-0.6,1.4-1.4,1.4h-32C299.7,223.3,299.1,222.7,299.1,221.9z"/>
					<path id="XMLID_44_" class="st0" d="M271.4,221.9v-0.1c0-0.8,0.6-1.4,1.4-1.4h22.1c0.8,0,1.4,0.6,1.4,1.4v0.1
						c0,0.8-0.6,1.4-1.4,1.4h-22.1C272,223.3,271.4,222.7,271.4,221.9z"/>
					<path id="XMLID_45_" class="st0" d="M271.4,228.3v-0.1c0-0.8,0.6-1.4,1.4-1.4h8.2c0.8,0,1.4,0.6,1.4,1.4v0.1
						c0,0.8-0.6,1.4-1.4,1.4h-8.2C272,229.7,271.4,229,271.4,228.3z"/>
					<path id="XMLID_46_" class="st0" d="M285.3,228.3v-0.1c0-0.8,0.6-1.4,1.4-1.4h45.8c0.8,0,1.4,0.6,1.4,1.4v0.1
						c0,0.8-0.6,1.4-1.4,1.4h-45.8C286,229.7,285.3,229,285.3,228.3z"/>
				</g>
			</g>
			<g id="XMLID_25_">
				<g id="XMLID_24_">
					<ellipse id="XMLID_28_" class="st3" cx="82.3" cy="186" rx="37.1" ry="37.1"/>
					<g id="XMLID_20_">
						<g id="XMLID_18_">
							<ellipse id="XMLID_1_" class="st0" cx="73.6" cy="204.3" rx="9" ry="9"/>
							<polygon id="XMLID_17_" class="st3" points="68.9,207.5 68.5,201.8 73.2,198.6 78.3,201 78.8,206.7 74,210 							"/>
						</g>
						<g id="XMLID_21_">
							<ellipse id="XMLID_23_" class="st0" cx="91.1" cy="167.8" rx="9" ry="9"/>
							<polygon id="XMLID_22_" class="st3" points="86.6,170.5 86.9,163.3 92.4,158.5 97.6,161 97.3,168.2 91.8,173 							"/>
						</g>
						<path id="XMLID_19_" class="st0" d="M79.8,200.1l-6.9-3.3l5.1-11.7c0.3-0.7,0.7-1.5,1.1-2.2l6-11.3l6.9,3.3l-5,11.5
							c-0.4,0.9-0.8,1.8-1.3,2.6L79.8,200.1z"/>
					</g>
				</g>
				<path id="XMLID_26_" class="st3" d="M108.1,206c1.3-0.6,22.6,0.4,22.6,0.4l-15.3-14.1L108.1,206z"/>
			</g>
			<g id="XMLID_159_">
				<g id="XMLID_74_">
					<g id="XMLID_157_">
						<ellipse id="XMLID_166_" class="st3" cx="168.6" cy="108.8" rx="36.5" ry="36.5"/>
					</g>
				</g>
				<g id="XMLID_158_">
					<rect id="XMLID_72_" x="167.4" y="77.7" class="st0" width="2.4" height="30.6"/>
					
						<rect id="XMLID_73_" x="139.7" y="117.1" transform="matrix(0.8222 -0.5691 0.5691 0.8222 -39.7249 109.3491)" class="st0" width="31" height="2.4"/>
					<path id="XMLID_156_" class="st0" d="M172,108.8c0,1.9-1.5,3.4-3.4,3.4s-3.4-1.5-3.4-3.4s1.5-3.4,3.4-3.4
						C170.5,105.5,172,107,172,108.8z"/>
				</g>
			</g>
		</g>
		<g id="XMLID_161_">
			<g id="XMLID_231_">
				<g id="XMLID_5_">
					<g id="XMLID_6_">
						<path id="XMLID_108_" class="st1" d="M267.6,355.8c-2.2-33.3,12.4-67.8,37-87.6C305.4,301.7,290.9,335.6,267.6,355.8z"/>
						<path id="XMLID_107_" class="st5" d="M300.6,277.2c-10.4,19.3-19.3,39.5-26.7,60.3c-9,25.3-16.2,52.2-31.6,73.4"/>
					</g>
					<g id="XMLID_7_">
						<path id="XMLID_106_" class="st1" d="M259.9,376.8C272.3,349,297,328,324.2,322C312.6,351.8,286.6,374.5,259.9,376.8z"/>
						<path id="XMLID_105_" class="st5" d="M317.5,328.1c-18.6,16.4-37.5,32.3-56.7,47.7"/>
					</g>
					<g id="XMLID_8_">
						<path id="XMLID_104_" class="st1" d="M252.5,401c16.6-24.8,47.3-37.8,72.6-30.7C306.5,394.8,275.8,407.8,252.5,401z"/>
						<path id="XMLID_103_" class="st5" d="M319.1,372.1c-21.8,13.6-45.3,23.7-69.5,29.7"/>
					</g>
					<g id="XMLID_9_">
						<path id="XMLID_102_" class="st1" d="M261.5,368.3c5.3-27.9-2.7-59.1-20.4-79.7C233.9,316.1,240.8,348.3,261.5,368.3z"/>
						<path id="XMLID_101_" class="st5" d="M243,295.7c3.5,26,9.7,50.3,19.3,74.1"/>
					</g>
					<g id="XMLID_10_">
						<path id="XMLID_100_" class="st1" d="M252.4,392.1c-2.3-28.7-17-55.7-38.5-70.6c1.2,15.2,5.3,29.9,11.7,43.2
							C233,380,243.8,389.8,252.4,392.1z"/>
						<path id="XMLID_99_" class="st5" d="M217.1,327.3c8.5,24,20.7,46.2,35.9,65.4"/>
					</g>
				</g>
				<g id="XMLID_11_">
					<g id="XMLID_12_">
						<path id="XMLID_98_" class="st1" d="M418.7,385.2c11.8-30.6,38.8-55.4,68.6-62.9C474.2,352.4,447.6,376.8,418.7,385.2z"/>
						<path id="XMLID_97_" class="st5" d="M480.1,328.6c-17.1,13-33.3,27.3-48.4,42.8c-18.4,18.8-35.7,39.9-58,52.4"/>
					</g>
					<g id="XMLID_13_">
						<path id="XMLID_96_" class="st1" d="M403.2,400.7c22.4-19.7,52.8-28.4,79.3-22.6C460.1,400,427.7,409.6,403.2,400.7z"/>
						<path id="XMLID_95_" class="st5" d="M474.1,380.9c-23.1,7-46.4,13.4-69.7,19.3"/>
					</g>
					<g id="XMLID_14_">
						<path id="XMLID_94_" class="st1" d="M386.8,419.3c24.9-15.3,57.3-14.4,76.8,2.3C437.1,435.9,404.6,434.9,386.8,419.3z"/>
						<path id="XMLID_93_" class="st5" d="M457.5,420.7c-24.8,3.2-49.7,2.6-73.6-1.9"/>
					</g>
					<g id="XMLID_15_">
						<path id="XMLID_92_" class="st1" d="M408.2,393.9c16.1-22.7,21.9-53.7,14.6-79.3C405.1,336.1,398,367.6,408.2,393.9z"/>
						<path id="XMLID_91_" class="st5" d="M421.5,321.7c-7.6,24.6-12,48.8-13.3,73.9"/>
					</g>
					<g id="XMLID_16_">
						<path id="XMLID_90_" class="st1" d="M390.3,411.4c9.8-26.5,7.8-56.6-5.1-78.6c-5.1,14.1-7.6,28.8-7.4,43.3
							C378.1,392.7,383.7,405.8,390.3,411.4z"/>
						<path id="XMLID_89_" class="st5" d="M385.7,339.2c-2.3,24.8-0.7,49.6,4.9,72.9"/>
					</g>
				</g>
				<g id="XMLID_112_">
					<path id="XMLID_88_" class="st1" d="M85.6,331.8c-12-36.6-45.4-66.3-84.3-74.7C17.6,288.8,47.3,314,85.6,331.8z"/>
					<path id="XMLID_87_" class="st1" d="M87.6,337.4c-26.2-14.8-59.1-18.1-87.6-8.7C26.4,341.9,57.8,345.6,87.6,337.4z"/>
					<path id="XMLID_86_" class="st1" d="M94.9,345.4c-28.4-3.9-58.1,3.1-81.1,19.1C39.9,374,71.2,367.8,94.9,345.4z"/>
					<path id="XMLID_85_" class="st1" d="M103.7,362.8C75.6,362.6,48,376,31.5,397.7c12.5,2.5,25.8,1,37.2-4.2
						C80.2,388.3,89.8,379.4,103.7,362.8z"/>
					<path id="XMLID_84_" class="st1" d="M123.5,391.8c-27.7-4.7-57.2,3.8-77.2,22.4c11.9,4.5,25.3,5.3,37.5,2
						C96,413.1,107,405.9,123.5,391.8z"/>
					<path id="XMLID_83_" class="st1" d="M93.6,333.5c-18.3-24.7-23.3-57.9-12.9-86.1c7.9,13.4,14.8,27.6,18,42.7
						C101.9,305.2,101.3,321.3,93.6,333.5z"/>
					<path id="XMLID_82_" class="st1" d="M104.8,357.3c-4.3-26.2,4.6-53.9,23.5-72.9C130.5,311.5,122.2,339.1,104.8,357.3z"/>
					<g id="XMLID_113_">
						<path id="XMLID_81_" class="st5" d="M9.8,263.7c55.7,35.6,99.2,88.7,122.2,149"/>
						<path id="XMLID_80_" class="st5" d="M82.5,260.4c6.8,27.5,10.9,55.6,12.3,83.7"/>
						<path id="XMLID_79_" class="st5" d="M124.2,295c-2.2,22.2-9.1,43.9-20,63.4"/>
						<path id="XMLID_78_" class="st5" d="M11.7,329.4c25.5,4.9,51.5,7.5,77.4,7.9"/>
						<path id="XMLID_77_" class="st5" d="M27.1,362.3c23.5-1.7,46.7-7.4,68.1-16.8"/>
						<path id="XMLID_76_" class="st5" d="M41.2,393.7c21.7-10.8,43.4-21.7,65.1-32.5"/>
						<path id="XMLID_75_" class="st5" d="M55.3,412.8c28.3-5.5,36.8-12,68.2-21"/>
					</g>
				</g>
			</g>
			<g id="XMLID_4_">
				<g id="XMLID_47_">
					<path id="XMLID_65_" class="st6" d="M234.8,360.9c0,0,2.5,22.5,5.2,24.3c4.9,3.2,61.7,10.7,61.7,10.7l-1.9,14.8
						c0,0-77.8,7-81.1,3.1c-5.7-6.7-15.8-39.3-15.8-39.3L234.8,360.9z"/>
					<path id="XMLID_64_" class="st3" d="M197.3,303l6.3-15.1c0,0,17.1,8,22.7,17.9c6,10.6,13.4,66.8,13.4,66.8s-30.1,6.9-35.6,4
						C198.4,373.7,197.3,303,197.3,303z"/>
				</g>
				<path id="XMLID_63_" class="st7" d="M149.4,233c-4.4-1.6-9.1-3-13.8-2.7s-9.5,2.9-11.1,7c-1.1,2.9-0.6,6.4-2.4,9
					c-1.7,2.5-5.2,3.6-8.4,3.8c-3.2,0.2-6.5-0.2-9.6,0.2c-9.9,1.3-16.9,12-13.7,20.8c1.3,3.5,3.9,6.8,3.3,10.5
					c-0.6,3.9-4.7,6.5-6.4,10.1c-2.2,4.8,0.4,10.7,4.8,13.9c4.4,3.3,10.1,4.5,15.7,5.3c7.7,1.1,15.6,1.7,23.1,0.1
					c7.6-1.6,14.8-5.6,18.7-11.8c1.7-2.8,2.8-5.9,4.8-8.5c4.2-5.3,11.6-7.4,17.4-11.2c6.4-4.2,11-12.2,7.3-18.6
					c-3.6-6.1-13-7.4-16.8-13.4c-1.6-2.5-1.9-5.4-2.9-8.1C158.4,236.7,155.9,235.4,149.4,233z"/>
				<g id="XMLID_48_">
					<path id="XMLID_62_" class="st8" d="M175.1,307.6c1.1,1.3,2.4,2.7,4.2,2.8c1.9,0.1,3.5-1.2,4.8-2.5c6.4-6.7,10.6-15,12.3-23.5
						c-1.6-0.9-3.1-1.8-4.5-2.6c-1.3-0.8-2.2-1.8-2.8-3.1c-0.4-0.9-0.5-1.9-0.4-2.9c0.9-8.4,1.7-13.1,4.6-21.7
						c-14-3.2-27.3-6.9-34.9-13.3c-0.9,3.9-2,11.6-4.4,19.2c-2.5,8.1-6.4,16-13,19.4C154,287.2,165.5,296.7,175.1,307.6z"/>
					<path id="XMLID_61_" class="st9" d="M188.6,275.8c-0.1,1,0,2,0.4,2.9c-8.3,10.1-26.9-3.1-35.1-18.7c2.3-7.6,3.4-15.3,4.4-19.2
						c7.6,6.4,20.9,10.1,34.9,13.3C190.3,262.7,189.5,267.4,188.6,275.8z"/>
				</g>
				<g id="XMLID_49_">
					<path id="XMLID_60_" class="st3" d="M211.8,397.7c-1.8,12.2,11.3,25.3,11.6,31.8c-27.9,0-86.3,1.7-116-2.3
						c-1.4-7.5,13.3-24.4,13.3-41.1c0-2.2-0.1-4.6-0.3-7.2c-0.5-7.4-1.6-16.3-2.8-25.4c-3.3-24.3-7.7-50.4-4.5-55.8
						c6.4-10.5,21.3-17.7,28.7-20.7c2.5-1.1,4.2-1.6,4.3-1.7c9.3,15.8,28.2,29.4,35.3,28.7c2-0.2,7.9-2.2,11.8-21.8
						c1.5,0.9,3,1.7,4.5,2.4c7.4,3.8,14.3,7,16.3,12c5.3,13,10.4,45.8,9.3,57.5c-1.2,11.8-5.9,20.7-9.2,32.6
						c-0.8,2.8-1.5,5.7-2.1,8.9C212,396.2,211.9,397,211.8,397.7z"/>
					<path id="XMLID_59_" class="st3" d="M223.4,429.5c-27.9,0-86.3,1.7-116-2.3c-1.4-7.5,13.3-24.4,13.3-41.1
						c0-2.2-0.1-4.6-0.3-7.2c-0.5-7.4-1.6-16.3-2.8-25.4c5.3,5.6,13-18,16.4-11.1c18.4,37.2,33,47,58.2,47c7.5,0,14.5-1,22-2.7
						c-0.8,2.8-1.5,5.7-2.1,8.9c-0.1,0.7-0.3,1.5-0.4,2.2C209.9,409.9,223.1,423,223.4,429.5z"/>
					<path id="XMLID_58_" class="st10" d="M197.8,284.7c-1.2,8.7-4.8,20.4-15.1,23.5c-14,4.2-34.2-21.9-40.8-31.2
						c2.5-1.1,4.2-1.6,4.3-1.7c9.3,15.8,28.2,29.4,35.3,28.7c2-0.2,7.9-2.2,11.8-21.8C194.8,283.1,196.3,283.9,197.8,284.7z"/>
				</g>
				<g id="XMLID_50_">
					<g id="XMLID_51_">
						<g id="XMLID_52_">
							<polygon id="XMLID_57_" class="st11" points="203.5,416.4 203.4,426.1 377.1,427.1 377.5,416.1 							"/>
						</g>
						<g id="XMLID_53_">
							<polygon id="XMLID_56_" class="st11" points="452.4,329.7 448.5,325.8 322,325 258.5,416.7 261.9,419.4 							"/>
							<polygon id="XMLID_55_" class="st12" points="324.4,328.4 261.9,419.4 381.4,420 452.4,329.7 							"/>
						</g>
					</g>
					<ellipse id="XMLID_54_" class="st13" cx="354.7" cy="379.5" rx="13.9" ry="7"/>
				</g>
				<g id="XMLID_114_">
					<path id="XMLID_117_" class="st12" d="M231.4,210c-1.3,9.2-5.4,19.4-11.4,30.6c-2.1-9.2-3.5-20.4-5.3-31.6
						c-1.9-11.2-4.3-22.4-8.5-31.6c-0.9-2-2-4-3.1-5.8c2.5-0.2,5,0,7.4,0.7c3.7,1,7.2,2.9,10.1,5.5c4.8,4.2,7.9,10,9.8,16.1
						C232,198.9,232.2,204.3,231.4,210z"/>
					<g id="XMLID_118_">
						<path id="XMLID_119_" class="st8" d="M224.4,219.5c-0.1,1.8-0.2,3.7-0.4,5.5c-2.6,29.8-15.1,50.2-34.2,50.2
							c-27,0-44.6-30.3-44.6-60c0-29.3,17.9-50.5,39-48.1c12.1,1.4,21,5.4,27.2,11.3c4.2,3.9,7.2,8.7,9.2,14
							c2.3,6,3.5,12.9,3.7,20.2c0,0,0,0,0,0.1C224.5,215,224.4,217.3,224.4,219.5z"/>
						<path id="XMLID_120_" class="st9" d="M224.4,219.5c-0.8-2.9-2-5.7-3.6-8.2c-15.9,8.3-34.9,11.6-53,8.5
							c-3.4,2.9-6.8,5.7-10.2,8.5c0.1-13.6,0.3-22.7,5.5-29.3c5-6.2,13.2-8.5,21.1-9.5c8.8-1.2,17.8-1.1,26.6,0.2
							c3.4,0.5,6.9,1.2,9.8,2.9c2.3,6,3.5,12.9,3.7,20.2c0,0,0,0,0,0.1C224.5,215,224.4,217.3,224.4,219.5z"/>
					</g>
					<path id="XMLID_121_" class="st7" d="M228.3,201.2c-3.7,3.1-8.4,5.7-13.6,7.8c-14.9,6-34.2,8-49.2,7.2
						c-7.4,16.2-10.4,22.1-12.3,36.2c-7.2-6.8-13.1-19.2-14.9-29c-1.7-9.7-1.6-19.9,1.2-29.5c4.3-15.1,15-23.1,22.5-27.1
						c1.9-1,3.5-1.7,4.8-2.2c9.5-3.7,20.3-3.3,30.1-0.4c5.3,1.7,9.8,4.5,13.6,7.9c7.6,6.9,12.3,16.2,15.4,23.2
						C226.8,197.7,227.6,199.6,228.3,201.2z"/>
					<path id="XMLID_122_" class="st7" d="M231.4,210c-0.6-3.3-1.5-6.4-2.8-9.5c-0.7-1.7-1.6-3.4-2.7-5c-3.4-5.3-8.3-9.7-14.3-11.7
						c-1.7-2.4-3.5-4.5-5.4-6.4c-6.8-6.9-14.7-10.8-23.2-12.2c-7-1.1-14.3-0.5-21,1.8c1.9-1,3.5-1.7,4.8-2.2
						c9.5-3.7,20.3-3.3,30.1-0.4c5.3,1.7,9.8,4.5,13.6,7.9c3.7,1,7.2,2.9,10.1,5.5c4.8,4.2,7.9,10,9.8,16.1
						C232,198.9,232.2,204.3,231.4,210z"/>
					<g id="XMLID_123_">
						<g id="XMLID_124_">
							<path id="XMLID_125_" class="st14" d="M174.1,228.3c5-2.9,10.2-4.1,17.5-1.5"/>
							<path id="XMLID_126_" class="st14" d="M208.3,228.1c4.3-3.2,10.6-3.5,13.9,0"/>
							<path id="XMLID_127_" class="st15" d="M203.1,244.4c0.4,2.3,0.2,7.3-0.9,9.5"/>
							<ellipse id="XMLID_128_" class="st16" cx="186.3" cy="242.6" rx="2.1" ry="3.2"/>
							<ellipse id="XMLID_129_" class="st16" cx="213.2" cy="241.1" rx="2.1" ry="3.2"/>
						</g>
						<g id="XMLID_130_">
							<path id="XMLID_131_" class="st17" d="M200.6,258.3c0,0-0.4,0.8-1.2,1.8c-1.2,1.6-3.3,3.9-6.1,4.7l0,0
								c-1.2,0.4-2.5,0.5-3.9,0.3c-4.2-0.8-5.3-4.6-5.5-7.6c0-0.6,0-1.1,0-1.6c0-1.2,0.2-2,0.2-2
								C190.7,257.6,200.6,258.3,200.6,258.3z"/>
							<path id="XMLID_132_" class="st0" d="M200.6,258.3c0,0-0.4,0.8-1.2,1.8c-3.4,0-10.4-1.8-15.6-4.2c0-1.2,0.2-2,0.2-2
								C190.7,257.6,200.6,258.3,200.6,258.3z"/>
							<path id="XMLID_133_" class="st18" d="M193.3,264.9c-1.2,0.4-2.5,0.5-3.9,0.3c-4.2-0.8-5.3-4.6-5.5-7.6c2,0.2,4,1,5.6,2.3
								C191.2,261.1,192.5,262.9,193.3,264.9z"/>
						</g>
					</g>
					<g id="XMLID_134_">
						<g id="XMLID_139_">
							<path id="XMLID_111_" class="st19" d="M188.3,271.2"/>
							<path id="XMLID_2_" class="st19" d="M159.3,256.2"/>
						</g>
					</g>
				</g>
				<g id="XMLID_142_">
					<g id="XMLID_143_">
						<g id="XMLID_144_">
							<g id="XMLID_145_">
								<path id="XMLID_146_" class="st8" d="M203.4,390.5l-0.7,17.9c0,0-64.8,19.4-75.5,13.3c-5.2-3-10.1-19.5-13.7-35.6
									c-3.8-16.9-6.3-33.4-6.3-33.4l38-7.4c0,0,0,23.2,1.3,36.5c0.5,5,1.1,8.6,2,9.2C151.9,393.1,203.4,390.5,203.4,390.5z"/>
							</g>
							<g id="XMLID_148_">
								<path id="XMLID_149_" class="st8" d="M201.6,390.6c9.6-2.1,25.9-7,32.7-8.7c4.8-1.2,17.3,5.3,20.6,11.4
									c1.4,2.7,2.8,17.8-2.2,16.2c-2.5-0.8-2.1-7.3-2.9-9.9c-0.6-2.2-2.7-4.2-5.8-6c2.1,5.2,2,9.7,1.8,15.2c0,1.2-0.1,2.5-0.7,3.6
									c-0.6,1.1-1.9,1.8-3,1.4c-1.1-0.5-1.5-1.9-1.8-3.1c-0.9-4.3-1.8-8.6-2.1-13.5c0.1,4.8,0,9.6-0.3,14.4c-0.2,3.7-2,5.7-4.3,5
									c-1-0.3-1.4-1.2-1.8-2.4c-0.7,2.3-2.4,4.9-4.5,3.9c-1.3-0.6-2.1-5.4-1.9-10.3c-4.2,2.6-8.9,3.7-14.3,3.9
									c-4.9,0.2-9.8-0.7-12.8-4C198.6,402.6,200.3,394.9,201.6,390.6z"/>
								<path id="XMLID_150_" class="st20" d="M231.9,413.4c0.3-3.9,0-7.8-1-11.6"/>
							</g>
						</g>
						<path id="XMLID_151_" class="st3" d="M141,307.6c-2.8-7.8-12.9-23.7-12.9-23.7s-15.4,6.4-20.9,17.3
							c-9.3,18.4-4.5,71.3-4.5,71.3c12.5,5.2,37.5,5.3,48.2,3.8C150.9,376.3,146.5,323.1,141,307.6z"/>
					</g>
					<path id="XMLID_152_" class="st21" d="M142.9,310.8c4.2,20.1,6.5,38.9,7.2,57.2"/>
				</g>
			</g>
			<rect id="XMLID_3_" x="30.9" y="423.9" class="st12" width="441.7" height="6.1"/>
		</g>
	</g>
</g>
</svg>
